G04 #@! TF.GenerationSoftware,KiCad,Pcbnew,(5.1.10)-1*
G04 #@! TF.CreationDate,2021-10-04T14:19:23-03:00*
G04 #@! TF.ProjectId,ESP-relay_6ch,4553502d-7265-46c6-9179-5f3663682e6b,rev?*
G04 #@! TF.SameCoordinates,Original*
G04 #@! TF.FileFunction,Soldermask,Bot*
G04 #@! TF.FilePolarity,Negative*
%FSLAX46Y46*%
G04 Gerber Fmt 4.6, Leading zero omitted, Abs format (unit mm)*
G04 Created by KiCad (PCBNEW (5.1.10)-1) date 2021-10-04 14:19:23*
%MOMM*%
%LPD*%
G01*
G04 APERTURE LIST*
%ADD10C,3.500000*%
%ADD11R,3.500000X3.500000*%
%ADD12C,2.600000*%
%ADD13R,2.600000X2.600000*%
%ADD14O,2.500000X1.750000*%
%ADD15R,2.500000X1.750000*%
%ADD16C,2.500000*%
%ADD17R,2.500000X1.800000*%
%ADD18O,2.500000X1.800000*%
%ADD19C,0.254000*%
%ADD20C,0.100000*%
G04 APERTURE END LIST*
D10*
G04 #@! TO.C,J2*
X114300000Y-123190000D03*
X109220000Y-123190000D03*
X104140000Y-123190000D03*
X99060000Y-123190000D03*
X93980000Y-123190000D03*
D11*
X88900000Y-123190000D03*
G04 #@! TD*
D12*
G04 #@! TO.C,K1*
X162440000Y-87630000D03*
D10*
X162440000Y-107630000D03*
X154940000Y-104130000D03*
D13*
X154940000Y-87630000D03*
G04 #@! TD*
D14*
G04 #@! TO.C,U3*
X144780000Y-67310000D03*
X144780000Y-69850000D03*
X144780000Y-72390000D03*
X144780000Y-74930000D03*
X144780000Y-77470000D03*
X144780000Y-80010000D03*
X144780000Y-82550000D03*
X144780000Y-85090000D03*
X121920000Y-85090000D03*
X121920000Y-82550000D03*
X121920000Y-80010000D03*
X121920000Y-77470000D03*
X121920000Y-74930000D03*
X121920000Y-72390000D03*
D15*
X121920000Y-67310000D03*
D14*
X121920000Y-69850000D03*
G04 #@! TD*
D16*
G04 #@! TO.C,RV1*
X162440000Y-114430000D03*
X154940000Y-113030000D03*
G04 #@! TD*
D11*
G04 #@! TO.C,J3*
X156210000Y-123190000D03*
D10*
X161290000Y-123190000D03*
G04 #@! TD*
D11*
G04 #@! TO.C,J1*
X72390000Y-123190000D03*
D10*
X77470000Y-123190000D03*
G04 #@! TD*
D14*
G04 #@! TO.C,U2*
X146050000Y-100330000D03*
X146050000Y-97790000D03*
X120650000Y-115570000D03*
X120650000Y-113030000D03*
X146050000Y-102870000D03*
X146050000Y-105410000D03*
X146050000Y-107950000D03*
X146050000Y-110490000D03*
X146050000Y-113030000D03*
X146050000Y-115570000D03*
X146050000Y-92710000D03*
X146050000Y-95250000D03*
X120650000Y-110490000D03*
X120650000Y-107950000D03*
X120650000Y-105410000D03*
X120650000Y-102870000D03*
X120650000Y-100330000D03*
X120650000Y-97790000D03*
D15*
X120650000Y-92710000D03*
D14*
X120650000Y-95250000D03*
G04 #@! TD*
D11*
G04 #@! TO.C,J4*
X170180000Y-123190000D03*
D10*
X175260000Y-123190000D03*
G04 #@! TD*
D11*
G04 #@! TO.C,J5*
X184150000Y-123190000D03*
D10*
X189230000Y-123190000D03*
G04 #@! TD*
D11*
G04 #@! TO.C,J6*
X198120000Y-123190000D03*
D10*
X203200000Y-123190000D03*
G04 #@! TD*
D11*
G04 #@! TO.C,J7*
X212090000Y-123190000D03*
D10*
X217170000Y-123190000D03*
G04 #@! TD*
D11*
G04 #@! TO.C,J8*
X226060000Y-123190000D03*
D10*
X231140000Y-123190000D03*
G04 #@! TD*
D12*
G04 #@! TO.C,K2*
X176410000Y-87630000D03*
D10*
X176410000Y-107630000D03*
X168910000Y-104130000D03*
D13*
X168910000Y-87630000D03*
G04 #@! TD*
D12*
G04 #@! TO.C,K3*
X190380000Y-87630000D03*
D10*
X190380000Y-107630000D03*
X182880000Y-104130000D03*
D13*
X182880000Y-87630000D03*
G04 #@! TD*
D12*
G04 #@! TO.C,K4*
X204350000Y-87630000D03*
D10*
X204350000Y-107630000D03*
X196850000Y-104130000D03*
D13*
X196850000Y-87630000D03*
G04 #@! TD*
D12*
G04 #@! TO.C,K5*
X218320000Y-87630000D03*
D10*
X218320000Y-107630000D03*
X210820000Y-104130000D03*
D13*
X210820000Y-87630000D03*
G04 #@! TD*
D12*
G04 #@! TO.C,K6*
X232290000Y-87630000D03*
D10*
X232290000Y-107630000D03*
X224790000Y-104130000D03*
D13*
X224790000Y-87630000D03*
G04 #@! TD*
D16*
G04 #@! TO.C,RV2*
X176410000Y-114430000D03*
X168910000Y-113030000D03*
G04 #@! TD*
G04 #@! TO.C,RV3*
X190380000Y-114430000D03*
X182880000Y-113030000D03*
G04 #@! TD*
G04 #@! TO.C,RV4*
X204350000Y-114430000D03*
X196850000Y-113030000D03*
G04 #@! TD*
G04 #@! TO.C,RV5*
X218320000Y-114430000D03*
X210820000Y-113030000D03*
G04 #@! TD*
G04 #@! TO.C,RV6*
X232290000Y-114430000D03*
X224790000Y-113030000D03*
G04 #@! TD*
D17*
G04 #@! TO.C,Q1*
X162560000Y-74930000D03*
D18*
X162560000Y-69850000D03*
X162560000Y-72390000D03*
G04 #@! TD*
G04 #@! TO.C,Q2*
X176530000Y-72390000D03*
X176530000Y-69850000D03*
D17*
X176530000Y-74930000D03*
G04 #@! TD*
D18*
G04 #@! TO.C,Q3*
X190500000Y-72390000D03*
X190500000Y-69850000D03*
D17*
X190500000Y-74930000D03*
G04 #@! TD*
G04 #@! TO.C,Q4*
X204470000Y-74930000D03*
D18*
X204470000Y-69850000D03*
X204470000Y-72390000D03*
G04 #@! TD*
G04 #@! TO.C,Q5*
X218440000Y-72390000D03*
X218440000Y-69850000D03*
D17*
X218440000Y-74930000D03*
G04 #@! TD*
G04 #@! TO.C,Q6*
X232410000Y-74930000D03*
D18*
X232410000Y-69850000D03*
X232410000Y-72390000D03*
G04 #@! TD*
D15*
G04 #@! TO.C,U4*
X105410000Y-72390000D03*
D14*
X113030000Y-80010000D03*
X105410000Y-74930000D03*
X113030000Y-77470000D03*
X105410000Y-77470000D03*
X113030000Y-74930000D03*
X105410000Y-80010000D03*
X113030000Y-72390000D03*
G04 #@! TD*
G04 #@! TO.C,U5*
X113030000Y-87630000D03*
X105410000Y-95250000D03*
X113030000Y-90170000D03*
X105410000Y-92710000D03*
X113030000Y-92710000D03*
X105410000Y-90170000D03*
X113030000Y-95250000D03*
D15*
X105410000Y-87630000D03*
G04 #@! TD*
G04 #@! TO.C,U6*
X105410000Y-102870000D03*
D14*
X113030000Y-110490000D03*
X105410000Y-105410000D03*
X113030000Y-107950000D03*
X105410000Y-107950000D03*
X113030000Y-105410000D03*
X105410000Y-110490000D03*
X113030000Y-102870000D03*
G04 #@! TD*
D19*
X156337000Y-121412000D02*
X156339440Y-121436776D01*
X156346667Y-121460601D01*
X156358403Y-121482557D01*
X156374197Y-121501803D01*
X157808394Y-122936000D01*
X155956000Y-124788394D01*
X153543000Y-122375394D01*
X153543000Y-104267000D01*
X156337000Y-104267000D01*
X156337000Y-121412000D01*
D20*
G36*
X156337000Y-121412000D02*
G01*
X156339440Y-121436776D01*
X156346667Y-121460601D01*
X156358403Y-121482557D01*
X156374197Y-121501803D01*
X157808394Y-122936000D01*
X155956000Y-124788394D01*
X153543000Y-122375394D01*
X153543000Y-104267000D01*
X156337000Y-104267000D01*
X156337000Y-121412000D01*
G37*
D19*
X170307000Y-121412000D02*
X170309440Y-121436776D01*
X170316667Y-121460601D01*
X170328403Y-121482557D01*
X170344197Y-121501803D01*
X171778394Y-122936000D01*
X169926000Y-124788394D01*
X167513000Y-122375394D01*
X167513000Y-104267000D01*
X170307000Y-104267000D01*
X170307000Y-121412000D01*
D20*
G36*
X170307000Y-121412000D02*
G01*
X170309440Y-121436776D01*
X170316667Y-121460601D01*
X170328403Y-121482557D01*
X170344197Y-121501803D01*
X171778394Y-122936000D01*
X169926000Y-124788394D01*
X167513000Y-122375394D01*
X167513000Y-104267000D01*
X170307000Y-104267000D01*
X170307000Y-121412000D01*
G37*
D19*
X184277000Y-121412000D02*
X184279440Y-121436776D01*
X184286667Y-121460601D01*
X184298403Y-121482557D01*
X184314197Y-121501803D01*
X185748394Y-122936000D01*
X183896000Y-124788394D01*
X181483000Y-122375394D01*
X181483000Y-104267000D01*
X184277000Y-104267000D01*
X184277000Y-121412000D01*
D20*
G36*
X184277000Y-121412000D02*
G01*
X184279440Y-121436776D01*
X184286667Y-121460601D01*
X184298403Y-121482557D01*
X184314197Y-121501803D01*
X185748394Y-122936000D01*
X183896000Y-124788394D01*
X181483000Y-122375394D01*
X181483000Y-104267000D01*
X184277000Y-104267000D01*
X184277000Y-121412000D01*
G37*
D19*
X198247000Y-121412000D02*
X198249440Y-121436776D01*
X198256667Y-121460601D01*
X198268403Y-121482557D01*
X198284197Y-121501803D01*
X199718394Y-122936000D01*
X197866000Y-124788394D01*
X195453000Y-122375394D01*
X195453000Y-104267000D01*
X198247000Y-104267000D01*
X198247000Y-121412000D01*
D20*
G36*
X198247000Y-121412000D02*
G01*
X198249440Y-121436776D01*
X198256667Y-121460601D01*
X198268403Y-121482557D01*
X198284197Y-121501803D01*
X199718394Y-122936000D01*
X197866000Y-124788394D01*
X195453000Y-122375394D01*
X195453000Y-104267000D01*
X198247000Y-104267000D01*
X198247000Y-121412000D01*
G37*
D19*
X212217000Y-121412000D02*
X212219440Y-121436776D01*
X212226667Y-121460601D01*
X212238403Y-121482557D01*
X212254197Y-121501803D01*
X213688394Y-122936000D01*
X211836000Y-124788394D01*
X209423000Y-122375394D01*
X209423000Y-104267000D01*
X212217000Y-104267000D01*
X212217000Y-121412000D01*
D20*
G36*
X212217000Y-121412000D02*
G01*
X212219440Y-121436776D01*
X212226667Y-121460601D01*
X212238403Y-121482557D01*
X212254197Y-121501803D01*
X213688394Y-122936000D01*
X211836000Y-124788394D01*
X209423000Y-122375394D01*
X209423000Y-104267000D01*
X212217000Y-104267000D01*
X212217000Y-121412000D01*
G37*
D19*
X226187000Y-121412000D02*
X226189440Y-121436776D01*
X226196667Y-121460601D01*
X226208403Y-121482557D01*
X226224197Y-121501803D01*
X227658394Y-122936000D01*
X225806000Y-124788394D01*
X223393000Y-122375394D01*
X223393000Y-104267000D01*
X226187000Y-104267000D01*
X226187000Y-121412000D01*
D20*
G36*
X226187000Y-121412000D02*
G01*
X226189440Y-121436776D01*
X226196667Y-121460601D01*
X226208403Y-121482557D01*
X226224197Y-121501803D01*
X227658394Y-122936000D01*
X225806000Y-124788394D01*
X223393000Y-122375394D01*
X223393000Y-104267000D01*
X226187000Y-104267000D01*
X226187000Y-121412000D01*
G37*
D19*
X163957000Y-122375394D02*
X161544000Y-124788394D01*
X159691606Y-122936000D01*
X161125803Y-121501803D01*
X161141597Y-121482557D01*
X161153333Y-121460601D01*
X161160560Y-121436776D01*
X161163000Y-121412000D01*
X161163000Y-107823000D01*
X163957000Y-107823000D01*
X163957000Y-122375394D01*
D20*
G36*
X163957000Y-122375394D02*
G01*
X161544000Y-124788394D01*
X159691606Y-122936000D01*
X161125803Y-121501803D01*
X161141597Y-121482557D01*
X161153333Y-121460601D01*
X161160560Y-121436776D01*
X161163000Y-121412000D01*
X161163000Y-107823000D01*
X163957000Y-107823000D01*
X163957000Y-122375394D01*
G37*
D19*
X177927000Y-122375394D02*
X175514000Y-124788394D01*
X173661606Y-122936000D01*
X175095803Y-121501803D01*
X175111597Y-121482557D01*
X175123333Y-121460601D01*
X175130560Y-121436776D01*
X175133000Y-121412000D01*
X175133000Y-107823000D01*
X177927000Y-107823000D01*
X177927000Y-122375394D01*
D20*
G36*
X177927000Y-122375394D02*
G01*
X175514000Y-124788394D01*
X173661606Y-122936000D01*
X175095803Y-121501803D01*
X175111597Y-121482557D01*
X175123333Y-121460601D01*
X175130560Y-121436776D01*
X175133000Y-121412000D01*
X175133000Y-107823000D01*
X177927000Y-107823000D01*
X177927000Y-122375394D01*
G37*
D19*
X191897000Y-122375394D02*
X189484000Y-124788394D01*
X187631606Y-122936000D01*
X189065803Y-121501803D01*
X189081597Y-121482557D01*
X189093333Y-121460601D01*
X189100560Y-121436776D01*
X189103000Y-121412000D01*
X189103000Y-107823000D01*
X191897000Y-107823000D01*
X191897000Y-122375394D01*
D20*
G36*
X191897000Y-122375394D02*
G01*
X189484000Y-124788394D01*
X187631606Y-122936000D01*
X189065803Y-121501803D01*
X189081597Y-121482557D01*
X189093333Y-121460601D01*
X189100560Y-121436776D01*
X189103000Y-121412000D01*
X189103000Y-107823000D01*
X191897000Y-107823000D01*
X191897000Y-122375394D01*
G37*
D19*
X205867000Y-122375394D02*
X203454000Y-124788394D01*
X201601606Y-122936000D01*
X203035803Y-121501803D01*
X203051597Y-121482557D01*
X203063333Y-121460601D01*
X203070560Y-121436776D01*
X203073000Y-121412000D01*
X203073000Y-107823000D01*
X205867000Y-107823000D01*
X205867000Y-122375394D01*
D20*
G36*
X205867000Y-122375394D02*
G01*
X203454000Y-124788394D01*
X201601606Y-122936000D01*
X203035803Y-121501803D01*
X203051597Y-121482557D01*
X203063333Y-121460601D01*
X203070560Y-121436776D01*
X203073000Y-121412000D01*
X203073000Y-107823000D01*
X205867000Y-107823000D01*
X205867000Y-122375394D01*
G37*
D19*
X219837000Y-122375394D02*
X217424000Y-124788394D01*
X215571606Y-122936000D01*
X217005803Y-121501803D01*
X217021597Y-121482557D01*
X217033333Y-121460601D01*
X217040560Y-121436776D01*
X217043000Y-121412000D01*
X217043000Y-107823000D01*
X219837000Y-107823000D01*
X219837000Y-122375394D01*
D20*
G36*
X219837000Y-122375394D02*
G01*
X217424000Y-124788394D01*
X215571606Y-122936000D01*
X217005803Y-121501803D01*
X217021597Y-121482557D01*
X217033333Y-121460601D01*
X217040560Y-121436776D01*
X217043000Y-121412000D01*
X217043000Y-107823000D01*
X219837000Y-107823000D01*
X219837000Y-122375394D01*
G37*
D19*
X233807000Y-122375394D02*
X231394000Y-124788394D01*
X229541606Y-122936000D01*
X230975803Y-121501803D01*
X230991597Y-121482557D01*
X231003333Y-121460601D01*
X231010560Y-121436776D01*
X231013000Y-121412000D01*
X231013000Y-107823000D01*
X233807000Y-107823000D01*
X233807000Y-122375394D01*
D20*
G36*
X233807000Y-122375394D02*
G01*
X231394000Y-124788394D01*
X229541606Y-122936000D01*
X230975803Y-121501803D01*
X230991597Y-121482557D01*
X231003333Y-121460601D01*
X231010560Y-121436776D01*
X231013000Y-121412000D01*
X231013000Y-107823000D01*
X233807000Y-107823000D01*
X233807000Y-122375394D01*
G37*
M02*
