%FSLAX45Y45*%
G04 Gerber Fmt 4.5, Leading zero omitted, Abs format (unit mm)*
G04 Created by KiCad (PCBNEW (5.1.10)-1) date 2021-10-04 14:19:28*
%MOMM*%
%LPD*%
G01*
G04 APERTURE LIST*
%TA.AperFunction,Profile*%
%ADD10C,0.100000*%
%TD*%
%ADD11C,0.200000*%
%ADD12C,0.300000*%
G04 APERTURE END LIST*
D10*
X23777000Y-13208000D02*
X23777000Y-6428000D01*
X23777000Y-6428000D02*
X6477000Y-6428000D01*
X6477000Y-13208000D02*
X23777000Y-13208000D01*
X6477000Y-6428000D02*
X6477000Y-13208000D01*
D11*
D12*
X6758428Y-13678714D02*
X6758428Y-13378714D01*
X6829857Y-13378714D01*
X6872714Y-13393000D01*
X6901286Y-13421571D01*
X6915571Y-13450143D01*
X6929857Y-13507286D01*
X6929857Y-13550143D01*
X6915571Y-13607286D01*
X6901286Y-13635857D01*
X6872714Y-13664429D01*
X6829857Y-13678714D01*
X6758428Y-13678714D01*
X7058428Y-13678714D02*
X7058428Y-13478714D01*
X7058428Y-13535857D02*
X7072714Y-13507286D01*
X7087000Y-13493000D01*
X7115571Y-13478714D01*
X7144143Y-13478714D01*
X7244143Y-13678714D02*
X7244143Y-13478714D01*
X7244143Y-13378714D02*
X7229857Y-13393000D01*
X7244143Y-13407286D01*
X7258428Y-13393000D01*
X7244143Y-13378714D01*
X7244143Y-13407286D01*
X7429857Y-13678714D02*
X7401286Y-13664429D01*
X7387000Y-13635857D01*
X7387000Y-13378714D01*
X7587000Y-13678714D02*
X7558428Y-13664429D01*
X7544143Y-13635857D01*
X7544143Y-13378714D01*
X7929857Y-13678714D02*
X7929857Y-13378714D01*
X8029857Y-13593000D01*
X8129857Y-13378714D01*
X8129857Y-13678714D01*
X8401286Y-13678714D02*
X8401286Y-13521571D01*
X8387000Y-13493000D01*
X8358428Y-13478714D01*
X8301286Y-13478714D01*
X8272714Y-13493000D01*
X8401286Y-13664429D02*
X8372714Y-13678714D01*
X8301286Y-13678714D01*
X8272714Y-13664429D01*
X8258428Y-13635857D01*
X8258428Y-13607286D01*
X8272714Y-13578714D01*
X8301286Y-13564429D01*
X8372714Y-13564429D01*
X8401286Y-13550143D01*
X8544143Y-13478714D02*
X8544143Y-13778714D01*
X8544143Y-13493000D02*
X8572714Y-13478714D01*
X8629857Y-13478714D01*
X8658428Y-13493000D01*
X8672714Y-13507286D01*
X8687000Y-13535857D01*
X8687000Y-13621571D01*
X8672714Y-13650143D01*
X8658428Y-13664429D01*
X8629857Y-13678714D01*
X8572714Y-13678714D01*
X8544143Y-13664429D01*
X8815571Y-13650143D02*
X8829857Y-13664429D01*
X8815571Y-13678714D01*
X8801286Y-13664429D01*
X8815571Y-13650143D01*
X8815571Y-13678714D01*
X8815571Y-13493000D02*
X8829857Y-13507286D01*
X8815571Y-13521571D01*
X8801286Y-13507286D01*
X8815571Y-13493000D01*
X8815571Y-13521571D01*
M02*
