%FSLAX45Y45*%
G04 Gerber Fmt 4.5, Leading zero omitted, Abs format (unit mm)*
G04 Created by KiCad (PCBNEW (5.1.10)-1) date 2021-10-04 14:19:28*
%MOMM*%
%LPD*%
G01*
G04 APERTURE LIST*
%TA.AperFunction,Profile*%
%ADD10C,0.100000*%
%TD*%
%ADD11C,0.200000*%
%ADD12C,0.300000*%
G04 APERTURE END LIST*
D10*
X23777000Y-13208000D02*
X23777000Y-6428000D01*
X23777000Y-6428000D02*
X6477000Y-6428000D01*
X6477000Y-13208000D02*
X23777000Y-13208000D01*
X6477000Y-6428000D02*
X6477000Y-13208000D01*
D11*
X6828000Y-7590000D02*
X6888000Y-7650000D01*
X6888000Y-7590000D02*
X6828000Y-7650000D01*
X7717000Y-9368000D02*
X7777000Y-9428000D01*
X7777000Y-9368000D02*
X7717000Y-9428000D01*
X8479000Y-8606000D02*
X8539000Y-8666000D01*
X8539000Y-8606000D02*
X8479000Y-8666000D01*
X8479000Y-8860000D02*
X8539000Y-8920000D01*
X8539000Y-8860000D02*
X8479000Y-8920000D01*
X8479000Y-9495000D02*
X8539000Y-9555000D01*
X8539000Y-9495000D02*
X8479000Y-9555000D01*
X8479000Y-9749000D02*
X8539000Y-9809000D01*
X8539000Y-9749000D02*
X8479000Y-9809000D01*
X8479000Y-10765000D02*
X8539000Y-10825000D01*
X8539000Y-10765000D02*
X8479000Y-10825000D01*
X8479000Y-11019000D02*
X8539000Y-11079000D01*
X8539000Y-11019000D02*
X8479000Y-11079000D01*
X9495000Y-7399500D02*
X9555000Y-7459500D01*
X9555000Y-7399500D02*
X9495000Y-7459500D01*
X9495000Y-8923500D02*
X9555000Y-8983500D01*
X9555000Y-8923500D02*
X9495000Y-8983500D01*
X9495000Y-10447500D02*
X9555000Y-10507500D01*
X9555000Y-10447500D02*
X9495000Y-10507500D01*
X11654000Y-8923500D02*
X11714000Y-8983500D01*
X11714000Y-8923500D02*
X11654000Y-8983500D01*
X11654000Y-9114000D02*
X11714000Y-9174000D01*
X11714000Y-9114000D02*
X11654000Y-9174000D01*
X11654000Y-10447500D02*
X11714000Y-10507500D01*
X11714000Y-10447500D02*
X11654000Y-10507500D01*
X11654000Y-10638000D02*
X11714000Y-10698000D01*
X11714000Y-10638000D02*
X11654000Y-10698000D01*
X12289000Y-8669500D02*
X12349000Y-8729500D01*
X12349000Y-8669500D02*
X12289000Y-8729500D01*
X12416000Y-8796500D02*
X12476000Y-8856500D01*
X12476000Y-8796500D02*
X12416000Y-8856500D01*
X12606500Y-8479000D02*
X12666500Y-8539000D01*
X12666500Y-8479000D02*
X12606500Y-8539000D01*
X12606500Y-9177500D02*
X12666500Y-9237500D01*
X12666500Y-9177500D02*
X12606500Y-9237500D01*
X12606500Y-11781000D02*
X12666500Y-11841000D01*
X12666500Y-11781000D02*
X12606500Y-11841000D01*
X12860500Y-8225000D02*
X12920500Y-8285000D01*
X12920500Y-8225000D02*
X12860500Y-8285000D01*
X12860500Y-9749000D02*
X12920500Y-9809000D01*
X12920500Y-9749000D02*
X12860500Y-9809000D01*
X13114500Y-8987000D02*
X13174500Y-9047000D01*
X13174500Y-8987000D02*
X13114500Y-9047000D01*
X13114500Y-12035000D02*
X13174500Y-12095000D01*
X13174500Y-12035000D02*
X13114500Y-12095000D01*
X13305000Y-7717000D02*
X13365000Y-7777000D01*
X13365000Y-7717000D02*
X13305000Y-7777000D01*
X13305000Y-9368000D02*
X13365000Y-9428000D01*
X13365000Y-9368000D02*
X13305000Y-9428000D01*
X13432000Y-7463000D02*
X13492000Y-7523000D01*
X13492000Y-7463000D02*
X13432000Y-7523000D01*
X13432000Y-9241000D02*
X13492000Y-9301000D01*
X13492000Y-9241000D02*
X13432000Y-9301000D01*
X13559000Y-6955000D02*
X13619000Y-7015000D01*
X13619000Y-6955000D02*
X13559000Y-7015000D01*
X13559000Y-9749000D02*
X13619000Y-9809000D01*
X13619000Y-9749000D02*
X13559000Y-9809000D01*
X13686000Y-7209000D02*
X13746000Y-7269000D01*
X13746000Y-7209000D02*
X13686000Y-7269000D01*
X13686000Y-10257000D02*
X13746000Y-10317000D01*
X13746000Y-10257000D02*
X13686000Y-10317000D01*
X13813000Y-7463000D02*
X13873000Y-7523000D01*
X13873000Y-7463000D02*
X13813000Y-7523000D01*
X13813000Y-10511000D02*
X13873000Y-10571000D01*
X13873000Y-10511000D02*
X13813000Y-10571000D01*
X13940000Y-7717000D02*
X14000000Y-7777000D01*
X14000000Y-7717000D02*
X13940000Y-7777000D01*
X13940000Y-10765000D02*
X14000000Y-10825000D01*
X14000000Y-10765000D02*
X13940000Y-10825000D01*
X14067000Y-7971000D02*
X14127000Y-8031000D01*
X14127000Y-7971000D02*
X14067000Y-8031000D01*
X14067000Y-10003000D02*
X14127000Y-10063000D01*
X14127000Y-10003000D02*
X14067000Y-10063000D01*
X14194000Y-7844000D02*
X14254000Y-7904000D01*
X14254000Y-7844000D02*
X14194000Y-7904000D01*
X14194000Y-11527000D02*
X14254000Y-11587000D01*
X14254000Y-11527000D02*
X14194000Y-11587000D01*
X14829000Y-6955000D02*
X14889000Y-7015000D01*
X14889000Y-6955000D02*
X14829000Y-7015000D01*
X14829000Y-8225000D02*
X14889000Y-8285000D01*
X14889000Y-8225000D02*
X14829000Y-8285000D01*
X15210000Y-7209000D02*
X15270000Y-7269000D01*
X15270000Y-7209000D02*
X15210000Y-7269000D01*
X16607000Y-7209000D02*
X16667000Y-7269000D01*
X16667000Y-7209000D02*
X16607000Y-7269000D01*
X18004000Y-7209000D02*
X18064000Y-7269000D01*
X18064000Y-7209000D02*
X18004000Y-7269000D01*
X19401000Y-7209000D02*
X19461000Y-7269000D01*
X19461000Y-7209000D02*
X19401000Y-7269000D01*
X20798000Y-7209000D02*
X20858000Y-7269000D01*
X20858000Y-7209000D02*
X20798000Y-7269000D01*
X22195000Y-7209000D02*
X22255000Y-7269000D01*
X22255000Y-7209000D02*
X22195000Y-7269000D01*
X10581000Y-7239000D02*
G75*
G03*
X10581000Y-7239000I-40000J0D01*
G01*
X10581000Y-7493000D02*
G75*
G03*
X10581000Y-7493000I-40000J0D01*
G01*
X10581000Y-7747000D02*
G75*
G03*
X10581000Y-7747000I-40000J0D01*
G01*
X10581000Y-8001000D02*
G75*
G03*
X10581000Y-8001000I-40000J0D01*
G01*
X10581000Y-8763000D02*
G75*
G03*
X10581000Y-8763000I-40000J0D01*
G01*
X10581000Y-9017000D02*
G75*
G03*
X10581000Y-9017000I-40000J0D01*
G01*
X10581000Y-9271000D02*
G75*
G03*
X10581000Y-9271000I-40000J0D01*
G01*
X10581000Y-9525000D02*
G75*
G03*
X10581000Y-9525000I-40000J0D01*
G01*
X10581000Y-10287000D02*
G75*
G03*
X10581000Y-10287000I-40000J0D01*
G01*
X10581000Y-10541000D02*
G75*
G03*
X10581000Y-10541000I-40000J0D01*
G01*
X10581000Y-10795000D02*
G75*
G03*
X10581000Y-10795000I-40000J0D01*
G01*
X10581000Y-11049000D02*
G75*
G03*
X10581000Y-11049000I-40000J0D01*
G01*
X11343000Y-7239000D02*
G75*
G03*
X11343000Y-7239000I-40000J0D01*
G01*
X11343000Y-7493000D02*
G75*
G03*
X11343000Y-7493000I-40000J0D01*
G01*
X11343000Y-7747000D02*
G75*
G03*
X11343000Y-7747000I-40000J0D01*
G01*
X11343000Y-8001000D02*
G75*
G03*
X11343000Y-8001000I-40000J0D01*
G01*
X11343000Y-8763000D02*
G75*
G03*
X11343000Y-8763000I-40000J0D01*
G01*
X11343000Y-9017000D02*
G75*
G03*
X11343000Y-9017000I-40000J0D01*
G01*
X11343000Y-9271000D02*
G75*
G03*
X11343000Y-9271000I-40000J0D01*
G01*
X11343000Y-9525000D02*
G75*
G03*
X11343000Y-9525000I-40000J0D01*
G01*
X11343000Y-10287000D02*
G75*
G03*
X11343000Y-10287000I-40000J0D01*
G01*
X11343000Y-10541000D02*
G75*
G03*
X11343000Y-10541000I-40000J0D01*
G01*
X11343000Y-10795000D02*
G75*
G03*
X11343000Y-10795000I-40000J0D01*
G01*
X11343000Y-11049000D02*
G75*
G03*
X11343000Y-11049000I-40000J0D01*
G01*
X15534000Y-11303000D02*
G75*
G03*
X15534000Y-11303000I-40000J0D01*
G01*
X16284000Y-11443000D02*
G75*
G03*
X16284000Y-11443000I-40000J0D01*
G01*
X16296000Y-6985000D02*
G75*
G03*
X16296000Y-6985000I-40000J0D01*
G01*
X16296000Y-7239000D02*
G75*
G03*
X16296000Y-7239000I-40000J0D01*
G01*
X16296000Y-7493000D02*
G75*
G03*
X16296000Y-7493000I-40000J0D01*
G01*
X16931000Y-11303000D02*
G75*
G03*
X16931000Y-11303000I-40000J0D01*
G01*
X17681000Y-11443000D02*
G75*
G03*
X17681000Y-11443000I-40000J0D01*
G01*
X17693000Y-6985000D02*
G75*
G03*
X17693000Y-6985000I-40000J0D01*
G01*
X17693000Y-7239000D02*
G75*
G03*
X17693000Y-7239000I-40000J0D01*
G01*
X17693000Y-7493000D02*
G75*
G03*
X17693000Y-7493000I-40000J0D01*
G01*
X18328000Y-11303000D02*
G75*
G03*
X18328000Y-11303000I-40000J0D01*
G01*
X19078000Y-11443000D02*
G75*
G03*
X19078000Y-11443000I-40000J0D01*
G01*
X19090000Y-6985000D02*
G75*
G03*
X19090000Y-6985000I-40000J0D01*
G01*
X19090000Y-7239000D02*
G75*
G03*
X19090000Y-7239000I-40000J0D01*
G01*
X19090000Y-7493000D02*
G75*
G03*
X19090000Y-7493000I-40000J0D01*
G01*
X19725000Y-11303000D02*
G75*
G03*
X19725000Y-11303000I-40000J0D01*
G01*
X20475000Y-11443000D02*
G75*
G03*
X20475000Y-11443000I-40000J0D01*
G01*
X20487000Y-6985000D02*
G75*
G03*
X20487000Y-6985000I-40000J0D01*
G01*
X20487000Y-7239000D02*
G75*
G03*
X20487000Y-7239000I-40000J0D01*
G01*
X20487000Y-7493000D02*
G75*
G03*
X20487000Y-7493000I-40000J0D01*
G01*
X21122000Y-11303000D02*
G75*
G03*
X21122000Y-11303000I-40000J0D01*
G01*
X21872000Y-11443000D02*
G75*
G03*
X21872000Y-11443000I-40000J0D01*
G01*
X21884000Y-6985000D02*
G75*
G03*
X21884000Y-6985000I-40000J0D01*
G01*
X21884000Y-7239000D02*
G75*
G03*
X21884000Y-7239000I-40000J0D01*
G01*
X21884000Y-7493000D02*
G75*
G03*
X21884000Y-7493000I-40000J0D01*
G01*
X22519000Y-11303000D02*
G75*
G03*
X22519000Y-11303000I-40000J0D01*
G01*
X23269000Y-11443000D02*
G75*
G03*
X23269000Y-11443000I-40000J0D01*
G01*
X23281000Y-6985000D02*
G75*
G03*
X23281000Y-6985000I-40000J0D01*
G01*
X23281000Y-7239000D02*
G75*
G03*
X23281000Y-7239000I-40000J0D01*
G01*
X23281000Y-7493000D02*
G75*
G03*
X23281000Y-7493000I-40000J0D01*
G01*
X12065000Y-9226000D02*
X12065000Y-9316000D01*
X12020000Y-9271000D02*
X12110000Y-9271000D01*
X12065000Y-9480000D02*
X12065000Y-9570000D01*
X12020000Y-9525000D02*
X12110000Y-9525000D01*
X12065000Y-9734000D02*
X12065000Y-9824000D01*
X12020000Y-9779000D02*
X12110000Y-9779000D01*
X12065000Y-9988000D02*
X12065000Y-10078000D01*
X12020000Y-10033000D02*
X12110000Y-10033000D01*
X12065000Y-10242000D02*
X12065000Y-10332000D01*
X12020000Y-10287000D02*
X12110000Y-10287000D01*
X12065000Y-10496000D02*
X12065000Y-10586000D01*
X12020000Y-10541000D02*
X12110000Y-10541000D01*
X12065000Y-10750000D02*
X12065000Y-10840000D01*
X12020000Y-10795000D02*
X12110000Y-10795000D01*
X12065000Y-11004000D02*
X12065000Y-11094000D01*
X12020000Y-11049000D02*
X12110000Y-11049000D01*
X12065000Y-11258000D02*
X12065000Y-11348000D01*
X12020000Y-11303000D02*
X12110000Y-11303000D01*
X12065000Y-11512000D02*
X12065000Y-11602000D01*
X12020000Y-11557000D02*
X12110000Y-11557000D01*
X12192000Y-6686000D02*
X12192000Y-6776000D01*
X12147000Y-6731000D02*
X12237000Y-6731000D01*
X12192000Y-6940000D02*
X12192000Y-7030000D01*
X12147000Y-6985000D02*
X12237000Y-6985000D01*
X12192000Y-7194000D02*
X12192000Y-7284000D01*
X12147000Y-7239000D02*
X12237000Y-7239000D01*
X12192000Y-7448000D02*
X12192000Y-7538000D01*
X12147000Y-7493000D02*
X12237000Y-7493000D01*
X12192000Y-7702000D02*
X12192000Y-7792000D01*
X12147000Y-7747000D02*
X12237000Y-7747000D01*
X12192000Y-7956000D02*
X12192000Y-8046000D01*
X12147000Y-8001000D02*
X12237000Y-8001000D01*
X12192000Y-8210000D02*
X12192000Y-8300000D01*
X12147000Y-8255000D02*
X12237000Y-8255000D01*
X12192000Y-8464000D02*
X12192000Y-8554000D01*
X12147000Y-8509000D02*
X12237000Y-8509000D01*
X14478000Y-6686000D02*
X14478000Y-6776000D01*
X14433000Y-6731000D02*
X14523000Y-6731000D01*
X14478000Y-6940000D02*
X14478000Y-7030000D01*
X14433000Y-6985000D02*
X14523000Y-6985000D01*
X14478000Y-7194000D02*
X14478000Y-7284000D01*
X14433000Y-7239000D02*
X14523000Y-7239000D01*
X14478000Y-7448000D02*
X14478000Y-7538000D01*
X14433000Y-7493000D02*
X14523000Y-7493000D01*
X14478000Y-7702000D02*
X14478000Y-7792000D01*
X14433000Y-7747000D02*
X14523000Y-7747000D01*
X14478000Y-7956000D02*
X14478000Y-8046000D01*
X14433000Y-8001000D02*
X14523000Y-8001000D01*
X14478000Y-8210000D02*
X14478000Y-8300000D01*
X14433000Y-8255000D02*
X14523000Y-8255000D01*
X14478000Y-8464000D02*
X14478000Y-8554000D01*
X14433000Y-8509000D02*
X14523000Y-8509000D01*
X14605000Y-9226000D02*
X14605000Y-9316000D01*
X14560000Y-9271000D02*
X14650000Y-9271000D01*
X14605000Y-9480000D02*
X14605000Y-9570000D01*
X14560000Y-9525000D02*
X14650000Y-9525000D01*
X14605000Y-9734000D02*
X14605000Y-9824000D01*
X14560000Y-9779000D02*
X14650000Y-9779000D01*
X14605000Y-9988000D02*
X14605000Y-10078000D01*
X14560000Y-10033000D02*
X14650000Y-10033000D01*
X14605000Y-10242000D02*
X14605000Y-10332000D01*
X14560000Y-10287000D02*
X14650000Y-10287000D01*
X14605000Y-10496000D02*
X14605000Y-10586000D01*
X14560000Y-10541000D02*
X14650000Y-10541000D01*
X14605000Y-10750000D02*
X14605000Y-10840000D01*
X14560000Y-10795000D02*
X14650000Y-10795000D01*
X14605000Y-11004000D02*
X14605000Y-11094000D01*
X14560000Y-11049000D02*
X14650000Y-11049000D01*
X14605000Y-11258000D02*
X14605000Y-11348000D01*
X14560000Y-11303000D02*
X14650000Y-11303000D01*
X14605000Y-11512000D02*
X14605000Y-11602000D01*
X14560000Y-11557000D02*
X14650000Y-11557000D01*
X15529356Y-8798356D02*
X15529356Y-8727644D01*
X15458644Y-8727644D01*
X15458644Y-8798356D01*
X15529356Y-8798356D01*
X16279356Y-8798356D02*
X16279356Y-8727644D01*
X16208644Y-8727644D01*
X16208644Y-8798356D01*
X16279356Y-8798356D01*
X16926356Y-8798356D02*
X16926356Y-8727644D01*
X16855644Y-8727644D01*
X16855644Y-8798356D01*
X16926356Y-8798356D01*
X17676356Y-8798356D02*
X17676356Y-8727644D01*
X17605644Y-8727644D01*
X17605644Y-8798356D01*
X17676356Y-8798356D01*
X18323356Y-8798356D02*
X18323356Y-8727644D01*
X18252644Y-8727644D01*
X18252644Y-8798356D01*
X18323356Y-8798356D01*
X19073356Y-8798356D02*
X19073356Y-8727644D01*
X19002644Y-8727644D01*
X19002644Y-8798356D01*
X19073356Y-8798356D01*
X19720356Y-8798356D02*
X19720356Y-8727644D01*
X19649644Y-8727644D01*
X19649644Y-8798356D01*
X19720356Y-8798356D01*
X20470356Y-8798356D02*
X20470356Y-8727644D01*
X20399644Y-8727644D01*
X20399644Y-8798356D01*
X20470356Y-8798356D01*
X21117356Y-8798356D02*
X21117356Y-8727644D01*
X21046644Y-8727644D01*
X21046644Y-8798356D01*
X21117356Y-8798356D01*
X21867356Y-8798356D02*
X21867356Y-8727644D01*
X21796644Y-8727644D01*
X21796644Y-8798356D01*
X21867356Y-8798356D01*
X22514356Y-8798356D02*
X22514356Y-8727644D01*
X22443644Y-8727644D01*
X22443644Y-8798356D01*
X22514356Y-8798356D01*
X23264356Y-8798356D02*
X23264356Y-8727644D01*
X23193644Y-8727644D01*
X23193644Y-8798356D01*
X23264356Y-8798356D01*
X7239000Y-12384000D02*
X7304000Y-12319000D01*
X7239000Y-12254000D01*
X7174000Y-12319000D01*
X7239000Y-12384000D01*
X7747000Y-12384000D02*
X7812000Y-12319000D01*
X7747000Y-12254000D01*
X7682000Y-12319000D01*
X7747000Y-12384000D01*
X8890000Y-12384000D02*
X8955000Y-12319000D01*
X8890000Y-12254000D01*
X8825000Y-12319000D01*
X8890000Y-12384000D01*
X9398000Y-12384000D02*
X9463000Y-12319000D01*
X9398000Y-12254000D01*
X9333000Y-12319000D01*
X9398000Y-12384000D01*
X9906000Y-12384000D02*
X9971000Y-12319000D01*
X9906000Y-12254000D01*
X9841000Y-12319000D01*
X9906000Y-12384000D01*
X10414000Y-12384000D02*
X10479000Y-12319000D01*
X10414000Y-12254000D01*
X10349000Y-12319000D01*
X10414000Y-12384000D01*
X10922000Y-12384000D02*
X10987000Y-12319000D01*
X10922000Y-12254000D01*
X10857000Y-12319000D01*
X10922000Y-12384000D01*
X11430000Y-12384000D02*
X11495000Y-12319000D01*
X11430000Y-12254000D01*
X11365000Y-12319000D01*
X11430000Y-12384000D01*
X15494000Y-10478000D02*
X15559000Y-10413000D01*
X15494000Y-10348000D01*
X15429000Y-10413000D01*
X15494000Y-10478000D01*
X15621000Y-12384000D02*
X15686000Y-12319000D01*
X15621000Y-12254000D01*
X15556000Y-12319000D01*
X15621000Y-12384000D01*
X16129000Y-12384000D02*
X16194000Y-12319000D01*
X16129000Y-12254000D01*
X16064000Y-12319000D01*
X16129000Y-12384000D01*
X16244000Y-10828000D02*
X16309000Y-10763000D01*
X16244000Y-10698000D01*
X16179000Y-10763000D01*
X16244000Y-10828000D01*
X16891000Y-10478000D02*
X16956000Y-10413000D01*
X16891000Y-10348000D01*
X16826000Y-10413000D01*
X16891000Y-10478000D01*
X17018000Y-12384000D02*
X17083000Y-12319000D01*
X17018000Y-12254000D01*
X16953000Y-12319000D01*
X17018000Y-12384000D01*
X17526000Y-12384000D02*
X17591000Y-12319000D01*
X17526000Y-12254000D01*
X17461000Y-12319000D01*
X17526000Y-12384000D01*
X17641000Y-10828000D02*
X17706000Y-10763000D01*
X17641000Y-10698000D01*
X17576000Y-10763000D01*
X17641000Y-10828000D01*
X18288000Y-10478000D02*
X18353000Y-10413000D01*
X18288000Y-10348000D01*
X18223000Y-10413000D01*
X18288000Y-10478000D01*
X18415000Y-12384000D02*
X18480000Y-12319000D01*
X18415000Y-12254000D01*
X18350000Y-12319000D01*
X18415000Y-12384000D01*
X18923000Y-12384000D02*
X18988000Y-12319000D01*
X18923000Y-12254000D01*
X18858000Y-12319000D01*
X18923000Y-12384000D01*
X19038000Y-10828000D02*
X19103000Y-10763000D01*
X19038000Y-10698000D01*
X18973000Y-10763000D01*
X19038000Y-10828000D01*
X19685000Y-10478000D02*
X19750000Y-10413000D01*
X19685000Y-10348000D01*
X19620000Y-10413000D01*
X19685000Y-10478000D01*
X19812000Y-12384000D02*
X19877000Y-12319000D01*
X19812000Y-12254000D01*
X19747000Y-12319000D01*
X19812000Y-12384000D01*
X20320000Y-12384000D02*
X20385000Y-12319000D01*
X20320000Y-12254000D01*
X20255000Y-12319000D01*
X20320000Y-12384000D01*
X20435000Y-10828000D02*
X20500000Y-10763000D01*
X20435000Y-10698000D01*
X20370000Y-10763000D01*
X20435000Y-10828000D01*
X21082000Y-10478000D02*
X21147000Y-10413000D01*
X21082000Y-10348000D01*
X21017000Y-10413000D01*
X21082000Y-10478000D01*
X21209000Y-12384000D02*
X21274000Y-12319000D01*
X21209000Y-12254000D01*
X21144000Y-12319000D01*
X21209000Y-12384000D01*
X21717000Y-12384000D02*
X21782000Y-12319000D01*
X21717000Y-12254000D01*
X21652000Y-12319000D01*
X21717000Y-12384000D01*
X21832000Y-10828000D02*
X21897000Y-10763000D01*
X21832000Y-10698000D01*
X21767000Y-10763000D01*
X21832000Y-10828000D01*
X22479000Y-10478000D02*
X22544000Y-10413000D01*
X22479000Y-10348000D01*
X22414000Y-10413000D01*
X22479000Y-10478000D01*
X22606000Y-12384000D02*
X22671000Y-12319000D01*
X22606000Y-12254000D01*
X22541000Y-12319000D01*
X22606000Y-12384000D01*
X23114000Y-12384000D02*
X23179000Y-12319000D01*
X23114000Y-12254000D01*
X23049000Y-12319000D01*
X23114000Y-12384000D01*
X23229000Y-10828000D02*
X23294000Y-10763000D01*
X23229000Y-10698000D01*
X23164000Y-10763000D01*
X23229000Y-10828000D01*
D12*
X6758428Y-13678714D02*
X6758428Y-13378714D01*
X6829857Y-13378714D01*
X6872714Y-13393000D01*
X6901286Y-13421571D01*
X6915571Y-13450143D01*
X6929857Y-13507286D01*
X6929857Y-13550143D01*
X6915571Y-13607286D01*
X6901286Y-13635857D01*
X6872714Y-13664429D01*
X6829857Y-13678714D01*
X6758428Y-13678714D01*
X7058428Y-13678714D02*
X7058428Y-13478714D01*
X7058428Y-13535857D02*
X7072714Y-13507286D01*
X7087000Y-13493000D01*
X7115571Y-13478714D01*
X7144143Y-13478714D01*
X7244143Y-13678714D02*
X7244143Y-13478714D01*
X7244143Y-13378714D02*
X7229857Y-13393000D01*
X7244143Y-13407286D01*
X7258428Y-13393000D01*
X7244143Y-13378714D01*
X7244143Y-13407286D01*
X7429857Y-13678714D02*
X7401286Y-13664429D01*
X7387000Y-13635857D01*
X7387000Y-13378714D01*
X7587000Y-13678714D02*
X7558428Y-13664429D01*
X7544143Y-13635857D01*
X7544143Y-13378714D01*
X7929857Y-13678714D02*
X7929857Y-13378714D01*
X8029857Y-13593000D01*
X8129857Y-13378714D01*
X8129857Y-13678714D01*
X8401286Y-13678714D02*
X8401286Y-13521571D01*
X8387000Y-13493000D01*
X8358428Y-13478714D01*
X8301286Y-13478714D01*
X8272714Y-13493000D01*
X8401286Y-13664429D02*
X8372714Y-13678714D01*
X8301286Y-13678714D01*
X8272714Y-13664429D01*
X8258428Y-13635857D01*
X8258428Y-13607286D01*
X8272714Y-13578714D01*
X8301286Y-13564429D01*
X8372714Y-13564429D01*
X8401286Y-13550143D01*
X8544143Y-13478714D02*
X8544143Y-13778714D01*
X8544143Y-13493000D02*
X8572714Y-13478714D01*
X8629857Y-13478714D01*
X8658428Y-13493000D01*
X8672714Y-13507286D01*
X8687000Y-13535857D01*
X8687000Y-13621571D01*
X8672714Y-13650143D01*
X8658428Y-13664429D01*
X8629857Y-13678714D01*
X8572714Y-13678714D01*
X8544143Y-13664429D01*
X8815571Y-13650143D02*
X8829857Y-13664429D01*
X8815571Y-13678714D01*
X8801286Y-13664429D01*
X8815571Y-13650143D01*
X8815571Y-13678714D01*
X8815571Y-13493000D02*
X8829857Y-13507286D01*
X8815571Y-13521571D01*
X8801286Y-13507286D01*
X8815571Y-13493000D01*
X8815571Y-13521571D01*
X6412000Y-14143000D02*
X6472000Y-14203000D01*
X6472000Y-14143000D02*
X6412000Y-14203000D01*
X6815571Y-14008714D02*
X6844143Y-14008714D01*
X6872714Y-14023000D01*
X6887000Y-14037286D01*
X6901286Y-14065857D01*
X6915571Y-14123000D01*
X6915571Y-14194429D01*
X6901286Y-14251571D01*
X6887000Y-14280143D01*
X6872714Y-14294429D01*
X6844143Y-14308714D01*
X6815571Y-14308714D01*
X6787000Y-14294429D01*
X6772714Y-14280143D01*
X6758428Y-14251571D01*
X6744143Y-14194429D01*
X6744143Y-14123000D01*
X6758428Y-14065857D01*
X6772714Y-14037286D01*
X6787000Y-14023000D01*
X6815571Y-14008714D01*
X7044143Y-14280143D02*
X7058428Y-14294429D01*
X7044143Y-14308714D01*
X7029857Y-14294429D01*
X7044143Y-14280143D01*
X7044143Y-14308714D01*
X7315571Y-14008714D02*
X7258428Y-14008714D01*
X7229857Y-14023000D01*
X7215571Y-14037286D01*
X7187000Y-14080143D01*
X7172714Y-14137286D01*
X7172714Y-14251571D01*
X7187000Y-14280143D01*
X7201286Y-14294429D01*
X7229857Y-14308714D01*
X7287000Y-14308714D01*
X7315571Y-14294429D01*
X7329857Y-14280143D01*
X7344143Y-14251571D01*
X7344143Y-14180143D01*
X7329857Y-14151571D01*
X7315571Y-14137286D01*
X7287000Y-14123000D01*
X7229857Y-14123000D01*
X7201286Y-14137286D01*
X7187000Y-14151571D01*
X7172714Y-14180143D01*
X7529857Y-14008714D02*
X7558428Y-14008714D01*
X7587000Y-14023000D01*
X7601286Y-14037286D01*
X7615571Y-14065857D01*
X7629857Y-14123000D01*
X7629857Y-14194429D01*
X7615571Y-14251571D01*
X7601286Y-14280143D01*
X7587000Y-14294429D01*
X7558428Y-14308714D01*
X7529857Y-14308714D01*
X7501286Y-14294429D01*
X7487000Y-14280143D01*
X7472714Y-14251571D01*
X7458428Y-14194429D01*
X7458428Y-14123000D01*
X7472714Y-14065857D01*
X7487000Y-14037286D01*
X7501286Y-14023000D01*
X7529857Y-14008714D01*
X7815571Y-14008714D02*
X7844143Y-14008714D01*
X7872714Y-14023000D01*
X7887000Y-14037286D01*
X7901286Y-14065857D01*
X7915571Y-14123000D01*
X7915571Y-14194429D01*
X7901286Y-14251571D01*
X7887000Y-14280143D01*
X7872714Y-14294429D01*
X7844143Y-14308714D01*
X7815571Y-14308714D01*
X7787000Y-14294429D01*
X7772714Y-14280143D01*
X7758428Y-14251571D01*
X7744143Y-14194429D01*
X7744143Y-14123000D01*
X7758428Y-14065857D01*
X7772714Y-14037286D01*
X7787000Y-14023000D01*
X7815571Y-14008714D01*
X8044143Y-14308714D02*
X8044143Y-14108714D01*
X8044143Y-14137286D02*
X8058428Y-14123000D01*
X8087000Y-14108714D01*
X8129857Y-14108714D01*
X8158428Y-14123000D01*
X8172714Y-14151571D01*
X8172714Y-14308714D01*
X8172714Y-14151571D02*
X8187000Y-14123000D01*
X8215571Y-14108714D01*
X8258428Y-14108714D01*
X8287000Y-14123000D01*
X8301286Y-14151571D01*
X8301286Y-14308714D01*
X8444143Y-14308714D02*
X8444143Y-14108714D01*
X8444143Y-14137286D02*
X8458428Y-14123000D01*
X8487000Y-14108714D01*
X8529857Y-14108714D01*
X8558428Y-14123000D01*
X8572714Y-14151571D01*
X8572714Y-14308714D01*
X8572714Y-14151571D02*
X8587000Y-14123000D01*
X8615571Y-14108714D01*
X8658428Y-14108714D01*
X8687000Y-14123000D01*
X8701286Y-14151571D01*
X8701286Y-14308714D01*
X9287000Y-13994429D02*
X9029857Y-14380143D01*
X9672714Y-14008714D02*
X9701286Y-14008714D01*
X9729857Y-14023000D01*
X9744143Y-14037286D01*
X9758428Y-14065857D01*
X9772714Y-14123000D01*
X9772714Y-14194429D01*
X9758428Y-14251571D01*
X9744143Y-14280143D01*
X9729857Y-14294429D01*
X9701286Y-14308714D01*
X9672714Y-14308714D01*
X9644143Y-14294429D01*
X9629857Y-14280143D01*
X9615571Y-14251571D01*
X9601286Y-14194429D01*
X9601286Y-14123000D01*
X9615571Y-14065857D01*
X9629857Y-14037286D01*
X9644143Y-14023000D01*
X9672714Y-14008714D01*
X9901286Y-14280143D02*
X9915571Y-14294429D01*
X9901286Y-14308714D01*
X9887000Y-14294429D01*
X9901286Y-14280143D01*
X9901286Y-14308714D01*
X10101286Y-14008714D02*
X10129857Y-14008714D01*
X10158428Y-14023000D01*
X10172714Y-14037286D01*
X10187000Y-14065857D01*
X10201286Y-14123000D01*
X10201286Y-14194429D01*
X10187000Y-14251571D01*
X10172714Y-14280143D01*
X10158428Y-14294429D01*
X10129857Y-14308714D01*
X10101286Y-14308714D01*
X10072714Y-14294429D01*
X10058428Y-14280143D01*
X10044143Y-14251571D01*
X10029857Y-14194429D01*
X10029857Y-14123000D01*
X10044143Y-14065857D01*
X10058428Y-14037286D01*
X10072714Y-14023000D01*
X10101286Y-14008714D01*
X10315571Y-14037286D02*
X10329857Y-14023000D01*
X10358428Y-14008714D01*
X10429857Y-14008714D01*
X10458428Y-14023000D01*
X10472714Y-14037286D01*
X10487000Y-14065857D01*
X10487000Y-14094429D01*
X10472714Y-14137286D01*
X10301286Y-14308714D01*
X10487000Y-14308714D01*
X10587000Y-14008714D02*
X10772714Y-14008714D01*
X10672714Y-14123000D01*
X10715571Y-14123000D01*
X10744143Y-14137286D01*
X10758428Y-14151571D01*
X10772714Y-14180143D01*
X10772714Y-14251571D01*
X10758428Y-14280143D01*
X10744143Y-14294429D01*
X10715571Y-14308714D01*
X10629857Y-14308714D01*
X10601286Y-14294429D01*
X10587000Y-14280143D01*
X11029857Y-14008714D02*
X10972714Y-14008714D01*
X10944143Y-14023000D01*
X10929857Y-14037286D01*
X10901286Y-14080143D01*
X10887000Y-14137286D01*
X10887000Y-14251571D01*
X10901286Y-14280143D01*
X10915571Y-14294429D01*
X10944143Y-14308714D01*
X11001286Y-14308714D01*
X11029857Y-14294429D01*
X11044143Y-14280143D01*
X11058428Y-14251571D01*
X11058428Y-14180143D01*
X11044143Y-14151571D01*
X11029857Y-14137286D01*
X11001286Y-14123000D01*
X10944143Y-14123000D01*
X10915571Y-14137286D01*
X10901286Y-14151571D01*
X10887000Y-14180143D01*
X11172714Y-14008714D02*
X11172714Y-14065857D01*
X11287000Y-14008714D02*
X11287000Y-14065857D01*
X11729857Y-14423000D02*
X11715571Y-14408714D01*
X11687000Y-14365857D01*
X11672714Y-14337286D01*
X11658428Y-14294429D01*
X11644143Y-14223000D01*
X11644143Y-14165857D01*
X11658428Y-14094429D01*
X11672714Y-14051571D01*
X11687000Y-14023000D01*
X11715571Y-13980143D01*
X11729857Y-13965857D01*
X11972714Y-14108714D02*
X11972714Y-14308714D01*
X11901286Y-13994429D02*
X11829857Y-14208714D01*
X12015571Y-14208714D01*
X12172714Y-14137286D02*
X12144143Y-14123000D01*
X12129857Y-14108714D01*
X12115571Y-14080143D01*
X12115571Y-14065857D01*
X12129857Y-14037286D01*
X12144143Y-14023000D01*
X12172714Y-14008714D01*
X12229857Y-14008714D01*
X12258428Y-14023000D01*
X12272714Y-14037286D01*
X12287000Y-14065857D01*
X12287000Y-14080143D01*
X12272714Y-14108714D01*
X12258428Y-14123000D01*
X12229857Y-14137286D01*
X12172714Y-14137286D01*
X12144143Y-14151571D01*
X12129857Y-14165857D01*
X12115571Y-14194429D01*
X12115571Y-14251571D01*
X12129857Y-14280143D01*
X12144143Y-14294429D01*
X12172714Y-14308714D01*
X12229857Y-14308714D01*
X12258428Y-14294429D01*
X12272714Y-14280143D01*
X12287000Y-14251571D01*
X12287000Y-14194429D01*
X12272714Y-14165857D01*
X12258428Y-14151571D01*
X12229857Y-14137286D01*
X12644143Y-14308714D02*
X12644143Y-14008714D01*
X12772714Y-14308714D02*
X12772714Y-14151571D01*
X12758428Y-14123000D01*
X12729857Y-14108714D01*
X12687000Y-14108714D01*
X12658428Y-14123000D01*
X12644143Y-14137286D01*
X12958428Y-14308714D02*
X12929857Y-14294429D01*
X12915571Y-14280143D01*
X12901286Y-14251571D01*
X12901286Y-14165857D01*
X12915571Y-14137286D01*
X12929857Y-14123000D01*
X12958428Y-14108714D01*
X13001286Y-14108714D01*
X13029857Y-14123000D01*
X13044143Y-14137286D01*
X13058428Y-14165857D01*
X13058428Y-14251571D01*
X13044143Y-14280143D01*
X13029857Y-14294429D01*
X13001286Y-14308714D01*
X12958428Y-14308714D01*
X13229857Y-14308714D02*
X13201286Y-14294429D01*
X13187000Y-14265857D01*
X13187000Y-14008714D01*
X13458428Y-14294429D02*
X13429857Y-14308714D01*
X13372714Y-14308714D01*
X13344143Y-14294429D01*
X13329857Y-14265857D01*
X13329857Y-14151571D01*
X13344143Y-14123000D01*
X13372714Y-14108714D01*
X13429857Y-14108714D01*
X13458428Y-14123000D01*
X13472714Y-14151571D01*
X13472714Y-14180143D01*
X13329857Y-14208714D01*
X13587000Y-14294429D02*
X13615571Y-14308714D01*
X13672714Y-14308714D01*
X13701286Y-14294429D01*
X13715571Y-14265857D01*
X13715571Y-14251571D01*
X13701286Y-14223000D01*
X13672714Y-14208714D01*
X13629857Y-14208714D01*
X13601286Y-14194429D01*
X13587000Y-14165857D01*
X13587000Y-14151571D01*
X13601286Y-14123000D01*
X13629857Y-14108714D01*
X13672714Y-14108714D01*
X13701286Y-14123000D01*
X13815571Y-14423000D02*
X13829857Y-14408714D01*
X13858428Y-14365857D01*
X13872714Y-14337286D01*
X13887000Y-14294429D01*
X13901286Y-14223000D01*
X13901286Y-14165857D01*
X13887000Y-14094429D01*
X13872714Y-14051571D01*
X13858428Y-14023000D01*
X13829857Y-13980143D01*
X13815571Y-13965857D01*
X6472000Y-14569000D02*
G75*
G03*
X6472000Y-14569000I-40000J0D01*
G01*
X6815571Y-14404714D02*
X6844143Y-14404714D01*
X6872714Y-14419000D01*
X6887000Y-14433286D01*
X6901286Y-14461857D01*
X6915571Y-14519000D01*
X6915571Y-14590429D01*
X6901286Y-14647571D01*
X6887000Y-14676143D01*
X6872714Y-14690429D01*
X6844143Y-14704714D01*
X6815571Y-14704714D01*
X6787000Y-14690429D01*
X6772714Y-14676143D01*
X6758428Y-14647571D01*
X6744143Y-14590429D01*
X6744143Y-14519000D01*
X6758428Y-14461857D01*
X6772714Y-14433286D01*
X6787000Y-14419000D01*
X6815571Y-14404714D01*
X7044143Y-14676143D02*
X7058428Y-14690429D01*
X7044143Y-14704714D01*
X7029857Y-14690429D01*
X7044143Y-14676143D01*
X7044143Y-14704714D01*
X7229857Y-14533286D02*
X7201286Y-14519000D01*
X7187000Y-14504714D01*
X7172714Y-14476143D01*
X7172714Y-14461857D01*
X7187000Y-14433286D01*
X7201286Y-14419000D01*
X7229857Y-14404714D01*
X7287000Y-14404714D01*
X7315571Y-14419000D01*
X7329857Y-14433286D01*
X7344143Y-14461857D01*
X7344143Y-14476143D01*
X7329857Y-14504714D01*
X7315571Y-14519000D01*
X7287000Y-14533286D01*
X7229857Y-14533286D01*
X7201286Y-14547571D01*
X7187000Y-14561857D01*
X7172714Y-14590429D01*
X7172714Y-14647571D01*
X7187000Y-14676143D01*
X7201286Y-14690429D01*
X7229857Y-14704714D01*
X7287000Y-14704714D01*
X7315571Y-14690429D01*
X7329857Y-14676143D01*
X7344143Y-14647571D01*
X7344143Y-14590429D01*
X7329857Y-14561857D01*
X7315571Y-14547571D01*
X7287000Y-14533286D01*
X7529857Y-14404714D02*
X7558428Y-14404714D01*
X7587000Y-14419000D01*
X7601286Y-14433286D01*
X7615571Y-14461857D01*
X7629857Y-14519000D01*
X7629857Y-14590429D01*
X7615571Y-14647571D01*
X7601286Y-14676143D01*
X7587000Y-14690429D01*
X7558428Y-14704714D01*
X7529857Y-14704714D01*
X7501286Y-14690429D01*
X7487000Y-14676143D01*
X7472714Y-14647571D01*
X7458428Y-14590429D01*
X7458428Y-14519000D01*
X7472714Y-14461857D01*
X7487000Y-14433286D01*
X7501286Y-14419000D01*
X7529857Y-14404714D01*
X7815571Y-14404714D02*
X7844143Y-14404714D01*
X7872714Y-14419000D01*
X7887000Y-14433286D01*
X7901286Y-14461857D01*
X7915571Y-14519000D01*
X7915571Y-14590429D01*
X7901286Y-14647571D01*
X7887000Y-14676143D01*
X7872714Y-14690429D01*
X7844143Y-14704714D01*
X7815571Y-14704714D01*
X7787000Y-14690429D01*
X7772714Y-14676143D01*
X7758428Y-14647571D01*
X7744143Y-14590429D01*
X7744143Y-14519000D01*
X7758428Y-14461857D01*
X7772714Y-14433286D01*
X7787000Y-14419000D01*
X7815571Y-14404714D01*
X8044143Y-14704714D02*
X8044143Y-14504714D01*
X8044143Y-14533286D02*
X8058428Y-14519000D01*
X8087000Y-14504714D01*
X8129857Y-14504714D01*
X8158428Y-14519000D01*
X8172714Y-14547571D01*
X8172714Y-14704714D01*
X8172714Y-14547571D02*
X8187000Y-14519000D01*
X8215571Y-14504714D01*
X8258428Y-14504714D01*
X8287000Y-14519000D01*
X8301286Y-14547571D01*
X8301286Y-14704714D01*
X8444143Y-14704714D02*
X8444143Y-14504714D01*
X8444143Y-14533286D02*
X8458428Y-14519000D01*
X8487000Y-14504714D01*
X8529857Y-14504714D01*
X8558428Y-14519000D01*
X8572714Y-14547571D01*
X8572714Y-14704714D01*
X8572714Y-14547571D02*
X8587000Y-14519000D01*
X8615571Y-14504714D01*
X8658428Y-14504714D01*
X8687000Y-14519000D01*
X8701286Y-14547571D01*
X8701286Y-14704714D01*
X9287000Y-14390429D02*
X9029857Y-14776143D01*
X9672714Y-14404714D02*
X9701286Y-14404714D01*
X9729857Y-14419000D01*
X9744143Y-14433286D01*
X9758428Y-14461857D01*
X9772714Y-14519000D01*
X9772714Y-14590429D01*
X9758428Y-14647571D01*
X9744143Y-14676143D01*
X9729857Y-14690429D01*
X9701286Y-14704714D01*
X9672714Y-14704714D01*
X9644143Y-14690429D01*
X9629857Y-14676143D01*
X9615571Y-14647571D01*
X9601286Y-14590429D01*
X9601286Y-14519000D01*
X9615571Y-14461857D01*
X9629857Y-14433286D01*
X9644143Y-14419000D01*
X9672714Y-14404714D01*
X9901286Y-14676143D02*
X9915571Y-14690429D01*
X9901286Y-14704714D01*
X9887000Y-14690429D01*
X9901286Y-14676143D01*
X9901286Y-14704714D01*
X10101286Y-14404714D02*
X10129857Y-14404714D01*
X10158428Y-14419000D01*
X10172714Y-14433286D01*
X10187000Y-14461857D01*
X10201286Y-14519000D01*
X10201286Y-14590429D01*
X10187000Y-14647571D01*
X10172714Y-14676143D01*
X10158428Y-14690429D01*
X10129857Y-14704714D01*
X10101286Y-14704714D01*
X10072714Y-14690429D01*
X10058428Y-14676143D01*
X10044143Y-14647571D01*
X10029857Y-14590429D01*
X10029857Y-14519000D01*
X10044143Y-14461857D01*
X10058428Y-14433286D01*
X10072714Y-14419000D01*
X10101286Y-14404714D01*
X10301286Y-14404714D02*
X10487000Y-14404714D01*
X10387000Y-14519000D01*
X10429857Y-14519000D01*
X10458428Y-14533286D01*
X10472714Y-14547571D01*
X10487000Y-14576143D01*
X10487000Y-14647571D01*
X10472714Y-14676143D01*
X10458428Y-14690429D01*
X10429857Y-14704714D01*
X10344143Y-14704714D01*
X10315571Y-14690429D01*
X10301286Y-14676143D01*
X10772714Y-14704714D02*
X10601286Y-14704714D01*
X10687000Y-14704714D02*
X10687000Y-14404714D01*
X10658428Y-14447571D01*
X10629857Y-14476143D01*
X10601286Y-14490429D01*
X11044143Y-14404714D02*
X10901286Y-14404714D01*
X10887000Y-14547571D01*
X10901286Y-14533286D01*
X10929857Y-14519000D01*
X11001286Y-14519000D01*
X11029857Y-14533286D01*
X11044143Y-14547571D01*
X11058428Y-14576143D01*
X11058428Y-14647571D01*
X11044143Y-14676143D01*
X11029857Y-14690429D01*
X11001286Y-14704714D01*
X10929857Y-14704714D01*
X10901286Y-14690429D01*
X10887000Y-14676143D01*
X11172714Y-14404714D02*
X11172714Y-14461857D01*
X11287000Y-14404714D02*
X11287000Y-14461857D01*
X11729857Y-14819000D02*
X11715571Y-14804714D01*
X11687000Y-14761857D01*
X11672714Y-14733286D01*
X11658428Y-14690429D01*
X11644143Y-14619000D01*
X11644143Y-14561857D01*
X11658428Y-14490429D01*
X11672714Y-14447571D01*
X11687000Y-14419000D01*
X11715571Y-14376143D01*
X11729857Y-14361857D01*
X11987000Y-14404714D02*
X11844143Y-14404714D01*
X11829857Y-14547571D01*
X11844143Y-14533286D01*
X11872714Y-14519000D01*
X11944143Y-14519000D01*
X11972714Y-14533286D01*
X11987000Y-14547571D01*
X12001286Y-14576143D01*
X12001286Y-14647571D01*
X11987000Y-14676143D01*
X11972714Y-14690429D01*
X11944143Y-14704714D01*
X11872714Y-14704714D01*
X11844143Y-14690429D01*
X11829857Y-14676143D01*
X12258428Y-14504714D02*
X12258428Y-14704714D01*
X12187000Y-14390429D02*
X12115571Y-14604714D01*
X12301286Y-14604714D01*
X12644143Y-14704714D02*
X12644143Y-14404714D01*
X12772714Y-14704714D02*
X12772714Y-14547571D01*
X12758428Y-14519000D01*
X12729857Y-14504714D01*
X12687000Y-14504714D01*
X12658428Y-14519000D01*
X12644143Y-14533286D01*
X12958428Y-14704714D02*
X12929857Y-14690429D01*
X12915571Y-14676143D01*
X12901286Y-14647571D01*
X12901286Y-14561857D01*
X12915571Y-14533286D01*
X12929857Y-14519000D01*
X12958428Y-14504714D01*
X13001286Y-14504714D01*
X13029857Y-14519000D01*
X13044143Y-14533286D01*
X13058428Y-14561857D01*
X13058428Y-14647571D01*
X13044143Y-14676143D01*
X13029857Y-14690429D01*
X13001286Y-14704714D01*
X12958428Y-14704714D01*
X13229857Y-14704714D02*
X13201286Y-14690429D01*
X13187000Y-14661857D01*
X13187000Y-14404714D01*
X13458428Y-14690429D02*
X13429857Y-14704714D01*
X13372714Y-14704714D01*
X13344143Y-14690429D01*
X13329857Y-14661857D01*
X13329857Y-14547571D01*
X13344143Y-14519000D01*
X13372714Y-14504714D01*
X13429857Y-14504714D01*
X13458428Y-14519000D01*
X13472714Y-14547571D01*
X13472714Y-14576143D01*
X13329857Y-14604714D01*
X13587000Y-14690429D02*
X13615571Y-14704714D01*
X13672714Y-14704714D01*
X13701286Y-14690429D01*
X13715571Y-14661857D01*
X13715571Y-14647571D01*
X13701286Y-14619000D01*
X13672714Y-14604714D01*
X13629857Y-14604714D01*
X13601286Y-14590429D01*
X13587000Y-14561857D01*
X13587000Y-14547571D01*
X13601286Y-14519000D01*
X13629857Y-14504714D01*
X13672714Y-14504714D01*
X13701286Y-14519000D01*
X13815571Y-14819000D02*
X13829857Y-14804714D01*
X13858428Y-14761857D01*
X13872714Y-14733286D01*
X13887000Y-14690429D01*
X13901286Y-14619000D01*
X13901286Y-14561857D01*
X13887000Y-14490429D01*
X13872714Y-14447571D01*
X13858428Y-14419000D01*
X13829857Y-14376143D01*
X13815571Y-14361857D01*
X6427000Y-14920000D02*
X6427000Y-15010000D01*
X6382000Y-14965000D02*
X6472000Y-14965000D01*
X6815571Y-14800714D02*
X6844143Y-14800714D01*
X6872714Y-14815000D01*
X6887000Y-14829286D01*
X6901286Y-14857857D01*
X6915571Y-14915000D01*
X6915571Y-14986429D01*
X6901286Y-15043571D01*
X6887000Y-15072143D01*
X6872714Y-15086429D01*
X6844143Y-15100714D01*
X6815571Y-15100714D01*
X6787000Y-15086429D01*
X6772714Y-15072143D01*
X6758428Y-15043571D01*
X6744143Y-14986429D01*
X6744143Y-14915000D01*
X6758428Y-14857857D01*
X6772714Y-14829286D01*
X6787000Y-14815000D01*
X6815571Y-14800714D01*
X7044143Y-15072143D02*
X7058428Y-15086429D01*
X7044143Y-15100714D01*
X7029857Y-15086429D01*
X7044143Y-15072143D01*
X7044143Y-15100714D01*
X7201286Y-15100714D02*
X7258428Y-15100714D01*
X7287000Y-15086429D01*
X7301286Y-15072143D01*
X7329857Y-15029286D01*
X7344143Y-14972143D01*
X7344143Y-14857857D01*
X7329857Y-14829286D01*
X7315571Y-14815000D01*
X7287000Y-14800714D01*
X7229857Y-14800714D01*
X7201286Y-14815000D01*
X7187000Y-14829286D01*
X7172714Y-14857857D01*
X7172714Y-14929286D01*
X7187000Y-14957857D01*
X7201286Y-14972143D01*
X7229857Y-14986429D01*
X7287000Y-14986429D01*
X7315571Y-14972143D01*
X7329857Y-14957857D01*
X7344143Y-14929286D01*
X7529857Y-14800714D02*
X7558428Y-14800714D01*
X7587000Y-14815000D01*
X7601286Y-14829286D01*
X7615571Y-14857857D01*
X7629857Y-14915000D01*
X7629857Y-14986429D01*
X7615571Y-15043571D01*
X7601286Y-15072143D01*
X7587000Y-15086429D01*
X7558428Y-15100714D01*
X7529857Y-15100714D01*
X7501286Y-15086429D01*
X7487000Y-15072143D01*
X7472714Y-15043571D01*
X7458428Y-14986429D01*
X7458428Y-14915000D01*
X7472714Y-14857857D01*
X7487000Y-14829286D01*
X7501286Y-14815000D01*
X7529857Y-14800714D01*
X7815571Y-14800714D02*
X7844143Y-14800714D01*
X7872714Y-14815000D01*
X7887000Y-14829286D01*
X7901286Y-14857857D01*
X7915571Y-14915000D01*
X7915571Y-14986429D01*
X7901286Y-15043571D01*
X7887000Y-15072143D01*
X7872714Y-15086429D01*
X7844143Y-15100714D01*
X7815571Y-15100714D01*
X7787000Y-15086429D01*
X7772714Y-15072143D01*
X7758428Y-15043571D01*
X7744143Y-14986429D01*
X7744143Y-14915000D01*
X7758428Y-14857857D01*
X7772714Y-14829286D01*
X7787000Y-14815000D01*
X7815571Y-14800714D01*
X8044143Y-15100714D02*
X8044143Y-14900714D01*
X8044143Y-14929286D02*
X8058428Y-14915000D01*
X8087000Y-14900714D01*
X8129857Y-14900714D01*
X8158428Y-14915000D01*
X8172714Y-14943571D01*
X8172714Y-15100714D01*
X8172714Y-14943571D02*
X8187000Y-14915000D01*
X8215571Y-14900714D01*
X8258428Y-14900714D01*
X8287000Y-14915000D01*
X8301286Y-14943571D01*
X8301286Y-15100714D01*
X8444143Y-15100714D02*
X8444143Y-14900714D01*
X8444143Y-14929286D02*
X8458428Y-14915000D01*
X8487000Y-14900714D01*
X8529857Y-14900714D01*
X8558428Y-14915000D01*
X8572714Y-14943571D01*
X8572714Y-15100714D01*
X8572714Y-14943571D02*
X8587000Y-14915000D01*
X8615571Y-14900714D01*
X8658428Y-14900714D01*
X8687000Y-14915000D01*
X8701286Y-14943571D01*
X8701286Y-15100714D01*
X9287000Y-14786429D02*
X9029857Y-15172143D01*
X9672714Y-14800714D02*
X9701286Y-14800714D01*
X9729857Y-14815000D01*
X9744143Y-14829286D01*
X9758428Y-14857857D01*
X9772714Y-14915000D01*
X9772714Y-14986429D01*
X9758428Y-15043571D01*
X9744143Y-15072143D01*
X9729857Y-15086429D01*
X9701286Y-15100714D01*
X9672714Y-15100714D01*
X9644143Y-15086429D01*
X9629857Y-15072143D01*
X9615571Y-15043571D01*
X9601286Y-14986429D01*
X9601286Y-14915000D01*
X9615571Y-14857857D01*
X9629857Y-14829286D01*
X9644143Y-14815000D01*
X9672714Y-14800714D01*
X9901286Y-15072143D02*
X9915571Y-15086429D01*
X9901286Y-15100714D01*
X9887000Y-15086429D01*
X9901286Y-15072143D01*
X9901286Y-15100714D01*
X10101286Y-14800714D02*
X10129857Y-14800714D01*
X10158428Y-14815000D01*
X10172714Y-14829286D01*
X10187000Y-14857857D01*
X10201286Y-14915000D01*
X10201286Y-14986429D01*
X10187000Y-15043571D01*
X10172714Y-15072143D01*
X10158428Y-15086429D01*
X10129857Y-15100714D01*
X10101286Y-15100714D01*
X10072714Y-15086429D01*
X10058428Y-15072143D01*
X10044143Y-15043571D01*
X10029857Y-14986429D01*
X10029857Y-14915000D01*
X10044143Y-14857857D01*
X10058428Y-14829286D01*
X10072714Y-14815000D01*
X10101286Y-14800714D01*
X10301286Y-14800714D02*
X10487000Y-14800714D01*
X10387000Y-14915000D01*
X10429857Y-14915000D01*
X10458428Y-14929286D01*
X10472714Y-14943571D01*
X10487000Y-14972143D01*
X10487000Y-15043571D01*
X10472714Y-15072143D01*
X10458428Y-15086429D01*
X10429857Y-15100714D01*
X10344143Y-15100714D01*
X10315571Y-15086429D01*
X10301286Y-15072143D01*
X10758428Y-14800714D02*
X10615571Y-14800714D01*
X10601286Y-14943571D01*
X10615571Y-14929286D01*
X10644143Y-14915000D01*
X10715571Y-14915000D01*
X10744143Y-14929286D01*
X10758428Y-14943571D01*
X10772714Y-14972143D01*
X10772714Y-15043571D01*
X10758428Y-15072143D01*
X10744143Y-15086429D01*
X10715571Y-15100714D01*
X10644143Y-15100714D01*
X10615571Y-15086429D01*
X10601286Y-15072143D01*
X11029857Y-14900714D02*
X11029857Y-15100714D01*
X10958428Y-14786429D02*
X10887000Y-15000714D01*
X11072714Y-15000714D01*
X11172714Y-14800714D02*
X11172714Y-14857857D01*
X11287000Y-14800714D02*
X11287000Y-14857857D01*
X11729857Y-15215000D02*
X11715571Y-15200714D01*
X11687000Y-15157857D01*
X11672714Y-15129286D01*
X11658428Y-15086429D01*
X11644143Y-15015000D01*
X11644143Y-14957857D01*
X11658428Y-14886429D01*
X11672714Y-14843571D01*
X11687000Y-14815000D01*
X11715571Y-14772143D01*
X11729857Y-14757857D01*
X11815571Y-14800714D02*
X12001286Y-14800714D01*
X11901286Y-14915000D01*
X11944143Y-14915000D01*
X11972714Y-14929286D01*
X11987000Y-14943571D01*
X12001286Y-14972143D01*
X12001286Y-15043571D01*
X11987000Y-15072143D01*
X11972714Y-15086429D01*
X11944143Y-15100714D01*
X11858428Y-15100714D01*
X11829857Y-15086429D01*
X11815571Y-15072143D01*
X12258428Y-14800714D02*
X12201286Y-14800714D01*
X12172714Y-14815000D01*
X12158428Y-14829286D01*
X12129857Y-14872143D01*
X12115571Y-14929286D01*
X12115571Y-15043571D01*
X12129857Y-15072143D01*
X12144143Y-15086429D01*
X12172714Y-15100714D01*
X12229857Y-15100714D01*
X12258428Y-15086429D01*
X12272714Y-15072143D01*
X12287000Y-15043571D01*
X12287000Y-14972143D01*
X12272714Y-14943571D01*
X12258428Y-14929286D01*
X12229857Y-14915000D01*
X12172714Y-14915000D01*
X12144143Y-14929286D01*
X12129857Y-14943571D01*
X12115571Y-14972143D01*
X12644143Y-15100714D02*
X12644143Y-14800714D01*
X12772714Y-15100714D02*
X12772714Y-14943571D01*
X12758428Y-14915000D01*
X12729857Y-14900714D01*
X12687000Y-14900714D01*
X12658428Y-14915000D01*
X12644143Y-14929286D01*
X12958428Y-15100714D02*
X12929857Y-15086429D01*
X12915571Y-15072143D01*
X12901286Y-15043571D01*
X12901286Y-14957857D01*
X12915571Y-14929286D01*
X12929857Y-14915000D01*
X12958428Y-14900714D01*
X13001286Y-14900714D01*
X13029857Y-14915000D01*
X13044143Y-14929286D01*
X13058428Y-14957857D01*
X13058428Y-15043571D01*
X13044143Y-15072143D01*
X13029857Y-15086429D01*
X13001286Y-15100714D01*
X12958428Y-15100714D01*
X13229857Y-15100714D02*
X13201286Y-15086429D01*
X13187000Y-15057857D01*
X13187000Y-14800714D01*
X13458428Y-15086429D02*
X13429857Y-15100714D01*
X13372714Y-15100714D01*
X13344143Y-15086429D01*
X13329857Y-15057857D01*
X13329857Y-14943571D01*
X13344143Y-14915000D01*
X13372714Y-14900714D01*
X13429857Y-14900714D01*
X13458428Y-14915000D01*
X13472714Y-14943571D01*
X13472714Y-14972143D01*
X13329857Y-15000714D01*
X13587000Y-15086429D02*
X13615571Y-15100714D01*
X13672714Y-15100714D01*
X13701286Y-15086429D01*
X13715571Y-15057857D01*
X13715571Y-15043571D01*
X13701286Y-15015000D01*
X13672714Y-15000714D01*
X13629857Y-15000714D01*
X13601286Y-14986429D01*
X13587000Y-14957857D01*
X13587000Y-14943571D01*
X13601286Y-14915000D01*
X13629857Y-14900714D01*
X13672714Y-14900714D01*
X13701286Y-14915000D01*
X13815571Y-15215000D02*
X13829857Y-15200714D01*
X13858428Y-15157857D01*
X13872714Y-15129286D01*
X13887000Y-15086429D01*
X13901286Y-15015000D01*
X13901286Y-14957857D01*
X13887000Y-14886429D01*
X13872714Y-14843571D01*
X13858428Y-14815000D01*
X13829857Y-14772143D01*
X13815571Y-14757857D01*
X6457356Y-15396356D02*
X6457356Y-15325644D01*
X6386644Y-15325644D01*
X6386644Y-15396356D01*
X6457356Y-15396356D01*
X6915571Y-15496714D02*
X6744143Y-15496714D01*
X6829857Y-15496714D02*
X6829857Y-15196714D01*
X6801286Y-15239571D01*
X6772714Y-15268143D01*
X6744143Y-15282429D01*
X7044143Y-15468143D02*
X7058428Y-15482429D01*
X7044143Y-15496714D01*
X7029857Y-15482429D01*
X7044143Y-15468143D01*
X7044143Y-15496714D01*
X7244143Y-15196714D02*
X7272714Y-15196714D01*
X7301286Y-15211000D01*
X7315571Y-15225286D01*
X7329857Y-15253857D01*
X7344143Y-15311000D01*
X7344143Y-15382429D01*
X7329857Y-15439571D01*
X7315571Y-15468143D01*
X7301286Y-15482429D01*
X7272714Y-15496714D01*
X7244143Y-15496714D01*
X7215571Y-15482429D01*
X7201286Y-15468143D01*
X7187000Y-15439571D01*
X7172714Y-15382429D01*
X7172714Y-15311000D01*
X7187000Y-15253857D01*
X7201286Y-15225286D01*
X7215571Y-15211000D01*
X7244143Y-15196714D01*
X7529857Y-15196714D02*
X7558428Y-15196714D01*
X7587000Y-15211000D01*
X7601286Y-15225286D01*
X7615571Y-15253857D01*
X7629857Y-15311000D01*
X7629857Y-15382429D01*
X7615571Y-15439571D01*
X7601286Y-15468143D01*
X7587000Y-15482429D01*
X7558428Y-15496714D01*
X7529857Y-15496714D01*
X7501286Y-15482429D01*
X7487000Y-15468143D01*
X7472714Y-15439571D01*
X7458428Y-15382429D01*
X7458428Y-15311000D01*
X7472714Y-15253857D01*
X7487000Y-15225286D01*
X7501286Y-15211000D01*
X7529857Y-15196714D01*
X7815571Y-15196714D02*
X7844143Y-15196714D01*
X7872714Y-15211000D01*
X7887000Y-15225286D01*
X7901286Y-15253857D01*
X7915571Y-15311000D01*
X7915571Y-15382429D01*
X7901286Y-15439571D01*
X7887000Y-15468143D01*
X7872714Y-15482429D01*
X7844143Y-15496714D01*
X7815571Y-15496714D01*
X7787000Y-15482429D01*
X7772714Y-15468143D01*
X7758428Y-15439571D01*
X7744143Y-15382429D01*
X7744143Y-15311000D01*
X7758428Y-15253857D01*
X7772714Y-15225286D01*
X7787000Y-15211000D01*
X7815571Y-15196714D01*
X8044143Y-15496714D02*
X8044143Y-15296714D01*
X8044143Y-15325286D02*
X8058428Y-15311000D01*
X8087000Y-15296714D01*
X8129857Y-15296714D01*
X8158428Y-15311000D01*
X8172714Y-15339571D01*
X8172714Y-15496714D01*
X8172714Y-15339571D02*
X8187000Y-15311000D01*
X8215571Y-15296714D01*
X8258428Y-15296714D01*
X8287000Y-15311000D01*
X8301286Y-15339571D01*
X8301286Y-15496714D01*
X8444143Y-15496714D02*
X8444143Y-15296714D01*
X8444143Y-15325286D02*
X8458428Y-15311000D01*
X8487000Y-15296714D01*
X8529857Y-15296714D01*
X8558428Y-15311000D01*
X8572714Y-15339571D01*
X8572714Y-15496714D01*
X8572714Y-15339571D02*
X8587000Y-15311000D01*
X8615571Y-15296714D01*
X8658428Y-15296714D01*
X8687000Y-15311000D01*
X8701286Y-15339571D01*
X8701286Y-15496714D01*
X9287000Y-15182429D02*
X9029857Y-15568143D01*
X9672714Y-15196714D02*
X9701286Y-15196714D01*
X9729857Y-15211000D01*
X9744143Y-15225286D01*
X9758428Y-15253857D01*
X9772714Y-15311000D01*
X9772714Y-15382429D01*
X9758428Y-15439571D01*
X9744143Y-15468143D01*
X9729857Y-15482429D01*
X9701286Y-15496714D01*
X9672714Y-15496714D01*
X9644143Y-15482429D01*
X9629857Y-15468143D01*
X9615571Y-15439571D01*
X9601286Y-15382429D01*
X9601286Y-15311000D01*
X9615571Y-15253857D01*
X9629857Y-15225286D01*
X9644143Y-15211000D01*
X9672714Y-15196714D01*
X9901286Y-15468143D02*
X9915571Y-15482429D01*
X9901286Y-15496714D01*
X9887000Y-15482429D01*
X9901286Y-15468143D01*
X9901286Y-15496714D01*
X10101286Y-15196714D02*
X10129857Y-15196714D01*
X10158428Y-15211000D01*
X10172714Y-15225286D01*
X10187000Y-15253857D01*
X10201286Y-15311000D01*
X10201286Y-15382429D01*
X10187000Y-15439571D01*
X10172714Y-15468143D01*
X10158428Y-15482429D01*
X10129857Y-15496714D01*
X10101286Y-15496714D01*
X10072714Y-15482429D01*
X10058428Y-15468143D01*
X10044143Y-15439571D01*
X10029857Y-15382429D01*
X10029857Y-15311000D01*
X10044143Y-15253857D01*
X10058428Y-15225286D01*
X10072714Y-15211000D01*
X10101286Y-15196714D01*
X10301286Y-15196714D02*
X10487000Y-15196714D01*
X10387000Y-15311000D01*
X10429857Y-15311000D01*
X10458428Y-15325286D01*
X10472714Y-15339571D01*
X10487000Y-15368143D01*
X10487000Y-15439571D01*
X10472714Y-15468143D01*
X10458428Y-15482429D01*
X10429857Y-15496714D01*
X10344143Y-15496714D01*
X10315571Y-15482429D01*
X10301286Y-15468143D01*
X10629857Y-15496714D02*
X10687000Y-15496714D01*
X10715571Y-15482429D01*
X10729857Y-15468143D01*
X10758428Y-15425286D01*
X10772714Y-15368143D01*
X10772714Y-15253857D01*
X10758428Y-15225286D01*
X10744143Y-15211000D01*
X10715571Y-15196714D01*
X10658428Y-15196714D01*
X10629857Y-15211000D01*
X10615571Y-15225286D01*
X10601286Y-15253857D01*
X10601286Y-15325286D01*
X10615571Y-15353857D01*
X10629857Y-15368143D01*
X10658428Y-15382429D01*
X10715571Y-15382429D01*
X10744143Y-15368143D01*
X10758428Y-15353857D01*
X10772714Y-15325286D01*
X11029857Y-15296714D02*
X11029857Y-15496714D01*
X10958428Y-15182429D02*
X10887000Y-15396714D01*
X11072714Y-15396714D01*
X11172714Y-15196714D02*
X11172714Y-15253857D01*
X11287000Y-15196714D02*
X11287000Y-15253857D01*
X11729857Y-15611000D02*
X11715571Y-15596714D01*
X11687000Y-15553857D01*
X11672714Y-15525286D01*
X11658428Y-15482429D01*
X11644143Y-15411000D01*
X11644143Y-15353857D01*
X11658428Y-15282429D01*
X11672714Y-15239571D01*
X11687000Y-15211000D01*
X11715571Y-15168143D01*
X11729857Y-15153857D01*
X12001286Y-15496714D02*
X11829857Y-15496714D01*
X11915571Y-15496714D02*
X11915571Y-15196714D01*
X11887000Y-15239571D01*
X11858428Y-15268143D01*
X11829857Y-15282429D01*
X12115571Y-15225286D02*
X12129857Y-15211000D01*
X12158428Y-15196714D01*
X12229857Y-15196714D01*
X12258428Y-15211000D01*
X12272714Y-15225286D01*
X12287000Y-15253857D01*
X12287000Y-15282429D01*
X12272714Y-15325286D01*
X12101286Y-15496714D01*
X12287000Y-15496714D01*
X12644143Y-15496714D02*
X12644143Y-15196714D01*
X12772714Y-15496714D02*
X12772714Y-15339571D01*
X12758428Y-15311000D01*
X12729857Y-15296714D01*
X12687000Y-15296714D01*
X12658428Y-15311000D01*
X12644143Y-15325286D01*
X12958428Y-15496714D02*
X12929857Y-15482429D01*
X12915571Y-15468143D01*
X12901286Y-15439571D01*
X12901286Y-15353857D01*
X12915571Y-15325286D01*
X12929857Y-15311000D01*
X12958428Y-15296714D01*
X13001286Y-15296714D01*
X13029857Y-15311000D01*
X13044143Y-15325286D01*
X13058428Y-15353857D01*
X13058428Y-15439571D01*
X13044143Y-15468143D01*
X13029857Y-15482429D01*
X13001286Y-15496714D01*
X12958428Y-15496714D01*
X13229857Y-15496714D02*
X13201286Y-15482429D01*
X13187000Y-15453857D01*
X13187000Y-15196714D01*
X13458428Y-15482429D02*
X13429857Y-15496714D01*
X13372714Y-15496714D01*
X13344143Y-15482429D01*
X13329857Y-15453857D01*
X13329857Y-15339571D01*
X13344143Y-15311000D01*
X13372714Y-15296714D01*
X13429857Y-15296714D01*
X13458428Y-15311000D01*
X13472714Y-15339571D01*
X13472714Y-15368143D01*
X13329857Y-15396714D01*
X13587000Y-15482429D02*
X13615571Y-15496714D01*
X13672714Y-15496714D01*
X13701286Y-15482429D01*
X13715571Y-15453857D01*
X13715571Y-15439571D01*
X13701286Y-15411000D01*
X13672714Y-15396714D01*
X13629857Y-15396714D01*
X13601286Y-15382429D01*
X13587000Y-15353857D01*
X13587000Y-15339571D01*
X13601286Y-15311000D01*
X13629857Y-15296714D01*
X13672714Y-15296714D01*
X13701286Y-15311000D01*
X13815571Y-15611000D02*
X13829857Y-15596714D01*
X13858428Y-15553857D01*
X13872714Y-15525286D01*
X13887000Y-15482429D01*
X13901286Y-15411000D01*
X13901286Y-15353857D01*
X13887000Y-15282429D01*
X13872714Y-15239571D01*
X13858428Y-15211000D01*
X13829857Y-15168143D01*
X13815571Y-15153857D01*
X6407000Y-15822000D02*
X6472000Y-15757000D01*
X6407000Y-15692000D01*
X6342000Y-15757000D01*
X6407000Y-15822000D01*
X6915571Y-15892714D02*
X6744143Y-15892714D01*
X6829857Y-15892714D02*
X6829857Y-15592714D01*
X6801286Y-15635571D01*
X6772714Y-15664143D01*
X6744143Y-15678429D01*
X7044143Y-15864143D02*
X7058428Y-15878429D01*
X7044143Y-15892714D01*
X7029857Y-15878429D01*
X7044143Y-15864143D01*
X7044143Y-15892714D01*
X7158428Y-15592714D02*
X7344143Y-15592714D01*
X7244143Y-15707000D01*
X7287000Y-15707000D01*
X7315571Y-15721286D01*
X7329857Y-15735571D01*
X7344143Y-15764143D01*
X7344143Y-15835571D01*
X7329857Y-15864143D01*
X7315571Y-15878429D01*
X7287000Y-15892714D01*
X7201286Y-15892714D01*
X7172714Y-15878429D01*
X7158428Y-15864143D01*
X7529857Y-15592714D02*
X7558428Y-15592714D01*
X7587000Y-15607000D01*
X7601286Y-15621286D01*
X7615571Y-15649857D01*
X7629857Y-15707000D01*
X7629857Y-15778429D01*
X7615571Y-15835571D01*
X7601286Y-15864143D01*
X7587000Y-15878429D01*
X7558428Y-15892714D01*
X7529857Y-15892714D01*
X7501286Y-15878429D01*
X7487000Y-15864143D01*
X7472714Y-15835571D01*
X7458428Y-15778429D01*
X7458428Y-15707000D01*
X7472714Y-15649857D01*
X7487000Y-15621286D01*
X7501286Y-15607000D01*
X7529857Y-15592714D01*
X7815571Y-15592714D02*
X7844143Y-15592714D01*
X7872714Y-15607000D01*
X7887000Y-15621286D01*
X7901286Y-15649857D01*
X7915571Y-15707000D01*
X7915571Y-15778429D01*
X7901286Y-15835571D01*
X7887000Y-15864143D01*
X7872714Y-15878429D01*
X7844143Y-15892714D01*
X7815571Y-15892714D01*
X7787000Y-15878429D01*
X7772714Y-15864143D01*
X7758428Y-15835571D01*
X7744143Y-15778429D01*
X7744143Y-15707000D01*
X7758428Y-15649857D01*
X7772714Y-15621286D01*
X7787000Y-15607000D01*
X7815571Y-15592714D01*
X8044143Y-15892714D02*
X8044143Y-15692714D01*
X8044143Y-15721286D02*
X8058428Y-15707000D01*
X8087000Y-15692714D01*
X8129857Y-15692714D01*
X8158428Y-15707000D01*
X8172714Y-15735571D01*
X8172714Y-15892714D01*
X8172714Y-15735571D02*
X8187000Y-15707000D01*
X8215571Y-15692714D01*
X8258428Y-15692714D01*
X8287000Y-15707000D01*
X8301286Y-15735571D01*
X8301286Y-15892714D01*
X8444143Y-15892714D02*
X8444143Y-15692714D01*
X8444143Y-15721286D02*
X8458428Y-15707000D01*
X8487000Y-15692714D01*
X8529857Y-15692714D01*
X8558428Y-15707000D01*
X8572714Y-15735571D01*
X8572714Y-15892714D01*
X8572714Y-15735571D02*
X8587000Y-15707000D01*
X8615571Y-15692714D01*
X8658428Y-15692714D01*
X8687000Y-15707000D01*
X8701286Y-15735571D01*
X8701286Y-15892714D01*
X9287000Y-15578429D02*
X9029857Y-15964143D01*
X9672714Y-15592714D02*
X9701286Y-15592714D01*
X9729857Y-15607000D01*
X9744143Y-15621286D01*
X9758428Y-15649857D01*
X9772714Y-15707000D01*
X9772714Y-15778429D01*
X9758428Y-15835571D01*
X9744143Y-15864143D01*
X9729857Y-15878429D01*
X9701286Y-15892714D01*
X9672714Y-15892714D01*
X9644143Y-15878429D01*
X9629857Y-15864143D01*
X9615571Y-15835571D01*
X9601286Y-15778429D01*
X9601286Y-15707000D01*
X9615571Y-15649857D01*
X9629857Y-15621286D01*
X9644143Y-15607000D01*
X9672714Y-15592714D01*
X9901286Y-15864143D02*
X9915571Y-15878429D01*
X9901286Y-15892714D01*
X9887000Y-15878429D01*
X9901286Y-15864143D01*
X9901286Y-15892714D01*
X10101286Y-15592714D02*
X10129857Y-15592714D01*
X10158428Y-15607000D01*
X10172714Y-15621286D01*
X10187000Y-15649857D01*
X10201286Y-15707000D01*
X10201286Y-15778429D01*
X10187000Y-15835571D01*
X10172714Y-15864143D01*
X10158428Y-15878429D01*
X10129857Y-15892714D01*
X10101286Y-15892714D01*
X10072714Y-15878429D01*
X10058428Y-15864143D01*
X10044143Y-15835571D01*
X10029857Y-15778429D01*
X10029857Y-15707000D01*
X10044143Y-15649857D01*
X10058428Y-15621286D01*
X10072714Y-15607000D01*
X10101286Y-15592714D01*
X10472714Y-15592714D02*
X10329857Y-15592714D01*
X10315571Y-15735571D01*
X10329857Y-15721286D01*
X10358428Y-15707000D01*
X10429857Y-15707000D01*
X10458428Y-15721286D01*
X10472714Y-15735571D01*
X10487000Y-15764143D01*
X10487000Y-15835571D01*
X10472714Y-15864143D01*
X10458428Y-15878429D01*
X10429857Y-15892714D01*
X10358428Y-15892714D01*
X10329857Y-15878429D01*
X10315571Y-15864143D01*
X10772714Y-15892714D02*
X10601286Y-15892714D01*
X10687000Y-15892714D02*
X10687000Y-15592714D01*
X10658428Y-15635571D01*
X10629857Y-15664143D01*
X10601286Y-15678429D01*
X10887000Y-15621286D02*
X10901286Y-15607000D01*
X10929857Y-15592714D01*
X11001286Y-15592714D01*
X11029857Y-15607000D01*
X11044143Y-15621286D01*
X11058428Y-15649857D01*
X11058428Y-15678429D01*
X11044143Y-15721286D01*
X10872714Y-15892714D01*
X11058428Y-15892714D01*
X11172714Y-15592714D02*
X11172714Y-15649857D01*
X11287000Y-15592714D02*
X11287000Y-15649857D01*
X11729857Y-16007000D02*
X11715571Y-15992714D01*
X11687000Y-15949857D01*
X11672714Y-15921286D01*
X11658428Y-15878429D01*
X11644143Y-15807000D01*
X11644143Y-15749857D01*
X11658428Y-15678429D01*
X11672714Y-15635571D01*
X11687000Y-15607000D01*
X11715571Y-15564143D01*
X11729857Y-15549857D01*
X11815571Y-15592714D02*
X12001286Y-15592714D01*
X11901286Y-15707000D01*
X11944143Y-15707000D01*
X11972714Y-15721286D01*
X11987000Y-15735571D01*
X12001286Y-15764143D01*
X12001286Y-15835571D01*
X11987000Y-15864143D01*
X11972714Y-15878429D01*
X11944143Y-15892714D01*
X11858428Y-15892714D01*
X11829857Y-15878429D01*
X11815571Y-15864143D01*
X12115571Y-15621286D02*
X12129857Y-15607000D01*
X12158428Y-15592714D01*
X12229857Y-15592714D01*
X12258428Y-15607000D01*
X12272714Y-15621286D01*
X12287000Y-15649857D01*
X12287000Y-15678429D01*
X12272714Y-15721286D01*
X12101286Y-15892714D01*
X12287000Y-15892714D01*
X12644143Y-15892714D02*
X12644143Y-15592714D01*
X12772714Y-15892714D02*
X12772714Y-15735571D01*
X12758428Y-15707000D01*
X12729857Y-15692714D01*
X12687000Y-15692714D01*
X12658428Y-15707000D01*
X12644143Y-15721286D01*
X12958428Y-15892714D02*
X12929857Y-15878429D01*
X12915571Y-15864143D01*
X12901286Y-15835571D01*
X12901286Y-15749857D01*
X12915571Y-15721286D01*
X12929857Y-15707000D01*
X12958428Y-15692714D01*
X13001286Y-15692714D01*
X13029857Y-15707000D01*
X13044143Y-15721286D01*
X13058428Y-15749857D01*
X13058428Y-15835571D01*
X13044143Y-15864143D01*
X13029857Y-15878429D01*
X13001286Y-15892714D01*
X12958428Y-15892714D01*
X13229857Y-15892714D02*
X13201286Y-15878429D01*
X13187000Y-15849857D01*
X13187000Y-15592714D01*
X13458428Y-15878429D02*
X13429857Y-15892714D01*
X13372714Y-15892714D01*
X13344143Y-15878429D01*
X13329857Y-15849857D01*
X13329857Y-15735571D01*
X13344143Y-15707000D01*
X13372714Y-15692714D01*
X13429857Y-15692714D01*
X13458428Y-15707000D01*
X13472714Y-15735571D01*
X13472714Y-15764143D01*
X13329857Y-15792714D01*
X13587000Y-15878429D02*
X13615571Y-15892714D01*
X13672714Y-15892714D01*
X13701286Y-15878429D01*
X13715571Y-15849857D01*
X13715571Y-15835571D01*
X13701286Y-15807000D01*
X13672714Y-15792714D01*
X13629857Y-15792714D01*
X13601286Y-15778429D01*
X13587000Y-15749857D01*
X13587000Y-15735571D01*
X13601286Y-15707000D01*
X13629857Y-15692714D01*
X13672714Y-15692714D01*
X13701286Y-15707000D01*
X13815571Y-16007000D02*
X13829857Y-15992714D01*
X13858428Y-15949857D01*
X13872714Y-15921286D01*
X13887000Y-15878429D01*
X13901286Y-15807000D01*
X13901286Y-15749857D01*
X13887000Y-15678429D01*
X13872714Y-15635571D01*
X13858428Y-15607000D01*
X13829857Y-15564143D01*
X13815571Y-15549857D01*
M02*
