G04 #@! TF.GenerationSoftware,KiCad,Pcbnew,(5.1.10)-1*
G04 #@! TF.CreationDate,2021-10-04T14:19:23-03:00*
G04 #@! TF.ProjectId,ESP-relay_6ch,4553502d-7265-46c6-9179-5f3663682e6b,rev?*
G04 #@! TF.SameCoordinates,Original*
G04 #@! TF.FileFunction,Copper,L2,Bot*
G04 #@! TF.FilePolarity,Positive*
%FSLAX46Y46*%
G04 Gerber Fmt 4.6, Leading zero omitted, Abs format (unit mm)*
G04 Created by KiCad (PCBNEW (5.1.10)-1) date 2021-10-04 14:19:23*
%MOMM*%
%LPD*%
G01*
G04 APERTURE LIST*
G04 #@! TA.AperFunction,NonConductor*
%ADD10C,0.400000*%
G04 #@! TD*
G04 #@! TA.AperFunction,ComponentPad*
%ADD11C,3.500000*%
G04 #@! TD*
G04 #@! TA.AperFunction,ComponentPad*
%ADD12R,3.500000X3.500000*%
G04 #@! TD*
G04 #@! TA.AperFunction,ComponentPad*
%ADD13C,2.600000*%
G04 #@! TD*
G04 #@! TA.AperFunction,ComponentPad*
%ADD14R,2.600000X2.600000*%
G04 #@! TD*
G04 #@! TA.AperFunction,ComponentPad*
%ADD15O,2.500000X1.750000*%
G04 #@! TD*
G04 #@! TA.AperFunction,ComponentPad*
%ADD16R,2.500000X1.750000*%
G04 #@! TD*
G04 #@! TA.AperFunction,ComponentPad*
%ADD17C,2.500000*%
G04 #@! TD*
G04 #@! TA.AperFunction,ComponentPad*
%ADD18R,2.500000X1.800000*%
G04 #@! TD*
G04 #@! TA.AperFunction,ComponentPad*
%ADD19O,2.500000X1.800000*%
G04 #@! TD*
G04 #@! TA.AperFunction,ViaPad*
%ADD20C,1.200000*%
G04 #@! TD*
G04 #@! TA.AperFunction,Conductor*
%ADD21C,1.905000*%
G04 #@! TD*
G04 #@! TA.AperFunction,Conductor*
%ADD22C,1.016000*%
G04 #@! TD*
G04 #@! TA.AperFunction,Conductor*
%ADD23C,1.524000*%
G04 #@! TD*
G04 #@! TA.AperFunction,Conductor*
%ADD24C,0.635000*%
G04 #@! TD*
G04 #@! TA.AperFunction,Conductor*
%ADD25C,0.254000*%
G04 #@! TD*
G04 #@! TA.AperFunction,Conductor*
%ADD26C,3.810000*%
G04 #@! TD*
G04 APERTURE END LIST*
D10*
X220817857Y-99056666D02*
X220817857Y-96256666D01*
X219984523Y-98256666D01*
X219151190Y-96256666D01*
X219151190Y-99056666D01*
X218079761Y-98256666D02*
X216889285Y-98256666D01*
X218317857Y-99056666D02*
X217484523Y-96256666D01*
X216651190Y-99056666D01*
X216055952Y-96256666D02*
X214389285Y-99056666D01*
X214389285Y-96256666D02*
X216055952Y-99056666D01*
X213436904Y-99056666D02*
X213436904Y-96256666D01*
X212246428Y-99056666D02*
X212246428Y-96256666D01*
X211413095Y-98256666D01*
X210579761Y-96256666D01*
X210579761Y-99056666D01*
X209389285Y-96256666D02*
X209389285Y-98523333D01*
X209270238Y-98790000D01*
X209151190Y-98923333D01*
X208913095Y-99056666D01*
X208436904Y-99056666D01*
X208198809Y-98923333D01*
X208079761Y-98790000D01*
X207960714Y-98523333D01*
X207960714Y-96256666D01*
X206770238Y-99056666D02*
X206770238Y-96256666D01*
X205936904Y-98256666D01*
X205103571Y-96256666D01*
X205103571Y-99056666D01*
X200698809Y-99056666D02*
X202127380Y-99056666D01*
X201413095Y-99056666D02*
X201413095Y-96256666D01*
X201651190Y-96656666D01*
X201889285Y-96923333D01*
X202127380Y-97056666D01*
X199151190Y-96256666D02*
X198913095Y-96256666D01*
X198675000Y-96390000D01*
X198555952Y-96523333D01*
X198436904Y-96790000D01*
X198317857Y-97323333D01*
X198317857Y-97990000D01*
X198436904Y-98523333D01*
X198555952Y-98790000D01*
X198675000Y-98923333D01*
X198913095Y-99056666D01*
X199151190Y-99056666D01*
X199389285Y-98923333D01*
X199508333Y-98790000D01*
X199627380Y-98523333D01*
X199746428Y-97990000D01*
X199746428Y-97323333D01*
X199627380Y-96790000D01*
X199508333Y-96523333D01*
X199389285Y-96390000D01*
X199151190Y-96256666D01*
X195460714Y-98256666D02*
X194270238Y-98256666D01*
X195698809Y-99056666D02*
X194865476Y-96256666D01*
X194032142Y-99056666D01*
X191294047Y-99056666D02*
X191294047Y-96256666D01*
X190341666Y-96256666D01*
X190103571Y-96390000D01*
X189984523Y-96523333D01*
X189865476Y-96790000D01*
X189865476Y-97190000D01*
X189984523Y-97456666D01*
X190103571Y-97590000D01*
X190341666Y-97723333D01*
X191294047Y-97723333D01*
X188794047Y-97590000D02*
X187960714Y-97590000D01*
X187603571Y-99056666D02*
X188794047Y-99056666D01*
X188794047Y-96256666D01*
X187603571Y-96256666D01*
X185103571Y-99056666D02*
X185936904Y-97723333D01*
X186532142Y-99056666D02*
X186532142Y-96256666D01*
X185579761Y-96256666D01*
X185341666Y-96390000D01*
X185222619Y-96523333D01*
X185103571Y-96790000D01*
X185103571Y-97190000D01*
X185222619Y-97456666D01*
X185341666Y-97590000D01*
X185579761Y-97723333D01*
X186532142Y-97723333D01*
X180698809Y-98790000D02*
X180817857Y-98923333D01*
X181175000Y-99056666D01*
X181413095Y-99056666D01*
X181770238Y-98923333D01*
X182008333Y-98656666D01*
X182127380Y-98390000D01*
X182246428Y-97856666D01*
X182246428Y-97456666D01*
X182127380Y-96923333D01*
X182008333Y-96656666D01*
X181770238Y-96390000D01*
X181413095Y-96256666D01*
X181175000Y-96256666D01*
X180817857Y-96390000D01*
X180698809Y-96523333D01*
X179627380Y-99056666D02*
X179627380Y-96256666D01*
X179627380Y-97590000D02*
X178198809Y-97590000D01*
X178198809Y-99056666D02*
X178198809Y-96256666D01*
X177127380Y-98256666D02*
X175936904Y-98256666D01*
X177365476Y-99056666D02*
X176532142Y-96256666D01*
X175698809Y-99056666D01*
X174865476Y-99056666D02*
X174865476Y-96256666D01*
X173436904Y-99056666D01*
X173436904Y-96256666D01*
X172246428Y-99056666D02*
X172246428Y-96256666D01*
X170817857Y-99056666D01*
X170817857Y-96256666D01*
X169627380Y-97590000D02*
X168794047Y-97590000D01*
X168436904Y-99056666D02*
X169627380Y-99056666D01*
X169627380Y-96256666D01*
X168436904Y-96256666D01*
X166175000Y-99056666D02*
X167365476Y-99056666D01*
X167365476Y-96256666D01*
D11*
G04 #@! TO.P,J2,6*
G04 #@! TO.N,Net-(J2-Pad6)*
X114300000Y-123190000D03*
G04 #@! TO.P,J2,5*
G04 #@! TO.N,Net-(J2-Pad5)*
X109220000Y-123190000D03*
G04 #@! TO.P,J2,4*
G04 #@! TO.N,Net-(J2-Pad4)*
X104140000Y-123190000D03*
G04 #@! TO.P,J2,3*
G04 #@! TO.N,Net-(J2-Pad3)*
X99060000Y-123190000D03*
G04 #@! TO.P,J2,2*
G04 #@! TO.N,Net-(J2-Pad2)*
X93980000Y-123190000D03*
D12*
G04 #@! TO.P,J2,1*
G04 #@! TO.N,Net-(J2-Pad1)*
X88900000Y-123190000D03*
G04 #@! TD*
D13*
G04 #@! TO.P,K1,4*
G04 #@! TO.N,Net-(D11-Pad1)*
X162440000Y-87630000D03*
D11*
G04 #@! TO.P,K1,3*
G04 #@! TO.N,Net-(J3-Pad2)*
X162440000Y-107630000D03*
G04 #@! TO.P,K1,2*
G04 #@! TO.N,Net-(J3-Pad1)*
X154940000Y-104130000D03*
D14*
G04 #@! TO.P,K1,1*
G04 #@! TO.N,+24V*
X154940000Y-87630000D03*
G04 #@! TD*
D15*
G04 #@! TO.P,U3,16*
G04 #@! TO.N,Net-(U3-Pad16)*
X144780000Y-67310000D03*
G04 #@! TO.P,U3,15*
G04 #@! TO.N,/32-GPI35*
X144780000Y-69850000D03*
G04 #@! TO.P,U3,14*
G04 #@! TO.N,/32-GPIO33*
X144780000Y-72390000D03*
G04 #@! TO.P,U3,13*
G04 #@! TO.N,/32-GPIO32*
X144780000Y-74930000D03*
G04 #@! TO.P,U3,12*
G04 #@! TO.N,/32-GPIO16*
X144780000Y-77470000D03*
G04 #@! TO.P,U3,11*
G04 #@! TO.N,/32-GPI34*
X144780000Y-80010000D03*
G04 #@! TO.P,U3,10*
G04 #@! TO.N,GNDREF*
X144780000Y-82550000D03*
G04 #@! TO.P,U3,9*
G04 #@! TO.N,+5V*
X144780000Y-85090000D03*
G04 #@! TO.P,U3,8*
G04 #@! TO.N,+3V3*
X121920000Y-85090000D03*
G04 #@! TO.P,U3,7*
G04 #@! TO.N,Net-(U3-Pad7)*
X121920000Y-82550000D03*
G04 #@! TO.P,U3,6*
G04 #@! TO.N,/32-GPIO13*
X121920000Y-80010000D03*
G04 #@! TO.P,U3,5*
G04 #@! TO.N,/32-GPI36*
X121920000Y-77470000D03*
G04 #@! TO.P,U3,4*
G04 #@! TO.N,/32-GPI39*
X121920000Y-74930000D03*
G04 #@! TO.P,U3,3*
G04 #@! TO.N,Net-(U3-Pad3)*
X121920000Y-72390000D03*
D16*
G04 #@! TO.P,U3,1*
G04 #@! TO.N,Net-(U3-Pad1)*
X121920000Y-67310000D03*
D15*
G04 #@! TO.P,U3,2*
G04 #@! TO.N,Net-(U3-Pad2)*
X121920000Y-69850000D03*
G04 #@! TD*
D17*
G04 #@! TO.P,RV1,2*
G04 #@! TO.N,Net-(J3-Pad2)*
X162440000Y-114430000D03*
G04 #@! TO.P,RV1,1*
G04 #@! TO.N,Net-(J3-Pad1)*
X154940000Y-113030000D03*
G04 #@! TD*
D12*
G04 #@! TO.P,J3,1*
G04 #@! TO.N,Net-(J3-Pad1)*
X156210000Y-123190000D03*
D11*
G04 #@! TO.P,J3,2*
G04 #@! TO.N,Net-(J3-Pad2)*
X161290000Y-123190000D03*
G04 #@! TD*
D12*
G04 #@! TO.P,J1,1*
G04 #@! TO.N,+24V*
X72390000Y-123190000D03*
D11*
G04 #@! TO.P,J1,2*
G04 #@! TO.N,GNDREF*
X77470000Y-123190000D03*
G04 #@! TD*
D15*
G04 #@! TO.P,U2,17*
G04 #@! TO.N,/32-GPI34*
X146050000Y-100330000D03*
G04 #@! TO.P,U2,18*
G04 #@! TO.N,/32-GPI35*
X146050000Y-97790000D03*
G04 #@! TO.P,U2,10*
G04 #@! TO.N,Net-(U2-Pad10)*
X120650000Y-115570000D03*
G04 #@! TO.P,U2,9*
G04 #@! TO.N,/32-GPIO4*
X120650000Y-113030000D03*
G04 #@! TO.P,U2,16*
G04 #@! TO.N,/32-GPIO33*
X146050000Y-102870000D03*
G04 #@! TO.P,U2,15*
G04 #@! TO.N,/32-GPIO32*
X146050000Y-105410000D03*
G04 #@! TO.P,U2,14*
G04 #@! TO.N,/32-GPIO16*
X146050000Y-107950000D03*
G04 #@! TO.P,U2,13*
G04 #@! TO.N,/32-GPIO15*
X146050000Y-110490000D03*
G04 #@! TO.P,U2,12*
G04 #@! TO.N,/32-GPIO14*
X146050000Y-113030000D03*
G04 #@! TO.P,U2,11*
G04 #@! TO.N,/32-GPIO13*
X146050000Y-115570000D03*
G04 #@! TO.P,U2,20*
G04 #@! TO.N,/32-GPI39*
X146050000Y-92710000D03*
G04 #@! TO.P,U2,19*
G04 #@! TO.N,/32-GPI36*
X146050000Y-95250000D03*
G04 #@! TO.P,U2,8*
G04 #@! TO.N,Net-(U2-Pad8)*
X120650000Y-110490000D03*
G04 #@! TO.P,U2,7*
G04 #@! TO.N,/32-GPIO2*
X120650000Y-107950000D03*
G04 #@! TO.P,U2,6*
G04 #@! TO.N,Net-(U2-Pad6)*
X120650000Y-105410000D03*
G04 #@! TO.P,U2,5*
G04 #@! TO.N,Net-(U2-Pad5)*
X120650000Y-102870000D03*
G04 #@! TO.P,U2,4*
G04 #@! TO.N,Net-(U2-Pad4)*
X120650000Y-100330000D03*
G04 #@! TO.P,U2,3*
G04 #@! TO.N,GNDREF*
X120650000Y-97790000D03*
D16*
G04 #@! TO.P,U2,1*
G04 #@! TO.N,+5V*
X120650000Y-92710000D03*
D15*
G04 #@! TO.P,U2,2*
G04 #@! TO.N,+3V3*
X120650000Y-95250000D03*
G04 #@! TD*
D12*
G04 #@! TO.P,J4,1*
G04 #@! TO.N,Net-(J4-Pad1)*
X170180000Y-123190000D03*
D11*
G04 #@! TO.P,J4,2*
G04 #@! TO.N,Net-(J4-Pad2)*
X175260000Y-123190000D03*
G04 #@! TD*
D12*
G04 #@! TO.P,J5,1*
G04 #@! TO.N,Net-(J5-Pad1)*
X184150000Y-123190000D03*
D11*
G04 #@! TO.P,J5,2*
G04 #@! TO.N,Net-(J5-Pad2)*
X189230000Y-123190000D03*
G04 #@! TD*
D12*
G04 #@! TO.P,J6,1*
G04 #@! TO.N,Net-(J6-Pad1)*
X198120000Y-123190000D03*
D11*
G04 #@! TO.P,J6,2*
G04 #@! TO.N,Net-(J6-Pad2)*
X203200000Y-123190000D03*
G04 #@! TD*
D12*
G04 #@! TO.P,J7,1*
G04 #@! TO.N,Net-(J7-Pad1)*
X212090000Y-123190000D03*
D11*
G04 #@! TO.P,J7,2*
G04 #@! TO.N,Net-(J7-Pad2)*
X217170000Y-123190000D03*
G04 #@! TD*
D12*
G04 #@! TO.P,J8,1*
G04 #@! TO.N,Net-(J8-Pad1)*
X226060000Y-123190000D03*
D11*
G04 #@! TO.P,J8,2*
G04 #@! TO.N,Net-(J8-Pad2)*
X231140000Y-123190000D03*
G04 #@! TD*
D13*
G04 #@! TO.P,K2,4*
G04 #@! TO.N,Net-(D13-Pad1)*
X176410000Y-87630000D03*
D11*
G04 #@! TO.P,K2,3*
G04 #@! TO.N,Net-(J4-Pad2)*
X176410000Y-107630000D03*
G04 #@! TO.P,K2,2*
G04 #@! TO.N,Net-(J4-Pad1)*
X168910000Y-104130000D03*
D14*
G04 #@! TO.P,K2,1*
G04 #@! TO.N,+24V*
X168910000Y-87630000D03*
G04 #@! TD*
D13*
G04 #@! TO.P,K3,4*
G04 #@! TO.N,Net-(D15-Pad1)*
X190380000Y-87630000D03*
D11*
G04 #@! TO.P,K3,3*
G04 #@! TO.N,Net-(J5-Pad2)*
X190380000Y-107630000D03*
G04 #@! TO.P,K3,2*
G04 #@! TO.N,Net-(J5-Pad1)*
X182880000Y-104130000D03*
D14*
G04 #@! TO.P,K3,1*
G04 #@! TO.N,+24V*
X182880000Y-87630000D03*
G04 #@! TD*
D13*
G04 #@! TO.P,K4,4*
G04 #@! TO.N,Net-(D17-Pad1)*
X204350000Y-87630000D03*
D11*
G04 #@! TO.P,K4,3*
G04 #@! TO.N,Net-(J6-Pad2)*
X204350000Y-107630000D03*
G04 #@! TO.P,K4,2*
G04 #@! TO.N,Net-(J6-Pad1)*
X196850000Y-104130000D03*
D14*
G04 #@! TO.P,K4,1*
G04 #@! TO.N,+24V*
X196850000Y-87630000D03*
G04 #@! TD*
D13*
G04 #@! TO.P,K5,4*
G04 #@! TO.N,Net-(D19-Pad1)*
X218320000Y-87630000D03*
D11*
G04 #@! TO.P,K5,3*
G04 #@! TO.N,Net-(J7-Pad2)*
X218320000Y-107630000D03*
G04 #@! TO.P,K5,2*
G04 #@! TO.N,Net-(J7-Pad1)*
X210820000Y-104130000D03*
D14*
G04 #@! TO.P,K5,1*
G04 #@! TO.N,+24V*
X210820000Y-87630000D03*
G04 #@! TD*
D13*
G04 #@! TO.P,K6,4*
G04 #@! TO.N,Net-(D21-Pad1)*
X232290000Y-87630000D03*
D11*
G04 #@! TO.P,K6,3*
G04 #@! TO.N,Net-(J8-Pad2)*
X232290000Y-107630000D03*
G04 #@! TO.P,K6,2*
G04 #@! TO.N,Net-(J8-Pad1)*
X224790000Y-104130000D03*
D14*
G04 #@! TO.P,K6,1*
G04 #@! TO.N,+24V*
X224790000Y-87630000D03*
G04 #@! TD*
D17*
G04 #@! TO.P,RV2,2*
G04 #@! TO.N,Net-(J4-Pad2)*
X176410000Y-114430000D03*
G04 #@! TO.P,RV2,1*
G04 #@! TO.N,Net-(J4-Pad1)*
X168910000Y-113030000D03*
G04 #@! TD*
G04 #@! TO.P,RV3,2*
G04 #@! TO.N,Net-(J5-Pad2)*
X190380000Y-114430000D03*
G04 #@! TO.P,RV3,1*
G04 #@! TO.N,Net-(J5-Pad1)*
X182880000Y-113030000D03*
G04 #@! TD*
G04 #@! TO.P,RV4,2*
G04 #@! TO.N,Net-(J6-Pad2)*
X204350000Y-114430000D03*
G04 #@! TO.P,RV4,1*
G04 #@! TO.N,Net-(J6-Pad1)*
X196850000Y-113030000D03*
G04 #@! TD*
G04 #@! TO.P,RV5,2*
G04 #@! TO.N,Net-(J7-Pad2)*
X218320000Y-114430000D03*
G04 #@! TO.P,RV5,1*
G04 #@! TO.N,Net-(J7-Pad1)*
X210820000Y-113030000D03*
G04 #@! TD*
G04 #@! TO.P,RV6,2*
G04 #@! TO.N,Net-(J8-Pad2)*
X232290000Y-114430000D03*
G04 #@! TO.P,RV6,1*
G04 #@! TO.N,Net-(J8-Pad1)*
X224790000Y-113030000D03*
G04 #@! TD*
D18*
G04 #@! TO.P,Q1,1*
G04 #@! TO.N,Net-(D11-Pad1)*
X162560000Y-74930000D03*
D19*
G04 #@! TO.P,Q1,3*
G04 #@! TO.N,GNDREF*
X162560000Y-69850000D03*
G04 #@! TO.P,Q1,2*
G04 #@! TO.N,Net-(Q1-Pad2)*
X162560000Y-72390000D03*
G04 #@! TD*
G04 #@! TO.P,Q2,2*
G04 #@! TO.N,Net-(Q2-Pad2)*
X176530000Y-72390000D03*
G04 #@! TO.P,Q2,3*
G04 #@! TO.N,GNDREF*
X176530000Y-69850000D03*
D18*
G04 #@! TO.P,Q2,1*
G04 #@! TO.N,Net-(D13-Pad1)*
X176530000Y-74930000D03*
G04 #@! TD*
D19*
G04 #@! TO.P,Q3,2*
G04 #@! TO.N,Net-(Q3-Pad2)*
X190500000Y-72390000D03*
G04 #@! TO.P,Q3,3*
G04 #@! TO.N,GNDREF*
X190500000Y-69850000D03*
D18*
G04 #@! TO.P,Q3,1*
G04 #@! TO.N,Net-(D15-Pad1)*
X190500000Y-74930000D03*
G04 #@! TD*
G04 #@! TO.P,Q4,1*
G04 #@! TO.N,Net-(D17-Pad1)*
X204470000Y-74930000D03*
D19*
G04 #@! TO.P,Q4,3*
G04 #@! TO.N,GNDREF*
X204470000Y-69850000D03*
G04 #@! TO.P,Q4,2*
G04 #@! TO.N,Net-(Q4-Pad2)*
X204470000Y-72390000D03*
G04 #@! TD*
G04 #@! TO.P,Q5,2*
G04 #@! TO.N,Net-(Q5-Pad2)*
X218440000Y-72390000D03*
G04 #@! TO.P,Q5,3*
G04 #@! TO.N,GNDREF*
X218440000Y-69850000D03*
D18*
G04 #@! TO.P,Q5,1*
G04 #@! TO.N,Net-(D19-Pad1)*
X218440000Y-74930000D03*
G04 #@! TD*
G04 #@! TO.P,Q6,1*
G04 #@! TO.N,Net-(D21-Pad1)*
X232410000Y-74930000D03*
D19*
G04 #@! TO.P,Q6,3*
G04 #@! TO.N,GNDREF*
X232410000Y-69850000D03*
G04 #@! TO.P,Q6,2*
G04 #@! TO.N,Net-(Q6-Pad2)*
X232410000Y-72390000D03*
G04 #@! TD*
D16*
G04 #@! TO.P,U4,1*
G04 #@! TO.N,Net-(D5-Pad2)*
X105410000Y-72390000D03*
D15*
G04 #@! TO.P,U4,5*
G04 #@! TO.N,GNDREF*
X113030000Y-80010000D03*
G04 #@! TO.P,U4,2*
X105410000Y-74930000D03*
G04 #@! TO.P,U4,6*
G04 #@! TO.N,/32-GPI36*
X113030000Y-77470000D03*
G04 #@! TO.P,U4,3*
G04 #@! TO.N,Net-(D6-Pad2)*
X105410000Y-77470000D03*
G04 #@! TO.P,U4,7*
G04 #@! TO.N,GNDREF*
X113030000Y-74930000D03*
G04 #@! TO.P,U4,4*
X105410000Y-80010000D03*
G04 #@! TO.P,U4,8*
G04 #@! TO.N,/32-GPI39*
X113030000Y-72390000D03*
G04 #@! TD*
G04 #@! TO.P,U5,8*
G04 #@! TO.N,/32-GPI35*
X113030000Y-87630000D03*
G04 #@! TO.P,U5,4*
G04 #@! TO.N,GNDREF*
X105410000Y-95250000D03*
G04 #@! TO.P,U5,7*
X113030000Y-90170000D03*
G04 #@! TO.P,U5,3*
G04 #@! TO.N,Net-(D8-Pad2)*
X105410000Y-92710000D03*
G04 #@! TO.P,U5,6*
G04 #@! TO.N,/32-GPI34*
X113030000Y-92710000D03*
G04 #@! TO.P,U5,2*
G04 #@! TO.N,GNDREF*
X105410000Y-90170000D03*
G04 #@! TO.P,U5,5*
X113030000Y-95250000D03*
D16*
G04 #@! TO.P,U5,1*
G04 #@! TO.N,Net-(D7-Pad2)*
X105410000Y-87630000D03*
G04 #@! TD*
G04 #@! TO.P,U6,1*
G04 #@! TO.N,Net-(D9-Pad2)*
X105410000Y-102870000D03*
D15*
G04 #@! TO.P,U6,5*
G04 #@! TO.N,GNDREF*
X113030000Y-110490000D03*
G04 #@! TO.P,U6,2*
X105410000Y-105410000D03*
G04 #@! TO.P,U6,6*
G04 #@! TO.N,/32-GPIO14*
X113030000Y-107950000D03*
G04 #@! TO.P,U6,3*
G04 #@! TO.N,Net-(D10-Pad2)*
X105410000Y-107950000D03*
G04 #@! TO.P,U6,7*
G04 #@! TO.N,GNDREF*
X113030000Y-105410000D03*
G04 #@! TO.P,U6,4*
X105410000Y-110490000D03*
G04 #@! TO.P,U6,8*
G04 #@! TO.N,/32-GPIO15*
X113030000Y-102870000D03*
G04 #@! TD*
D20*
G04 #@! TO.N,GNDREF*
X148590000Y-69850000D03*
X148590000Y-82550000D03*
X85090000Y-110490000D03*
X85090000Y-95250000D03*
X85090000Y-86360000D03*
X95250000Y-89535000D03*
X95250000Y-74295000D03*
X95250000Y-104775000D03*
X85090000Y-88900000D03*
X85090000Y-97790000D03*
X85090000Y-107950000D03*
X128905000Y-82550000D03*
X128905000Y-97790000D03*
G04 #@! TO.N,+24V*
X131445000Y-90170000D03*
X131445000Y-120650000D03*
G04 #@! TO.N,+5V*
X68580000Y-76200000D03*
X77470000Y-93980000D03*
X126365000Y-85090000D03*
X126365000Y-118110000D03*
X126365000Y-92075000D03*
G04 #@! TO.N,/32-GPI34*
X140970000Y-80010000D03*
X140970000Y-100330000D03*
X116840000Y-91440000D03*
G04 #@! TO.N,/32-GPI36*
X133350000Y-77470000D03*
X133350000Y-93980000D03*
G04 #@! TO.N,/32-GPI35*
X135890000Y-97790000D03*
X135890000Y-69850000D03*
X116840000Y-89535000D03*
G04 #@! TO.N,/32-GPI39*
X134620000Y-92710000D03*
X134620000Y-74930000D03*
G04 #@! TO.N,/32-GPIO14*
X116840000Y-106680000D03*
G04 #@! TO.N,/32-GPIO15*
X116840000Y-104775000D03*
G04 #@! TO.N,/32-GPIO2*
X208280000Y-72390000D03*
X123190000Y-86995000D03*
G04 #@! TO.N,/32-GPIO4*
X222250000Y-72390000D03*
X124460000Y-88265000D03*
G04 #@! TO.N,/32-GPIO13*
X194310000Y-72390000D03*
X142240000Y-115570000D03*
X142240000Y-78740000D03*
G04 #@! TO.N,/32-GPIO16*
X180340000Y-72390000D03*
X139700000Y-77470000D03*
X139700000Y-107950000D03*
G04 #@! TO.N,/32-GPIO33*
X152400000Y-72390000D03*
X137160000Y-72390000D03*
X137160000Y-102870000D03*
G04 #@! TO.N,/32-GPIO32*
X166370000Y-72390000D03*
X138430000Y-74930000D03*
X138430000Y-105410000D03*
G04 #@! TD*
D21*
G04 #@! TO.N,GNDREF*
X232410000Y-69850000D02*
X218440000Y-69850000D01*
X218440000Y-69850000D02*
X204470000Y-69850000D01*
X204470000Y-69850000D02*
X190500000Y-69850000D01*
X190500000Y-69850000D02*
X176530000Y-69850000D01*
X176530000Y-69850000D02*
X162560000Y-69850000D01*
X115570000Y-97790000D02*
X113030000Y-95250000D01*
X120650000Y-97790000D02*
X115570000Y-97790000D01*
X162560000Y-69850000D02*
X148590000Y-69850000D01*
X148590000Y-82550000D02*
X144780000Y-82550000D01*
X109220000Y-105410000D02*
X109220000Y-110490000D01*
X109220000Y-110490000D02*
X105410000Y-110490000D01*
X113030000Y-110490000D02*
X109220000Y-110490000D01*
X113030000Y-105410000D02*
X109220000Y-105410000D01*
X109220000Y-105410000D02*
X105410000Y-105410000D01*
X109220000Y-74930000D02*
X109220000Y-80010000D01*
X113030000Y-80010000D02*
X109220000Y-80010000D01*
X109220000Y-80010000D02*
X105410000Y-80010000D01*
X113030000Y-74930000D02*
X109220000Y-74930000D01*
X109220000Y-74930000D02*
X105410000Y-74930000D01*
X109220000Y-90170000D02*
X109220000Y-95250000D01*
X109220000Y-95250000D02*
X105410000Y-95250000D01*
X113030000Y-95250000D02*
X109220000Y-95250000D01*
X113030000Y-90170000D02*
X109220000Y-90170000D01*
X109220000Y-90170000D02*
X105410000Y-90170000D01*
X85090000Y-82550000D02*
X85090000Y-86360000D01*
X87630000Y-80010000D02*
X85090000Y-82550000D01*
X95250000Y-109855000D02*
X95885000Y-110490000D01*
X95250000Y-104775000D02*
X95250000Y-109855000D01*
X95885000Y-110490000D02*
X85090000Y-110490000D01*
X105410000Y-110490000D02*
X95885000Y-110490000D01*
X95250000Y-89535000D02*
X95250000Y-94615000D01*
X95885000Y-95250000D02*
X85090000Y-95250000D01*
X95250000Y-94615000D02*
X95885000Y-95250000D01*
X105410000Y-95250000D02*
X95885000Y-95250000D01*
X95250000Y-74295000D02*
X95250000Y-80010000D01*
X95250000Y-80010000D02*
X87630000Y-80010000D01*
X105410000Y-80010000D02*
X95250000Y-80010000D01*
X85090000Y-86360000D02*
X85090000Y-88900000D01*
X85090000Y-97790000D02*
X85090000Y-95250000D01*
X144780000Y-82550000D02*
X128905000Y-82550000D01*
X128905000Y-97790000D02*
X120650000Y-97790000D01*
X85090000Y-107950000D02*
X85090000Y-110490000D01*
G04 #@! TO.N,+24V*
X224790000Y-87630000D02*
X224790000Y-91440000D01*
X224790000Y-91440000D02*
X223520000Y-92710000D01*
X168910000Y-87630000D02*
X168910000Y-92710000D01*
X182880000Y-87630000D02*
X182880000Y-92710000D01*
X182880000Y-92710000D02*
X168910000Y-92710000D01*
X196850000Y-87630000D02*
X196850000Y-92710000D01*
X196850000Y-92710000D02*
X182880000Y-92710000D01*
X210820000Y-87630000D02*
X210820000Y-92710000D01*
X210820000Y-92710000D02*
X196850000Y-92710000D01*
X223520000Y-92710000D02*
X210820000Y-92710000D01*
X154940000Y-87630000D02*
X154940000Y-92710000D01*
X168910000Y-92710000D02*
X154940000Y-92710000D01*
X149860000Y-90170000D02*
X152400000Y-92710000D01*
X131445000Y-90170000D02*
X149860000Y-90170000D01*
X152400000Y-92710000D02*
X154940000Y-92710000D01*
X74930000Y-118110000D02*
X72390000Y-120650000D01*
X72390000Y-120650000D02*
X72390000Y-123190000D01*
X114935000Y-118110000D02*
X74930000Y-118110000D01*
X117475000Y-120650000D02*
X114935000Y-118110000D01*
X131445000Y-120650000D02*
X117475000Y-120650000D01*
D22*
G04 #@! TO.N,+5V*
X74930000Y-91440000D02*
X74930000Y-87630000D01*
X68580000Y-81280000D02*
X68580000Y-76200000D01*
X74930000Y-87630000D02*
X68580000Y-81280000D01*
D21*
X144780000Y-85090000D02*
X126365000Y-85090000D01*
X79629010Y-115189010D02*
X77470000Y-113030000D01*
X115824010Y-115189010D02*
X79629010Y-115189010D01*
X118745000Y-118110000D02*
X115824010Y-115189010D01*
X77470000Y-113030000D02*
X77470000Y-93980000D01*
X126365000Y-118110000D02*
X118745000Y-118110000D01*
D23*
X121285000Y-92075000D02*
X126365000Y-92075000D01*
X120650000Y-92710000D02*
X121285000Y-92075000D01*
D22*
X77470000Y-93980000D02*
X74930000Y-91440000D01*
D24*
G04 #@! TO.N,/32-GPI34*
X144780000Y-80010000D02*
X140970000Y-80010000D01*
X140970000Y-100330000D02*
X146050000Y-100330000D01*
X140970000Y-100330000D02*
X133985000Y-100330000D01*
X133985000Y-100330000D02*
X127635000Y-93980000D01*
X127635000Y-93980000D02*
X122555000Y-93980000D01*
D25*
X122555000Y-93980000D02*
X118745000Y-93980000D01*
D24*
X116840000Y-91440000D02*
X116840000Y-93345000D01*
X116840000Y-93345000D02*
X117475000Y-93980000D01*
X117475000Y-93980000D02*
X118745000Y-93980000D01*
G04 #@! TO.N,/32-GPI36*
X133350000Y-77470000D02*
X121920000Y-77470000D01*
X134620000Y-95250000D02*
X133350000Y-93980000D01*
X146050000Y-95250000D02*
X134620000Y-95250000D01*
G04 #@! TO.N,/32-GPI35*
X135890000Y-97790000D02*
X146050000Y-97790000D01*
X144780000Y-69850000D02*
X135890000Y-69850000D01*
X134620000Y-97790000D02*
X135890000Y-97790000D01*
X126365000Y-89535000D02*
X134620000Y-97790000D01*
X116840000Y-89535000D02*
X126365000Y-89535000D01*
G04 #@! TO.N,/32-GPI39*
X146050000Y-92710000D02*
X134620000Y-92710000D01*
X134620000Y-74930000D02*
X121920000Y-74930000D01*
G04 #@! TO.N,/32-GPIO14*
X146050000Y-113030000D02*
X128905000Y-113030000D01*
X128905000Y-113030000D02*
X125095000Y-109220000D01*
X125095000Y-109220000D02*
X121920000Y-109220000D01*
D25*
X121920000Y-109220000D02*
X119380000Y-109220000D01*
D24*
X117475000Y-109220000D02*
X119380000Y-109220000D01*
X116840000Y-108585000D02*
X117475000Y-109220000D01*
X116840000Y-106680000D02*
X116840000Y-108585000D01*
G04 #@! TO.N,/32-GPIO15*
X146050000Y-110490000D02*
X131445000Y-110490000D01*
X131445000Y-110490000D02*
X125095000Y-104140000D01*
X125095000Y-104140000D02*
X121920000Y-104140000D01*
D25*
X121920000Y-104140000D02*
X119380000Y-104140000D01*
D24*
X117475000Y-104140000D02*
X116840000Y-104775000D01*
X119380000Y-104140000D02*
X117475000Y-104140000D01*
G04 #@! TO.N,/32-GPIO2*
X205740000Y-82550000D02*
X208280000Y-80010000D01*
X208280000Y-80010000D02*
X208280000Y-72390000D01*
X152400000Y-82550000D02*
X205740000Y-82550000D01*
X147955000Y-86995000D02*
X152400000Y-82550000D01*
X123190000Y-86995000D02*
X147955000Y-86995000D01*
G04 #@! TO.N,/32-GPIO4*
X149225000Y-88265000D02*
X124460000Y-88265000D01*
X153670000Y-83820000D02*
X149225000Y-88265000D01*
X219710000Y-83820000D02*
X153670000Y-83820000D01*
X222250000Y-81280000D02*
X219710000Y-83820000D01*
X222250000Y-72390000D02*
X222250000Y-81280000D01*
D25*
G04 #@! TO.N,/32-GPIO13*
X143510000Y-78740000D02*
X146050000Y-78740000D01*
D24*
X146050000Y-115570000D02*
X142240000Y-115570000D01*
X142240000Y-78740000D02*
X143510000Y-78740000D01*
X137795000Y-78740000D02*
X142240000Y-78740000D01*
X136525000Y-80010000D02*
X137795000Y-78740000D01*
X121920000Y-80010000D02*
X136525000Y-80010000D01*
X149860000Y-78740000D02*
X146050000Y-78740000D01*
X152400000Y-81280000D02*
X149860000Y-78740000D01*
X191770000Y-81280000D02*
X152400000Y-81280000D01*
X194310000Y-78740000D02*
X191770000Y-81280000D01*
X194310000Y-72390000D02*
X194310000Y-78740000D01*
G04 #@! TO.N,/32-GPIO16*
X144780000Y-77470000D02*
X139700000Y-77470000D01*
X139700000Y-107950000D02*
X146050000Y-107950000D01*
X151130000Y-77470000D02*
X144780000Y-77470000D01*
X153670000Y-80010000D02*
X151130000Y-77470000D01*
X177800000Y-80010000D02*
X153670000Y-80010000D01*
X180340000Y-77470000D02*
X177800000Y-80010000D01*
X180340000Y-72390000D02*
X180340000Y-77470000D01*
G04 #@! TO.N,/32-GPIO33*
X152400000Y-72390000D02*
X144780000Y-72390000D01*
X144780000Y-72390000D02*
X137160000Y-72390000D01*
X137160000Y-102870000D02*
X146050000Y-102870000D01*
G04 #@! TO.N,/32-GPIO32*
X144780000Y-74930000D02*
X138430000Y-74930000D01*
X138430000Y-105410000D02*
X146050000Y-105410000D01*
X151130000Y-74930000D02*
X144780000Y-74930000D01*
X163830000Y-78740000D02*
X154940000Y-78740000D01*
X166370000Y-76200000D02*
X163830000Y-78740000D01*
X154940000Y-78740000D02*
X151130000Y-74930000D01*
X166370000Y-72390000D02*
X166370000Y-76200000D01*
D26*
G04 #@! TO.N,Net-(J3-Pad2)*
X162440000Y-114430000D02*
X162440000Y-122040000D01*
X162440000Y-122040000D02*
X161290000Y-123190000D01*
X162440000Y-107630000D02*
X162440000Y-114430000D01*
G04 #@! TO.N,Net-(J3-Pad1)*
X154940000Y-121920000D02*
X156210000Y-123190000D01*
X154940000Y-113030000D02*
X154940000Y-121920000D01*
X154940000Y-104130000D02*
X154940000Y-113030000D01*
G04 #@! TO.N,Net-(J4-Pad2)*
X176410000Y-114430000D02*
X176410000Y-122040000D01*
X176410000Y-122040000D02*
X175260000Y-123190000D01*
X176410000Y-107630000D02*
X176410000Y-114430000D01*
G04 #@! TO.N,Net-(J4-Pad1)*
X168910000Y-113030000D02*
X168910000Y-121920000D01*
X168910000Y-121920000D02*
X170180000Y-123190000D01*
X168910000Y-104130000D02*
X168910000Y-113030000D01*
G04 #@! TO.N,Net-(J5-Pad1)*
X182880000Y-121920000D02*
X184150000Y-123190000D01*
X182880000Y-113030000D02*
X182880000Y-121920000D01*
X182880000Y-104130000D02*
X182880000Y-113030000D01*
G04 #@! TO.N,Net-(J5-Pad2)*
X190380000Y-122040000D02*
X189230000Y-123190000D01*
X190380000Y-114430000D02*
X190380000Y-122040000D01*
X190380000Y-107630000D02*
X190380000Y-114430000D01*
G04 #@! TO.N,Net-(J6-Pad2)*
X204350000Y-114430000D02*
X204350000Y-122040000D01*
X204350000Y-122040000D02*
X203200000Y-123190000D01*
X204350000Y-107630000D02*
X204350000Y-114430000D01*
G04 #@! TO.N,Net-(J6-Pad1)*
X196850000Y-121920000D02*
X198120000Y-123190000D01*
X196850000Y-113030000D02*
X196850000Y-121920000D01*
X196850000Y-104130000D02*
X196850000Y-113030000D01*
G04 #@! TO.N,Net-(J7-Pad1)*
X210820000Y-113030000D02*
X210820000Y-121920000D01*
X210820000Y-121920000D02*
X212090000Y-123190000D01*
X210820000Y-104130000D02*
X210820000Y-113030000D01*
G04 #@! TO.N,Net-(J7-Pad2)*
X218320000Y-114430000D02*
X218320000Y-122040000D01*
X218320000Y-122040000D02*
X217170000Y-123190000D01*
X218320000Y-107630000D02*
X218320000Y-114430000D01*
G04 #@! TO.N,Net-(J8-Pad2)*
X232290000Y-114430000D02*
X232290000Y-122040000D01*
X232290000Y-122040000D02*
X231140000Y-123190000D01*
X232290000Y-107630000D02*
X232290000Y-114430000D01*
G04 #@! TO.N,Net-(J8-Pad1)*
X224790000Y-113030000D02*
X224790000Y-121920000D01*
X224790000Y-121920000D02*
X226060000Y-123190000D01*
X224790000Y-104130000D02*
X224790000Y-113030000D01*
G04 #@! TD*
M02*
