G04 #@! TF.GenerationSoftware,KiCad,Pcbnew,(5.1.10)-1*
G04 #@! TF.CreationDate,2021-10-04T14:19:23-03:00*
G04 #@! TF.ProjectId,ESP-relay_6ch,4553502d-7265-46c6-9179-5f3663682e6b,rev?*
G04 #@! TF.SameCoordinates,Original*
G04 #@! TF.FileFunction,Copper,L1,Top*
G04 #@! TF.FilePolarity,Positive*
%FSLAX46Y46*%
G04 Gerber Fmt 4.6, Leading zero omitted, Abs format (unit mm)*
G04 Created by KiCad (PCBNEW (5.1.10)-1) date 2021-10-04 14:19:23*
%MOMM*%
%LPD*%
G01*
G04 APERTURE LIST*
G04 #@! TA.AperFunction,ComponentPad*
%ADD10C,3.500000*%
G04 #@! TD*
G04 #@! TA.AperFunction,ComponentPad*
%ADD11R,3.500000X3.500000*%
G04 #@! TD*
G04 #@! TA.AperFunction,ComponentPad*
%ADD12C,2.600000*%
G04 #@! TD*
G04 #@! TA.AperFunction,ComponentPad*
%ADD13R,2.600000X2.600000*%
G04 #@! TD*
G04 #@! TA.AperFunction,ComponentPad*
%ADD14O,2.500000X1.750000*%
G04 #@! TD*
G04 #@! TA.AperFunction,ComponentPad*
%ADD15R,2.500000X1.750000*%
G04 #@! TD*
G04 #@! TA.AperFunction,ComponentPad*
%ADD16C,2.500000*%
G04 #@! TD*
G04 #@! TA.AperFunction,ComponentPad*
%ADD17R,2.500000X1.800000*%
G04 #@! TD*
G04 #@! TA.AperFunction,ComponentPad*
%ADD18O,2.500000X1.800000*%
G04 #@! TD*
G04 #@! TA.AperFunction,SMDPad,CuDef*
%ADD19R,5.800000X6.400000*%
G04 #@! TD*
G04 #@! TA.AperFunction,SMDPad,CuDef*
%ADD20R,1.600000X2.200000*%
G04 #@! TD*
G04 #@! TA.AperFunction,ViaPad*
%ADD21C,1.200000*%
G04 #@! TD*
G04 #@! TA.AperFunction,Conductor*
%ADD22C,1.905000*%
G04 #@! TD*
G04 #@! TA.AperFunction,Conductor*
%ADD23C,1.016000*%
G04 #@! TD*
G04 #@! TA.AperFunction,Conductor*
%ADD24C,1.270000*%
G04 #@! TD*
G04 #@! TA.AperFunction,Conductor*
%ADD25C,1.524000*%
G04 #@! TD*
G04 #@! TA.AperFunction,Conductor*
%ADD26C,0.635000*%
G04 #@! TD*
G04 #@! TA.AperFunction,Conductor*
%ADD27C,3.810000*%
G04 #@! TD*
G04 APERTURE END LIST*
G04 #@! TO.P,D1,2*
G04 #@! TO.N,+24V*
G04 #@! TA.AperFunction,SMDPad,CuDef*
G36*
G01*
X71840000Y-113650000D02*
X72940000Y-113650000D01*
G75*
G02*
X73265000Y-113975000I0J-325000D01*
G01*
X73265000Y-114625000D01*
G75*
G02*
X72940000Y-114950000I-325000J0D01*
G01*
X71840000Y-114950000D01*
G75*
G02*
X71515000Y-114625000I0J325000D01*
G01*
X71515000Y-113975000D01*
G75*
G02*
X71840000Y-113650000I325000J0D01*
G01*
G37*
G04 #@! TD.AperFunction*
G04 #@! TO.P,D1,1*
G04 #@! TO.N,+24VA*
G04 #@! TA.AperFunction,SMDPad,CuDef*
G36*
G01*
X71840000Y-110350000D02*
X72940000Y-110350000D01*
G75*
G02*
X73265000Y-110675000I0J-325000D01*
G01*
X73265000Y-111325000D01*
G75*
G02*
X72940000Y-111650000I-325000J0D01*
G01*
X71840000Y-111650000D01*
G75*
G02*
X71515000Y-111325000I0J325000D01*
G01*
X71515000Y-110675000D01*
G75*
G02*
X71840000Y-110350000I325000J0D01*
G01*
G37*
G04 #@! TD.AperFunction*
G04 #@! TD*
G04 #@! TO.P,R17,1*
G04 #@! TO.N,+24V*
G04 #@! TA.AperFunction,SMDPad,CuDef*
G36*
G01*
X154427500Y-81095002D02*
X154427500Y-80194998D01*
G75*
G02*
X154677498Y-79945000I249998J0D01*
G01*
X155202502Y-79945000D01*
G75*
G02*
X155452500Y-80194998I0J-249998D01*
G01*
X155452500Y-81095002D01*
G75*
G02*
X155202502Y-81345000I-249998J0D01*
G01*
X154677498Y-81345000D01*
G75*
G02*
X154427500Y-81095002I0J249998D01*
G01*
G37*
G04 #@! TD.AperFunction*
G04 #@! TO.P,R17,2*
G04 #@! TO.N,Net-(D11-Pad2)*
G04 #@! TA.AperFunction,SMDPad,CuDef*
G36*
G01*
X156252500Y-81095002D02*
X156252500Y-80194998D01*
G75*
G02*
X156502498Y-79945000I249998J0D01*
G01*
X157027502Y-79945000D01*
G75*
G02*
X157277500Y-80194998I0J-249998D01*
G01*
X157277500Y-81095002D01*
G75*
G02*
X157027502Y-81345000I-249998J0D01*
G01*
X156502498Y-81345000D01*
G75*
G02*
X156252500Y-81095002I0J249998D01*
G01*
G37*
G04 #@! TD.AperFunction*
G04 #@! TD*
G04 #@! TO.P,R26,1*
G04 #@! TO.N,Net-(Q6-Pad2)*
G04 #@! TA.AperFunction,SMDPad,CuDef*
G36*
G01*
X227127500Y-71939998D02*
X227127500Y-72840002D01*
G75*
G02*
X226877502Y-73090000I-249998J0D01*
G01*
X226352498Y-73090000D01*
G75*
G02*
X226102500Y-72840002I0J249998D01*
G01*
X226102500Y-71939998D01*
G75*
G02*
X226352498Y-71690000I249998J0D01*
G01*
X226877502Y-71690000D01*
G75*
G02*
X227127500Y-71939998I0J-249998D01*
G01*
G37*
G04 #@! TD.AperFunction*
G04 #@! TO.P,R26,2*
G04 #@! TO.N,/32-GPIO4*
G04 #@! TA.AperFunction,SMDPad,CuDef*
G36*
G01*
X225302500Y-71939998D02*
X225302500Y-72840002D01*
G75*
G02*
X225052502Y-73090000I-249998J0D01*
G01*
X224527498Y-73090000D01*
G75*
G02*
X224277500Y-72840002I0J249998D01*
G01*
X224277500Y-71939998D01*
G75*
G02*
X224527498Y-71690000I249998J0D01*
G01*
X225052502Y-71690000D01*
G75*
G02*
X225302500Y-71939998I0J-249998D01*
G01*
G37*
G04 #@! TD.AperFunction*
G04 #@! TD*
G04 #@! TO.P,R24,1*
G04 #@! TO.N,Net-(Q5-Pad2)*
G04 #@! TA.AperFunction,SMDPad,CuDef*
G36*
G01*
X213157500Y-71939998D02*
X213157500Y-72840002D01*
G75*
G02*
X212907502Y-73090000I-249998J0D01*
G01*
X212382498Y-73090000D01*
G75*
G02*
X212132500Y-72840002I0J249998D01*
G01*
X212132500Y-71939998D01*
G75*
G02*
X212382498Y-71690000I249998J0D01*
G01*
X212907502Y-71690000D01*
G75*
G02*
X213157500Y-71939998I0J-249998D01*
G01*
G37*
G04 #@! TD.AperFunction*
G04 #@! TO.P,R24,2*
G04 #@! TO.N,/32-GPIO2*
G04 #@! TA.AperFunction,SMDPad,CuDef*
G36*
G01*
X211332500Y-71939998D02*
X211332500Y-72840002D01*
G75*
G02*
X211082502Y-73090000I-249998J0D01*
G01*
X210557498Y-73090000D01*
G75*
G02*
X210307500Y-72840002I0J249998D01*
G01*
X210307500Y-71939998D01*
G75*
G02*
X210557498Y-71690000I249998J0D01*
G01*
X211082502Y-71690000D01*
G75*
G02*
X211332500Y-71939998I0J-249998D01*
G01*
G37*
G04 #@! TD.AperFunction*
G04 #@! TD*
G04 #@! TO.P,R22,1*
G04 #@! TO.N,Net-(Q4-Pad2)*
G04 #@! TA.AperFunction,SMDPad,CuDef*
G36*
G01*
X199187500Y-71939998D02*
X199187500Y-72840002D01*
G75*
G02*
X198937502Y-73090000I-249998J0D01*
G01*
X198412498Y-73090000D01*
G75*
G02*
X198162500Y-72840002I0J249998D01*
G01*
X198162500Y-71939998D01*
G75*
G02*
X198412498Y-71690000I249998J0D01*
G01*
X198937502Y-71690000D01*
G75*
G02*
X199187500Y-71939998I0J-249998D01*
G01*
G37*
G04 #@! TD.AperFunction*
G04 #@! TO.P,R22,2*
G04 #@! TO.N,/32-GPIO13*
G04 #@! TA.AperFunction,SMDPad,CuDef*
G36*
G01*
X197362500Y-71939998D02*
X197362500Y-72840002D01*
G75*
G02*
X197112502Y-73090000I-249998J0D01*
G01*
X196587498Y-73090000D01*
G75*
G02*
X196337500Y-72840002I0J249998D01*
G01*
X196337500Y-71939998D01*
G75*
G02*
X196587498Y-71690000I249998J0D01*
G01*
X197112502Y-71690000D01*
G75*
G02*
X197362500Y-71939998I0J-249998D01*
G01*
G37*
G04 #@! TD.AperFunction*
G04 #@! TD*
G04 #@! TO.P,R20,1*
G04 #@! TO.N,Net-(Q3-Pad2)*
G04 #@! TA.AperFunction,SMDPad,CuDef*
G36*
G01*
X185217500Y-71939998D02*
X185217500Y-72840002D01*
G75*
G02*
X184967502Y-73090000I-249998J0D01*
G01*
X184442498Y-73090000D01*
G75*
G02*
X184192500Y-72840002I0J249998D01*
G01*
X184192500Y-71939998D01*
G75*
G02*
X184442498Y-71690000I249998J0D01*
G01*
X184967502Y-71690000D01*
G75*
G02*
X185217500Y-71939998I0J-249998D01*
G01*
G37*
G04 #@! TD.AperFunction*
G04 #@! TO.P,R20,2*
G04 #@! TO.N,/32-GPIO16*
G04 #@! TA.AperFunction,SMDPad,CuDef*
G36*
G01*
X183392500Y-71939998D02*
X183392500Y-72840002D01*
G75*
G02*
X183142502Y-73090000I-249998J0D01*
G01*
X182617498Y-73090000D01*
G75*
G02*
X182367500Y-72840002I0J249998D01*
G01*
X182367500Y-71939998D01*
G75*
G02*
X182617498Y-71690000I249998J0D01*
G01*
X183142502Y-71690000D01*
G75*
G02*
X183392500Y-71939998I0J-249998D01*
G01*
G37*
G04 #@! TD.AperFunction*
G04 #@! TD*
G04 #@! TO.P,R18,1*
G04 #@! TO.N,Net-(Q2-Pad2)*
G04 #@! TA.AperFunction,SMDPad,CuDef*
G36*
G01*
X171247500Y-71939998D02*
X171247500Y-72840002D01*
G75*
G02*
X170997502Y-73090000I-249998J0D01*
G01*
X170472498Y-73090000D01*
G75*
G02*
X170222500Y-72840002I0J249998D01*
G01*
X170222500Y-71939998D01*
G75*
G02*
X170472498Y-71690000I249998J0D01*
G01*
X170997502Y-71690000D01*
G75*
G02*
X171247500Y-71939998I0J-249998D01*
G01*
G37*
G04 #@! TD.AperFunction*
G04 #@! TO.P,R18,2*
G04 #@! TO.N,/32-GPIO32*
G04 #@! TA.AperFunction,SMDPad,CuDef*
G36*
G01*
X169422500Y-71939998D02*
X169422500Y-72840002D01*
G75*
G02*
X169172502Y-73090000I-249998J0D01*
G01*
X168647498Y-73090000D01*
G75*
G02*
X168397500Y-72840002I0J249998D01*
G01*
X168397500Y-71939998D01*
G75*
G02*
X168647498Y-71690000I249998J0D01*
G01*
X169172502Y-71690000D01*
G75*
G02*
X169422500Y-71939998I0J-249998D01*
G01*
G37*
G04 #@! TD.AperFunction*
G04 #@! TD*
G04 #@! TO.P,R16,1*
G04 #@! TO.N,Net-(Q1-Pad2)*
G04 #@! TA.AperFunction,SMDPad,CuDef*
G36*
G01*
X157277500Y-71939998D02*
X157277500Y-72840002D01*
G75*
G02*
X157027502Y-73090000I-249998J0D01*
G01*
X156502498Y-73090000D01*
G75*
G02*
X156252500Y-72840002I0J249998D01*
G01*
X156252500Y-71939998D01*
G75*
G02*
X156502498Y-71690000I249998J0D01*
G01*
X157027502Y-71690000D01*
G75*
G02*
X157277500Y-71939998I0J-249998D01*
G01*
G37*
G04 #@! TD.AperFunction*
G04 #@! TO.P,R16,2*
G04 #@! TO.N,/32-GPIO33*
G04 #@! TA.AperFunction,SMDPad,CuDef*
G36*
G01*
X155452500Y-71939998D02*
X155452500Y-72840002D01*
G75*
G02*
X155202502Y-73090000I-249998J0D01*
G01*
X154677498Y-73090000D01*
G75*
G02*
X154427500Y-72840002I0J249998D01*
G01*
X154427500Y-71939998D01*
G75*
G02*
X154677498Y-71690000I249998J0D01*
G01*
X155202502Y-71690000D01*
G75*
G02*
X155452500Y-71939998I0J-249998D01*
G01*
G37*
G04 #@! TD.AperFunction*
G04 #@! TD*
G04 #@! TO.P,R15,1*
G04 #@! TO.N,+3V3*
G04 #@! TA.AperFunction,SMDPad,CuDef*
G36*
G01*
X117290002Y-110287500D02*
X116389998Y-110287500D01*
G75*
G02*
X116140000Y-110037502I0J249998D01*
G01*
X116140000Y-109512498D01*
G75*
G02*
X116389998Y-109262500I249998J0D01*
G01*
X117290002Y-109262500D01*
G75*
G02*
X117540000Y-109512498I0J-249998D01*
G01*
X117540000Y-110037502D01*
G75*
G02*
X117290002Y-110287500I-249998J0D01*
G01*
G37*
G04 #@! TD.AperFunction*
G04 #@! TO.P,R15,2*
G04 #@! TO.N,/32-GPIO14*
G04 #@! TA.AperFunction,SMDPad,CuDef*
G36*
G01*
X117290002Y-108462500D02*
X116389998Y-108462500D01*
G75*
G02*
X116140000Y-108212502I0J249998D01*
G01*
X116140000Y-107687498D01*
G75*
G02*
X116389998Y-107437500I249998J0D01*
G01*
X117290002Y-107437500D01*
G75*
G02*
X117540000Y-107687498I0J-249998D01*
G01*
X117540000Y-108212502D01*
G75*
G02*
X117290002Y-108462500I-249998J0D01*
G01*
G37*
G04 #@! TD.AperFunction*
G04 #@! TD*
G04 #@! TO.P,R14,1*
G04 #@! TO.N,Net-(C9-Pad1)*
G04 #@! TA.AperFunction,SMDPad,CuDef*
G36*
G01*
X97587500Y-110039998D02*
X97587500Y-110940002D01*
G75*
G02*
X97337502Y-111190000I-249998J0D01*
G01*
X96812498Y-111190000D01*
G75*
G02*
X96562500Y-110940002I0J249998D01*
G01*
X96562500Y-110039998D01*
G75*
G02*
X96812498Y-109790000I249998J0D01*
G01*
X97337502Y-109790000D01*
G75*
G02*
X97587500Y-110039998I0J-249998D01*
G01*
G37*
G04 #@! TD.AperFunction*
G04 #@! TO.P,R14,2*
G04 #@! TO.N,Net-(J2-Pad6)*
G04 #@! TA.AperFunction,SMDPad,CuDef*
G36*
G01*
X95762500Y-110039998D02*
X95762500Y-110940002D01*
G75*
G02*
X95512502Y-111190000I-249998J0D01*
G01*
X94987498Y-111190000D01*
G75*
G02*
X94737500Y-110940002I0J249998D01*
G01*
X94737500Y-110039998D01*
G75*
G02*
X94987498Y-109790000I249998J0D01*
G01*
X95512502Y-109790000D01*
G75*
G02*
X95762500Y-110039998I0J-249998D01*
G01*
G37*
G04 #@! TD.AperFunction*
G04 #@! TD*
G04 #@! TO.P,R13,1*
G04 #@! TO.N,+3V3*
G04 #@! TA.AperFunction,SMDPad,CuDef*
G36*
G01*
X116389998Y-100532500D02*
X117290002Y-100532500D01*
G75*
G02*
X117540000Y-100782498I0J-249998D01*
G01*
X117540000Y-101307502D01*
G75*
G02*
X117290002Y-101557500I-249998J0D01*
G01*
X116389998Y-101557500D01*
G75*
G02*
X116140000Y-101307502I0J249998D01*
G01*
X116140000Y-100782498D01*
G75*
G02*
X116389998Y-100532500I249998J0D01*
G01*
G37*
G04 #@! TD.AperFunction*
G04 #@! TO.P,R13,2*
G04 #@! TO.N,/32-GPIO15*
G04 #@! TA.AperFunction,SMDPad,CuDef*
G36*
G01*
X116389998Y-102357500D02*
X117290002Y-102357500D01*
G75*
G02*
X117540000Y-102607498I0J-249998D01*
G01*
X117540000Y-103132502D01*
G75*
G02*
X117290002Y-103382500I-249998J0D01*
G01*
X116389998Y-103382500D01*
G75*
G02*
X116140000Y-103132502I0J249998D01*
G01*
X116140000Y-102607498D01*
G75*
G02*
X116389998Y-102357500I249998J0D01*
G01*
G37*
G04 #@! TD.AperFunction*
G04 #@! TD*
G04 #@! TO.P,R12,1*
G04 #@! TO.N,Net-(C8-Pad1)*
G04 #@! TA.AperFunction,SMDPad,CuDef*
G36*
G01*
X97587500Y-98609998D02*
X97587500Y-99510002D01*
G75*
G02*
X97337502Y-99760000I-249998J0D01*
G01*
X96812498Y-99760000D01*
G75*
G02*
X96562500Y-99510002I0J249998D01*
G01*
X96562500Y-98609998D01*
G75*
G02*
X96812498Y-98360000I249998J0D01*
G01*
X97337502Y-98360000D01*
G75*
G02*
X97587500Y-98609998I0J-249998D01*
G01*
G37*
G04 #@! TD.AperFunction*
G04 #@! TO.P,R12,2*
G04 #@! TO.N,Net-(J2-Pad5)*
G04 #@! TA.AperFunction,SMDPad,CuDef*
G36*
G01*
X95762500Y-98609998D02*
X95762500Y-99510002D01*
G75*
G02*
X95512502Y-99760000I-249998J0D01*
G01*
X94987498Y-99760000D01*
G75*
G02*
X94737500Y-99510002I0J249998D01*
G01*
X94737500Y-98609998D01*
G75*
G02*
X94987498Y-98360000I249998J0D01*
G01*
X95512502Y-98360000D01*
G75*
G02*
X95762500Y-98609998I0J-249998D01*
G01*
G37*
G04 #@! TD.AperFunction*
G04 #@! TD*
G04 #@! TO.P,R11,1*
G04 #@! TO.N,+3V3*
G04 #@! TA.AperFunction,SMDPad,CuDef*
G36*
G01*
X117290002Y-95047500D02*
X116389998Y-95047500D01*
G75*
G02*
X116140000Y-94797502I0J249998D01*
G01*
X116140000Y-94272498D01*
G75*
G02*
X116389998Y-94022500I249998J0D01*
G01*
X117290002Y-94022500D01*
G75*
G02*
X117540000Y-94272498I0J-249998D01*
G01*
X117540000Y-94797502D01*
G75*
G02*
X117290002Y-95047500I-249998J0D01*
G01*
G37*
G04 #@! TD.AperFunction*
G04 #@! TO.P,R11,2*
G04 #@! TO.N,/32-GPI34*
G04 #@! TA.AperFunction,SMDPad,CuDef*
G36*
G01*
X117290002Y-93222500D02*
X116389998Y-93222500D01*
G75*
G02*
X116140000Y-92972502I0J249998D01*
G01*
X116140000Y-92447498D01*
G75*
G02*
X116389998Y-92197500I249998J0D01*
G01*
X117290002Y-92197500D01*
G75*
G02*
X117540000Y-92447498I0J-249998D01*
G01*
X117540000Y-92972502D01*
G75*
G02*
X117290002Y-93222500I-249998J0D01*
G01*
G37*
G04 #@! TD.AperFunction*
G04 #@! TD*
G04 #@! TO.P,R10,1*
G04 #@! TO.N,Net-(C7-Pad1)*
G04 #@! TA.AperFunction,SMDPad,CuDef*
G36*
G01*
X97587500Y-94799998D02*
X97587500Y-95700002D01*
G75*
G02*
X97337502Y-95950000I-249998J0D01*
G01*
X96812498Y-95950000D01*
G75*
G02*
X96562500Y-95700002I0J249998D01*
G01*
X96562500Y-94799998D01*
G75*
G02*
X96812498Y-94550000I249998J0D01*
G01*
X97337502Y-94550000D01*
G75*
G02*
X97587500Y-94799998I0J-249998D01*
G01*
G37*
G04 #@! TD.AperFunction*
G04 #@! TO.P,R10,2*
G04 #@! TO.N,Net-(J2-Pad4)*
G04 #@! TA.AperFunction,SMDPad,CuDef*
G36*
G01*
X95762500Y-94799998D02*
X95762500Y-95700002D01*
G75*
G02*
X95512502Y-95950000I-249998J0D01*
G01*
X94987498Y-95950000D01*
G75*
G02*
X94737500Y-95700002I0J249998D01*
G01*
X94737500Y-94799998D01*
G75*
G02*
X94987498Y-94550000I249998J0D01*
G01*
X95512502Y-94550000D01*
G75*
G02*
X95762500Y-94799998I0J-249998D01*
G01*
G37*
G04 #@! TD.AperFunction*
G04 #@! TD*
G04 #@! TO.P,R9,1*
G04 #@! TO.N,+3V3*
G04 #@! TA.AperFunction,SMDPad,CuDef*
G36*
G01*
X116389998Y-85292500D02*
X117290002Y-85292500D01*
G75*
G02*
X117540000Y-85542498I0J-249998D01*
G01*
X117540000Y-86067502D01*
G75*
G02*
X117290002Y-86317500I-249998J0D01*
G01*
X116389998Y-86317500D01*
G75*
G02*
X116140000Y-86067502I0J249998D01*
G01*
X116140000Y-85542498D01*
G75*
G02*
X116389998Y-85292500I249998J0D01*
G01*
G37*
G04 #@! TD.AperFunction*
G04 #@! TO.P,R9,2*
G04 #@! TO.N,/32-GPI35*
G04 #@! TA.AperFunction,SMDPad,CuDef*
G36*
G01*
X116389998Y-87117500D02*
X117290002Y-87117500D01*
G75*
G02*
X117540000Y-87367498I0J-249998D01*
G01*
X117540000Y-87892502D01*
G75*
G02*
X117290002Y-88142500I-249998J0D01*
G01*
X116389998Y-88142500D01*
G75*
G02*
X116140000Y-87892502I0J249998D01*
G01*
X116140000Y-87367498D01*
G75*
G02*
X116389998Y-87117500I249998J0D01*
G01*
G37*
G04 #@! TD.AperFunction*
G04 #@! TD*
G04 #@! TO.P,R8,1*
G04 #@! TO.N,Net-(C6-Pad1)*
G04 #@! TA.AperFunction,SMDPad,CuDef*
G36*
G01*
X97587500Y-83369998D02*
X97587500Y-84270002D01*
G75*
G02*
X97337502Y-84520000I-249998J0D01*
G01*
X96812498Y-84520000D01*
G75*
G02*
X96562500Y-84270002I0J249998D01*
G01*
X96562500Y-83369998D01*
G75*
G02*
X96812498Y-83120000I249998J0D01*
G01*
X97337502Y-83120000D01*
G75*
G02*
X97587500Y-83369998I0J-249998D01*
G01*
G37*
G04 #@! TD.AperFunction*
G04 #@! TO.P,R8,2*
G04 #@! TO.N,Net-(J2-Pad3)*
G04 #@! TA.AperFunction,SMDPad,CuDef*
G36*
G01*
X95762500Y-83369998D02*
X95762500Y-84270002D01*
G75*
G02*
X95512502Y-84520000I-249998J0D01*
G01*
X94987498Y-84520000D01*
G75*
G02*
X94737500Y-84270002I0J249998D01*
G01*
X94737500Y-83369998D01*
G75*
G02*
X94987498Y-83120000I249998J0D01*
G01*
X95512502Y-83120000D01*
G75*
G02*
X95762500Y-83369998I0J-249998D01*
G01*
G37*
G04 #@! TD.AperFunction*
G04 #@! TD*
G04 #@! TO.P,R7,1*
G04 #@! TO.N,+3V3*
G04 #@! TA.AperFunction,SMDPad,CuDef*
G36*
G01*
X117290002Y-79807500D02*
X116389998Y-79807500D01*
G75*
G02*
X116140000Y-79557502I0J249998D01*
G01*
X116140000Y-79032498D01*
G75*
G02*
X116389998Y-78782500I249998J0D01*
G01*
X117290002Y-78782500D01*
G75*
G02*
X117540000Y-79032498I0J-249998D01*
G01*
X117540000Y-79557502D01*
G75*
G02*
X117290002Y-79807500I-249998J0D01*
G01*
G37*
G04 #@! TD.AperFunction*
G04 #@! TO.P,R7,2*
G04 #@! TO.N,/32-GPI36*
G04 #@! TA.AperFunction,SMDPad,CuDef*
G36*
G01*
X117290002Y-77982500D02*
X116389998Y-77982500D01*
G75*
G02*
X116140000Y-77732502I0J249998D01*
G01*
X116140000Y-77207498D01*
G75*
G02*
X116389998Y-76957500I249998J0D01*
G01*
X117290002Y-76957500D01*
G75*
G02*
X117540000Y-77207498I0J-249998D01*
G01*
X117540000Y-77732502D01*
G75*
G02*
X117290002Y-77982500I-249998J0D01*
G01*
G37*
G04 #@! TD.AperFunction*
G04 #@! TD*
G04 #@! TO.P,R6,1*
G04 #@! TO.N,Net-(C5-Pad1)*
G04 #@! TA.AperFunction,SMDPad,CuDef*
G36*
G01*
X97587500Y-79559998D02*
X97587500Y-80460002D01*
G75*
G02*
X97337502Y-80710000I-249998J0D01*
G01*
X96812498Y-80710000D01*
G75*
G02*
X96562500Y-80460002I0J249998D01*
G01*
X96562500Y-79559998D01*
G75*
G02*
X96812498Y-79310000I249998J0D01*
G01*
X97337502Y-79310000D01*
G75*
G02*
X97587500Y-79559998I0J-249998D01*
G01*
G37*
G04 #@! TD.AperFunction*
G04 #@! TO.P,R6,2*
G04 #@! TO.N,Net-(J2-Pad2)*
G04 #@! TA.AperFunction,SMDPad,CuDef*
G36*
G01*
X95762500Y-79559998D02*
X95762500Y-80460002D01*
G75*
G02*
X95512502Y-80710000I-249998J0D01*
G01*
X94987498Y-80710000D01*
G75*
G02*
X94737500Y-80460002I0J249998D01*
G01*
X94737500Y-79559998D01*
G75*
G02*
X94987498Y-79310000I249998J0D01*
G01*
X95512502Y-79310000D01*
G75*
G02*
X95762500Y-79559998I0J-249998D01*
G01*
G37*
G04 #@! TD.AperFunction*
G04 #@! TD*
G04 #@! TO.P,R5,1*
G04 #@! TO.N,+3V3*
G04 #@! TA.AperFunction,SMDPad,CuDef*
G36*
G01*
X116389998Y-70052500D02*
X117290002Y-70052500D01*
G75*
G02*
X117540000Y-70302498I0J-249998D01*
G01*
X117540000Y-70827502D01*
G75*
G02*
X117290002Y-71077500I-249998J0D01*
G01*
X116389998Y-71077500D01*
G75*
G02*
X116140000Y-70827502I0J249998D01*
G01*
X116140000Y-70302498D01*
G75*
G02*
X116389998Y-70052500I249998J0D01*
G01*
G37*
G04 #@! TD.AperFunction*
G04 #@! TO.P,R5,2*
G04 #@! TO.N,/32-GPI39*
G04 #@! TA.AperFunction,SMDPad,CuDef*
G36*
G01*
X116389998Y-71877500D02*
X117290002Y-71877500D01*
G75*
G02*
X117540000Y-72127498I0J-249998D01*
G01*
X117540000Y-72652502D01*
G75*
G02*
X117290002Y-72902500I-249998J0D01*
G01*
X116389998Y-72902500D01*
G75*
G02*
X116140000Y-72652502I0J249998D01*
G01*
X116140000Y-72127498D01*
G75*
G02*
X116389998Y-71877500I249998J0D01*
G01*
G37*
G04 #@! TD.AperFunction*
G04 #@! TD*
G04 #@! TO.P,R4,1*
G04 #@! TO.N,Net-(C4-Pad1)*
G04 #@! TA.AperFunction,SMDPad,CuDef*
G36*
G01*
X97587500Y-68129998D02*
X97587500Y-69030002D01*
G75*
G02*
X97337502Y-69280000I-249998J0D01*
G01*
X96812498Y-69280000D01*
G75*
G02*
X96562500Y-69030002I0J249998D01*
G01*
X96562500Y-68129998D01*
G75*
G02*
X96812498Y-67880000I249998J0D01*
G01*
X97337502Y-67880000D01*
G75*
G02*
X97587500Y-68129998I0J-249998D01*
G01*
G37*
G04 #@! TD.AperFunction*
G04 #@! TO.P,R4,2*
G04 #@! TO.N,Net-(J2-Pad1)*
G04 #@! TA.AperFunction,SMDPad,CuDef*
G36*
G01*
X95762500Y-68129998D02*
X95762500Y-69030002D01*
G75*
G02*
X95512502Y-69280000I-249998J0D01*
G01*
X94987498Y-69280000D01*
G75*
G02*
X94737500Y-69030002I0J249998D01*
G01*
X94737500Y-68129998D01*
G75*
G02*
X94987498Y-67880000I249998J0D01*
G01*
X95512502Y-67880000D01*
G75*
G02*
X95762500Y-68129998I0J-249998D01*
G01*
G37*
G04 #@! TD.AperFunction*
G04 #@! TD*
G04 #@! TO.P,R3,1*
G04 #@! TO.N,+5V*
G04 #@! TA.AperFunction,SMDPad,CuDef*
G36*
G01*
X68067500Y-74110002D02*
X68067500Y-73209998D01*
G75*
G02*
X68317498Y-72960000I249998J0D01*
G01*
X68842502Y-72960000D01*
G75*
G02*
X69092500Y-73209998I0J-249998D01*
G01*
X69092500Y-74110002D01*
G75*
G02*
X68842502Y-74360000I-249998J0D01*
G01*
X68317498Y-74360000D01*
G75*
G02*
X68067500Y-74110002I0J249998D01*
G01*
G37*
G04 #@! TD.AperFunction*
G04 #@! TO.P,R3,2*
G04 #@! TO.N,Net-(D4-Pad2)*
G04 #@! TA.AperFunction,SMDPad,CuDef*
G36*
G01*
X69892500Y-74110002D02*
X69892500Y-73209998D01*
G75*
G02*
X70142498Y-72960000I249998J0D01*
G01*
X70667502Y-72960000D01*
G75*
G02*
X70917500Y-73209998I0J-249998D01*
G01*
X70917500Y-74110002D01*
G75*
G02*
X70667502Y-74360000I-249998J0D01*
G01*
X70142498Y-74360000D01*
G75*
G02*
X69892500Y-74110002I0J249998D01*
G01*
G37*
G04 #@! TD.AperFunction*
G04 #@! TD*
G04 #@! TO.P,R2,1*
G04 #@! TO.N,+24VA*
G04 #@! TA.AperFunction,SMDPad,CuDef*
G36*
G01*
X68067500Y-79190002D02*
X68067500Y-78289998D01*
G75*
G02*
X68317498Y-78040000I249998J0D01*
G01*
X68842502Y-78040000D01*
G75*
G02*
X69092500Y-78289998I0J-249998D01*
G01*
X69092500Y-79190002D01*
G75*
G02*
X68842502Y-79440000I-249998J0D01*
G01*
X68317498Y-79440000D01*
G75*
G02*
X68067500Y-79190002I0J249998D01*
G01*
G37*
G04 #@! TD.AperFunction*
G04 #@! TO.P,R2,2*
G04 #@! TO.N,Net-(D3-Pad2)*
G04 #@! TA.AperFunction,SMDPad,CuDef*
G36*
G01*
X69892500Y-79190002D02*
X69892500Y-78289998D01*
G75*
G02*
X70142498Y-78040000I249998J0D01*
G01*
X70667502Y-78040000D01*
G75*
G02*
X70917500Y-78289998I0J-249998D01*
G01*
X70917500Y-79190002D01*
G75*
G02*
X70667502Y-79440000I-249998J0D01*
G01*
X70142498Y-79440000D01*
G75*
G02*
X69892500Y-79190002I0J249998D01*
G01*
G37*
G04 #@! TD.AperFunction*
G04 #@! TD*
G04 #@! TO.P,R1,1*
G04 #@! TO.N,+3V3*
G04 #@! TA.AperFunction,SMDPad,CuDef*
G36*
G01*
X68067500Y-69030002D02*
X68067500Y-68129998D01*
G75*
G02*
X68317498Y-67880000I249998J0D01*
G01*
X68842502Y-67880000D01*
G75*
G02*
X69092500Y-68129998I0J-249998D01*
G01*
X69092500Y-69030002D01*
G75*
G02*
X68842502Y-69280000I-249998J0D01*
G01*
X68317498Y-69280000D01*
G75*
G02*
X68067500Y-69030002I0J249998D01*
G01*
G37*
G04 #@! TD.AperFunction*
G04 #@! TO.P,R1,2*
G04 #@! TO.N,Net-(D2-Pad2)*
G04 #@! TA.AperFunction,SMDPad,CuDef*
G36*
G01*
X69892500Y-69030002D02*
X69892500Y-68129998D01*
G75*
G02*
X70142498Y-67880000I249998J0D01*
G01*
X70667502Y-67880000D01*
G75*
G02*
X70917500Y-68129998I0J-249998D01*
G01*
X70917500Y-69030002D01*
G75*
G02*
X70667502Y-69280000I-249998J0D01*
G01*
X70142498Y-69280000D01*
G75*
G02*
X69892500Y-69030002I0J249998D01*
G01*
G37*
G04 #@! TD.AperFunction*
G04 #@! TD*
D10*
G04 #@! TO.P,J2,6*
G04 #@! TO.N,Net-(J2-Pad6)*
X114300000Y-123190000D03*
G04 #@! TO.P,J2,5*
G04 #@! TO.N,Net-(J2-Pad5)*
X109220000Y-123190000D03*
G04 #@! TO.P,J2,4*
G04 #@! TO.N,Net-(J2-Pad4)*
X104140000Y-123190000D03*
G04 #@! TO.P,J2,3*
G04 #@! TO.N,Net-(J2-Pad3)*
X99060000Y-123190000D03*
G04 #@! TO.P,J2,2*
G04 #@! TO.N,Net-(J2-Pad2)*
X93980000Y-123190000D03*
D11*
G04 #@! TO.P,J2,1*
G04 #@! TO.N,Net-(J2-Pad1)*
X88900000Y-123190000D03*
G04 #@! TD*
D12*
G04 #@! TO.P,K1,4*
G04 #@! TO.N,Net-(D11-Pad1)*
X162440000Y-87630000D03*
D10*
G04 #@! TO.P,K1,3*
G04 #@! TO.N,Net-(J3-Pad2)*
X162440000Y-107630000D03*
G04 #@! TO.P,K1,2*
G04 #@! TO.N,Net-(J3-Pad1)*
X154940000Y-104130000D03*
D13*
G04 #@! TO.P,K1,1*
G04 #@! TO.N,+24V*
X154940000Y-87630000D03*
G04 #@! TD*
D14*
G04 #@! TO.P,U3,16*
G04 #@! TO.N,Net-(U3-Pad16)*
X144780000Y-67310000D03*
G04 #@! TO.P,U3,15*
G04 #@! TO.N,/32-GPI35*
X144780000Y-69850000D03*
G04 #@! TO.P,U3,14*
G04 #@! TO.N,/32-GPIO33*
X144780000Y-72390000D03*
G04 #@! TO.P,U3,13*
G04 #@! TO.N,/32-GPIO32*
X144780000Y-74930000D03*
G04 #@! TO.P,U3,12*
G04 #@! TO.N,/32-GPIO16*
X144780000Y-77470000D03*
G04 #@! TO.P,U3,11*
G04 #@! TO.N,/32-GPI34*
X144780000Y-80010000D03*
G04 #@! TO.P,U3,10*
G04 #@! TO.N,GNDREF*
X144780000Y-82550000D03*
G04 #@! TO.P,U3,9*
G04 #@! TO.N,+5V*
X144780000Y-85090000D03*
G04 #@! TO.P,U3,8*
G04 #@! TO.N,+3V3*
X121920000Y-85090000D03*
G04 #@! TO.P,U3,7*
G04 #@! TO.N,Net-(U3-Pad7)*
X121920000Y-82550000D03*
G04 #@! TO.P,U3,6*
G04 #@! TO.N,/32-GPIO13*
X121920000Y-80010000D03*
G04 #@! TO.P,U3,5*
G04 #@! TO.N,/32-GPI36*
X121920000Y-77470000D03*
G04 #@! TO.P,U3,4*
G04 #@! TO.N,/32-GPI39*
X121920000Y-74930000D03*
G04 #@! TO.P,U3,3*
G04 #@! TO.N,Net-(U3-Pad3)*
X121920000Y-72390000D03*
D15*
G04 #@! TO.P,U3,1*
G04 #@! TO.N,Net-(U3-Pad1)*
X121920000Y-67310000D03*
D14*
G04 #@! TO.P,U3,2*
G04 #@! TO.N,Net-(U3-Pad2)*
X121920000Y-69850000D03*
G04 #@! TD*
D16*
G04 #@! TO.P,RV1,2*
G04 #@! TO.N,Net-(J3-Pad2)*
X162440000Y-114430000D03*
G04 #@! TO.P,RV1,1*
G04 #@! TO.N,Net-(J3-Pad1)*
X154940000Y-113030000D03*
G04 #@! TD*
D11*
G04 #@! TO.P,J3,1*
G04 #@! TO.N,Net-(J3-Pad1)*
X156210000Y-123190000D03*
D10*
G04 #@! TO.P,J3,2*
G04 #@! TO.N,Net-(J3-Pad2)*
X161290000Y-123190000D03*
G04 #@! TD*
D11*
G04 #@! TO.P,J1,1*
G04 #@! TO.N,+24V*
X72390000Y-123190000D03*
D10*
G04 #@! TO.P,J1,2*
G04 #@! TO.N,GNDREF*
X77470000Y-123190000D03*
G04 #@! TD*
D14*
G04 #@! TO.P,U2,17*
G04 #@! TO.N,/32-GPI34*
X146050000Y-100330000D03*
G04 #@! TO.P,U2,18*
G04 #@! TO.N,/32-GPI35*
X146050000Y-97790000D03*
G04 #@! TO.P,U2,10*
G04 #@! TO.N,Net-(U2-Pad10)*
X120650000Y-115570000D03*
G04 #@! TO.P,U2,9*
G04 #@! TO.N,/32-GPIO4*
X120650000Y-113030000D03*
G04 #@! TO.P,U2,16*
G04 #@! TO.N,/32-GPIO33*
X146050000Y-102870000D03*
G04 #@! TO.P,U2,15*
G04 #@! TO.N,/32-GPIO32*
X146050000Y-105410000D03*
G04 #@! TO.P,U2,14*
G04 #@! TO.N,/32-GPIO16*
X146050000Y-107950000D03*
G04 #@! TO.P,U2,13*
G04 #@! TO.N,/32-GPIO15*
X146050000Y-110490000D03*
G04 #@! TO.P,U2,12*
G04 #@! TO.N,/32-GPIO14*
X146050000Y-113030000D03*
G04 #@! TO.P,U2,11*
G04 #@! TO.N,/32-GPIO13*
X146050000Y-115570000D03*
G04 #@! TO.P,U2,20*
G04 #@! TO.N,/32-GPI39*
X146050000Y-92710000D03*
G04 #@! TO.P,U2,19*
G04 #@! TO.N,/32-GPI36*
X146050000Y-95250000D03*
G04 #@! TO.P,U2,8*
G04 #@! TO.N,Net-(U2-Pad8)*
X120650000Y-110490000D03*
G04 #@! TO.P,U2,7*
G04 #@! TO.N,/32-GPIO2*
X120650000Y-107950000D03*
G04 #@! TO.P,U2,6*
G04 #@! TO.N,Net-(U2-Pad6)*
X120650000Y-105410000D03*
G04 #@! TO.P,U2,5*
G04 #@! TO.N,Net-(U2-Pad5)*
X120650000Y-102870000D03*
G04 #@! TO.P,U2,4*
G04 #@! TO.N,Net-(U2-Pad4)*
X120650000Y-100330000D03*
G04 #@! TO.P,U2,3*
G04 #@! TO.N,GNDREF*
X120650000Y-97790000D03*
D15*
G04 #@! TO.P,U2,1*
G04 #@! TO.N,+5V*
X120650000Y-92710000D03*
D14*
G04 #@! TO.P,U2,2*
G04 #@! TO.N,+3V3*
X120650000Y-95250000D03*
G04 #@! TD*
D11*
G04 #@! TO.P,J4,1*
G04 #@! TO.N,Net-(J4-Pad1)*
X170180000Y-123190000D03*
D10*
G04 #@! TO.P,J4,2*
G04 #@! TO.N,Net-(J4-Pad2)*
X175260000Y-123190000D03*
G04 #@! TD*
D11*
G04 #@! TO.P,J5,1*
G04 #@! TO.N,Net-(J5-Pad1)*
X184150000Y-123190000D03*
D10*
G04 #@! TO.P,J5,2*
G04 #@! TO.N,Net-(J5-Pad2)*
X189230000Y-123190000D03*
G04 #@! TD*
D11*
G04 #@! TO.P,J6,1*
G04 #@! TO.N,Net-(J6-Pad1)*
X198120000Y-123190000D03*
D10*
G04 #@! TO.P,J6,2*
G04 #@! TO.N,Net-(J6-Pad2)*
X203200000Y-123190000D03*
G04 #@! TD*
D11*
G04 #@! TO.P,J7,1*
G04 #@! TO.N,Net-(J7-Pad1)*
X212090000Y-123190000D03*
D10*
G04 #@! TO.P,J7,2*
G04 #@! TO.N,Net-(J7-Pad2)*
X217170000Y-123190000D03*
G04 #@! TD*
D11*
G04 #@! TO.P,J8,1*
G04 #@! TO.N,Net-(J8-Pad1)*
X226060000Y-123190000D03*
D10*
G04 #@! TO.P,J8,2*
G04 #@! TO.N,Net-(J8-Pad2)*
X231140000Y-123190000D03*
G04 #@! TD*
D12*
G04 #@! TO.P,K2,4*
G04 #@! TO.N,Net-(D13-Pad1)*
X176410000Y-87630000D03*
D10*
G04 #@! TO.P,K2,3*
G04 #@! TO.N,Net-(J4-Pad2)*
X176410000Y-107630000D03*
G04 #@! TO.P,K2,2*
G04 #@! TO.N,Net-(J4-Pad1)*
X168910000Y-104130000D03*
D13*
G04 #@! TO.P,K2,1*
G04 #@! TO.N,+24V*
X168910000Y-87630000D03*
G04 #@! TD*
D12*
G04 #@! TO.P,K3,4*
G04 #@! TO.N,Net-(D15-Pad1)*
X190380000Y-87630000D03*
D10*
G04 #@! TO.P,K3,3*
G04 #@! TO.N,Net-(J5-Pad2)*
X190380000Y-107630000D03*
G04 #@! TO.P,K3,2*
G04 #@! TO.N,Net-(J5-Pad1)*
X182880000Y-104130000D03*
D13*
G04 #@! TO.P,K3,1*
G04 #@! TO.N,+24V*
X182880000Y-87630000D03*
G04 #@! TD*
D12*
G04 #@! TO.P,K4,4*
G04 #@! TO.N,Net-(D17-Pad1)*
X204350000Y-87630000D03*
D10*
G04 #@! TO.P,K4,3*
G04 #@! TO.N,Net-(J6-Pad2)*
X204350000Y-107630000D03*
G04 #@! TO.P,K4,2*
G04 #@! TO.N,Net-(J6-Pad1)*
X196850000Y-104130000D03*
D13*
G04 #@! TO.P,K4,1*
G04 #@! TO.N,+24V*
X196850000Y-87630000D03*
G04 #@! TD*
D12*
G04 #@! TO.P,K5,4*
G04 #@! TO.N,Net-(D19-Pad1)*
X218320000Y-87630000D03*
D10*
G04 #@! TO.P,K5,3*
G04 #@! TO.N,Net-(J7-Pad2)*
X218320000Y-107630000D03*
G04 #@! TO.P,K5,2*
G04 #@! TO.N,Net-(J7-Pad1)*
X210820000Y-104130000D03*
D13*
G04 #@! TO.P,K5,1*
G04 #@! TO.N,+24V*
X210820000Y-87630000D03*
G04 #@! TD*
D12*
G04 #@! TO.P,K6,4*
G04 #@! TO.N,Net-(D21-Pad1)*
X232290000Y-87630000D03*
D10*
G04 #@! TO.P,K6,3*
G04 #@! TO.N,Net-(J8-Pad2)*
X232290000Y-107630000D03*
G04 #@! TO.P,K6,2*
G04 #@! TO.N,Net-(J8-Pad1)*
X224790000Y-104130000D03*
D13*
G04 #@! TO.P,K6,1*
G04 #@! TO.N,+24V*
X224790000Y-87630000D03*
G04 #@! TD*
D16*
G04 #@! TO.P,RV2,2*
G04 #@! TO.N,Net-(J4-Pad2)*
X176410000Y-114430000D03*
G04 #@! TO.P,RV2,1*
G04 #@! TO.N,Net-(J4-Pad1)*
X168910000Y-113030000D03*
G04 #@! TD*
G04 #@! TO.P,RV3,2*
G04 #@! TO.N,Net-(J5-Pad2)*
X190380000Y-114430000D03*
G04 #@! TO.P,RV3,1*
G04 #@! TO.N,Net-(J5-Pad1)*
X182880000Y-113030000D03*
G04 #@! TD*
G04 #@! TO.P,RV4,2*
G04 #@! TO.N,Net-(J6-Pad2)*
X204350000Y-114430000D03*
G04 #@! TO.P,RV4,1*
G04 #@! TO.N,Net-(J6-Pad1)*
X196850000Y-113030000D03*
G04 #@! TD*
G04 #@! TO.P,RV5,2*
G04 #@! TO.N,Net-(J7-Pad2)*
X218320000Y-114430000D03*
G04 #@! TO.P,RV5,1*
G04 #@! TO.N,Net-(J7-Pad1)*
X210820000Y-113030000D03*
G04 #@! TD*
G04 #@! TO.P,RV6,2*
G04 #@! TO.N,Net-(J8-Pad2)*
X232290000Y-114430000D03*
G04 #@! TO.P,RV6,1*
G04 #@! TO.N,Net-(J8-Pad1)*
X224790000Y-113030000D03*
G04 #@! TD*
G04 #@! TO.P,C1,1*
G04 #@! TO.N,+24VA*
G04 #@! TA.AperFunction,SMDPad,CuDef*
G36*
G01*
X70390000Y-101330000D02*
X70390000Y-99330000D01*
G75*
G02*
X70640000Y-99080000I250000J0D01*
G01*
X74140000Y-99080000D01*
G75*
G02*
X74390000Y-99330000I0J-250000D01*
G01*
X74390000Y-101330000D01*
G75*
G02*
X74140000Y-101580000I-250000J0D01*
G01*
X70640000Y-101580000D01*
G75*
G02*
X70390000Y-101330000I0J250000D01*
G01*
G37*
G04 #@! TD.AperFunction*
G04 #@! TO.P,C1,2*
G04 #@! TO.N,GNDREF*
G04 #@! TA.AperFunction,SMDPad,CuDef*
G36*
G01*
X78390000Y-101330000D02*
X78390000Y-99330000D01*
G75*
G02*
X78640000Y-99080000I250000J0D01*
G01*
X82140000Y-99080000D01*
G75*
G02*
X82390000Y-99330000I0J-250000D01*
G01*
X82390000Y-101330000D01*
G75*
G02*
X82140000Y-101580000I-250000J0D01*
G01*
X78640000Y-101580000D01*
G75*
G02*
X78390000Y-101330000I0J250000D01*
G01*
G37*
G04 #@! TD.AperFunction*
G04 #@! TD*
G04 #@! TO.P,D5,2*
G04 #@! TO.N,Net-(D5-Pad2)*
G04 #@! TA.AperFunction,SMDPad,CuDef*
G36*
G01*
X102100000Y-72890000D02*
X101100000Y-72890000D01*
G75*
G02*
X100850000Y-72640000I0J250000D01*
G01*
X100850000Y-72140000D01*
G75*
G02*
X101100000Y-71890000I250000J0D01*
G01*
X102100000Y-71890000D01*
G75*
G02*
X102350000Y-72140000I0J-250000D01*
G01*
X102350000Y-72640000D01*
G75*
G02*
X102100000Y-72890000I-250000J0D01*
G01*
G37*
G04 #@! TD.AperFunction*
G04 #@! TO.P,D5,1*
G04 #@! TO.N,Net-(C4-Pad1)*
G04 #@! TA.AperFunction,SMDPad,CuDef*
G36*
G01*
X102100000Y-75290000D02*
X101100000Y-75290000D01*
G75*
G02*
X100850000Y-75040000I0J250000D01*
G01*
X100850000Y-74540000D01*
G75*
G02*
X101100000Y-74290000I250000J0D01*
G01*
X102100000Y-74290000D01*
G75*
G02*
X102350000Y-74540000I0J-250000D01*
G01*
X102350000Y-75040000D01*
G75*
G02*
X102100000Y-75290000I-250000J0D01*
G01*
G37*
G04 #@! TD.AperFunction*
G04 #@! TD*
G04 #@! TO.P,D6,1*
G04 #@! TO.N,Net-(C5-Pad1)*
G04 #@! TA.AperFunction,SMDPad,CuDef*
G36*
G01*
X102100000Y-80370000D02*
X101100000Y-80370000D01*
G75*
G02*
X100850000Y-80120000I0J250000D01*
G01*
X100850000Y-79620000D01*
G75*
G02*
X101100000Y-79370000I250000J0D01*
G01*
X102100000Y-79370000D01*
G75*
G02*
X102350000Y-79620000I0J-250000D01*
G01*
X102350000Y-80120000D01*
G75*
G02*
X102100000Y-80370000I-250000J0D01*
G01*
G37*
G04 #@! TD.AperFunction*
G04 #@! TO.P,D6,2*
G04 #@! TO.N,Net-(D6-Pad2)*
G04 #@! TA.AperFunction,SMDPad,CuDef*
G36*
G01*
X102100000Y-77970000D02*
X101100000Y-77970000D01*
G75*
G02*
X100850000Y-77720000I0J250000D01*
G01*
X100850000Y-77220000D01*
G75*
G02*
X101100000Y-76970000I250000J0D01*
G01*
X102100000Y-76970000D01*
G75*
G02*
X102350000Y-77220000I0J-250000D01*
G01*
X102350000Y-77720000D01*
G75*
G02*
X102100000Y-77970000I-250000J0D01*
G01*
G37*
G04 #@! TD.AperFunction*
G04 #@! TD*
G04 #@! TO.P,D7,1*
G04 #@! TO.N,Net-(C6-Pad1)*
G04 #@! TA.AperFunction,SMDPad,CuDef*
G36*
G01*
X102100000Y-90530000D02*
X101100000Y-90530000D01*
G75*
G02*
X100850000Y-90280000I0J250000D01*
G01*
X100850000Y-89780000D01*
G75*
G02*
X101100000Y-89530000I250000J0D01*
G01*
X102100000Y-89530000D01*
G75*
G02*
X102350000Y-89780000I0J-250000D01*
G01*
X102350000Y-90280000D01*
G75*
G02*
X102100000Y-90530000I-250000J0D01*
G01*
G37*
G04 #@! TD.AperFunction*
G04 #@! TO.P,D7,2*
G04 #@! TO.N,Net-(D7-Pad2)*
G04 #@! TA.AperFunction,SMDPad,CuDef*
G36*
G01*
X102100000Y-88130000D02*
X101100000Y-88130000D01*
G75*
G02*
X100850000Y-87880000I0J250000D01*
G01*
X100850000Y-87380000D01*
G75*
G02*
X101100000Y-87130000I250000J0D01*
G01*
X102100000Y-87130000D01*
G75*
G02*
X102350000Y-87380000I0J-250000D01*
G01*
X102350000Y-87880000D01*
G75*
G02*
X102100000Y-88130000I-250000J0D01*
G01*
G37*
G04 #@! TD.AperFunction*
G04 #@! TD*
G04 #@! TO.P,D8,2*
G04 #@! TO.N,Net-(D8-Pad2)*
G04 #@! TA.AperFunction,SMDPad,CuDef*
G36*
G01*
X102100000Y-93210000D02*
X101100000Y-93210000D01*
G75*
G02*
X100850000Y-92960000I0J250000D01*
G01*
X100850000Y-92460000D01*
G75*
G02*
X101100000Y-92210000I250000J0D01*
G01*
X102100000Y-92210000D01*
G75*
G02*
X102350000Y-92460000I0J-250000D01*
G01*
X102350000Y-92960000D01*
G75*
G02*
X102100000Y-93210000I-250000J0D01*
G01*
G37*
G04 #@! TD.AperFunction*
G04 #@! TO.P,D8,1*
G04 #@! TO.N,Net-(C7-Pad1)*
G04 #@! TA.AperFunction,SMDPad,CuDef*
G36*
G01*
X102100000Y-95610000D02*
X101100000Y-95610000D01*
G75*
G02*
X100850000Y-95360000I0J250000D01*
G01*
X100850000Y-94860000D01*
G75*
G02*
X101100000Y-94610000I250000J0D01*
G01*
X102100000Y-94610000D01*
G75*
G02*
X102350000Y-94860000I0J-250000D01*
G01*
X102350000Y-95360000D01*
G75*
G02*
X102100000Y-95610000I-250000J0D01*
G01*
G37*
G04 #@! TD.AperFunction*
G04 #@! TD*
G04 #@! TO.P,D9,1*
G04 #@! TO.N,Net-(C8-Pad1)*
G04 #@! TA.AperFunction,SMDPad,CuDef*
G36*
G01*
X102100000Y-105770000D02*
X101100000Y-105770000D01*
G75*
G02*
X100850000Y-105520000I0J250000D01*
G01*
X100850000Y-105020000D01*
G75*
G02*
X101100000Y-104770000I250000J0D01*
G01*
X102100000Y-104770000D01*
G75*
G02*
X102350000Y-105020000I0J-250000D01*
G01*
X102350000Y-105520000D01*
G75*
G02*
X102100000Y-105770000I-250000J0D01*
G01*
G37*
G04 #@! TD.AperFunction*
G04 #@! TO.P,D9,2*
G04 #@! TO.N,Net-(D9-Pad2)*
G04 #@! TA.AperFunction,SMDPad,CuDef*
G36*
G01*
X102100000Y-103370000D02*
X101100000Y-103370000D01*
G75*
G02*
X100850000Y-103120000I0J250000D01*
G01*
X100850000Y-102620000D01*
G75*
G02*
X101100000Y-102370000I250000J0D01*
G01*
X102100000Y-102370000D01*
G75*
G02*
X102350000Y-102620000I0J-250000D01*
G01*
X102350000Y-103120000D01*
G75*
G02*
X102100000Y-103370000I-250000J0D01*
G01*
G37*
G04 #@! TD.AperFunction*
G04 #@! TD*
G04 #@! TO.P,D10,2*
G04 #@! TO.N,Net-(D10-Pad2)*
G04 #@! TA.AperFunction,SMDPad,CuDef*
G36*
G01*
X102100000Y-108450000D02*
X101100000Y-108450000D01*
G75*
G02*
X100850000Y-108200000I0J250000D01*
G01*
X100850000Y-107700000D01*
G75*
G02*
X101100000Y-107450000I250000J0D01*
G01*
X102100000Y-107450000D01*
G75*
G02*
X102350000Y-107700000I0J-250000D01*
G01*
X102350000Y-108200000D01*
G75*
G02*
X102100000Y-108450000I-250000J0D01*
G01*
G37*
G04 #@! TD.AperFunction*
G04 #@! TO.P,D10,1*
G04 #@! TO.N,Net-(C9-Pad1)*
G04 #@! TA.AperFunction,SMDPad,CuDef*
G36*
G01*
X102100000Y-110850000D02*
X101100000Y-110850000D01*
G75*
G02*
X100850000Y-110600000I0J250000D01*
G01*
X100850000Y-110100000D01*
G75*
G02*
X101100000Y-109850000I250000J0D01*
G01*
X102100000Y-109850000D01*
G75*
G02*
X102350000Y-110100000I0J-250000D01*
G01*
X102350000Y-110600000D01*
G75*
G02*
X102100000Y-110850000I-250000J0D01*
G01*
G37*
G04 #@! TD.AperFunction*
G04 #@! TD*
G04 #@! TO.P,D12,1*
G04 #@! TO.N,+24V*
G04 #@! TA.AperFunction,SMDPad,CuDef*
G36*
G01*
X154290000Y-78020000D02*
X154290000Y-76920000D01*
G75*
G02*
X154615000Y-76595000I325000J0D01*
G01*
X155265000Y-76595000D01*
G75*
G02*
X155590000Y-76920000I0J-325000D01*
G01*
X155590000Y-78020000D01*
G75*
G02*
X155265000Y-78345000I-325000J0D01*
G01*
X154615000Y-78345000D01*
G75*
G02*
X154290000Y-78020000I0J325000D01*
G01*
G37*
G04 #@! TD.AperFunction*
G04 #@! TO.P,D12,2*
G04 #@! TO.N,Net-(D11-Pad1)*
G04 #@! TA.AperFunction,SMDPad,CuDef*
G36*
G01*
X157590000Y-78020000D02*
X157590000Y-76920000D01*
G75*
G02*
X157915000Y-76595000I325000J0D01*
G01*
X158565000Y-76595000D01*
G75*
G02*
X158890000Y-76920000I0J-325000D01*
G01*
X158890000Y-78020000D01*
G75*
G02*
X158565000Y-78345000I-325000J0D01*
G01*
X157915000Y-78345000D01*
G75*
G02*
X157590000Y-78020000I0J325000D01*
G01*
G37*
G04 #@! TD.AperFunction*
G04 #@! TD*
D17*
G04 #@! TO.P,Q1,1*
G04 #@! TO.N,Net-(D11-Pad1)*
X162560000Y-74930000D03*
D18*
G04 #@! TO.P,Q1,3*
G04 #@! TO.N,GNDREF*
X162560000Y-69850000D03*
G04 #@! TO.P,Q1,2*
G04 #@! TO.N,Net-(Q1-Pad2)*
X162560000Y-72390000D03*
G04 #@! TD*
G04 #@! TO.P,Q2,2*
G04 #@! TO.N,Net-(Q2-Pad2)*
X176530000Y-72390000D03*
G04 #@! TO.P,Q2,3*
G04 #@! TO.N,GNDREF*
X176530000Y-69850000D03*
D17*
G04 #@! TO.P,Q2,1*
G04 #@! TO.N,Net-(D13-Pad1)*
X176530000Y-74930000D03*
G04 #@! TD*
D18*
G04 #@! TO.P,Q3,2*
G04 #@! TO.N,Net-(Q3-Pad2)*
X190500000Y-72390000D03*
G04 #@! TO.P,Q3,3*
G04 #@! TO.N,GNDREF*
X190500000Y-69850000D03*
D17*
G04 #@! TO.P,Q3,1*
G04 #@! TO.N,Net-(D15-Pad1)*
X190500000Y-74930000D03*
G04 #@! TD*
G04 #@! TO.P,Q4,1*
G04 #@! TO.N,Net-(D17-Pad1)*
X204470000Y-74930000D03*
D18*
G04 #@! TO.P,Q4,3*
G04 #@! TO.N,GNDREF*
X204470000Y-69850000D03*
G04 #@! TO.P,Q4,2*
G04 #@! TO.N,Net-(Q4-Pad2)*
X204470000Y-72390000D03*
G04 #@! TD*
G04 #@! TO.P,Q5,2*
G04 #@! TO.N,Net-(Q5-Pad2)*
X218440000Y-72390000D03*
G04 #@! TO.P,Q5,3*
G04 #@! TO.N,GNDREF*
X218440000Y-69850000D03*
D17*
G04 #@! TO.P,Q5,1*
G04 #@! TO.N,Net-(D19-Pad1)*
X218440000Y-74930000D03*
G04 #@! TD*
G04 #@! TO.P,Q6,1*
G04 #@! TO.N,Net-(D21-Pad1)*
X232410000Y-74930000D03*
D18*
G04 #@! TO.P,Q6,3*
G04 #@! TO.N,GNDREF*
X232410000Y-69850000D03*
G04 #@! TO.P,Q6,2*
G04 #@! TO.N,Net-(Q6-Pad2)*
X232410000Y-72390000D03*
G04 #@! TD*
D19*
G04 #@! TO.P,U1,2*
G04 #@! TO.N,GNDREF*
X74670000Y-85140000D03*
D20*
G04 #@! TO.P,U1,3*
G04 #@! TO.N,+5V*
X76950000Y-91440000D03*
G04 #@! TO.P,U1,1*
G04 #@! TO.N,+24VA*
X72390000Y-91440000D03*
G04 #@! TD*
D15*
G04 #@! TO.P,U4,1*
G04 #@! TO.N,Net-(D5-Pad2)*
X105410000Y-72390000D03*
D14*
G04 #@! TO.P,U4,5*
G04 #@! TO.N,GNDREF*
X113030000Y-80010000D03*
G04 #@! TO.P,U4,2*
X105410000Y-74930000D03*
G04 #@! TO.P,U4,6*
G04 #@! TO.N,/32-GPI36*
X113030000Y-77470000D03*
G04 #@! TO.P,U4,3*
G04 #@! TO.N,Net-(D6-Pad2)*
X105410000Y-77470000D03*
G04 #@! TO.P,U4,7*
G04 #@! TO.N,GNDREF*
X113030000Y-74930000D03*
G04 #@! TO.P,U4,4*
X105410000Y-80010000D03*
G04 #@! TO.P,U4,8*
G04 #@! TO.N,/32-GPI39*
X113030000Y-72390000D03*
G04 #@! TD*
G04 #@! TO.P,U5,8*
G04 #@! TO.N,/32-GPI35*
X113030000Y-87630000D03*
G04 #@! TO.P,U5,4*
G04 #@! TO.N,GNDREF*
X105410000Y-95250000D03*
G04 #@! TO.P,U5,7*
X113030000Y-90170000D03*
G04 #@! TO.P,U5,3*
G04 #@! TO.N,Net-(D8-Pad2)*
X105410000Y-92710000D03*
G04 #@! TO.P,U5,6*
G04 #@! TO.N,/32-GPI34*
X113030000Y-92710000D03*
G04 #@! TO.P,U5,2*
G04 #@! TO.N,GNDREF*
X105410000Y-90170000D03*
G04 #@! TO.P,U5,5*
X113030000Y-95250000D03*
D15*
G04 #@! TO.P,U5,1*
G04 #@! TO.N,Net-(D7-Pad2)*
X105410000Y-87630000D03*
G04 #@! TD*
G04 #@! TO.P,U6,1*
G04 #@! TO.N,Net-(D9-Pad2)*
X105410000Y-102870000D03*
D14*
G04 #@! TO.P,U6,5*
G04 #@! TO.N,GNDREF*
X113030000Y-110490000D03*
G04 #@! TO.P,U6,2*
X105410000Y-105410000D03*
G04 #@! TO.P,U6,6*
G04 #@! TO.N,/32-GPIO14*
X113030000Y-107950000D03*
G04 #@! TO.P,U6,3*
G04 #@! TO.N,Net-(D10-Pad2)*
X105410000Y-107950000D03*
G04 #@! TO.P,U6,7*
G04 #@! TO.N,GNDREF*
X113030000Y-105410000D03*
G04 #@! TO.P,U6,4*
X105410000Y-110490000D03*
G04 #@! TO.P,U6,8*
G04 #@! TO.N,/32-GPIO15*
X113030000Y-102870000D03*
G04 #@! TD*
G04 #@! TO.P,C2,2*
G04 #@! TO.N,GNDREF*
G04 #@! TA.AperFunction,SMDPad,CuDef*
G36*
G01*
X79165001Y-108737500D02*
X78314999Y-108737500D01*
G75*
G02*
X78065000Y-108487501I0J249999D01*
G01*
X78065000Y-107412499D01*
G75*
G02*
X78314999Y-107162500I249999J0D01*
G01*
X79165001Y-107162500D01*
G75*
G02*
X79415000Y-107412499I0J-249999D01*
G01*
X79415000Y-108487501D01*
G75*
G02*
X79165001Y-108737500I-249999J0D01*
G01*
G37*
G04 #@! TD.AperFunction*
G04 #@! TO.P,C2,1*
G04 #@! TO.N,+24VA*
G04 #@! TA.AperFunction,SMDPad,CuDef*
G36*
G01*
X79165001Y-111612500D02*
X78314999Y-111612500D01*
G75*
G02*
X78065000Y-111362501I0J249999D01*
G01*
X78065000Y-110287499D01*
G75*
G02*
X78314999Y-110037500I249999J0D01*
G01*
X79165001Y-110037500D01*
G75*
G02*
X79415000Y-110287499I0J-249999D01*
G01*
X79415000Y-111362501D01*
G75*
G02*
X79165001Y-111612500I-249999J0D01*
G01*
G37*
G04 #@! TD.AperFunction*
G04 #@! TD*
G04 #@! TO.P,C3,2*
G04 #@! TO.N,GNDREF*
G04 #@! TA.AperFunction,SMDPad,CuDef*
G36*
G01*
X81755000Y-90040000D02*
X80805000Y-90040000D01*
G75*
G02*
X80555000Y-89790000I0J250000D01*
G01*
X80555000Y-89290000D01*
G75*
G02*
X80805000Y-89040000I250000J0D01*
G01*
X81755000Y-89040000D01*
G75*
G02*
X82005000Y-89290000I0J-250000D01*
G01*
X82005000Y-89790000D01*
G75*
G02*
X81755000Y-90040000I-250000J0D01*
G01*
G37*
G04 #@! TD.AperFunction*
G04 #@! TO.P,C3,1*
G04 #@! TO.N,+5V*
G04 #@! TA.AperFunction,SMDPad,CuDef*
G36*
G01*
X81755000Y-91940000D02*
X80805000Y-91940000D01*
G75*
G02*
X80555000Y-91690000I0J250000D01*
G01*
X80555000Y-91190000D01*
G75*
G02*
X80805000Y-90940000I250000J0D01*
G01*
X81755000Y-90940000D01*
G75*
G02*
X82005000Y-91190000I0J-250000D01*
G01*
X82005000Y-91690000D01*
G75*
G02*
X81755000Y-91940000I-250000J0D01*
G01*
G37*
G04 #@! TD.AperFunction*
G04 #@! TD*
G04 #@! TO.P,C4,2*
G04 #@! TO.N,GNDREF*
G04 #@! TA.AperFunction,SMDPad,CuDef*
G36*
G01*
X95750000Y-71915000D02*
X95750000Y-72865000D01*
G75*
G02*
X95500000Y-73115000I-250000J0D01*
G01*
X95000000Y-73115000D01*
G75*
G02*
X94750000Y-72865000I0J250000D01*
G01*
X94750000Y-71915000D01*
G75*
G02*
X95000000Y-71665000I250000J0D01*
G01*
X95500000Y-71665000D01*
G75*
G02*
X95750000Y-71915000I0J-250000D01*
G01*
G37*
G04 #@! TD.AperFunction*
G04 #@! TO.P,C4,1*
G04 #@! TO.N,Net-(C4-Pad1)*
G04 #@! TA.AperFunction,SMDPad,CuDef*
G36*
G01*
X97650000Y-71915000D02*
X97650000Y-72865000D01*
G75*
G02*
X97400000Y-73115000I-250000J0D01*
G01*
X96900000Y-73115000D01*
G75*
G02*
X96650000Y-72865000I0J250000D01*
G01*
X96650000Y-71915000D01*
G75*
G02*
X96900000Y-71665000I250000J0D01*
G01*
X97400000Y-71665000D01*
G75*
G02*
X97650000Y-71915000I0J-250000D01*
G01*
G37*
G04 #@! TD.AperFunction*
G04 #@! TD*
G04 #@! TO.P,C5,1*
G04 #@! TO.N,Net-(C5-Pad1)*
G04 #@! TA.AperFunction,SMDPad,CuDef*
G36*
G01*
X97650000Y-75725000D02*
X97650000Y-76675000D01*
G75*
G02*
X97400000Y-76925000I-250000J0D01*
G01*
X96900000Y-76925000D01*
G75*
G02*
X96650000Y-76675000I0J250000D01*
G01*
X96650000Y-75725000D01*
G75*
G02*
X96900000Y-75475000I250000J0D01*
G01*
X97400000Y-75475000D01*
G75*
G02*
X97650000Y-75725000I0J-250000D01*
G01*
G37*
G04 #@! TD.AperFunction*
G04 #@! TO.P,C5,2*
G04 #@! TO.N,GNDREF*
G04 #@! TA.AperFunction,SMDPad,CuDef*
G36*
G01*
X95750000Y-75725000D02*
X95750000Y-76675000D01*
G75*
G02*
X95500000Y-76925000I-250000J0D01*
G01*
X95000000Y-76925000D01*
G75*
G02*
X94750000Y-76675000I0J250000D01*
G01*
X94750000Y-75725000D01*
G75*
G02*
X95000000Y-75475000I250000J0D01*
G01*
X95500000Y-75475000D01*
G75*
G02*
X95750000Y-75725000I0J-250000D01*
G01*
G37*
G04 #@! TD.AperFunction*
G04 #@! TD*
G04 #@! TO.P,C6,2*
G04 #@! TO.N,GNDREF*
G04 #@! TA.AperFunction,SMDPad,CuDef*
G36*
G01*
X95750000Y-87155000D02*
X95750000Y-88105000D01*
G75*
G02*
X95500000Y-88355000I-250000J0D01*
G01*
X95000000Y-88355000D01*
G75*
G02*
X94750000Y-88105000I0J250000D01*
G01*
X94750000Y-87155000D01*
G75*
G02*
X95000000Y-86905000I250000J0D01*
G01*
X95500000Y-86905000D01*
G75*
G02*
X95750000Y-87155000I0J-250000D01*
G01*
G37*
G04 #@! TD.AperFunction*
G04 #@! TO.P,C6,1*
G04 #@! TO.N,Net-(C6-Pad1)*
G04 #@! TA.AperFunction,SMDPad,CuDef*
G36*
G01*
X97650000Y-87155000D02*
X97650000Y-88105000D01*
G75*
G02*
X97400000Y-88355000I-250000J0D01*
G01*
X96900000Y-88355000D01*
G75*
G02*
X96650000Y-88105000I0J250000D01*
G01*
X96650000Y-87155000D01*
G75*
G02*
X96900000Y-86905000I250000J0D01*
G01*
X97400000Y-86905000D01*
G75*
G02*
X97650000Y-87155000I0J-250000D01*
G01*
G37*
G04 #@! TD.AperFunction*
G04 #@! TD*
G04 #@! TO.P,C7,1*
G04 #@! TO.N,Net-(C7-Pad1)*
G04 #@! TA.AperFunction,SMDPad,CuDef*
G36*
G01*
X97650000Y-90965000D02*
X97650000Y-91915000D01*
G75*
G02*
X97400000Y-92165000I-250000J0D01*
G01*
X96900000Y-92165000D01*
G75*
G02*
X96650000Y-91915000I0J250000D01*
G01*
X96650000Y-90965000D01*
G75*
G02*
X96900000Y-90715000I250000J0D01*
G01*
X97400000Y-90715000D01*
G75*
G02*
X97650000Y-90965000I0J-250000D01*
G01*
G37*
G04 #@! TD.AperFunction*
G04 #@! TO.P,C7,2*
G04 #@! TO.N,GNDREF*
G04 #@! TA.AperFunction,SMDPad,CuDef*
G36*
G01*
X95750000Y-90965000D02*
X95750000Y-91915000D01*
G75*
G02*
X95500000Y-92165000I-250000J0D01*
G01*
X95000000Y-92165000D01*
G75*
G02*
X94750000Y-91915000I0J250000D01*
G01*
X94750000Y-90965000D01*
G75*
G02*
X95000000Y-90715000I250000J0D01*
G01*
X95500000Y-90715000D01*
G75*
G02*
X95750000Y-90965000I0J-250000D01*
G01*
G37*
G04 #@! TD.AperFunction*
G04 #@! TD*
G04 #@! TO.P,C8,2*
G04 #@! TO.N,GNDREF*
G04 #@! TA.AperFunction,SMDPad,CuDef*
G36*
G01*
X95750000Y-102395000D02*
X95750000Y-103345000D01*
G75*
G02*
X95500000Y-103595000I-250000J0D01*
G01*
X95000000Y-103595000D01*
G75*
G02*
X94750000Y-103345000I0J250000D01*
G01*
X94750000Y-102395000D01*
G75*
G02*
X95000000Y-102145000I250000J0D01*
G01*
X95500000Y-102145000D01*
G75*
G02*
X95750000Y-102395000I0J-250000D01*
G01*
G37*
G04 #@! TD.AperFunction*
G04 #@! TO.P,C8,1*
G04 #@! TO.N,Net-(C8-Pad1)*
G04 #@! TA.AperFunction,SMDPad,CuDef*
G36*
G01*
X97650000Y-102395000D02*
X97650000Y-103345000D01*
G75*
G02*
X97400000Y-103595000I-250000J0D01*
G01*
X96900000Y-103595000D01*
G75*
G02*
X96650000Y-103345000I0J250000D01*
G01*
X96650000Y-102395000D01*
G75*
G02*
X96900000Y-102145000I250000J0D01*
G01*
X97400000Y-102145000D01*
G75*
G02*
X97650000Y-102395000I0J-250000D01*
G01*
G37*
G04 #@! TD.AperFunction*
G04 #@! TD*
G04 #@! TO.P,C9,1*
G04 #@! TO.N,Net-(C9-Pad1)*
G04 #@! TA.AperFunction,SMDPad,CuDef*
G36*
G01*
X97650000Y-106205000D02*
X97650000Y-107155000D01*
G75*
G02*
X97400000Y-107405000I-250000J0D01*
G01*
X96900000Y-107405000D01*
G75*
G02*
X96650000Y-107155000I0J250000D01*
G01*
X96650000Y-106205000D01*
G75*
G02*
X96900000Y-105955000I250000J0D01*
G01*
X97400000Y-105955000D01*
G75*
G02*
X97650000Y-106205000I0J-250000D01*
G01*
G37*
G04 #@! TD.AperFunction*
G04 #@! TO.P,C9,2*
G04 #@! TO.N,GNDREF*
G04 #@! TA.AperFunction,SMDPad,CuDef*
G36*
G01*
X95750000Y-106205000D02*
X95750000Y-107155000D01*
G75*
G02*
X95500000Y-107405000I-250000J0D01*
G01*
X95000000Y-107405000D01*
G75*
G02*
X94750000Y-107155000I0J250000D01*
G01*
X94750000Y-106205000D01*
G75*
G02*
X95000000Y-105955000I250000J0D01*
G01*
X95500000Y-105955000D01*
G75*
G02*
X95750000Y-106205000I0J-250000D01*
G01*
G37*
G04 #@! TD.AperFunction*
G04 #@! TD*
G04 #@! TO.P,D2,1*
G04 #@! TO.N,GNDREF*
G04 #@! TA.AperFunction,SMDPad,CuDef*
G36*
G01*
X77180000Y-68323750D02*
X77180000Y-68836250D01*
G75*
G02*
X76961250Y-69055000I-218750J0D01*
G01*
X76523750Y-69055000D01*
G75*
G02*
X76305000Y-68836250I0J218750D01*
G01*
X76305000Y-68323750D01*
G75*
G02*
X76523750Y-68105000I218750J0D01*
G01*
X76961250Y-68105000D01*
G75*
G02*
X77180000Y-68323750I0J-218750D01*
G01*
G37*
G04 #@! TD.AperFunction*
G04 #@! TO.P,D2,2*
G04 #@! TO.N,Net-(D2-Pad2)*
G04 #@! TA.AperFunction,SMDPad,CuDef*
G36*
G01*
X75605000Y-68323750D02*
X75605000Y-68836250D01*
G75*
G02*
X75386250Y-69055000I-218750J0D01*
G01*
X74948750Y-69055000D01*
G75*
G02*
X74730000Y-68836250I0J218750D01*
G01*
X74730000Y-68323750D01*
G75*
G02*
X74948750Y-68105000I218750J0D01*
G01*
X75386250Y-68105000D01*
G75*
G02*
X75605000Y-68323750I0J-218750D01*
G01*
G37*
G04 #@! TD.AperFunction*
G04 #@! TD*
G04 #@! TO.P,D3,2*
G04 #@! TO.N,Net-(D3-Pad2)*
G04 #@! TA.AperFunction,SMDPad,CuDef*
G36*
G01*
X75605000Y-78483750D02*
X75605000Y-78996250D01*
G75*
G02*
X75386250Y-79215000I-218750J0D01*
G01*
X74948750Y-79215000D01*
G75*
G02*
X74730000Y-78996250I0J218750D01*
G01*
X74730000Y-78483750D01*
G75*
G02*
X74948750Y-78265000I218750J0D01*
G01*
X75386250Y-78265000D01*
G75*
G02*
X75605000Y-78483750I0J-218750D01*
G01*
G37*
G04 #@! TD.AperFunction*
G04 #@! TO.P,D3,1*
G04 #@! TO.N,GNDREF*
G04 #@! TA.AperFunction,SMDPad,CuDef*
G36*
G01*
X77180000Y-78483750D02*
X77180000Y-78996250D01*
G75*
G02*
X76961250Y-79215000I-218750J0D01*
G01*
X76523750Y-79215000D01*
G75*
G02*
X76305000Y-78996250I0J218750D01*
G01*
X76305000Y-78483750D01*
G75*
G02*
X76523750Y-78265000I218750J0D01*
G01*
X76961250Y-78265000D01*
G75*
G02*
X77180000Y-78483750I0J-218750D01*
G01*
G37*
G04 #@! TD.AperFunction*
G04 #@! TD*
G04 #@! TO.P,D4,2*
G04 #@! TO.N,Net-(D4-Pad2)*
G04 #@! TA.AperFunction,SMDPad,CuDef*
G36*
G01*
X75605000Y-73403750D02*
X75605000Y-73916250D01*
G75*
G02*
X75386250Y-74135000I-218750J0D01*
G01*
X74948750Y-74135000D01*
G75*
G02*
X74730000Y-73916250I0J218750D01*
G01*
X74730000Y-73403750D01*
G75*
G02*
X74948750Y-73185000I218750J0D01*
G01*
X75386250Y-73185000D01*
G75*
G02*
X75605000Y-73403750I0J-218750D01*
G01*
G37*
G04 #@! TD.AperFunction*
G04 #@! TO.P,D4,1*
G04 #@! TO.N,GNDREF*
G04 #@! TA.AperFunction,SMDPad,CuDef*
G36*
G01*
X77180000Y-73403750D02*
X77180000Y-73916250D01*
G75*
G02*
X76961250Y-74135000I-218750J0D01*
G01*
X76523750Y-74135000D01*
G75*
G02*
X76305000Y-73916250I0J218750D01*
G01*
X76305000Y-73403750D01*
G75*
G02*
X76523750Y-73185000I218750J0D01*
G01*
X76961250Y-73185000D01*
G75*
G02*
X77180000Y-73403750I0J-218750D01*
G01*
G37*
G04 #@! TD.AperFunction*
G04 #@! TD*
G04 #@! TO.P,D11,1*
G04 #@! TO.N,Net-(D11-Pad1)*
G04 #@! TA.AperFunction,SMDPad,CuDef*
G36*
G01*
X159975000Y-83563750D02*
X159975000Y-84076250D01*
G75*
G02*
X159756250Y-84295000I-218750J0D01*
G01*
X159318750Y-84295000D01*
G75*
G02*
X159100000Y-84076250I0J218750D01*
G01*
X159100000Y-83563750D01*
G75*
G02*
X159318750Y-83345000I218750J0D01*
G01*
X159756250Y-83345000D01*
G75*
G02*
X159975000Y-83563750I0J-218750D01*
G01*
G37*
G04 #@! TD.AperFunction*
G04 #@! TO.P,D11,2*
G04 #@! TO.N,Net-(D11-Pad2)*
G04 #@! TA.AperFunction,SMDPad,CuDef*
G36*
G01*
X158400000Y-83563750D02*
X158400000Y-84076250D01*
G75*
G02*
X158181250Y-84295000I-218750J0D01*
G01*
X157743750Y-84295000D01*
G75*
G02*
X157525000Y-84076250I0J218750D01*
G01*
X157525000Y-83563750D01*
G75*
G02*
X157743750Y-83345000I218750J0D01*
G01*
X158181250Y-83345000D01*
G75*
G02*
X158400000Y-83563750I0J-218750D01*
G01*
G37*
G04 #@! TD.AperFunction*
G04 #@! TD*
G04 #@! TO.P,D13,1*
G04 #@! TO.N,Net-(D13-Pad1)*
G04 #@! TA.AperFunction,SMDPad,CuDef*
G36*
G01*
X173945000Y-83563750D02*
X173945000Y-84076250D01*
G75*
G02*
X173726250Y-84295000I-218750J0D01*
G01*
X173288750Y-84295000D01*
G75*
G02*
X173070000Y-84076250I0J218750D01*
G01*
X173070000Y-83563750D01*
G75*
G02*
X173288750Y-83345000I218750J0D01*
G01*
X173726250Y-83345000D01*
G75*
G02*
X173945000Y-83563750I0J-218750D01*
G01*
G37*
G04 #@! TD.AperFunction*
G04 #@! TO.P,D13,2*
G04 #@! TO.N,Net-(D13-Pad2)*
G04 #@! TA.AperFunction,SMDPad,CuDef*
G36*
G01*
X172370000Y-83563750D02*
X172370000Y-84076250D01*
G75*
G02*
X172151250Y-84295000I-218750J0D01*
G01*
X171713750Y-84295000D01*
G75*
G02*
X171495000Y-84076250I0J218750D01*
G01*
X171495000Y-83563750D01*
G75*
G02*
X171713750Y-83345000I218750J0D01*
G01*
X172151250Y-83345000D01*
G75*
G02*
X172370000Y-83563750I0J-218750D01*
G01*
G37*
G04 #@! TD.AperFunction*
G04 #@! TD*
G04 #@! TO.P,D14,1*
G04 #@! TO.N,+24V*
G04 #@! TA.AperFunction,SMDPad,CuDef*
G36*
G01*
X168260000Y-78020000D02*
X168260000Y-76920000D01*
G75*
G02*
X168585000Y-76595000I325000J0D01*
G01*
X169235000Y-76595000D01*
G75*
G02*
X169560000Y-76920000I0J-325000D01*
G01*
X169560000Y-78020000D01*
G75*
G02*
X169235000Y-78345000I-325000J0D01*
G01*
X168585000Y-78345000D01*
G75*
G02*
X168260000Y-78020000I0J325000D01*
G01*
G37*
G04 #@! TD.AperFunction*
G04 #@! TO.P,D14,2*
G04 #@! TO.N,Net-(D13-Pad1)*
G04 #@! TA.AperFunction,SMDPad,CuDef*
G36*
G01*
X171560000Y-78020000D02*
X171560000Y-76920000D01*
G75*
G02*
X171885000Y-76595000I325000J0D01*
G01*
X172535000Y-76595000D01*
G75*
G02*
X172860000Y-76920000I0J-325000D01*
G01*
X172860000Y-78020000D01*
G75*
G02*
X172535000Y-78345000I-325000J0D01*
G01*
X171885000Y-78345000D01*
G75*
G02*
X171560000Y-78020000I0J325000D01*
G01*
G37*
G04 #@! TD.AperFunction*
G04 #@! TD*
G04 #@! TO.P,D15,2*
G04 #@! TO.N,Net-(D15-Pad2)*
G04 #@! TA.AperFunction,SMDPad,CuDef*
G36*
G01*
X186340000Y-83563750D02*
X186340000Y-84076250D01*
G75*
G02*
X186121250Y-84295000I-218750J0D01*
G01*
X185683750Y-84295000D01*
G75*
G02*
X185465000Y-84076250I0J218750D01*
G01*
X185465000Y-83563750D01*
G75*
G02*
X185683750Y-83345000I218750J0D01*
G01*
X186121250Y-83345000D01*
G75*
G02*
X186340000Y-83563750I0J-218750D01*
G01*
G37*
G04 #@! TD.AperFunction*
G04 #@! TO.P,D15,1*
G04 #@! TO.N,Net-(D15-Pad1)*
G04 #@! TA.AperFunction,SMDPad,CuDef*
G36*
G01*
X187915000Y-83563750D02*
X187915000Y-84076250D01*
G75*
G02*
X187696250Y-84295000I-218750J0D01*
G01*
X187258750Y-84295000D01*
G75*
G02*
X187040000Y-84076250I0J218750D01*
G01*
X187040000Y-83563750D01*
G75*
G02*
X187258750Y-83345000I218750J0D01*
G01*
X187696250Y-83345000D01*
G75*
G02*
X187915000Y-83563750I0J-218750D01*
G01*
G37*
G04 #@! TD.AperFunction*
G04 #@! TD*
G04 #@! TO.P,D16,2*
G04 #@! TO.N,Net-(D15-Pad1)*
G04 #@! TA.AperFunction,SMDPad,CuDef*
G36*
G01*
X185530000Y-78020000D02*
X185530000Y-76920000D01*
G75*
G02*
X185855000Y-76595000I325000J0D01*
G01*
X186505000Y-76595000D01*
G75*
G02*
X186830000Y-76920000I0J-325000D01*
G01*
X186830000Y-78020000D01*
G75*
G02*
X186505000Y-78345000I-325000J0D01*
G01*
X185855000Y-78345000D01*
G75*
G02*
X185530000Y-78020000I0J325000D01*
G01*
G37*
G04 #@! TD.AperFunction*
G04 #@! TO.P,D16,1*
G04 #@! TO.N,+24V*
G04 #@! TA.AperFunction,SMDPad,CuDef*
G36*
G01*
X182230000Y-78020000D02*
X182230000Y-76920000D01*
G75*
G02*
X182555000Y-76595000I325000J0D01*
G01*
X183205000Y-76595000D01*
G75*
G02*
X183530000Y-76920000I0J-325000D01*
G01*
X183530000Y-78020000D01*
G75*
G02*
X183205000Y-78345000I-325000J0D01*
G01*
X182555000Y-78345000D01*
G75*
G02*
X182230000Y-78020000I0J325000D01*
G01*
G37*
G04 #@! TD.AperFunction*
G04 #@! TD*
G04 #@! TO.P,D17,1*
G04 #@! TO.N,Net-(D17-Pad1)*
G04 #@! TA.AperFunction,SMDPad,CuDef*
G36*
G01*
X201885000Y-83563750D02*
X201885000Y-84076250D01*
G75*
G02*
X201666250Y-84295000I-218750J0D01*
G01*
X201228750Y-84295000D01*
G75*
G02*
X201010000Y-84076250I0J218750D01*
G01*
X201010000Y-83563750D01*
G75*
G02*
X201228750Y-83345000I218750J0D01*
G01*
X201666250Y-83345000D01*
G75*
G02*
X201885000Y-83563750I0J-218750D01*
G01*
G37*
G04 #@! TD.AperFunction*
G04 #@! TO.P,D17,2*
G04 #@! TO.N,Net-(D17-Pad2)*
G04 #@! TA.AperFunction,SMDPad,CuDef*
G36*
G01*
X200310000Y-83563750D02*
X200310000Y-84076250D01*
G75*
G02*
X200091250Y-84295000I-218750J0D01*
G01*
X199653750Y-84295000D01*
G75*
G02*
X199435000Y-84076250I0J218750D01*
G01*
X199435000Y-83563750D01*
G75*
G02*
X199653750Y-83345000I218750J0D01*
G01*
X200091250Y-83345000D01*
G75*
G02*
X200310000Y-83563750I0J-218750D01*
G01*
G37*
G04 #@! TD.AperFunction*
G04 #@! TD*
G04 #@! TO.P,D18,1*
G04 #@! TO.N,+24V*
G04 #@! TA.AperFunction,SMDPad,CuDef*
G36*
G01*
X196200000Y-78020000D02*
X196200000Y-76920000D01*
G75*
G02*
X196525000Y-76595000I325000J0D01*
G01*
X197175000Y-76595000D01*
G75*
G02*
X197500000Y-76920000I0J-325000D01*
G01*
X197500000Y-78020000D01*
G75*
G02*
X197175000Y-78345000I-325000J0D01*
G01*
X196525000Y-78345000D01*
G75*
G02*
X196200000Y-78020000I0J325000D01*
G01*
G37*
G04 #@! TD.AperFunction*
G04 #@! TO.P,D18,2*
G04 #@! TO.N,Net-(D17-Pad1)*
G04 #@! TA.AperFunction,SMDPad,CuDef*
G36*
G01*
X199500000Y-78020000D02*
X199500000Y-76920000D01*
G75*
G02*
X199825000Y-76595000I325000J0D01*
G01*
X200475000Y-76595000D01*
G75*
G02*
X200800000Y-76920000I0J-325000D01*
G01*
X200800000Y-78020000D01*
G75*
G02*
X200475000Y-78345000I-325000J0D01*
G01*
X199825000Y-78345000D01*
G75*
G02*
X199500000Y-78020000I0J325000D01*
G01*
G37*
G04 #@! TD.AperFunction*
G04 #@! TD*
G04 #@! TO.P,D19,1*
G04 #@! TO.N,Net-(D19-Pad1)*
G04 #@! TA.AperFunction,SMDPad,CuDef*
G36*
G01*
X215855000Y-83563750D02*
X215855000Y-84076250D01*
G75*
G02*
X215636250Y-84295000I-218750J0D01*
G01*
X215198750Y-84295000D01*
G75*
G02*
X214980000Y-84076250I0J218750D01*
G01*
X214980000Y-83563750D01*
G75*
G02*
X215198750Y-83345000I218750J0D01*
G01*
X215636250Y-83345000D01*
G75*
G02*
X215855000Y-83563750I0J-218750D01*
G01*
G37*
G04 #@! TD.AperFunction*
G04 #@! TO.P,D19,2*
G04 #@! TO.N,Net-(D19-Pad2)*
G04 #@! TA.AperFunction,SMDPad,CuDef*
G36*
G01*
X214280000Y-83563750D02*
X214280000Y-84076250D01*
G75*
G02*
X214061250Y-84295000I-218750J0D01*
G01*
X213623750Y-84295000D01*
G75*
G02*
X213405000Y-84076250I0J218750D01*
G01*
X213405000Y-83563750D01*
G75*
G02*
X213623750Y-83345000I218750J0D01*
G01*
X214061250Y-83345000D01*
G75*
G02*
X214280000Y-83563750I0J-218750D01*
G01*
G37*
G04 #@! TD.AperFunction*
G04 #@! TD*
G04 #@! TO.P,D20,1*
G04 #@! TO.N,+24V*
G04 #@! TA.AperFunction,SMDPad,CuDef*
G36*
G01*
X210170000Y-78020000D02*
X210170000Y-76920000D01*
G75*
G02*
X210495000Y-76595000I325000J0D01*
G01*
X211145000Y-76595000D01*
G75*
G02*
X211470000Y-76920000I0J-325000D01*
G01*
X211470000Y-78020000D01*
G75*
G02*
X211145000Y-78345000I-325000J0D01*
G01*
X210495000Y-78345000D01*
G75*
G02*
X210170000Y-78020000I0J325000D01*
G01*
G37*
G04 #@! TD.AperFunction*
G04 #@! TO.P,D20,2*
G04 #@! TO.N,Net-(D19-Pad1)*
G04 #@! TA.AperFunction,SMDPad,CuDef*
G36*
G01*
X213470000Y-78020000D02*
X213470000Y-76920000D01*
G75*
G02*
X213795000Y-76595000I325000J0D01*
G01*
X214445000Y-76595000D01*
G75*
G02*
X214770000Y-76920000I0J-325000D01*
G01*
X214770000Y-78020000D01*
G75*
G02*
X214445000Y-78345000I-325000J0D01*
G01*
X213795000Y-78345000D01*
G75*
G02*
X213470000Y-78020000I0J325000D01*
G01*
G37*
G04 #@! TD.AperFunction*
G04 #@! TD*
G04 #@! TO.P,D21,2*
G04 #@! TO.N,Net-(D21-Pad2)*
G04 #@! TA.AperFunction,SMDPad,CuDef*
G36*
G01*
X228250000Y-83563750D02*
X228250000Y-84076250D01*
G75*
G02*
X228031250Y-84295000I-218750J0D01*
G01*
X227593750Y-84295000D01*
G75*
G02*
X227375000Y-84076250I0J218750D01*
G01*
X227375000Y-83563750D01*
G75*
G02*
X227593750Y-83345000I218750J0D01*
G01*
X228031250Y-83345000D01*
G75*
G02*
X228250000Y-83563750I0J-218750D01*
G01*
G37*
G04 #@! TD.AperFunction*
G04 #@! TO.P,D21,1*
G04 #@! TO.N,Net-(D21-Pad1)*
G04 #@! TA.AperFunction,SMDPad,CuDef*
G36*
G01*
X229825000Y-83563750D02*
X229825000Y-84076250D01*
G75*
G02*
X229606250Y-84295000I-218750J0D01*
G01*
X229168750Y-84295000D01*
G75*
G02*
X228950000Y-84076250I0J218750D01*
G01*
X228950000Y-83563750D01*
G75*
G02*
X229168750Y-83345000I218750J0D01*
G01*
X229606250Y-83345000D01*
G75*
G02*
X229825000Y-83563750I0J-218750D01*
G01*
G37*
G04 #@! TD.AperFunction*
G04 #@! TD*
G04 #@! TO.P,D22,2*
G04 #@! TO.N,Net-(D21-Pad1)*
G04 #@! TA.AperFunction,SMDPad,CuDef*
G36*
G01*
X227440000Y-78020000D02*
X227440000Y-76920000D01*
G75*
G02*
X227765000Y-76595000I325000J0D01*
G01*
X228415000Y-76595000D01*
G75*
G02*
X228740000Y-76920000I0J-325000D01*
G01*
X228740000Y-78020000D01*
G75*
G02*
X228415000Y-78345000I-325000J0D01*
G01*
X227765000Y-78345000D01*
G75*
G02*
X227440000Y-78020000I0J325000D01*
G01*
G37*
G04 #@! TD.AperFunction*
G04 #@! TO.P,D22,1*
G04 #@! TO.N,+24V*
G04 #@! TA.AperFunction,SMDPad,CuDef*
G36*
G01*
X224140000Y-78020000D02*
X224140000Y-76920000D01*
G75*
G02*
X224465000Y-76595000I325000J0D01*
G01*
X225115000Y-76595000D01*
G75*
G02*
X225440000Y-76920000I0J-325000D01*
G01*
X225440000Y-78020000D01*
G75*
G02*
X225115000Y-78345000I-325000J0D01*
G01*
X224465000Y-78345000D01*
G75*
G02*
X224140000Y-78020000I0J325000D01*
G01*
G37*
G04 #@! TD.AperFunction*
G04 #@! TD*
G04 #@! TO.P,R19,1*
G04 #@! TO.N,+24V*
G04 #@! TA.AperFunction,SMDPad,CuDef*
G36*
G01*
X168397500Y-81095002D02*
X168397500Y-80194998D01*
G75*
G02*
X168647498Y-79945000I249998J0D01*
G01*
X169172502Y-79945000D01*
G75*
G02*
X169422500Y-80194998I0J-249998D01*
G01*
X169422500Y-81095002D01*
G75*
G02*
X169172502Y-81345000I-249998J0D01*
G01*
X168647498Y-81345000D01*
G75*
G02*
X168397500Y-81095002I0J249998D01*
G01*
G37*
G04 #@! TD.AperFunction*
G04 #@! TO.P,R19,2*
G04 #@! TO.N,Net-(D13-Pad2)*
G04 #@! TA.AperFunction,SMDPad,CuDef*
G36*
G01*
X170222500Y-81095002D02*
X170222500Y-80194998D01*
G75*
G02*
X170472498Y-79945000I249998J0D01*
G01*
X170997502Y-79945000D01*
G75*
G02*
X171247500Y-80194998I0J-249998D01*
G01*
X171247500Y-81095002D01*
G75*
G02*
X170997502Y-81345000I-249998J0D01*
G01*
X170472498Y-81345000D01*
G75*
G02*
X170222500Y-81095002I0J249998D01*
G01*
G37*
G04 #@! TD.AperFunction*
G04 #@! TD*
G04 #@! TO.P,R21,2*
G04 #@! TO.N,Net-(D15-Pad2)*
G04 #@! TA.AperFunction,SMDPad,CuDef*
G36*
G01*
X184192500Y-81095002D02*
X184192500Y-80194998D01*
G75*
G02*
X184442498Y-79945000I249998J0D01*
G01*
X184967502Y-79945000D01*
G75*
G02*
X185217500Y-80194998I0J-249998D01*
G01*
X185217500Y-81095002D01*
G75*
G02*
X184967502Y-81345000I-249998J0D01*
G01*
X184442498Y-81345000D01*
G75*
G02*
X184192500Y-81095002I0J249998D01*
G01*
G37*
G04 #@! TD.AperFunction*
G04 #@! TO.P,R21,1*
G04 #@! TO.N,+24V*
G04 #@! TA.AperFunction,SMDPad,CuDef*
G36*
G01*
X182367500Y-81095002D02*
X182367500Y-80194998D01*
G75*
G02*
X182617498Y-79945000I249998J0D01*
G01*
X183142502Y-79945000D01*
G75*
G02*
X183392500Y-80194998I0J-249998D01*
G01*
X183392500Y-81095002D01*
G75*
G02*
X183142502Y-81345000I-249998J0D01*
G01*
X182617498Y-81345000D01*
G75*
G02*
X182367500Y-81095002I0J249998D01*
G01*
G37*
G04 #@! TD.AperFunction*
G04 #@! TD*
G04 #@! TO.P,R23,1*
G04 #@! TO.N,+24V*
G04 #@! TA.AperFunction,SMDPad,CuDef*
G36*
G01*
X196337500Y-81095002D02*
X196337500Y-80194998D01*
G75*
G02*
X196587498Y-79945000I249998J0D01*
G01*
X197112502Y-79945000D01*
G75*
G02*
X197362500Y-80194998I0J-249998D01*
G01*
X197362500Y-81095002D01*
G75*
G02*
X197112502Y-81345000I-249998J0D01*
G01*
X196587498Y-81345000D01*
G75*
G02*
X196337500Y-81095002I0J249998D01*
G01*
G37*
G04 #@! TD.AperFunction*
G04 #@! TO.P,R23,2*
G04 #@! TO.N,Net-(D17-Pad2)*
G04 #@! TA.AperFunction,SMDPad,CuDef*
G36*
G01*
X198162500Y-81095002D02*
X198162500Y-80194998D01*
G75*
G02*
X198412498Y-79945000I249998J0D01*
G01*
X198937502Y-79945000D01*
G75*
G02*
X199187500Y-80194998I0J-249998D01*
G01*
X199187500Y-81095002D01*
G75*
G02*
X198937502Y-81345000I-249998J0D01*
G01*
X198412498Y-81345000D01*
G75*
G02*
X198162500Y-81095002I0J249998D01*
G01*
G37*
G04 #@! TD.AperFunction*
G04 #@! TD*
G04 #@! TO.P,R25,2*
G04 #@! TO.N,Net-(D19-Pad2)*
G04 #@! TA.AperFunction,SMDPad,CuDef*
G36*
G01*
X212132500Y-81095002D02*
X212132500Y-80194998D01*
G75*
G02*
X212382498Y-79945000I249998J0D01*
G01*
X212907502Y-79945000D01*
G75*
G02*
X213157500Y-80194998I0J-249998D01*
G01*
X213157500Y-81095002D01*
G75*
G02*
X212907502Y-81345000I-249998J0D01*
G01*
X212382498Y-81345000D01*
G75*
G02*
X212132500Y-81095002I0J249998D01*
G01*
G37*
G04 #@! TD.AperFunction*
G04 #@! TO.P,R25,1*
G04 #@! TO.N,+24V*
G04 #@! TA.AperFunction,SMDPad,CuDef*
G36*
G01*
X210307500Y-81095002D02*
X210307500Y-80194998D01*
G75*
G02*
X210557498Y-79945000I249998J0D01*
G01*
X211082502Y-79945000D01*
G75*
G02*
X211332500Y-80194998I0J-249998D01*
G01*
X211332500Y-81095002D01*
G75*
G02*
X211082502Y-81345000I-249998J0D01*
G01*
X210557498Y-81345000D01*
G75*
G02*
X210307500Y-81095002I0J249998D01*
G01*
G37*
G04 #@! TD.AperFunction*
G04 #@! TD*
G04 #@! TO.P,R27,2*
G04 #@! TO.N,Net-(D21-Pad2)*
G04 #@! TA.AperFunction,SMDPad,CuDef*
G36*
G01*
X226102500Y-81095002D02*
X226102500Y-80194998D01*
G75*
G02*
X226352498Y-79945000I249998J0D01*
G01*
X226877502Y-79945000D01*
G75*
G02*
X227127500Y-80194998I0J-249998D01*
G01*
X227127500Y-81095002D01*
G75*
G02*
X226877502Y-81345000I-249998J0D01*
G01*
X226352498Y-81345000D01*
G75*
G02*
X226102500Y-81095002I0J249998D01*
G01*
G37*
G04 #@! TD.AperFunction*
G04 #@! TO.P,R27,1*
G04 #@! TO.N,+24V*
G04 #@! TA.AperFunction,SMDPad,CuDef*
G36*
G01*
X224277500Y-81095002D02*
X224277500Y-80194998D01*
G75*
G02*
X224527498Y-79945000I249998J0D01*
G01*
X225052502Y-79945000D01*
G75*
G02*
X225302500Y-80194998I0J-249998D01*
G01*
X225302500Y-81095002D01*
G75*
G02*
X225052502Y-81345000I-249998J0D01*
G01*
X224527498Y-81345000D01*
G75*
G02*
X224277500Y-81095002I0J249998D01*
G01*
G37*
G04 #@! TD.AperFunction*
G04 #@! TD*
D21*
G04 #@! TO.N,GNDREF*
X148590000Y-69850000D03*
X148590000Y-82550000D03*
X85090000Y-110490000D03*
X85090000Y-95250000D03*
X85090000Y-86360000D03*
X95250000Y-89535000D03*
X95250000Y-74295000D03*
X95250000Y-104775000D03*
X85090000Y-88900000D03*
X85090000Y-97790000D03*
X85090000Y-107950000D03*
X128905000Y-82550000D03*
X128905000Y-97790000D03*
G04 #@! TO.N,+24V*
X131445000Y-90170000D03*
X131445000Y-120650000D03*
G04 #@! TO.N,+5V*
X68580000Y-76200000D03*
X77470000Y-93980000D03*
X126365000Y-85090000D03*
X126365000Y-118110000D03*
X126365000Y-92075000D03*
G04 #@! TO.N,/32-GPI34*
X140970000Y-80010000D03*
X140970000Y-100330000D03*
X116840000Y-91440000D03*
G04 #@! TO.N,/32-GPI36*
X133350000Y-77470000D03*
X133350000Y-93980000D03*
G04 #@! TO.N,/32-GPI35*
X135890000Y-97790000D03*
X135890000Y-69850000D03*
X116840000Y-89535000D03*
G04 #@! TO.N,/32-GPI39*
X134620000Y-92710000D03*
X134620000Y-74930000D03*
G04 #@! TO.N,/32-GPIO14*
X116840000Y-106680000D03*
G04 #@! TO.N,/32-GPIO15*
X116840000Y-104775000D03*
G04 #@! TO.N,/32-GPIO2*
X208280000Y-72390000D03*
X123190000Y-86995000D03*
G04 #@! TO.N,/32-GPIO4*
X222250000Y-72390000D03*
X124460000Y-88265000D03*
G04 #@! TO.N,/32-GPIO13*
X194310000Y-72390000D03*
X142240000Y-115570000D03*
X142240000Y-78740000D03*
G04 #@! TO.N,/32-GPIO16*
X180340000Y-72390000D03*
X139700000Y-77470000D03*
X139700000Y-107950000D03*
G04 #@! TO.N,/32-GPIO33*
X152400000Y-72390000D03*
X137160000Y-72390000D03*
X137160000Y-102870000D03*
G04 #@! TO.N,/32-GPIO32*
X166370000Y-72390000D03*
X138430000Y-74930000D03*
X138430000Y-105410000D03*
G04 #@! TD*
D22*
G04 #@! TO.N,GNDREF*
X81280000Y-85190000D02*
X81230000Y-85140000D01*
X74670000Y-85140000D02*
X81230000Y-85140000D01*
D23*
X76980000Y-82830000D02*
X74670000Y-85140000D01*
X76980000Y-78740000D02*
X76980000Y-82830000D01*
X76980000Y-73660000D02*
X76980000Y-78740000D01*
X76980000Y-68580000D02*
X76980000Y-73660000D01*
D22*
X83870000Y-85140000D02*
X85090000Y-86360000D01*
X81230000Y-85140000D02*
X83870000Y-85140000D01*
X80390000Y-100330000D02*
X85090000Y-100330000D01*
X148590000Y-69850000D02*
X148590000Y-82550000D01*
X85090000Y-110490000D02*
X85090000Y-107950000D01*
X85090000Y-100330000D02*
X85090000Y-95250000D01*
X85090000Y-107950000D02*
X85090000Y-100330000D01*
X85090000Y-95250000D02*
X85090000Y-86360000D01*
D23*
X95250000Y-72390000D02*
X95250000Y-74295000D01*
X95250000Y-87630000D02*
X95250000Y-89535000D01*
X95250000Y-102870000D02*
X95250000Y-104775000D01*
X95250000Y-89535000D02*
X95250000Y-91440000D01*
X95250000Y-74295000D02*
X95250000Y-76200000D01*
X95250000Y-104775000D02*
X95250000Y-106680000D01*
D22*
X128905000Y-82550000D02*
X128905000Y-97790000D01*
X77470000Y-118110000D02*
X85090000Y-110490000D01*
X77470000Y-123190000D02*
X77470000Y-118110000D01*
D24*
X78740000Y-107950000D02*
X85090000Y-107950000D01*
D23*
X81280000Y-89540000D02*
X82545000Y-89540000D01*
X83185000Y-88900000D02*
X85090000Y-88900000D01*
X82545000Y-89540000D02*
X83185000Y-88900000D01*
G04 #@! TO.N,+24V*
X154940000Y-77470000D02*
X154940000Y-80645000D01*
X154940000Y-80645000D02*
X154940000Y-87630000D01*
X168910000Y-77470000D02*
X168910000Y-80645000D01*
X168910000Y-80645000D02*
X168910000Y-87630000D01*
X182880000Y-77470000D02*
X182880000Y-80645000D01*
X182880000Y-80645000D02*
X182880000Y-87630000D01*
X196850000Y-77470000D02*
X196850000Y-80645000D01*
X196850000Y-80645000D02*
X196850000Y-87630000D01*
X210820000Y-77470000D02*
X210820000Y-80645000D01*
X210820000Y-80645000D02*
X210820000Y-87630000D01*
X224790000Y-77470000D02*
X224790000Y-80645000D01*
X224790000Y-80645000D02*
X224790000Y-87630000D01*
D22*
X131445000Y-120650000D02*
X131445000Y-90170000D01*
X72390000Y-118110000D02*
X72390000Y-123190000D01*
D24*
X72390000Y-118110000D02*
X72390000Y-114300000D01*
D23*
G04 #@! TO.N,+5V*
X68580000Y-76200000D02*
X68580000Y-73660000D01*
D25*
X76950000Y-93460000D02*
X77470000Y-93980000D01*
X76950000Y-91440000D02*
X76950000Y-93460000D01*
D22*
X126365000Y-85090000D02*
X126365000Y-92075000D01*
X126365000Y-92075000D02*
X126365000Y-118110000D01*
D23*
X81280000Y-91440000D02*
X76950000Y-91440000D01*
D26*
G04 #@! TO.N,/32-GPI34*
X140970000Y-80010000D02*
X140970000Y-100330000D01*
D23*
X116840000Y-92710000D02*
X113030000Y-92710000D01*
X116840000Y-91440000D02*
X116840000Y-92710000D01*
G04 #@! TO.N,/32-GPI36*
X121920000Y-77470000D02*
X116840000Y-77470000D01*
X116840000Y-77470000D02*
X113030000Y-77470000D01*
D26*
X133350000Y-77470000D02*
X133350000Y-93980000D01*
G04 #@! TO.N,/32-GPI35*
X135890000Y-69850000D02*
X135890000Y-97790000D01*
D23*
X116840000Y-87630000D02*
X113030000Y-87630000D01*
X116840000Y-89535000D02*
X116840000Y-87630000D01*
D26*
G04 #@! TO.N,/32-GPI39*
X134620000Y-92710000D02*
X134620000Y-74930000D01*
D23*
X119380000Y-74930000D02*
X116840000Y-72390000D01*
X121920000Y-74930000D02*
X119380000Y-74930000D01*
X116840000Y-72390000D02*
X113030000Y-72390000D01*
G04 #@! TO.N,/32-GPIO14*
X116840000Y-107950000D02*
X113030000Y-107950000D01*
X116840000Y-107950000D02*
X116840000Y-106680000D01*
G04 #@! TO.N,/32-GPIO15*
X116840000Y-102870000D02*
X113030000Y-102870000D01*
X116840000Y-104775000D02*
X116840000Y-102870000D01*
G04 #@! TO.N,Net-(D2-Pad2)*
X70405000Y-68580000D02*
X74930000Y-68580000D01*
G04 #@! TO.N,Net-(D3-Pad2)*
X70405000Y-78740000D02*
X74930000Y-78740000D01*
G04 #@! TO.N,Net-(D4-Pad2)*
X70405000Y-73660000D02*
X74930000Y-73660000D01*
D22*
G04 #@! TO.N,Net-(J2-Pad6)*
X114300000Y-123190000D02*
X114300000Y-120650000D01*
D26*
X95250000Y-111760000D02*
X95250000Y-110490000D01*
X97790000Y-114300000D02*
X95250000Y-111760000D01*
X107950000Y-114300000D02*
X97790000Y-114300000D01*
X114300000Y-120650000D02*
X107950000Y-114300000D01*
G04 #@! TO.N,Net-(J2-Pad5)*
X92710000Y-111760000D02*
X92710000Y-100330000D01*
D22*
X109220000Y-123190000D02*
X109220000Y-120650000D01*
D26*
X109220000Y-120650000D02*
X104140000Y-115570000D01*
X104140000Y-115570000D02*
X96520000Y-115570000D01*
X96520000Y-115570000D02*
X92710000Y-111760000D01*
X92710000Y-100330000D02*
X93980000Y-99060000D01*
X93980000Y-99060000D02*
X95250000Y-99060000D01*
G04 #@! TO.N,Net-(J2-Pad4)*
X91440000Y-113030000D02*
X91440000Y-97790000D01*
X93980000Y-95250000D02*
X95250000Y-95250000D01*
X91440000Y-97790000D02*
X93980000Y-95250000D01*
D22*
X104140000Y-123190000D02*
X104140000Y-120650000D01*
D26*
X104140000Y-120650000D02*
X100330000Y-116840000D01*
X100330000Y-116840000D02*
X95250000Y-116840000D01*
X95250000Y-116840000D02*
X91440000Y-113030000D01*
G04 #@! TO.N,Net-(J2-Pad3)*
X92710000Y-83820000D02*
X95250000Y-83820000D01*
X90170000Y-86360000D02*
X92710000Y-83820000D01*
X90170000Y-114300000D02*
X90170000Y-86360000D01*
D22*
X99060000Y-123190000D02*
X99060000Y-120650000D01*
D26*
X99060000Y-120650000D02*
X96520000Y-118110000D01*
X96520000Y-118110000D02*
X93980000Y-118110000D01*
X93980000Y-118110000D02*
X90170000Y-114300000D01*
G04 #@! TO.N,Net-(J2-Pad2)*
X88900000Y-82550000D02*
X91440000Y-80010000D01*
X91440000Y-80010000D02*
X95250000Y-80010000D01*
X88900000Y-115570000D02*
X88900000Y-82550000D01*
D22*
X93980000Y-123190000D02*
X93980000Y-120650000D01*
D26*
X93980000Y-120650000D02*
X88900000Y-115570000D01*
G04 #@! TO.N,Net-(J2-Pad1)*
X90170000Y-68580000D02*
X95250000Y-68580000D01*
X87630000Y-71120000D02*
X90170000Y-68580000D01*
X87630000Y-119380000D02*
X87630000Y-71120000D01*
D22*
X88900000Y-123190000D02*
X88900000Y-120650000D01*
D26*
X88900000Y-120650000D02*
X87630000Y-119380000D01*
D23*
G04 #@! TO.N,+3V3*
X68580000Y-67310000D02*
X68580000Y-68580000D01*
X69215000Y-66675000D02*
X68580000Y-67310000D01*
X107950000Y-66675000D02*
X69215000Y-66675000D01*
X110490000Y-69215000D02*
X107950000Y-66675000D01*
X115490000Y-69215000D02*
X116840000Y-70565000D01*
X110490000Y-69215000D02*
X115490000Y-69215000D01*
X121920000Y-85090000D02*
X120015000Y-85090000D01*
X119300000Y-85805000D02*
X116840000Y-85805000D01*
X120015000Y-85090000D02*
X119300000Y-85805000D01*
X110490000Y-82550000D02*
X116840000Y-82550000D01*
X116840000Y-79295000D02*
X116840000Y-82550000D01*
X110490000Y-98425000D02*
X110490000Y-82550000D01*
X116840000Y-82550000D02*
X116840000Y-85805000D01*
X110490000Y-82550000D02*
X110490000Y-69215000D01*
X120650000Y-95250000D02*
X118745000Y-95250000D01*
X118745000Y-95250000D02*
X118110000Y-95885000D01*
X118110000Y-95885000D02*
X116840000Y-95885000D01*
X116840000Y-98425000D02*
X110490000Y-98425000D01*
X116840000Y-94535000D02*
X116840000Y-98425000D01*
X116840000Y-98425000D02*
X116840000Y-101045000D01*
X110490000Y-99695000D02*
X110490000Y-98425000D01*
X110490000Y-111760000D02*
X110490000Y-98425000D01*
X111760000Y-113030000D02*
X110490000Y-111760000D01*
X116205000Y-113030000D02*
X111760000Y-113030000D01*
X116840000Y-112395000D02*
X116205000Y-113030000D01*
X116840000Y-109775000D02*
X116840000Y-112395000D01*
D26*
G04 #@! TO.N,/32-GPIO2*
X210820000Y-72390000D02*
X208280000Y-72390000D01*
X121920000Y-107950000D02*
X120650000Y-107950000D01*
X123190000Y-106680000D02*
X121920000Y-107950000D01*
X123190000Y-86995000D02*
X123190000Y-106680000D01*
G04 #@! TO.N,/32-GPIO4*
X224790000Y-72390000D02*
X222250000Y-72390000D01*
X124460000Y-88265000D02*
X124460000Y-111760000D01*
X123190000Y-113030000D02*
X120650000Y-113030000D01*
X124460000Y-111760000D02*
X123190000Y-113030000D01*
G04 #@! TO.N,/32-GPIO13*
X196850000Y-72390000D02*
X194310000Y-72390000D01*
X142240000Y-115570000D02*
X142240000Y-78740000D01*
G04 #@! TO.N,/32-GPIO16*
X182880000Y-72390000D02*
X180340000Y-72390000D01*
X139700000Y-77470000D02*
X139700000Y-107950000D01*
G04 #@! TO.N,/32-GPIO33*
X154940000Y-72390000D02*
X152400000Y-72390000D01*
X137160000Y-72390000D02*
X137160000Y-102870000D01*
G04 #@! TO.N,/32-GPIO32*
X168910000Y-72390000D02*
X166370000Y-72390000D01*
X138430000Y-74930000D02*
X138430000Y-105410000D01*
D23*
G04 #@! TO.N,Net-(D17-Pad2)*
X198675000Y-82622500D02*
X199872500Y-83820000D01*
X198675000Y-80645000D02*
X198675000Y-82622500D01*
G04 #@! TO.N,Net-(D19-Pad2)*
X212645000Y-82622500D02*
X213842500Y-83820000D01*
X212645000Y-80645000D02*
X212645000Y-82622500D01*
G04 #@! TO.N,Net-(D21-Pad2)*
X226615000Y-82622500D02*
X227812500Y-83820000D01*
X226615000Y-80645000D02*
X226615000Y-82622500D01*
D24*
G04 #@! TO.N,Net-(Q1-Pad2)*
X159385000Y-72390000D02*
X162560000Y-72390000D01*
D26*
X156765000Y-72390000D02*
X159385000Y-72390000D01*
D24*
G04 #@! TO.N,Net-(Q2-Pad2)*
X173355000Y-72390000D02*
X176530000Y-72390000D01*
D26*
X173355000Y-72390000D02*
X170735000Y-72390000D01*
D24*
G04 #@! TO.N,Net-(Q3-Pad2)*
X187325000Y-72390000D02*
X190500000Y-72390000D01*
D26*
X187325000Y-72390000D02*
X184705000Y-72390000D01*
D24*
G04 #@! TO.N,Net-(Q4-Pad2)*
X201295000Y-72390000D02*
X204470000Y-72390000D01*
D26*
X201295000Y-72390000D02*
X198675000Y-72390000D01*
D24*
G04 #@! TO.N,Net-(Q5-Pad2)*
X215265000Y-72390000D02*
X218440000Y-72390000D01*
D26*
X215265000Y-72390000D02*
X212645000Y-72390000D01*
D24*
G04 #@! TO.N,Net-(Q6-Pad2)*
X229235000Y-72390000D02*
X232410000Y-72390000D01*
D26*
X229235000Y-72390000D02*
X226615000Y-72390000D01*
D23*
G04 #@! TO.N,Net-(C4-Pad1)*
X99550000Y-74790000D02*
X97150000Y-72390000D01*
X101600000Y-74790000D02*
X99550000Y-74790000D01*
X97150000Y-68655000D02*
X97075000Y-68580000D01*
X97150000Y-72390000D02*
X97150000Y-68655000D01*
G04 #@! TO.N,Net-(C5-Pad1)*
X101460000Y-80010000D02*
X101600000Y-79870000D01*
X97075000Y-80010000D02*
X101460000Y-80010000D01*
X97150000Y-79935000D02*
X97075000Y-80010000D01*
X97150000Y-76200000D02*
X97150000Y-79935000D01*
G04 #@! TO.N,Net-(C6-Pad1)*
X99550000Y-90030000D02*
X97150000Y-87630000D01*
X101600000Y-90030000D02*
X99550000Y-90030000D01*
X97150000Y-83895000D02*
X97075000Y-83820000D01*
X97150000Y-87630000D02*
X97150000Y-83895000D01*
G04 #@! TO.N,Net-(C7-Pad1)*
X101460000Y-95250000D02*
X101600000Y-95110000D01*
X97075000Y-95250000D02*
X101460000Y-95250000D01*
X97150000Y-95175000D02*
X97075000Y-95250000D01*
X97150000Y-91440000D02*
X97150000Y-95175000D01*
G04 #@! TO.N,Net-(C8-Pad1)*
X99550000Y-105270000D02*
X97150000Y-102870000D01*
X101600000Y-105270000D02*
X99550000Y-105270000D01*
X97150000Y-99135000D02*
X97075000Y-99060000D01*
X97150000Y-102870000D02*
X97150000Y-99135000D01*
G04 #@! TO.N,Net-(C9-Pad1)*
X101460000Y-110490000D02*
X101600000Y-110350000D01*
X97075000Y-110490000D02*
X101460000Y-110490000D01*
X97150000Y-110415000D02*
X97075000Y-110490000D01*
X97150000Y-106680000D02*
X97150000Y-110415000D01*
G04 #@! TO.N,Net-(D5-Pad2)*
X101600000Y-72390000D02*
X105410000Y-72390000D01*
G04 #@! TO.N,Net-(D6-Pad2)*
X101600000Y-77470000D02*
X105410000Y-77470000D01*
G04 #@! TO.N,Net-(D7-Pad2)*
X101600000Y-87630000D02*
X105410000Y-87630000D01*
G04 #@! TO.N,Net-(D8-Pad2)*
X101600000Y-92710000D02*
X105410000Y-92710000D01*
G04 #@! TO.N,Net-(D9-Pad2)*
X101600000Y-102870000D02*
X105410000Y-102870000D01*
G04 #@! TO.N,Net-(D10-Pad2)*
X101600000Y-107950000D02*
X105410000Y-107950000D01*
G04 #@! TO.N,Net-(D11-Pad2)*
X156765000Y-82622500D02*
X157962500Y-83820000D01*
X156765000Y-80645000D02*
X156765000Y-82622500D01*
G04 #@! TO.N,Net-(D13-Pad2)*
X170735000Y-82622500D02*
X171932500Y-83820000D01*
X170735000Y-80645000D02*
X170735000Y-82622500D01*
G04 #@! TO.N,Net-(D15-Pad2)*
X184705000Y-82622500D02*
X185902500Y-83820000D01*
X184705000Y-80645000D02*
X184705000Y-82622500D01*
D22*
G04 #@! TO.N,Net-(D11-Pad1)*
X162560000Y-87510000D02*
X162440000Y-87630000D01*
D23*
X158240000Y-77470000D02*
X162560000Y-77470000D01*
D22*
X162560000Y-74930000D02*
X162560000Y-77470000D01*
X162560000Y-83820000D02*
X162560000Y-87510000D01*
X162560000Y-77470000D02*
X162560000Y-83820000D01*
D23*
X159537500Y-83820000D02*
X162560000Y-83820000D01*
D22*
G04 #@! TO.N,Net-(D13-Pad1)*
X176530000Y-87510000D02*
X176410000Y-87630000D01*
D23*
X172210000Y-77470000D02*
X176530000Y-77470000D01*
D22*
X176530000Y-74930000D02*
X176530000Y-77470000D01*
X176530000Y-83820000D02*
X176530000Y-87510000D01*
X176530000Y-77470000D02*
X176530000Y-83820000D01*
D23*
X173507500Y-83820000D02*
X176530000Y-83820000D01*
D22*
G04 #@! TO.N,Net-(D15-Pad1)*
X190500000Y-87510000D02*
X190380000Y-87630000D01*
D23*
X186180000Y-77470000D02*
X190500000Y-77470000D01*
D22*
X190500000Y-74930000D02*
X190500000Y-77470000D01*
X190500000Y-83820000D02*
X190500000Y-87510000D01*
X190500000Y-77470000D02*
X190500000Y-83820000D01*
D23*
X187477500Y-83820000D02*
X190500000Y-83820000D01*
D22*
G04 #@! TO.N,Net-(D17-Pad1)*
X204470000Y-87510000D02*
X204350000Y-87630000D01*
X204470000Y-83820000D02*
X204470000Y-87510000D01*
D23*
X200150000Y-77470000D02*
X204470000Y-77470000D01*
D22*
X204470000Y-77470000D02*
X204470000Y-83820000D01*
X204470000Y-74930000D02*
X204470000Y-77470000D01*
D23*
X201447500Y-83820000D02*
X204470000Y-83820000D01*
D22*
G04 #@! TO.N,Net-(D19-Pad1)*
X218440000Y-87510000D02*
X218320000Y-87630000D01*
D23*
X214120000Y-77470000D02*
X218440000Y-77470000D01*
D22*
X218440000Y-74930000D02*
X218440000Y-77470000D01*
X218440000Y-83820000D02*
X218440000Y-87510000D01*
X218440000Y-77470000D02*
X218440000Y-83820000D01*
D23*
X215417500Y-83820000D02*
X218440000Y-83820000D01*
D22*
G04 #@! TO.N,Net-(D21-Pad1)*
X232410000Y-87510000D02*
X232290000Y-87630000D01*
X232410000Y-83820000D02*
X232410000Y-87510000D01*
D23*
X228090000Y-77470000D02*
X232410000Y-77470000D01*
D22*
X232410000Y-77470000D02*
X232410000Y-83820000D01*
X232410000Y-74930000D02*
X232410000Y-77470000D01*
D23*
X229387500Y-83820000D02*
X232410000Y-83820000D01*
D27*
G04 #@! TO.N,Net-(J3-Pad2)*
X162440000Y-122040000D02*
X161290000Y-123190000D01*
X162440000Y-114430000D02*
X162440000Y-122040000D01*
X162440000Y-107630000D02*
X162440000Y-114430000D01*
G04 #@! TO.N,Net-(J3-Pad1)*
X154940000Y-121920000D02*
X156210000Y-123190000D01*
X154940000Y-113030000D02*
X154940000Y-121920000D01*
X154940000Y-104130000D02*
X154940000Y-113030000D01*
G04 #@! TO.N,Net-(J4-Pad2)*
X176410000Y-114430000D02*
X176410000Y-122040000D01*
X176410000Y-122040000D02*
X175260000Y-123190000D01*
X176410000Y-107630000D02*
X176410000Y-114430000D01*
G04 #@! TO.N,Net-(J4-Pad1)*
X168910000Y-121920000D02*
X170180000Y-123190000D01*
X168910000Y-113030000D02*
X168910000Y-121920000D01*
X168910000Y-104130000D02*
X168910000Y-113030000D01*
G04 #@! TO.N,Net-(J5-Pad1)*
X182880000Y-113030000D02*
X182880000Y-121920000D01*
X182880000Y-121920000D02*
X184150000Y-123190000D01*
X182880000Y-104130000D02*
X182880000Y-113030000D01*
G04 #@! TO.N,Net-(J5-Pad2)*
X190380000Y-122040000D02*
X189230000Y-123190000D01*
X190380000Y-114430000D02*
X190380000Y-122040000D01*
X190380000Y-107630000D02*
X190380000Y-114430000D01*
G04 #@! TO.N,Net-(J6-Pad2)*
X204350000Y-114430000D02*
X204350000Y-122040000D01*
X204350000Y-122040000D02*
X203200000Y-123190000D01*
X204350000Y-107630000D02*
X204350000Y-114430000D01*
G04 #@! TO.N,Net-(J6-Pad1)*
X196850000Y-121920000D02*
X198120000Y-123190000D01*
X196850000Y-113030000D02*
X196850000Y-121920000D01*
X196850000Y-104130000D02*
X196850000Y-113030000D01*
G04 #@! TO.N,Net-(J7-Pad1)*
X210820000Y-113030000D02*
X210820000Y-121920000D01*
X210820000Y-121920000D02*
X212090000Y-123190000D01*
X210820000Y-104130000D02*
X210820000Y-113030000D01*
G04 #@! TO.N,Net-(J7-Pad2)*
X218320000Y-122040000D02*
X217170000Y-123190000D01*
X218320000Y-114430000D02*
X218320000Y-122040000D01*
X218320000Y-107630000D02*
X218320000Y-114430000D01*
G04 #@! TO.N,Net-(J8-Pad2)*
X232290000Y-122040000D02*
X231140000Y-123190000D01*
X232290000Y-114400000D02*
X232290000Y-122040000D01*
X232290000Y-107630000D02*
X232290000Y-114400000D01*
G04 #@! TO.N,Net-(J8-Pad1)*
X224790000Y-121920000D02*
X226060000Y-123190000D01*
X224790000Y-113000000D02*
X224790000Y-121920000D01*
X224790000Y-104130000D02*
X224790000Y-113000000D01*
D23*
G04 #@! TO.N,+24VA*
X68580000Y-78740000D02*
X68580000Y-90170000D01*
X69850000Y-91440000D02*
X72390000Y-91440000D01*
X68580000Y-90170000D02*
X69850000Y-91440000D01*
D22*
X72390000Y-100330000D02*
X72390000Y-107950000D01*
D24*
X72390000Y-111000000D02*
X72390000Y-107950000D01*
D23*
X78565000Y-111000000D02*
X78740000Y-110825000D01*
X72390000Y-111000000D02*
X78565000Y-111000000D01*
D22*
X72390000Y-95250000D02*
X72390000Y-100330000D01*
D24*
X72390000Y-95250000D02*
X72390000Y-91440000D01*
G04 #@! TD*
M02*
