M48
; DRILL file {KiCad (5.1.10)-1} date 10/04/21 14:19:27
; FORMAT={-:-/ absolute / metric / decimal}
; #@! TF.CreationDate,2021-10-04T14:19:27-03:00
; #@! TF.GenerationSoftware,Kicad,Pcbnew,(5.1.10)-1
; #@! TF.FileFunction,Plated,1,2,PTH
FMAT,2
METRIC
T1C0.600
T2C0.800
T3C0.900
T4C1.000
T5C1.300
%
G90
G05
T1
X68.58Y-76.2
X77.47Y-93.98
X85.09Y-86.36
X85.09Y-88.9
X85.09Y-95.25
X85.09Y-97.79
X85.09Y-107.95
X85.09Y-110.49
X95.25Y-74.295
X95.25Y-89.535
X95.25Y-104.775
X116.84Y-89.535
X116.84Y-91.44
X116.84Y-104.775
X116.84Y-106.68
X123.19Y-86.995
X124.46Y-88.265
X126.365Y-85.09
X126.365Y-92.075
X126.365Y-118.11
X128.905Y-82.55
X128.905Y-97.79
X131.445Y-90.17
X131.445Y-120.65
X133.35Y-77.47
X133.35Y-93.98
X134.62Y-74.93
X134.62Y-92.71
X135.89Y-69.85
X135.89Y-97.79
X137.16Y-72.39
X137.16Y-102.87
X138.43Y-74.93
X138.43Y-105.41
X139.7Y-77.47
X139.7Y-107.95
X140.97Y-80.01
X140.97Y-100.33
X142.24Y-78.74
X142.24Y-115.57
X148.59Y-69.85
X148.59Y-82.55
X152.4Y-72.39
X166.37Y-72.39
X180.34Y-72.39
X194.31Y-72.39
X208.28Y-72.39
X222.25Y-72.39
T2
X105.41Y-72.39
X105.41Y-74.93
X105.41Y-77.47
X105.41Y-80.01
X105.41Y-87.63
X105.41Y-90.17
X105.41Y-92.71
X105.41Y-95.25
X105.41Y-102.87
X105.41Y-105.41
X105.41Y-107.95
X105.41Y-110.49
X113.03Y-72.39
X113.03Y-74.93
X113.03Y-77.47
X113.03Y-80.01
X113.03Y-87.63
X113.03Y-90.17
X113.03Y-92.71
X113.03Y-95.25
X113.03Y-102.87
X113.03Y-105.41
X113.03Y-107.95
X113.03Y-110.49
X154.94Y-113.03
X162.44Y-114.43
X162.56Y-69.85
X162.56Y-72.39
X162.56Y-74.93
X168.91Y-113.03
X176.41Y-114.43
X176.53Y-69.85
X176.53Y-72.39
X176.53Y-74.93
X182.88Y-113.03
X190.38Y-114.43
X190.5Y-69.85
X190.5Y-72.39
X190.5Y-74.93
X196.85Y-113.03
X204.35Y-114.43
X204.47Y-69.85
X204.47Y-72.39
X204.47Y-74.93
X210.82Y-113.03
X218.32Y-114.43
X218.44Y-69.85
X218.44Y-72.39
X218.44Y-74.93
X224.79Y-113.03
X232.29Y-114.43
X232.41Y-69.85
X232.41Y-72.39
X232.41Y-74.93
T3
X120.65Y-92.71
X120.65Y-95.25
X120.65Y-97.79
X120.65Y-100.33
X120.65Y-102.87
X120.65Y-105.41
X120.65Y-107.95
X120.65Y-110.49
X120.65Y-113.03
X120.65Y-115.57
X121.92Y-67.31
X121.92Y-69.85
X121.92Y-72.39
X121.92Y-74.93
X121.92Y-77.47
X121.92Y-80.01
X121.92Y-82.55
X121.92Y-85.09
X144.78Y-67.31
X144.78Y-69.85
X144.78Y-72.39
X144.78Y-74.93
X144.78Y-77.47
X144.78Y-80.01
X144.78Y-82.55
X144.78Y-85.09
X146.05Y-92.71
X146.05Y-95.25
X146.05Y-97.79
X146.05Y-100.33
X146.05Y-102.87
X146.05Y-105.41
X146.05Y-107.95
X146.05Y-110.49
X146.05Y-113.03
X146.05Y-115.57
T4
X154.94Y-87.63
X162.44Y-87.63
X168.91Y-87.63
X176.41Y-87.63
X182.88Y-87.63
X190.38Y-87.63
X196.85Y-87.63
X204.35Y-87.63
X210.82Y-87.63
X218.32Y-87.63
X224.79Y-87.63
X232.29Y-87.63
T5
X72.39Y-123.19
X77.47Y-123.19
X88.9Y-123.19
X93.98Y-123.19
X99.06Y-123.19
X104.14Y-123.19
X109.22Y-123.19
X114.3Y-123.19
X154.94Y-104.13
X156.21Y-123.19
X161.29Y-123.19
X162.44Y-107.63
X168.91Y-104.13
X170.18Y-123.19
X175.26Y-123.19
X176.41Y-107.63
X182.88Y-104.13
X184.15Y-123.19
X189.23Y-123.19
X190.38Y-107.63
X196.85Y-104.13
X198.12Y-123.19
X203.2Y-123.19
X204.35Y-107.63
X210.82Y-104.13
X212.09Y-123.19
X217.17Y-123.19
X218.32Y-107.63
X224.79Y-104.13
X226.06Y-123.19
X231.14Y-123.19
X232.29Y-107.63
T0
M30
