G04 #@! TF.GenerationSoftware,KiCad,Pcbnew,(5.1.10)-1*
G04 #@! TF.CreationDate,2021-10-04T14:19:23-03:00*
G04 #@! TF.ProjectId,ESP-relay_6ch,4553502d-7265-46c6-9179-5f3663682e6b,rev?*
G04 #@! TF.SameCoordinates,Original*
G04 #@! TF.FileFunction,Legend,Top*
G04 #@! TF.FilePolarity,Positive*
%FSLAX46Y46*%
G04 Gerber Fmt 4.6, Leading zero omitted, Abs format (unit mm)*
G04 Created by KiCad (PCBNEW (5.1.10)-1) date 2021-10-04 14:19:23*
%MOMM*%
%LPD*%
G01*
G04 APERTURE LIST*
%ADD10C,0.300000*%
%ADD11C,0.150000*%
%ADD12C,0.500000*%
%ADD13C,0.250000*%
%ADD14C,0.120000*%
%ADD15C,0.010000*%
%ADD16C,0.050000*%
G04 APERTURE END LIST*
D10*
X79163571Y-67594285D02*
X80154047Y-67594285D01*
X79620714Y-68280000D01*
X79849285Y-68280000D01*
X80001666Y-68365714D01*
X80077857Y-68451428D01*
X80154047Y-68622857D01*
X80154047Y-69051428D01*
X80077857Y-69222857D01*
X80001666Y-69308571D01*
X79849285Y-69394285D01*
X79392142Y-69394285D01*
X79239761Y-69308571D01*
X79163571Y-69222857D01*
X80915952Y-69308571D02*
X80915952Y-69394285D01*
X80839761Y-69565714D01*
X80763571Y-69651428D01*
X81449285Y-67594285D02*
X82439761Y-67594285D01*
X81906428Y-68280000D01*
X82135000Y-68280000D01*
X82287380Y-68365714D01*
X82363571Y-68451428D01*
X82439761Y-68622857D01*
X82439761Y-69051428D01*
X82363571Y-69222857D01*
X82287380Y-69308571D01*
X82135000Y-69394285D01*
X81677857Y-69394285D01*
X81525476Y-69308571D01*
X81449285Y-69222857D01*
X82896904Y-67594285D02*
X83430238Y-69394285D01*
X83963571Y-67594285D01*
X86020714Y-67594285D02*
X86325476Y-67594285D01*
X86477857Y-67680000D01*
X86630238Y-67851428D01*
X86706428Y-68194285D01*
X86706428Y-68794285D01*
X86630238Y-69137142D01*
X86477857Y-69308571D01*
X86325476Y-69394285D01*
X86020714Y-69394285D01*
X85868333Y-69308571D01*
X85715952Y-69137142D01*
X85639761Y-68794285D01*
X85639761Y-68194285D01*
X85715952Y-67851428D01*
X85868333Y-67680000D01*
X86020714Y-67594285D01*
X87392142Y-69394285D02*
X87392142Y-67594285D01*
X88306428Y-69394285D02*
X87620714Y-68365714D01*
X88306428Y-67594285D02*
X87392142Y-68622857D01*
X80077857Y-72674285D02*
X79315952Y-72674285D01*
X79239761Y-73531428D01*
X79315952Y-73445714D01*
X79468333Y-73360000D01*
X79849285Y-73360000D01*
X80001666Y-73445714D01*
X80077857Y-73531428D01*
X80154047Y-73702857D01*
X80154047Y-74131428D01*
X80077857Y-74302857D01*
X80001666Y-74388571D01*
X79849285Y-74474285D01*
X79468333Y-74474285D01*
X79315952Y-74388571D01*
X79239761Y-74302857D01*
X80611190Y-72674285D02*
X81144523Y-74474285D01*
X81677857Y-72674285D01*
X83735000Y-72674285D02*
X84039761Y-72674285D01*
X84192142Y-72760000D01*
X84344523Y-72931428D01*
X84420714Y-73274285D01*
X84420714Y-73874285D01*
X84344523Y-74217142D01*
X84192142Y-74388571D01*
X84039761Y-74474285D01*
X83735000Y-74474285D01*
X83582619Y-74388571D01*
X83430238Y-74217142D01*
X83354047Y-73874285D01*
X83354047Y-73274285D01*
X83430238Y-72931428D01*
X83582619Y-72760000D01*
X83735000Y-72674285D01*
X85106428Y-74474285D02*
X85106428Y-72674285D01*
X86020714Y-74474285D02*
X85335000Y-73445714D01*
X86020714Y-72674285D02*
X85106428Y-73702857D01*
D11*
X73660000Y-76200000D02*
X88900000Y-76200000D01*
X73660000Y-71120000D02*
X88900000Y-71120000D01*
X88900000Y-66040000D02*
X73660000Y-66040000D01*
X88900000Y-81280000D02*
X88900000Y-66040000D01*
X73660000Y-81280000D02*
X88900000Y-81280000D01*
X73660000Y-66040000D02*
X73660000Y-81280000D01*
D10*
X121627857Y-118394285D02*
X121342142Y-118394285D01*
X121199285Y-118480000D01*
X121127857Y-118565714D01*
X120984999Y-118822857D01*
X120913571Y-119165714D01*
X120913571Y-119851428D01*
X120984999Y-120022857D01*
X121056428Y-120108571D01*
X121199285Y-120194285D01*
X121484999Y-120194285D01*
X121627857Y-120108571D01*
X121699285Y-120022857D01*
X121770714Y-119851428D01*
X121770714Y-119422857D01*
X121699285Y-119251428D01*
X121627857Y-119165714D01*
X121484999Y-119080000D01*
X121199285Y-119080000D01*
X121056428Y-119165714D01*
X120984999Y-119251428D01*
X120913571Y-119422857D01*
X123556428Y-120194285D02*
X123556428Y-118394285D01*
X124270714Y-120194285D02*
X124270714Y-118394285D01*
X125127857Y-120194285D01*
X125127857Y-118394285D01*
X126913571Y-118565714D02*
X126984999Y-118480000D01*
X127127857Y-118394285D01*
X127484999Y-118394285D01*
X127627857Y-118480000D01*
X127699285Y-118565714D01*
X127770714Y-118737142D01*
X127770714Y-118908571D01*
X127699285Y-119165714D01*
X126842142Y-120194285D01*
X127770714Y-120194285D01*
X129056428Y-118994285D02*
X129056428Y-120194285D01*
X128699285Y-118308571D02*
X128342142Y-119594285D01*
X129270714Y-119594285D01*
X129627857Y-118394285D02*
X130127857Y-120194285D01*
X130627857Y-118394285D01*
X131127857Y-120194285D02*
X131127857Y-118394285D01*
X131484999Y-118394285D01*
X131699285Y-118480000D01*
X131842142Y-118651428D01*
X131913571Y-118822857D01*
X131984999Y-119165714D01*
X131984999Y-119422857D01*
X131913571Y-119765714D01*
X131842142Y-119937142D01*
X131699285Y-120108571D01*
X131484999Y-120194285D01*
X131127857Y-120194285D01*
X133484999Y-120022857D02*
X133413571Y-120108571D01*
X133199285Y-120194285D01*
X133056428Y-120194285D01*
X132842142Y-120108571D01*
X132699285Y-119937142D01*
X132627857Y-119765714D01*
X132556428Y-119422857D01*
X132556428Y-119165714D01*
X132627857Y-118822857D01*
X132699285Y-118651428D01*
X132842142Y-118480000D01*
X133056428Y-118394285D01*
X133199285Y-118394285D01*
X133413571Y-118480000D01*
X133484999Y-118565714D01*
X135199285Y-118308571D02*
X133913571Y-120622857D01*
X136342142Y-118394285D02*
X136056428Y-118394285D01*
X135913571Y-118480000D01*
X135842142Y-118565714D01*
X135699285Y-118822857D01*
X135627857Y-119165714D01*
X135627857Y-119851428D01*
X135699285Y-120022857D01*
X135770714Y-120108571D01*
X135913571Y-120194285D01*
X136199285Y-120194285D01*
X136342142Y-120108571D01*
X136413571Y-120022857D01*
X136485000Y-119851428D01*
X136485000Y-119422857D01*
X136413571Y-119251428D01*
X136342142Y-119165714D01*
X136199285Y-119080000D01*
X135913571Y-119080000D01*
X135770714Y-119165714D01*
X135699285Y-119251428D01*
X135627857Y-119422857D01*
X138556428Y-118394285D02*
X138842142Y-118394285D01*
X138985000Y-118480000D01*
X139127857Y-118651428D01*
X139199285Y-118994285D01*
X139199285Y-119594285D01*
X139127857Y-119937142D01*
X138985000Y-120108571D01*
X138842142Y-120194285D01*
X138556428Y-120194285D01*
X138413571Y-120108571D01*
X138270714Y-119937142D01*
X138199285Y-119594285D01*
X138199285Y-118994285D01*
X138270714Y-118651428D01*
X138413571Y-118480000D01*
X138556428Y-118394285D01*
X139842142Y-118394285D02*
X139842142Y-119851428D01*
X139913571Y-120022857D01*
X139985000Y-120108571D01*
X140127857Y-120194285D01*
X140413571Y-120194285D01*
X140556428Y-120108571D01*
X140627857Y-120022857D01*
X140699285Y-119851428D01*
X140699285Y-118394285D01*
X141199285Y-118394285D02*
X142056428Y-118394285D01*
X141627857Y-120194285D02*
X141627857Y-118394285D01*
X144556428Y-120194285D02*
X144056428Y-119337142D01*
X143699285Y-120194285D02*
X143699285Y-118394285D01*
X144270714Y-118394285D01*
X144413571Y-118480000D01*
X144485000Y-118565714D01*
X144556428Y-118737142D01*
X144556428Y-118994285D01*
X144485000Y-119165714D01*
X144413571Y-119251428D01*
X144270714Y-119337142D01*
X143699285Y-119337142D01*
X145913571Y-120194285D02*
X145199285Y-120194285D01*
X145199285Y-118394285D01*
X146699285Y-119337142D02*
X146699285Y-120194285D01*
X146199285Y-118394285D02*
X146699285Y-119337142D01*
X147199285Y-118394285D01*
D12*
X77978095Y-130444857D02*
X79501904Y-130444857D01*
X70358095Y-130444857D02*
X71881904Y-130444857D01*
X71120000Y-131206761D02*
X71120000Y-129682952D01*
D13*
X92480000Y-130980571D02*
X92480000Y-129480571D01*
X93194285Y-130980571D02*
X93194285Y-129480571D01*
X94051428Y-130980571D01*
X94051428Y-129480571D01*
X94694285Y-129623428D02*
X94765714Y-129552000D01*
X94908571Y-129480571D01*
X95265714Y-129480571D01*
X95408571Y-129552000D01*
X95480000Y-129623428D01*
X95551428Y-129766285D01*
X95551428Y-129909142D01*
X95480000Y-130123428D01*
X94622857Y-130980571D01*
X95551428Y-130980571D01*
X226385714Y-129480571D02*
X226671428Y-129480571D01*
X226814285Y-129552000D01*
X226957142Y-129694857D01*
X227028571Y-129980571D01*
X227028571Y-130480571D01*
X226957142Y-130766285D01*
X226814285Y-130909142D01*
X226671428Y-130980571D01*
X226385714Y-130980571D01*
X226242857Y-130909142D01*
X226100000Y-130766285D01*
X226028571Y-130480571D01*
X226028571Y-129980571D01*
X226100000Y-129694857D01*
X226242857Y-129552000D01*
X226385714Y-129480571D01*
X227671428Y-129480571D02*
X227671428Y-130694857D01*
X227742857Y-130837714D01*
X227814285Y-130909142D01*
X227957142Y-130980571D01*
X228242857Y-130980571D01*
X228385714Y-130909142D01*
X228457142Y-130837714D01*
X228528571Y-130694857D01*
X228528571Y-129480571D01*
X229028571Y-129480571D02*
X229885714Y-129480571D01*
X229457142Y-130980571D02*
X229457142Y-129480571D01*
X231028571Y-129480571D02*
X230742857Y-129480571D01*
X230600000Y-129552000D01*
X230528571Y-129623428D01*
X230385714Y-129837714D01*
X230314285Y-130123428D01*
X230314285Y-130694857D01*
X230385714Y-130837714D01*
X230457142Y-130909142D01*
X230600000Y-130980571D01*
X230885714Y-130980571D01*
X231028571Y-130909142D01*
X231100000Y-130837714D01*
X231171428Y-130694857D01*
X231171428Y-130337714D01*
X231100000Y-130194857D01*
X231028571Y-130123428D01*
X230885714Y-130052000D01*
X230600000Y-130052000D01*
X230457142Y-130123428D01*
X230385714Y-130194857D01*
X230314285Y-130337714D01*
X198445714Y-129480571D02*
X198731428Y-129480571D01*
X198874285Y-129552000D01*
X199017142Y-129694857D01*
X199088571Y-129980571D01*
X199088571Y-130480571D01*
X199017142Y-130766285D01*
X198874285Y-130909142D01*
X198731428Y-130980571D01*
X198445714Y-130980571D01*
X198302857Y-130909142D01*
X198160000Y-130766285D01*
X198088571Y-130480571D01*
X198088571Y-129980571D01*
X198160000Y-129694857D01*
X198302857Y-129552000D01*
X198445714Y-129480571D01*
X199731428Y-129480571D02*
X199731428Y-130694857D01*
X199802857Y-130837714D01*
X199874285Y-130909142D01*
X200017142Y-130980571D01*
X200302857Y-130980571D01*
X200445714Y-130909142D01*
X200517142Y-130837714D01*
X200588571Y-130694857D01*
X200588571Y-129480571D01*
X201088571Y-129480571D02*
X201945714Y-129480571D01*
X201517142Y-130980571D02*
X201517142Y-129480571D01*
X203088571Y-129980571D02*
X203088571Y-130980571D01*
X202731428Y-129409142D02*
X202374285Y-130480571D01*
X203302857Y-130480571D01*
X112800000Y-130980571D02*
X112800000Y-129480571D01*
X113514285Y-130980571D02*
X113514285Y-129480571D01*
X114371428Y-130980571D01*
X114371428Y-129480571D01*
X115728571Y-129480571D02*
X115442857Y-129480571D01*
X115300000Y-129552000D01*
X115228571Y-129623428D01*
X115085714Y-129837714D01*
X115014285Y-130123428D01*
X115014285Y-130694857D01*
X115085714Y-130837714D01*
X115157142Y-130909142D01*
X115300000Y-130980571D01*
X115585714Y-130980571D01*
X115728571Y-130909142D01*
X115800000Y-130837714D01*
X115871428Y-130694857D01*
X115871428Y-130337714D01*
X115800000Y-130194857D01*
X115728571Y-130123428D01*
X115585714Y-130052000D01*
X115300000Y-130052000D01*
X115157142Y-130123428D01*
X115085714Y-130194857D01*
X115014285Y-130337714D01*
X102640000Y-130980571D02*
X102640000Y-129480571D01*
X103354285Y-130980571D02*
X103354285Y-129480571D01*
X104211428Y-130980571D01*
X104211428Y-129480571D01*
X105568571Y-129980571D02*
X105568571Y-130980571D01*
X105211428Y-129409142D02*
X104854285Y-130480571D01*
X105782857Y-130480571D01*
X97560000Y-130980571D02*
X97560000Y-129480571D01*
X98274285Y-130980571D02*
X98274285Y-129480571D01*
X99131428Y-130980571D01*
X99131428Y-129480571D01*
X99702857Y-129480571D02*
X100631428Y-129480571D01*
X100131428Y-130052000D01*
X100345714Y-130052000D01*
X100488571Y-130123428D01*
X100560000Y-130194857D01*
X100631428Y-130337714D01*
X100631428Y-130694857D01*
X100560000Y-130837714D01*
X100488571Y-130909142D01*
X100345714Y-130980571D01*
X99917142Y-130980571D01*
X99774285Y-130909142D01*
X99702857Y-130837714D01*
X170505714Y-129480571D02*
X170791428Y-129480571D01*
X170934285Y-129552000D01*
X171077142Y-129694857D01*
X171148571Y-129980571D01*
X171148571Y-130480571D01*
X171077142Y-130766285D01*
X170934285Y-130909142D01*
X170791428Y-130980571D01*
X170505714Y-130980571D01*
X170362857Y-130909142D01*
X170220000Y-130766285D01*
X170148571Y-130480571D01*
X170148571Y-129980571D01*
X170220000Y-129694857D01*
X170362857Y-129552000D01*
X170505714Y-129480571D01*
X171791428Y-129480571D02*
X171791428Y-130694857D01*
X171862857Y-130837714D01*
X171934285Y-130909142D01*
X172077142Y-130980571D01*
X172362857Y-130980571D01*
X172505714Y-130909142D01*
X172577142Y-130837714D01*
X172648571Y-130694857D01*
X172648571Y-129480571D01*
X173148571Y-129480571D02*
X174005714Y-129480571D01*
X173577142Y-130980571D02*
X173577142Y-129480571D01*
X174434285Y-129623428D02*
X174505714Y-129552000D01*
X174648571Y-129480571D01*
X175005714Y-129480571D01*
X175148571Y-129552000D01*
X175220000Y-129623428D01*
X175291428Y-129766285D01*
X175291428Y-129909142D01*
X175220000Y-130123428D01*
X174362857Y-130980571D01*
X175291428Y-130980571D01*
X184475714Y-129480571D02*
X184761428Y-129480571D01*
X184904285Y-129552000D01*
X185047142Y-129694857D01*
X185118571Y-129980571D01*
X185118571Y-130480571D01*
X185047142Y-130766285D01*
X184904285Y-130909142D01*
X184761428Y-130980571D01*
X184475714Y-130980571D01*
X184332857Y-130909142D01*
X184190000Y-130766285D01*
X184118571Y-130480571D01*
X184118571Y-129980571D01*
X184190000Y-129694857D01*
X184332857Y-129552000D01*
X184475714Y-129480571D01*
X185761428Y-129480571D02*
X185761428Y-130694857D01*
X185832857Y-130837714D01*
X185904285Y-130909142D01*
X186047142Y-130980571D01*
X186332857Y-130980571D01*
X186475714Y-130909142D01*
X186547142Y-130837714D01*
X186618571Y-130694857D01*
X186618571Y-129480571D01*
X187118571Y-129480571D02*
X187975714Y-129480571D01*
X187547142Y-130980571D02*
X187547142Y-129480571D01*
X188332857Y-129480571D02*
X189261428Y-129480571D01*
X188761428Y-130052000D01*
X188975714Y-130052000D01*
X189118571Y-130123428D01*
X189190000Y-130194857D01*
X189261428Y-130337714D01*
X189261428Y-130694857D01*
X189190000Y-130837714D01*
X189118571Y-130909142D01*
X188975714Y-130980571D01*
X188547142Y-130980571D01*
X188404285Y-130909142D01*
X188332857Y-130837714D01*
X73144285Y-129623428D02*
X73215714Y-129552000D01*
X73358571Y-129480571D01*
X73715714Y-129480571D01*
X73858571Y-129552000D01*
X73930000Y-129623428D01*
X74001428Y-129766285D01*
X74001428Y-129909142D01*
X73930000Y-130123428D01*
X73072857Y-130980571D01*
X74001428Y-130980571D01*
X75287142Y-129980571D02*
X75287142Y-130980571D01*
X74930000Y-129409142D02*
X74572857Y-130480571D01*
X75501428Y-130480571D01*
X75858571Y-129480571D02*
X76358571Y-130980571D01*
X76858571Y-129480571D01*
X212415714Y-129480571D02*
X212701428Y-129480571D01*
X212844285Y-129552000D01*
X212987142Y-129694857D01*
X213058571Y-129980571D01*
X213058571Y-130480571D01*
X212987142Y-130766285D01*
X212844285Y-130909142D01*
X212701428Y-130980571D01*
X212415714Y-130980571D01*
X212272857Y-130909142D01*
X212130000Y-130766285D01*
X212058571Y-130480571D01*
X212058571Y-129980571D01*
X212130000Y-129694857D01*
X212272857Y-129552000D01*
X212415714Y-129480571D01*
X213701428Y-129480571D02*
X213701428Y-130694857D01*
X213772857Y-130837714D01*
X213844285Y-130909142D01*
X213987142Y-130980571D01*
X214272857Y-130980571D01*
X214415714Y-130909142D01*
X214487142Y-130837714D01*
X214558571Y-130694857D01*
X214558571Y-129480571D01*
X215058571Y-129480571D02*
X215915714Y-129480571D01*
X215487142Y-130980571D02*
X215487142Y-129480571D01*
X217130000Y-129480571D02*
X216415714Y-129480571D01*
X216344285Y-130194857D01*
X216415714Y-130123428D01*
X216558571Y-130052000D01*
X216915714Y-130052000D01*
X217058571Y-130123428D01*
X217130000Y-130194857D01*
X217201428Y-130337714D01*
X217201428Y-130694857D01*
X217130000Y-130837714D01*
X217058571Y-130909142D01*
X216915714Y-130980571D01*
X216558571Y-130980571D01*
X216415714Y-130909142D01*
X216344285Y-130837714D01*
D10*
X79239761Y-77925714D02*
X79315952Y-77840000D01*
X79468333Y-77754285D01*
X79849285Y-77754285D01*
X80001666Y-77840000D01*
X80077857Y-77925714D01*
X80154047Y-78097142D01*
X80154047Y-78268571D01*
X80077857Y-78525714D01*
X79163571Y-79554285D01*
X80154047Y-79554285D01*
X81525476Y-78354285D02*
X81525476Y-79554285D01*
X81144523Y-77668571D02*
X80763571Y-78954285D01*
X81754047Y-78954285D01*
X82135000Y-77754285D02*
X82668333Y-79554285D01*
X83201666Y-77754285D01*
X85258809Y-77754285D02*
X85563571Y-77754285D01*
X85715952Y-77840000D01*
X85868333Y-78011428D01*
X85944523Y-78354285D01*
X85944523Y-78954285D01*
X85868333Y-79297142D01*
X85715952Y-79468571D01*
X85563571Y-79554285D01*
X85258809Y-79554285D01*
X85106428Y-79468571D01*
X84954047Y-79297142D01*
X84877857Y-78954285D01*
X84877857Y-78354285D01*
X84954047Y-78011428D01*
X85106428Y-77840000D01*
X85258809Y-77754285D01*
X86630238Y-79554285D02*
X86630238Y-77754285D01*
X87544523Y-79554285D02*
X86858809Y-78525714D01*
X87544523Y-77754285D02*
X86630238Y-78782857D01*
D13*
X156535714Y-129480571D02*
X156821428Y-129480571D01*
X156964285Y-129552000D01*
X157107142Y-129694857D01*
X157178571Y-129980571D01*
X157178571Y-130480571D01*
X157107142Y-130766285D01*
X156964285Y-130909142D01*
X156821428Y-130980571D01*
X156535714Y-130980571D01*
X156392857Y-130909142D01*
X156250000Y-130766285D01*
X156178571Y-130480571D01*
X156178571Y-129980571D01*
X156250000Y-129694857D01*
X156392857Y-129552000D01*
X156535714Y-129480571D01*
X157821428Y-129480571D02*
X157821428Y-130694857D01*
X157892857Y-130837714D01*
X157964285Y-130909142D01*
X158107142Y-130980571D01*
X158392857Y-130980571D01*
X158535714Y-130909142D01*
X158607142Y-130837714D01*
X158678571Y-130694857D01*
X158678571Y-129480571D01*
X159178571Y-129480571D02*
X160035714Y-129480571D01*
X159607142Y-130980571D02*
X159607142Y-129480571D01*
X161321428Y-130980571D02*
X160464285Y-130980571D01*
X160892857Y-130980571D02*
X160892857Y-129480571D01*
X160750000Y-129694857D01*
X160607142Y-129837714D01*
X160464285Y-129909142D01*
X87400000Y-130980571D02*
X87400000Y-129480571D01*
X88114285Y-130980571D02*
X88114285Y-129480571D01*
X88971428Y-130980571D01*
X88971428Y-129480571D01*
X90471428Y-130980571D02*
X89614285Y-130980571D01*
X90042857Y-130980571D02*
X90042857Y-129480571D01*
X89900000Y-129694857D01*
X89757142Y-129837714D01*
X89614285Y-129909142D01*
X107720000Y-130980571D02*
X107720000Y-129480571D01*
X108434285Y-130980571D02*
X108434285Y-129480571D01*
X109291428Y-130980571D01*
X109291428Y-129480571D01*
X110720000Y-129480571D02*
X110005714Y-129480571D01*
X109934285Y-130194857D01*
X110005714Y-130123428D01*
X110148571Y-130052000D01*
X110505714Y-130052000D01*
X110648571Y-130123428D01*
X110720000Y-130194857D01*
X110791428Y-130337714D01*
X110791428Y-130694857D01*
X110720000Y-130837714D01*
X110648571Y-130909142D01*
X110505714Y-130980571D01*
X110148571Y-130980571D01*
X110005714Y-130909142D01*
X109934285Y-130837714D01*
D14*
G04 #@! TO.C,D1*
X73390000Y-110400000D02*
X71390000Y-110400000D01*
X71390000Y-110400000D02*
X71390000Y-114300000D01*
X73390000Y-110400000D02*
X73390000Y-114300000D01*
G04 #@! TO.C,R17*
X155625436Y-79910000D02*
X156079564Y-79910000D01*
X155625436Y-81380000D02*
X156079564Y-81380000D01*
G04 #@! TO.C,R26*
X225929564Y-73125000D02*
X225475436Y-73125000D01*
X225929564Y-71655000D02*
X225475436Y-71655000D01*
G04 #@! TO.C,R24*
X211959564Y-73125000D02*
X211505436Y-73125000D01*
X211959564Y-71655000D02*
X211505436Y-71655000D01*
G04 #@! TO.C,R22*
X197989564Y-73125000D02*
X197535436Y-73125000D01*
X197989564Y-71655000D02*
X197535436Y-71655000D01*
G04 #@! TO.C,R20*
X184019564Y-73125000D02*
X183565436Y-73125000D01*
X184019564Y-71655000D02*
X183565436Y-71655000D01*
G04 #@! TO.C,R18*
X170049564Y-73125000D02*
X169595436Y-73125000D01*
X170049564Y-71655000D02*
X169595436Y-71655000D01*
G04 #@! TO.C,R16*
X156079564Y-73125000D02*
X155625436Y-73125000D01*
X156079564Y-71655000D02*
X155625436Y-71655000D01*
G04 #@! TO.C,R15*
X116105000Y-109089564D02*
X116105000Y-108635436D01*
X117575000Y-109089564D02*
X117575000Y-108635436D01*
G04 #@! TO.C,R14*
X96389564Y-111225000D02*
X95935436Y-111225000D01*
X96389564Y-109755000D02*
X95935436Y-109755000D01*
G04 #@! TO.C,R13*
X117575000Y-101730436D02*
X117575000Y-102184564D01*
X116105000Y-101730436D02*
X116105000Y-102184564D01*
G04 #@! TO.C,R12*
X96389564Y-99795000D02*
X95935436Y-99795000D01*
X96389564Y-98325000D02*
X95935436Y-98325000D01*
G04 #@! TO.C,R11*
X116105000Y-93849564D02*
X116105000Y-93395436D01*
X117575000Y-93849564D02*
X117575000Y-93395436D01*
G04 #@! TO.C,R10*
X96389564Y-95985000D02*
X95935436Y-95985000D01*
X96389564Y-94515000D02*
X95935436Y-94515000D01*
G04 #@! TO.C,R9*
X117575000Y-86490436D02*
X117575000Y-86944564D01*
X116105000Y-86490436D02*
X116105000Y-86944564D01*
G04 #@! TO.C,R8*
X96389564Y-84555000D02*
X95935436Y-84555000D01*
X96389564Y-83085000D02*
X95935436Y-83085000D01*
G04 #@! TO.C,R7*
X116105000Y-78609564D02*
X116105000Y-78155436D01*
X117575000Y-78609564D02*
X117575000Y-78155436D01*
G04 #@! TO.C,R6*
X96389564Y-80745000D02*
X95935436Y-80745000D01*
X96389564Y-79275000D02*
X95935436Y-79275000D01*
G04 #@! TO.C,R5*
X117575000Y-71250436D02*
X117575000Y-71704564D01*
X116105000Y-71250436D02*
X116105000Y-71704564D01*
G04 #@! TO.C,R4*
X96389564Y-69315000D02*
X95935436Y-69315000D01*
X96389564Y-67845000D02*
X95935436Y-67845000D01*
G04 #@! TO.C,R3*
X69265436Y-72925000D02*
X69719564Y-72925000D01*
X69265436Y-74395000D02*
X69719564Y-74395000D01*
G04 #@! TO.C,R2*
X69265436Y-78005000D02*
X69719564Y-78005000D01*
X69265436Y-79475000D02*
X69719564Y-79475000D01*
G04 #@! TO.C,R1*
X69265436Y-67845000D02*
X69719564Y-67845000D01*
X69265436Y-69315000D02*
X69719564Y-69315000D01*
D15*
G04 #@! TO.C,REF\u002A\u002A*
G36*
X133150000Y-123910000D02*
G01*
X133380000Y-124050000D01*
X133530000Y-124260000D01*
X133610000Y-124460000D01*
X133620000Y-124710000D01*
X133550000Y-124960000D01*
X133410000Y-125160000D01*
X133180000Y-125330000D01*
X132920000Y-125380000D01*
X132710000Y-125350000D01*
X132470000Y-125230000D01*
X132270000Y-125000000D01*
X132180000Y-124720000D01*
X132200000Y-124410000D01*
X132300000Y-124180000D01*
X132490000Y-123980000D01*
X132700000Y-123890000D01*
X132896000Y-123866600D01*
X133150000Y-123910000D01*
G37*
X133150000Y-123910000D02*
X133380000Y-124050000D01*
X133530000Y-124260000D01*
X133610000Y-124460000D01*
X133620000Y-124710000D01*
X133550000Y-124960000D01*
X133410000Y-125160000D01*
X133180000Y-125330000D01*
X132920000Y-125380000D01*
X132710000Y-125350000D01*
X132470000Y-125230000D01*
X132270000Y-125000000D01*
X132180000Y-124720000D01*
X132200000Y-124410000D01*
X132300000Y-124180000D01*
X132490000Y-123980000D01*
X132700000Y-123890000D01*
X132896000Y-123866600D01*
X133150000Y-123910000D01*
G36*
X125760000Y-123920000D02*
G01*
X125870000Y-124050000D01*
X125890000Y-124230000D01*
X125850000Y-124390000D01*
X125700000Y-124510000D01*
X125590000Y-124520000D01*
X125250000Y-124520000D01*
X125250000Y-123870000D01*
X125620000Y-123870000D01*
X125760000Y-123920000D01*
G37*
X125760000Y-123920000D02*
X125870000Y-124050000D01*
X125890000Y-124230000D01*
X125850000Y-124390000D01*
X125700000Y-124510000D01*
X125590000Y-124520000D01*
X125250000Y-124520000D01*
X125250000Y-123870000D01*
X125620000Y-123870000D01*
X125760000Y-123920000D01*
G36*
X143060000Y-124860000D02*
G01*
X142430000Y-124860000D01*
X142740000Y-123990000D01*
X143060000Y-124860000D01*
G37*
X143060000Y-124860000D02*
X142430000Y-124860000D01*
X142740000Y-123990000D01*
X143060000Y-124860000D01*
G36*
X127960000Y-124850000D02*
G01*
X127330000Y-124850000D01*
X127640000Y-123980000D01*
X127960000Y-124850000D01*
G37*
X127960000Y-124850000D02*
X127330000Y-124850000D01*
X127640000Y-123980000D01*
X127960000Y-124850000D01*
G36*
X130230000Y-125010000D02*
G01*
X129630000Y-123440000D01*
X130840000Y-123440000D01*
X130230000Y-125010000D01*
G37*
X130230000Y-125010000D02*
X129630000Y-123440000D01*
X130840000Y-123440000D01*
X130230000Y-125010000D01*
G36*
X135900000Y-123460000D02*
G01*
X135890000Y-125060000D01*
X134800000Y-123460000D01*
X135900000Y-123460000D01*
G37*
X135900000Y-123460000D02*
X135890000Y-125060000D01*
X134800000Y-123460000D01*
X135900000Y-123460000D01*
G36*
X141000000Y-123460000D02*
G01*
X140990000Y-125060000D01*
X139900000Y-123460000D01*
X141000000Y-123460000D01*
G37*
X141000000Y-123460000D02*
X140990000Y-125060000D01*
X139900000Y-123460000D01*
X141000000Y-123460000D01*
G36*
X143150000Y-123460000D02*
G01*
X133270000Y-123470000D01*
X132902600Y-123430900D01*
X132550000Y-123460000D01*
X122750000Y-123460000D01*
X122750000Y-123160000D01*
X120780000Y-123160000D01*
X120810000Y-122760000D01*
X143150000Y-122760000D01*
X143150000Y-123460000D01*
G37*
X143150000Y-123460000D02*
X133270000Y-123470000D01*
X132902600Y-123430900D01*
X132550000Y-123460000D01*
X122750000Y-123460000D01*
X122750000Y-123160000D01*
X120780000Y-123160000D01*
X120810000Y-122760000D01*
X143150000Y-122760000D01*
X143150000Y-123460000D01*
G36*
X144960000Y-121970000D02*
G01*
X145280000Y-122090000D01*
X145530000Y-122280000D01*
X145700000Y-122570000D01*
X145770000Y-122830000D01*
X145782600Y-123039500D01*
X145782600Y-125937900D01*
X145740000Y-126290000D01*
X145600000Y-126610000D01*
X145310000Y-126880000D01*
X145010000Y-127000000D01*
X144688300Y-127032300D01*
X121876900Y-127032300D01*
X121530000Y-126990000D01*
X121250000Y-126870000D01*
X120970000Y-126610000D01*
X120810000Y-126240000D01*
X120782600Y-125937900D01*
X120782600Y-123039500D01*
X122820000Y-123040000D01*
X122820000Y-123750000D01*
X122870000Y-123850000D01*
X123030000Y-123890000D01*
X123460000Y-123890000D01*
X123460000Y-125640000D01*
X123500000Y-125740000D01*
X123610000Y-125770000D01*
X123910000Y-125770000D01*
X123910000Y-123880000D01*
X124540000Y-123880000D01*
X124540000Y-123460000D01*
X124820000Y-123460000D01*
X124820000Y-125670000D01*
X124890000Y-125750000D01*
X124989300Y-125766200D01*
X125243800Y-125766200D01*
X125243800Y-124919800D01*
X125539600Y-124919800D01*
X125970000Y-125730000D01*
X126080000Y-125770000D01*
X126468700Y-125766200D01*
X125950000Y-124840000D01*
X126190000Y-124660000D01*
X126320000Y-124360000D01*
X126330000Y-124040000D01*
X126150000Y-123670000D01*
X125880000Y-123520000D01*
X125670000Y-123470000D01*
X127440000Y-123470000D01*
X126550000Y-125770000D01*
X127000000Y-125760000D01*
X127180000Y-125260000D01*
X128106900Y-125260300D01*
X128290000Y-125710000D01*
X128380000Y-125770000D01*
X128740000Y-125760000D01*
X127850000Y-123360000D01*
X129250000Y-123360000D01*
X128874300Y-125766200D01*
X129306900Y-125766200D01*
X129510000Y-124210000D01*
X130010000Y-125460000D01*
X130090000Y-125560000D01*
X130200000Y-125580000D01*
X130410900Y-125575200D01*
X130920000Y-124230000D01*
X131120000Y-125640000D01*
X131190000Y-125730000D01*
X131310000Y-125770000D01*
X131580000Y-125770000D01*
X131225500Y-123420000D01*
X132640000Y-123430000D01*
X132250000Y-123620000D01*
X131960000Y-123890000D01*
X131770000Y-124210000D01*
X131710000Y-124680000D01*
X131750000Y-125010000D01*
X131930000Y-125310000D01*
X132190000Y-125600000D01*
X132620000Y-125790000D01*
X133100000Y-125790000D01*
X133480000Y-125660000D01*
X133770000Y-125430000D01*
X134010000Y-125060000D01*
X134100000Y-124530000D01*
X133960000Y-124070000D01*
X133710000Y-123730000D01*
X133250000Y-123460000D01*
X134375500Y-123472100D01*
X134380000Y-125600000D01*
X134410000Y-125730000D01*
X134500000Y-125760000D01*
X134790000Y-125760000D01*
X134790000Y-124190000D01*
X135880000Y-125720000D01*
X136000000Y-125770000D01*
X136300000Y-125760000D01*
X136300000Y-123440000D01*
X136590000Y-123440000D01*
X136590000Y-123790000D01*
X136650000Y-123860000D01*
X136780000Y-123880000D01*
X137220000Y-123880000D01*
X137220000Y-125660000D01*
X137250000Y-125720000D01*
X137310000Y-125750000D01*
X137388800Y-125766200D01*
X137670000Y-125760000D01*
X137670000Y-123880000D01*
X138300000Y-123880000D01*
X138298900Y-123472100D01*
X138591800Y-123472100D01*
X138600000Y-125650000D01*
X138640000Y-125730000D01*
X138720000Y-125760000D01*
X139040000Y-125760000D01*
X139040000Y-123470000D01*
X139479500Y-123472100D01*
X139480000Y-125660000D01*
X139540000Y-125750000D01*
X139660000Y-125770000D01*
X139896000Y-125766200D01*
X139900000Y-124180000D01*
X140930000Y-125660000D01*
X141080000Y-125750000D01*
X141180000Y-125770000D01*
X141420000Y-125760000D01*
X141420000Y-123430000D01*
X142540000Y-123430000D01*
X141660000Y-125760000D01*
X142100000Y-125760000D01*
X142290000Y-125250000D01*
X143210000Y-125270000D01*
X143370000Y-125680000D01*
X143440000Y-125740000D01*
X143550000Y-125770000D01*
X143854200Y-125766200D01*
X142970000Y-123480000D01*
X142970000Y-122840000D01*
X120790000Y-122820000D01*
X120960000Y-122380000D01*
X121240000Y-122110000D01*
X121640000Y-121950000D01*
X121876900Y-121944900D01*
X144688300Y-121944900D01*
X144960000Y-121970000D01*
G37*
X144960000Y-121970000D02*
X145280000Y-122090000D01*
X145530000Y-122280000D01*
X145700000Y-122570000D01*
X145770000Y-122830000D01*
X145782600Y-123039500D01*
X145782600Y-125937900D01*
X145740000Y-126290000D01*
X145600000Y-126610000D01*
X145310000Y-126880000D01*
X145010000Y-127000000D01*
X144688300Y-127032300D01*
X121876900Y-127032300D01*
X121530000Y-126990000D01*
X121250000Y-126870000D01*
X120970000Y-126610000D01*
X120810000Y-126240000D01*
X120782600Y-125937900D01*
X120782600Y-123039500D01*
X122820000Y-123040000D01*
X122820000Y-123750000D01*
X122870000Y-123850000D01*
X123030000Y-123890000D01*
X123460000Y-123890000D01*
X123460000Y-125640000D01*
X123500000Y-125740000D01*
X123610000Y-125770000D01*
X123910000Y-125770000D01*
X123910000Y-123880000D01*
X124540000Y-123880000D01*
X124540000Y-123460000D01*
X124820000Y-123460000D01*
X124820000Y-125670000D01*
X124890000Y-125750000D01*
X124989300Y-125766200D01*
X125243800Y-125766200D01*
X125243800Y-124919800D01*
X125539600Y-124919800D01*
X125970000Y-125730000D01*
X126080000Y-125770000D01*
X126468700Y-125766200D01*
X125950000Y-124840000D01*
X126190000Y-124660000D01*
X126320000Y-124360000D01*
X126330000Y-124040000D01*
X126150000Y-123670000D01*
X125880000Y-123520000D01*
X125670000Y-123470000D01*
X127440000Y-123470000D01*
X126550000Y-125770000D01*
X127000000Y-125760000D01*
X127180000Y-125260000D01*
X128106900Y-125260300D01*
X128290000Y-125710000D01*
X128380000Y-125770000D01*
X128740000Y-125760000D01*
X127850000Y-123360000D01*
X129250000Y-123360000D01*
X128874300Y-125766200D01*
X129306900Y-125766200D01*
X129510000Y-124210000D01*
X130010000Y-125460000D01*
X130090000Y-125560000D01*
X130200000Y-125580000D01*
X130410900Y-125575200D01*
X130920000Y-124230000D01*
X131120000Y-125640000D01*
X131190000Y-125730000D01*
X131310000Y-125770000D01*
X131580000Y-125770000D01*
X131225500Y-123420000D01*
X132640000Y-123430000D01*
X132250000Y-123620000D01*
X131960000Y-123890000D01*
X131770000Y-124210000D01*
X131710000Y-124680000D01*
X131750000Y-125010000D01*
X131930000Y-125310000D01*
X132190000Y-125600000D01*
X132620000Y-125790000D01*
X133100000Y-125790000D01*
X133480000Y-125660000D01*
X133770000Y-125430000D01*
X134010000Y-125060000D01*
X134100000Y-124530000D01*
X133960000Y-124070000D01*
X133710000Y-123730000D01*
X133250000Y-123460000D01*
X134375500Y-123472100D01*
X134380000Y-125600000D01*
X134410000Y-125730000D01*
X134500000Y-125760000D01*
X134790000Y-125760000D01*
X134790000Y-124190000D01*
X135880000Y-125720000D01*
X136000000Y-125770000D01*
X136300000Y-125760000D01*
X136300000Y-123440000D01*
X136590000Y-123440000D01*
X136590000Y-123790000D01*
X136650000Y-123860000D01*
X136780000Y-123880000D01*
X137220000Y-123880000D01*
X137220000Y-125660000D01*
X137250000Y-125720000D01*
X137310000Y-125750000D01*
X137388800Y-125766200D01*
X137670000Y-125760000D01*
X137670000Y-123880000D01*
X138300000Y-123880000D01*
X138298900Y-123472100D01*
X138591800Y-123472100D01*
X138600000Y-125650000D01*
X138640000Y-125730000D01*
X138720000Y-125760000D01*
X139040000Y-125760000D01*
X139040000Y-123470000D01*
X139479500Y-123472100D01*
X139480000Y-125660000D01*
X139540000Y-125750000D01*
X139660000Y-125770000D01*
X139896000Y-125766200D01*
X139900000Y-124180000D01*
X140930000Y-125660000D01*
X141080000Y-125750000D01*
X141180000Y-125770000D01*
X141420000Y-125760000D01*
X141420000Y-123430000D01*
X142540000Y-123430000D01*
X141660000Y-125760000D01*
X142100000Y-125760000D01*
X142290000Y-125250000D01*
X143210000Y-125270000D01*
X143370000Y-125680000D01*
X143440000Y-125740000D01*
X143550000Y-125770000D01*
X143854200Y-125766200D01*
X142970000Y-123480000D01*
X142970000Y-122840000D01*
X120790000Y-122820000D01*
X120960000Y-122380000D01*
X121240000Y-122110000D01*
X121640000Y-121950000D01*
X121876900Y-121944900D01*
X144688300Y-121944900D01*
X144960000Y-121970000D01*
D16*
X132896000Y-123866600D02*
X132969664Y-123870525D01*
X132969664Y-123870525D02*
X133041239Y-123882039D01*
X133041239Y-123882039D02*
X133110357Y-123900750D01*
X133110357Y-123900750D02*
X133176650Y-123926268D01*
X133176650Y-123926268D02*
X133239750Y-123958201D01*
X133239750Y-123958201D02*
X133299291Y-123996157D01*
X133299291Y-123996157D02*
X133354905Y-124039746D01*
X133354905Y-124039746D02*
X133406225Y-124088575D01*
X133406225Y-124088575D02*
X133452882Y-124142253D01*
X133452882Y-124142253D02*
X133494511Y-124200389D01*
X133494511Y-124200389D02*
X133530744Y-124262591D01*
X133530744Y-124262591D02*
X133561212Y-124328468D01*
X133561212Y-124328468D02*
X133585549Y-124397629D01*
X133585549Y-124397629D02*
X133603388Y-124469682D01*
X133603388Y-124469682D02*
X133614360Y-124544236D01*
X133614360Y-124544236D02*
X133618100Y-124620900D01*
X123455400Y-125590900D02*
X123459399Y-125642914D01*
X123459399Y-125642914D02*
X123475055Y-125692717D01*
X123475055Y-125692717D02*
X123508965Y-125734110D01*
X123508965Y-125734110D02*
X123560531Y-125758320D01*
X123560531Y-125758320D02*
X123619425Y-125766041D01*
X123619425Y-125766041D02*
X123630600Y-125766200D01*
X136580500Y-123472100D02*
X136580500Y-123707700D01*
X137213600Y-123882300D02*
X137213600Y-125590900D01*
X136580500Y-123707700D02*
X136584498Y-123759368D01*
X136584498Y-123759368D02*
X136600147Y-123808926D01*
X136600147Y-123808926D02*
X136634030Y-123850204D01*
X136634030Y-123850204D02*
X136685535Y-123874404D01*
X136685535Y-123874404D02*
X136744343Y-123882141D01*
X136744343Y-123882141D02*
X136755500Y-123882300D01*
X138298900Y-123882300D02*
X138298900Y-123472100D01*
X141655200Y-125766200D02*
X142104200Y-125766200D01*
X128106900Y-125260300D02*
X128234500Y-125610300D01*
X121876900Y-127032300D02*
X121815569Y-127031040D01*
X121815569Y-127031040D02*
X121755615Y-127027285D01*
X121755615Y-127027285D02*
X121697074Y-127021073D01*
X121697074Y-127021073D02*
X121639985Y-127012439D01*
X121639985Y-127012439D02*
X121584384Y-127001422D01*
X121584384Y-127001422D02*
X121530309Y-126988057D01*
X121530309Y-126988057D02*
X121477798Y-126972383D01*
X121477798Y-126972383D02*
X121426887Y-126954435D01*
X121426887Y-126954435D02*
X121377615Y-126934252D01*
X121377615Y-126934252D02*
X121330018Y-126911869D01*
X121330018Y-126911869D02*
X121284135Y-126887324D01*
X121284135Y-126887324D02*
X121240002Y-126860654D01*
X121240002Y-126860654D02*
X121197657Y-126831896D01*
X121197657Y-126831896D02*
X121157137Y-126801087D01*
X121157137Y-126801087D02*
X121118481Y-126768263D01*
X121118481Y-126768263D02*
X121081725Y-126733462D01*
X121081725Y-126733462D02*
X121046906Y-126696721D01*
X121046906Y-126696721D02*
X121014062Y-126658076D01*
X121014062Y-126658076D02*
X120983231Y-126617565D01*
X120983231Y-126617565D02*
X120954450Y-126575224D01*
X120954450Y-126575224D02*
X120927757Y-126531091D01*
X120927757Y-126531091D02*
X120903188Y-126485203D01*
X120903188Y-126485203D02*
X120880781Y-126437596D01*
X120880781Y-126437596D02*
X120860575Y-126388307D01*
X120860575Y-126388307D02*
X120842605Y-126337374D01*
X120842605Y-126337374D02*
X120826910Y-126284833D01*
X120826910Y-126284833D02*
X120813526Y-126230722D01*
X120813526Y-126230722D02*
X120802492Y-126175077D01*
X120802492Y-126175077D02*
X120793845Y-126117935D01*
X120793845Y-126117935D02*
X120787623Y-126059334D01*
X120787623Y-126059334D02*
X120783862Y-125999310D01*
X120783862Y-125999310D02*
X120782600Y-125937900D01*
X125542900Y-124529000D02*
X125243800Y-124529000D01*
X127000000Y-125766200D02*
X127178000Y-125260300D01*
X123455400Y-123882300D02*
X123455400Y-125590900D01*
X133618100Y-124620900D02*
X133614360Y-124697439D01*
X133614360Y-124697439D02*
X133603388Y-124771814D01*
X133603388Y-124771814D02*
X133585549Y-124843643D01*
X133585549Y-124843643D02*
X133561212Y-124912542D01*
X133561212Y-124912542D02*
X133530744Y-124978128D01*
X133530744Y-124978128D02*
X133494511Y-125040020D01*
X133494511Y-125040020D02*
X133452882Y-125097834D01*
X133452882Y-125097834D02*
X133406225Y-125151187D01*
X133406225Y-125151187D02*
X133354905Y-125199697D01*
X133354905Y-125199697D02*
X133299291Y-125242981D01*
X133299291Y-125242981D02*
X133239750Y-125280655D01*
X133239750Y-125280655D02*
X133176650Y-125312339D01*
X133176650Y-125312339D02*
X133110357Y-125337647D01*
X133110357Y-125337647D02*
X133041239Y-125356199D01*
X133041239Y-125356199D02*
X132969664Y-125367611D01*
X132969664Y-125367611D02*
X132896000Y-125371500D01*
X136755500Y-123882300D02*
X137213600Y-123882300D01*
X137213600Y-125590900D02*
X137217611Y-125642914D01*
X137217611Y-125642914D02*
X137233302Y-125692717D01*
X137233302Y-125692717D02*
X137267248Y-125734110D01*
X137267248Y-125734110D02*
X137318811Y-125758320D01*
X137318811Y-125758320D02*
X137377642Y-125766041D01*
X137377642Y-125766041D02*
X137388800Y-125766200D01*
X143339000Y-125610300D02*
X143363196Y-125663603D01*
X143363196Y-125663603D02*
X143393353Y-125705682D01*
X143393353Y-125705682D02*
X143436929Y-125740725D01*
X143436929Y-125740725D02*
X143490519Y-125760793D01*
X143490519Y-125760793D02*
X143545200Y-125766200D01*
X145782600Y-125937900D02*
X145781337Y-125999310D01*
X145781337Y-125999310D02*
X145777573Y-126059334D01*
X145777573Y-126059334D02*
X145771346Y-126117935D01*
X145771346Y-126117935D02*
X145762694Y-126175077D01*
X145762694Y-126175077D02*
X145751654Y-126230722D01*
X145751654Y-126230722D02*
X145738264Y-126284833D01*
X145738264Y-126284833D02*
X145722561Y-126337374D01*
X145722561Y-126337374D02*
X145704582Y-126388307D01*
X145704582Y-126388307D02*
X145684366Y-126437596D01*
X145684366Y-126437596D02*
X145661951Y-126485203D01*
X145661951Y-126485203D02*
X145637373Y-126531091D01*
X145637373Y-126531091D02*
X145610670Y-126575224D01*
X145610670Y-126575224D02*
X145581880Y-126617565D01*
X145581880Y-126617565D02*
X145551040Y-126658076D01*
X145551040Y-126658076D02*
X145518188Y-126696721D01*
X145518188Y-126696721D02*
X145483362Y-126733462D01*
X145483362Y-126733462D02*
X145446599Y-126768263D01*
X145446599Y-126768263D02*
X145407937Y-126801087D01*
X145407937Y-126801087D02*
X145367413Y-126831896D01*
X145367413Y-126831896D02*
X145325065Y-126860654D01*
X145325065Y-126860654D02*
X145280931Y-126887324D01*
X145280931Y-126887324D02*
X145235048Y-126911869D01*
X145235048Y-126911869D02*
X145187454Y-126934252D01*
X145187454Y-126934252D02*
X145138185Y-126954435D01*
X145138185Y-126954435D02*
X145087281Y-126972383D01*
X145087281Y-126972383D02*
X145034779Y-126988057D01*
X145034779Y-126988057D02*
X144980715Y-127001422D01*
X144980715Y-127001422D02*
X144925128Y-127012439D01*
X144925128Y-127012439D02*
X144868056Y-127021073D01*
X144868056Y-127021073D02*
X144809535Y-127027285D01*
X144809535Y-127027285D02*
X144749604Y-127031040D01*
X144749604Y-127031040D02*
X144688300Y-127032300D01*
X127964200Y-124859500D02*
X127321500Y-124859500D01*
X124540700Y-123882300D02*
X124540700Y-123472100D01*
X145782600Y-123039500D02*
X145782600Y-125937900D01*
X142533700Y-123472100D02*
X141655200Y-125766200D01*
X144688300Y-121944900D02*
X144749604Y-121946161D01*
X144749604Y-121946161D02*
X144809535Y-121949922D01*
X144809535Y-121949922D02*
X144868056Y-121956143D01*
X144868056Y-121956143D02*
X144925128Y-121964789D01*
X144925128Y-121964789D02*
X144980715Y-121975821D01*
X144980715Y-121975821D02*
X145034779Y-121989203D01*
X145034779Y-121989203D02*
X145087281Y-122004897D01*
X145087281Y-122004897D02*
X145138185Y-122022865D01*
X145138185Y-122022865D02*
X145187454Y-122043071D01*
X145187454Y-122043071D02*
X145235048Y-122065477D01*
X145235048Y-122065477D02*
X145280931Y-122090046D01*
X145280931Y-122090046D02*
X145325065Y-122116740D01*
X145325065Y-122116740D02*
X145367413Y-122145522D01*
X145367413Y-122145522D02*
X145407937Y-122176355D01*
X145407937Y-122176355D02*
X145446599Y-122209202D01*
X145446599Y-122209202D02*
X145483362Y-122244025D01*
X145483362Y-122244025D02*
X145518188Y-122280786D01*
X145518188Y-122280786D02*
X145551040Y-122319449D01*
X145551040Y-122319449D02*
X145581880Y-122359977D01*
X145581880Y-122359977D02*
X145610670Y-122402331D01*
X145610670Y-122402331D02*
X145637373Y-122446475D01*
X145637373Y-122446475D02*
X145661951Y-122492371D01*
X145661951Y-122492371D02*
X145684366Y-122539983D01*
X145684366Y-122539983D02*
X145704582Y-122589271D01*
X145704582Y-122589271D02*
X145722561Y-122640201D01*
X145722561Y-122640201D02*
X145738264Y-122692733D01*
X145738264Y-122692733D02*
X145751654Y-122746831D01*
X145751654Y-122746831D02*
X145762694Y-122802457D01*
X145762694Y-122802457D02*
X145771346Y-122859574D01*
X145771346Y-122859574D02*
X145777573Y-122918145D01*
X145777573Y-122918145D02*
X145781337Y-122978133D01*
X145781337Y-122978133D02*
X145782600Y-123039500D01*
X127321500Y-124859500D02*
X127642500Y-123965200D01*
X127642500Y-123965200D02*
X127964200Y-124859500D01*
X142425700Y-124859500D02*
X142747200Y-123965200D01*
X125542900Y-123866600D02*
X125604395Y-123870382D01*
X125604395Y-123870382D02*
X125665542Y-123882551D01*
X125665542Y-123882551D02*
X125723921Y-123904341D01*
X125723921Y-123904341D02*
X125777112Y-123936987D01*
X125777112Y-123936987D02*
X125822695Y-123981722D01*
X125822695Y-123981722D02*
X125850435Y-124023948D01*
X125850435Y-124023948D02*
X125871512Y-124074190D01*
X125871512Y-124074190D02*
X125884908Y-124132967D01*
X125884908Y-124132967D02*
X125889600Y-124200800D01*
X143068000Y-124859500D02*
X142425700Y-124859500D01*
X137665600Y-123882300D02*
X138298900Y-123882300D01*
X139042900Y-123472100D02*
X138591800Y-123472100D01*
X143545200Y-125766200D02*
X143854200Y-125766200D01*
X137665600Y-125766200D02*
X137665600Y-123882300D01*
X123907400Y-125766200D02*
X123907400Y-123882300D01*
X138591800Y-125590900D02*
X138595796Y-125642914D01*
X138595796Y-125642914D02*
X138611427Y-125692717D01*
X138611427Y-125692717D02*
X138645241Y-125734110D01*
X138645241Y-125734110D02*
X138696597Y-125758320D01*
X138696597Y-125758320D02*
X138755188Y-125766041D01*
X138755188Y-125766041D02*
X138766300Y-125766200D01*
X122822000Y-123472100D02*
X122822000Y-123707700D01*
X123630600Y-125766200D02*
X123907400Y-125766200D01*
X139042900Y-125766200D02*
X139042900Y-123472100D01*
X132896000Y-125371500D02*
X132822287Y-125367611D01*
X132822287Y-125367611D02*
X132750749Y-125356199D01*
X132750749Y-125356199D02*
X132681743Y-125337647D01*
X132681743Y-125337647D02*
X132615623Y-125312339D01*
X132615623Y-125312339D02*
X132552746Y-125280655D01*
X132552746Y-125280655D02*
X132493469Y-125242981D01*
X132493469Y-125242981D02*
X132438147Y-125199697D01*
X132438147Y-125199697D02*
X132387137Y-125151187D01*
X132387137Y-125151187D02*
X132340794Y-125097834D01*
X132340794Y-125097834D02*
X132299475Y-125040020D01*
X132299475Y-125040020D02*
X132263536Y-124978128D01*
X132263536Y-124978128D02*
X132233332Y-124912542D01*
X132233332Y-124912542D02*
X132209221Y-124843643D01*
X132209221Y-124843643D02*
X132191558Y-124771814D01*
X132191558Y-124771814D02*
X132180698Y-124697439D01*
X132180698Y-124697439D02*
X132177000Y-124620900D01*
X142104200Y-125766200D02*
X142282700Y-125260300D01*
X142969900Y-123472100D02*
X142533700Y-123472100D01*
X123907400Y-123882300D02*
X124540700Y-123882300D01*
X143854200Y-125766200D02*
X142969900Y-123472100D01*
X137388800Y-125766200D02*
X137665600Y-125766200D01*
X125889600Y-124200800D02*
X125884908Y-124267006D01*
X125884908Y-124267006D02*
X125871512Y-124324479D01*
X125871512Y-124324479D02*
X125850435Y-124373704D01*
X125850435Y-124373704D02*
X125812145Y-124427346D01*
X125812145Y-124427346D02*
X125764433Y-124468336D01*
X125764433Y-124468336D02*
X125709718Y-124497825D01*
X125709718Y-124497825D02*
X125650420Y-124516962D01*
X125650420Y-124516962D02*
X125588959Y-124526896D01*
X125588959Y-124526896D02*
X125542900Y-124529000D01*
X124540700Y-123472100D02*
X122822000Y-123472100D01*
X138766300Y-125766200D02*
X139042900Y-125766200D01*
X122997300Y-123882300D02*
X123455400Y-123882300D01*
X138298900Y-123472100D02*
X136580500Y-123472100D01*
X132177000Y-124620900D02*
X132180698Y-124544236D01*
X132180698Y-124544236D02*
X132191558Y-124469682D01*
X132191558Y-124469682D02*
X132209221Y-124397629D01*
X132209221Y-124397629D02*
X132233332Y-124328468D01*
X132233332Y-124328468D02*
X132263536Y-124262591D01*
X132263536Y-124262591D02*
X132299475Y-124200389D01*
X132299475Y-124200389D02*
X132340794Y-124142253D01*
X132340794Y-124142253D02*
X132387137Y-124088575D01*
X132387137Y-124088575D02*
X132438147Y-124039746D01*
X132438147Y-124039746D02*
X132493469Y-123996157D01*
X132493469Y-123996157D02*
X132552746Y-123958201D01*
X132552746Y-123958201D02*
X132615623Y-123926268D01*
X132615623Y-123926268D02*
X132681743Y-123900750D01*
X132681743Y-123900750D02*
X132750749Y-123882039D01*
X132750749Y-123882039D02*
X132822287Y-123870525D01*
X132822287Y-123870525D02*
X132896000Y-123866600D01*
X143211300Y-125260300D02*
X143339000Y-125610300D01*
X142282700Y-125260300D02*
X143211300Y-125260300D01*
X127178000Y-125260300D02*
X128106900Y-125260300D01*
X121876900Y-121944900D02*
X144688300Y-121944900D01*
X122822000Y-123707700D02*
X122826024Y-123759368D01*
X122826024Y-123759368D02*
X122841752Y-123808926D01*
X122841752Y-123808926D02*
X122875749Y-123850204D01*
X122875749Y-123850204D02*
X122927339Y-123874404D01*
X122927339Y-123874404D02*
X122986151Y-123882141D01*
X122986151Y-123882141D02*
X122997300Y-123882300D01*
X120782600Y-123039500D02*
X120783862Y-122978133D01*
X120783862Y-122978133D02*
X120787623Y-122918145D01*
X120787623Y-122918145D02*
X120793845Y-122859574D01*
X120793845Y-122859574D02*
X120802492Y-122802457D01*
X120802492Y-122802457D02*
X120813526Y-122746831D01*
X120813526Y-122746831D02*
X120826910Y-122692733D01*
X120826910Y-122692733D02*
X120842605Y-122640201D01*
X120842605Y-122640201D02*
X120860575Y-122589271D01*
X120860575Y-122589271D02*
X120880781Y-122539983D01*
X120880781Y-122539983D02*
X120903188Y-122492371D01*
X120903188Y-122492371D02*
X120927757Y-122446475D01*
X120927757Y-122446475D02*
X120954450Y-122402331D01*
X120954450Y-122402331D02*
X120983231Y-122359977D01*
X120983231Y-122359977D02*
X121014062Y-122319449D01*
X121014062Y-122319449D02*
X121046906Y-122280786D01*
X121046906Y-122280786D02*
X121081725Y-122244025D01*
X121081725Y-122244025D02*
X121118481Y-122209202D01*
X121118481Y-122209202D02*
X121157137Y-122176355D01*
X121157137Y-122176355D02*
X121197657Y-122145522D01*
X121197657Y-122145522D02*
X121240002Y-122116740D01*
X121240002Y-122116740D02*
X121284135Y-122090046D01*
X121284135Y-122090046D02*
X121330018Y-122065477D01*
X121330018Y-122065477D02*
X121377615Y-122043071D01*
X121377615Y-122043071D02*
X121426887Y-122022865D01*
X121426887Y-122022865D02*
X121477798Y-122004897D01*
X121477798Y-122004897D02*
X121530309Y-121989203D01*
X121530309Y-121989203D02*
X121584384Y-121975821D01*
X121584384Y-121975821D02*
X121639985Y-121964789D01*
X121639985Y-121964789D02*
X121697074Y-121956143D01*
X121697074Y-121956143D02*
X121755615Y-121949922D01*
X121755615Y-121949922D02*
X121815569Y-121946161D01*
X121815569Y-121946161D02*
X121876900Y-121944900D01*
X120782600Y-125937900D02*
X120782600Y-123039500D01*
X144688300Y-127032300D02*
X121876900Y-127032300D01*
X142747200Y-123965200D02*
X143068000Y-124859500D01*
X125243800Y-124529000D02*
X125243800Y-123866600D01*
X125243800Y-123866600D02*
X125542900Y-123866600D01*
X138591800Y-123472100D02*
X138591800Y-125590900D01*
X130229800Y-125030900D02*
X129634700Y-123472100D01*
X136306900Y-125766200D02*
X136306900Y-123472100D01*
X135788600Y-125607000D02*
X135825740Y-125655722D01*
X135825740Y-125655722D02*
X135863483Y-125694749D01*
X135863483Y-125694749D02*
X135910975Y-125729612D01*
X135910975Y-125729612D02*
X135962495Y-125752378D01*
X135962495Y-125752378D02*
X136019769Y-125764063D01*
X136019769Y-125764063D02*
X136062000Y-125766200D01*
X129306900Y-125766200D02*
X129513600Y-124191400D01*
X134550700Y-125766200D02*
X134792600Y-125766200D01*
X141410800Y-125766200D02*
X141410800Y-123472100D01*
X131582200Y-125766200D02*
X131225500Y-123472100D01*
X134792600Y-124172000D02*
X135788600Y-125607000D01*
X139886600Y-123472100D02*
X139479500Y-123472100D01*
X131225500Y-123472100D02*
X130824700Y-123472100D01*
X140993400Y-123472100D02*
X140993400Y-125095000D01*
X126468700Y-125766200D02*
X125943800Y-124837500D01*
X129513600Y-124191400D02*
X129981300Y-125409900D01*
X131110800Y-125597600D02*
X131123184Y-125648874D01*
X131123184Y-125648874D02*
X131150023Y-125697187D01*
X131150023Y-125697187D02*
X131187970Y-125731990D01*
X131187970Y-125731990D02*
X131234946Y-125754245D01*
X131234946Y-125754245D02*
X131288876Y-125764911D01*
X131288876Y-125764911D02*
X131317800Y-125766200D01*
X129230800Y-123472100D02*
X128874300Y-125766200D01*
X130824700Y-123472100D02*
X130229800Y-125030900D01*
X134375500Y-125590900D02*
X134379499Y-125642914D01*
X134379499Y-125642914D02*
X134395155Y-125692717D01*
X134395155Y-125692717D02*
X134429065Y-125734110D01*
X134429065Y-125734110D02*
X134480631Y-125758320D01*
X134480631Y-125758320D02*
X134539525Y-125766041D01*
X134539525Y-125766041D02*
X134550700Y-125766200D01*
X141410800Y-123472100D02*
X140993400Y-123472100D01*
X130410900Y-125575200D02*
X130926100Y-124216500D01*
X126331600Y-124203800D02*
X126327958Y-124121144D01*
X126327958Y-124121144D02*
X126317222Y-124042672D01*
X126317222Y-124042672D02*
X126299676Y-123968541D01*
X126299676Y-123968541D02*
X126275604Y-123898910D01*
X126275604Y-123898910D02*
X126245290Y-123833939D01*
X126245290Y-123833939D02*
X126209018Y-123773784D01*
X126209018Y-123773784D02*
X126167073Y-123718606D01*
X126167073Y-123718606D02*
X126119737Y-123668562D01*
X126119737Y-123668562D02*
X126067295Y-123623812D01*
X126067295Y-123623812D02*
X126010032Y-123584513D01*
X126010032Y-123584513D02*
X125948231Y-123550826D01*
X125948231Y-123550826D02*
X125882176Y-123522907D01*
X125882176Y-123522907D02*
X125812151Y-123500917D01*
X125812151Y-123500917D02*
X125738441Y-123485013D01*
X125738441Y-123485013D02*
X125661329Y-123475354D01*
X125661329Y-123475354D02*
X125581100Y-123472100D01*
X135890000Y-123472100D02*
X135890000Y-125095000D01*
X132889400Y-125807700D02*
X132950504Y-125806164D01*
X132950504Y-125806164D02*
X133010840Y-125801605D01*
X133010840Y-125801605D02*
X133070332Y-125794095D01*
X133070332Y-125794095D02*
X133128903Y-125783707D01*
X133128903Y-125783707D02*
X133186475Y-125770512D01*
X133186475Y-125770512D02*
X133242972Y-125754583D01*
X133242972Y-125754583D02*
X133298318Y-125735993D01*
X133298318Y-125735993D02*
X133352434Y-125714814D01*
X133352434Y-125714814D02*
X133405244Y-125691117D01*
X133405244Y-125691117D02*
X133456672Y-125664975D01*
X133456672Y-125664975D02*
X133506641Y-125636462D01*
X133506641Y-125636462D02*
X133555073Y-125605648D01*
X133555073Y-125605648D02*
X133601891Y-125572606D01*
X133601891Y-125572606D02*
X133647020Y-125537409D01*
X133647020Y-125537409D02*
X133690382Y-125500128D01*
X133690382Y-125500128D02*
X133731900Y-125460837D01*
X133731900Y-125460837D02*
X133771497Y-125419607D01*
X133771497Y-125419607D02*
X133809096Y-125376511D01*
X133809096Y-125376511D02*
X133844621Y-125331621D01*
X133844621Y-125331621D02*
X133877995Y-125285009D01*
X133877995Y-125285009D02*
X133909141Y-125236748D01*
X133909141Y-125236748D02*
X133937981Y-125186910D01*
X133937981Y-125186910D02*
X133964440Y-125135567D01*
X133964440Y-125135567D02*
X133988440Y-125082791D01*
X133988440Y-125082791D02*
X134009904Y-125028656D01*
X134009904Y-125028656D02*
X134028756Y-124973233D01*
X134028756Y-124973233D02*
X134044919Y-124916594D01*
X134044919Y-124916594D02*
X134058315Y-124858812D01*
X134058315Y-124858812D02*
X134068868Y-124799959D01*
X134068868Y-124799959D02*
X134076501Y-124740108D01*
X134076501Y-124740108D02*
X134081137Y-124679330D01*
X134081137Y-124679330D02*
X134082700Y-124617699D01*
X136062000Y-125766200D02*
X136306900Y-125766200D01*
X140892000Y-125607000D02*
X140929141Y-125655722D01*
X140929141Y-125655722D02*
X140966892Y-125694749D01*
X140966892Y-125694749D02*
X141014412Y-125729612D01*
X141014412Y-125729612D02*
X141065993Y-125752378D01*
X141065993Y-125752378D02*
X141123370Y-125764063D01*
X141123370Y-125764063D02*
X141165700Y-125766200D01*
X139896000Y-124172000D02*
X140892000Y-125607000D01*
X125539600Y-124919800D02*
X125905300Y-125636000D01*
X139479500Y-123472100D02*
X139479500Y-125590900D01*
X124814300Y-125590900D02*
X124818286Y-125642914D01*
X124818286Y-125642914D02*
X124833900Y-125692717D01*
X124833900Y-125692717D02*
X124867746Y-125734110D01*
X124867746Y-125734110D02*
X124919255Y-125758320D01*
X124919255Y-125758320D02*
X124978125Y-125766041D01*
X124978125Y-125766041D02*
X124989300Y-125766200D01*
X129981300Y-125409900D02*
X130003983Y-125457921D01*
X130003983Y-125457921D02*
X130036149Y-125504544D01*
X130036149Y-125504544D02*
X130074561Y-125539299D01*
X130074561Y-125539299D02*
X130120114Y-125562329D01*
X130120114Y-125562329D02*
X130173707Y-125573775D01*
X130173707Y-125573775D02*
X130203800Y-125575200D01*
X125243800Y-124919800D02*
X125539600Y-124919800D01*
X134782600Y-123472100D02*
X134375500Y-123472100D01*
X141165700Y-125766200D02*
X141410800Y-125766200D01*
X126124600Y-125766200D02*
X126468700Y-125766200D01*
X134082700Y-124617699D02*
X134081164Y-124556886D01*
X134081164Y-124556886D02*
X134076607Y-124496842D01*
X134076607Y-124496842D02*
X134069103Y-124437643D01*
X134069103Y-124437643D02*
X134058726Y-124379365D01*
X134058726Y-124379365D02*
X134045550Y-124322084D01*
X134045550Y-124322084D02*
X134029649Y-124265877D01*
X134029649Y-124265877D02*
X134011097Y-124210820D01*
X134011097Y-124210820D02*
X133989968Y-124156988D01*
X133989968Y-124156988D02*
X133966337Y-124104459D01*
X133966337Y-124104459D02*
X133940278Y-124053308D01*
X133940278Y-124053308D02*
X133911864Y-124003611D01*
X133911864Y-124003611D02*
X133881170Y-123955445D01*
X133881170Y-123955445D02*
X133848270Y-123908886D01*
X133848270Y-123908886D02*
X133813238Y-123864010D01*
X133813238Y-123864010D02*
X133776148Y-123820893D01*
X133776148Y-123820893D02*
X133737075Y-123779612D01*
X133737075Y-123779612D02*
X133696091Y-123740242D01*
X133696091Y-123740242D02*
X133653273Y-123702860D01*
X133653273Y-123702860D02*
X133608693Y-123667542D01*
X133608693Y-123667542D02*
X133562426Y-123634364D01*
X133562426Y-123634364D02*
X133514546Y-123603403D01*
X133514546Y-123603403D02*
X133465127Y-123574734D01*
X133465127Y-123574734D02*
X133414243Y-123548434D01*
X133414243Y-123548434D02*
X133361968Y-123524579D01*
X133361968Y-123524579D02*
X133308377Y-123503245D01*
X133308377Y-123503245D02*
X133253543Y-123484509D01*
X133253543Y-123484509D02*
X133197541Y-123468446D01*
X133197541Y-123468446D02*
X133140445Y-123455132D01*
X133140445Y-123455132D02*
X133082328Y-123444645D01*
X133082328Y-123444645D02*
X133023266Y-123437059D01*
X133023266Y-123437059D02*
X132963332Y-123432452D01*
X132963332Y-123432452D02*
X132902600Y-123430900D01*
X130926100Y-124216500D02*
X131110800Y-125597600D01*
X125581100Y-123472100D02*
X124814300Y-123472100D01*
X130203800Y-125575200D02*
X130410900Y-125575200D01*
X136306900Y-123472100D02*
X135890000Y-123472100D01*
X132902600Y-123430900D02*
X132841478Y-123432443D01*
X132841478Y-123432443D02*
X132781146Y-123437026D01*
X132781146Y-123437026D02*
X132721679Y-123444573D01*
X132721679Y-123444573D02*
X132663152Y-123455012D01*
X132663152Y-123455012D02*
X132605640Y-123468270D01*
X132605640Y-123468270D02*
X132549220Y-123484273D01*
X132549220Y-123484273D02*
X132493966Y-123502947D01*
X132493966Y-123502947D02*
X132439954Y-123524220D01*
X132439954Y-123524220D02*
X132387260Y-123548018D01*
X132387260Y-123548018D02*
X132335959Y-123574267D01*
X132335959Y-123574267D02*
X132286127Y-123602894D01*
X132286127Y-123602894D02*
X132237839Y-123633827D01*
X132237839Y-123633827D02*
X132191170Y-123666990D01*
X132191170Y-123666990D02*
X132146197Y-123702312D01*
X132146197Y-123702312D02*
X132102994Y-123739719D01*
X132102994Y-123739719D02*
X132061637Y-123779137D01*
X132061637Y-123779137D02*
X132022202Y-123820493D01*
X132022202Y-123820493D02*
X131984764Y-123863714D01*
X131984764Y-123863714D02*
X131949398Y-123908725D01*
X131949398Y-123908725D02*
X131916181Y-123955455D01*
X131916181Y-123955455D02*
X131885187Y-124003829D01*
X131885187Y-124003829D02*
X131856492Y-124053775D01*
X131856492Y-124053775D02*
X131830171Y-124105218D01*
X131830171Y-124105218D02*
X131806301Y-124158085D01*
X131806301Y-124158085D02*
X131784956Y-124212304D01*
X131784956Y-124212304D02*
X131766213Y-124267800D01*
X131766213Y-124267800D02*
X131750145Y-124324501D01*
X131750145Y-124324501D02*
X131736830Y-124382332D01*
X131736830Y-124382332D02*
X131726342Y-124441221D01*
X131726342Y-124441221D02*
X131718758Y-124501094D01*
X131718758Y-124501094D02*
X131714152Y-124561878D01*
X131714152Y-124561878D02*
X131712600Y-124623500D01*
X124989300Y-125766200D02*
X125243800Y-125766200D01*
X139896000Y-125766200D02*
X139896000Y-124172000D01*
X134792600Y-125766200D02*
X134792600Y-124172000D01*
X140993400Y-125095000D02*
X139886600Y-123472100D01*
X134375500Y-123472100D02*
X134375500Y-125590900D01*
X125943800Y-124837500D02*
X126006259Y-124803086D01*
X126006259Y-124803086D02*
X126064587Y-124762877D01*
X126064587Y-124762877D02*
X126118345Y-124717088D01*
X126118345Y-124717088D02*
X126167093Y-124665935D01*
X126167093Y-124665935D02*
X126210391Y-124609635D01*
X126210391Y-124609635D02*
X126247801Y-124548404D01*
X126247801Y-124548404D02*
X126278882Y-124482457D01*
X126278882Y-124482457D02*
X126303195Y-124412010D01*
X126303195Y-124412010D02*
X126315427Y-124362653D01*
X126315427Y-124362653D02*
X126324325Y-124311456D01*
X126324325Y-124311456D02*
X126329759Y-124258484D01*
X126329759Y-124258484D02*
X126331600Y-124203800D01*
X125243800Y-125766200D02*
X125243800Y-124919800D01*
X124814300Y-123472100D02*
X124814300Y-125590900D01*
X131712600Y-124623500D02*
X131714124Y-124684314D01*
X131714124Y-124684314D02*
X131718648Y-124744344D01*
X131718648Y-124744344D02*
X131726100Y-124803514D01*
X131726100Y-124803514D02*
X131736407Y-124861751D01*
X131736407Y-124861751D02*
X131749496Y-124918977D01*
X131749496Y-124918977D02*
X131765294Y-124975119D01*
X131765294Y-124975119D02*
X131783730Y-125030100D01*
X131783730Y-125030100D02*
X131804731Y-125083846D01*
X131804731Y-125083846D02*
X131828223Y-125136282D01*
X131828223Y-125136282D02*
X131854135Y-125187332D01*
X131854135Y-125187332D02*
X131882394Y-125236922D01*
X131882394Y-125236922D02*
X131912927Y-125284975D01*
X131912927Y-125284975D02*
X131945661Y-125331417D01*
X131945661Y-125331417D02*
X131980525Y-125376173D01*
X131980525Y-125376173D02*
X132017445Y-125419167D01*
X132017445Y-125419167D02*
X132056350Y-125460325D01*
X132056350Y-125460325D02*
X132097165Y-125499570D01*
X132097165Y-125499570D02*
X132139819Y-125536829D01*
X132139819Y-125536829D02*
X132184239Y-125572025D01*
X132184239Y-125572025D02*
X132230353Y-125605083D01*
X132230353Y-125605083D02*
X132278088Y-125635930D01*
X132278088Y-125635930D02*
X132327372Y-125664488D01*
X132327372Y-125664488D02*
X132378131Y-125690683D01*
X132378131Y-125690683D02*
X132430293Y-125714440D01*
X132430293Y-125714440D02*
X132483786Y-125735684D01*
X132483786Y-125735684D02*
X132538537Y-125754339D01*
X132538537Y-125754339D02*
X132594474Y-125770330D01*
X132594474Y-125770330D02*
X132651524Y-125783583D01*
X132651524Y-125783583D02*
X132709614Y-125794021D01*
X132709614Y-125794021D02*
X132768671Y-125801570D01*
X132768671Y-125801570D02*
X132828624Y-125806155D01*
X132828624Y-125806155D02*
X132889400Y-125807700D01*
X139654100Y-125766200D02*
X139896000Y-125766200D01*
X128874300Y-125766200D02*
X129306900Y-125766200D01*
X129634700Y-123472100D02*
X129230800Y-123472100D01*
X126551100Y-125766200D02*
X127000000Y-125766200D01*
X127429300Y-123472100D02*
X126551100Y-125766200D01*
X131317800Y-125766200D02*
X131582200Y-125766200D01*
X127865200Y-123472100D02*
X127429300Y-123472100D01*
X139479500Y-125590900D02*
X139483509Y-125642914D01*
X139483509Y-125642914D02*
X139499177Y-125692717D01*
X139499177Y-125692717D02*
X139533041Y-125734110D01*
X139533041Y-125734110D02*
X139584425Y-125758320D01*
X139584425Y-125758320D02*
X139642997Y-125766041D01*
X139642997Y-125766041D02*
X139654100Y-125766200D01*
X128750100Y-125766200D02*
X127865200Y-123472100D01*
X128441100Y-125766200D02*
X128750100Y-125766200D01*
X128234500Y-125610300D02*
X128258770Y-125663603D01*
X128258770Y-125663603D02*
X128289023Y-125705682D01*
X128289023Y-125705682D02*
X128332714Y-125740725D01*
X128332714Y-125740725D02*
X128386391Y-125760793D01*
X128386391Y-125760793D02*
X128441100Y-125766200D01*
X125905300Y-125636000D02*
X125933976Y-125683441D01*
X125933976Y-125683441D02*
X125973233Y-125723994D01*
X125973233Y-125723994D02*
X126020389Y-125750158D01*
X126020389Y-125750158D02*
X126077178Y-125763552D01*
X126077178Y-125763552D02*
X126124600Y-125766200D01*
X135890000Y-125095000D02*
X134782600Y-123472100D01*
D14*
G04 #@! TO.C,J2*
X91080000Y-123190000D02*
G75*
G03*
X91080000Y-123190000I-2180000J0D01*
G01*
X96160000Y-123190000D02*
G75*
G03*
X96160000Y-123190000I-2180000J0D01*
G01*
X101240000Y-123190000D02*
G75*
G03*
X101240000Y-123190000I-2180000J0D01*
G01*
X106320000Y-123190000D02*
G75*
G03*
X106320000Y-123190000I-2180000J0D01*
G01*
X111400000Y-123190000D02*
G75*
G03*
X111400000Y-123190000I-2180000J0D01*
G01*
X116480000Y-123190000D02*
G75*
G03*
X116480000Y-123190000I-2180000J0D01*
G01*
X86300000Y-127990000D02*
X116900000Y-127990000D01*
X86300000Y-125490000D02*
X116900000Y-125490000D01*
X86300000Y-119290000D02*
X116900000Y-119290000D01*
X86300000Y-117230000D02*
X116900000Y-117230000D01*
X86300000Y-128550000D02*
X116900000Y-128550000D01*
X86300000Y-117230000D02*
X86300000Y-128550000D01*
X116900000Y-117230000D02*
X116900000Y-128550000D01*
X90554000Y-121802000D02*
X90447000Y-121909000D01*
X87618000Y-124737000D02*
X87512000Y-124844000D01*
X90288000Y-121536000D02*
X90181000Y-121643000D01*
X87352000Y-124471000D02*
X87246000Y-124578000D01*
X95634000Y-121802000D02*
X95239000Y-122198000D01*
X92973000Y-124464000D02*
X92593000Y-124844000D01*
X95368000Y-121536000D02*
X94988000Y-121916000D01*
X92722000Y-124182000D02*
X92327000Y-124578000D01*
X100714000Y-121802000D02*
X100319000Y-122198000D01*
X98053000Y-124464000D02*
X97673000Y-124844000D01*
X100448000Y-121536000D02*
X100068000Y-121916000D01*
X97802000Y-124182000D02*
X97407000Y-124578000D01*
X105794000Y-121802000D02*
X105399000Y-122198000D01*
X103133000Y-124464000D02*
X102753000Y-124844000D01*
X105528000Y-121536000D02*
X105148000Y-121916000D01*
X102882000Y-124182000D02*
X102487000Y-124578000D01*
X110874000Y-121802000D02*
X110479000Y-122198000D01*
X108213000Y-124464000D02*
X107833000Y-124844000D01*
X110608000Y-121536000D02*
X110228000Y-121916000D01*
X107962000Y-124182000D02*
X107567000Y-124578000D01*
X115954000Y-121802000D02*
X115559000Y-122198000D01*
X113293000Y-124464000D02*
X112913000Y-124844000D01*
X115688000Y-121536000D02*
X115308000Y-121916000D01*
X113042000Y-124182000D02*
X112647000Y-124578000D01*
X86060000Y-128050000D02*
X86060000Y-128790000D01*
X86060000Y-128790000D02*
X86560000Y-128790000D01*
G04 #@! TO.C,K1*
X162433000Y-105918000D02*
X162433000Y-106130000D01*
X157440000Y-105918000D02*
X154940000Y-105918000D01*
X154940000Y-105630000D02*
X154940000Y-105918000D01*
X164250000Y-85630000D02*
X164250000Y-109630000D01*
X153250000Y-85630000D02*
X164250000Y-85630000D01*
X153250000Y-109630000D02*
X164250000Y-109630000D01*
X153250000Y-85630000D02*
X153250000Y-109630000D01*
X157230000Y-90680000D02*
X157230000Y-90170000D01*
X159770000Y-90680000D02*
X157230000Y-90680000D01*
X159770000Y-90170000D02*
X159770000Y-90680000D01*
X159770000Y-89660000D02*
X159770000Y-90170000D01*
X157230000Y-89660000D02*
X159770000Y-89660000D01*
X157230000Y-90170000D02*
X157230000Y-89660000D01*
X154940000Y-88930000D02*
X154940000Y-90170000D01*
X154940000Y-90170000D02*
X157230000Y-90170000D01*
X159770000Y-90170000D02*
X162440000Y-90170000D01*
X162440000Y-90170000D02*
X162440000Y-88930000D01*
X157990000Y-89660000D02*
X159000000Y-90680000D01*
X159480000Y-106553000D02*
X157480000Y-105918000D01*
X162433000Y-105918000D02*
X159512000Y-105918000D01*
G04 #@! TO.C,U3*
X120420000Y-86530000D02*
X146280000Y-86530000D01*
D11*
G36*
X119380000Y-66675000D02*
G01*
X119380000Y-67945000D01*
X120015000Y-67310000D01*
X119380000Y-66675000D01*
G37*
X119380000Y-66675000D02*
X119380000Y-67945000D01*
X120015000Y-67310000D01*
X119380000Y-66675000D01*
D14*
X146280000Y-65880000D02*
X120420000Y-65880000D01*
X146280000Y-86530000D02*
X146280000Y-65880000D01*
X120420000Y-86530000D02*
X120420000Y-65880000D01*
D11*
G04 #@! TO.C,RV1*
X152690000Y-115680000D02*
X164690000Y-115680000D01*
X152690000Y-111780000D02*
X164690000Y-111780000D01*
X164690000Y-111780000D02*
X164690000Y-115680000D01*
X152690000Y-111780000D02*
X152690000Y-115680000D01*
D14*
G04 #@! TO.C,J3*
X158390000Y-123190000D02*
G75*
G03*
X158390000Y-123190000I-2180000J0D01*
G01*
X163470000Y-123190000D02*
G75*
G03*
X163470000Y-123190000I-2180000J0D01*
G01*
X153610000Y-127990000D02*
X163890000Y-127990000D01*
X153610000Y-125490000D02*
X163890000Y-125490000D01*
X153610000Y-119290000D02*
X163890000Y-119290000D01*
X153610000Y-117230000D02*
X163890000Y-117230000D01*
X153610000Y-128550000D02*
X163890000Y-128550000D01*
X153610000Y-117230000D02*
X153610000Y-128550000D01*
X163890000Y-117230000D02*
X163890000Y-128550000D01*
X157864000Y-121802000D02*
X157757000Y-121909000D01*
X154928000Y-124737000D02*
X154822000Y-124844000D01*
X157598000Y-121536000D02*
X157491000Y-121643000D01*
X154662000Y-124471000D02*
X154556000Y-124578000D01*
X162944000Y-121802000D02*
X162549000Y-122198000D01*
X160283000Y-124464000D02*
X159903000Y-124844000D01*
X162678000Y-121536000D02*
X162298000Y-121916000D01*
X160032000Y-124182000D02*
X159637000Y-124578000D01*
X153370000Y-128050000D02*
X153370000Y-128790000D01*
X153370000Y-128790000D02*
X153870000Y-128790000D01*
G04 #@! TO.C,J1*
X74570000Y-123190000D02*
G75*
G03*
X74570000Y-123190000I-2180000J0D01*
G01*
X79650000Y-123190000D02*
G75*
G03*
X79650000Y-123190000I-2180000J0D01*
G01*
X69790000Y-127990000D02*
X80070000Y-127990000D01*
X69790000Y-125490000D02*
X80070000Y-125490000D01*
X69790000Y-119290000D02*
X80070000Y-119290000D01*
X69790000Y-117230000D02*
X80070000Y-117230000D01*
X69790000Y-128550000D02*
X80070000Y-128550000D01*
X69790000Y-117230000D02*
X69790000Y-128550000D01*
X80070000Y-117230000D02*
X80070000Y-128550000D01*
X74044000Y-121802000D02*
X73937000Y-121909000D01*
X71108000Y-124737000D02*
X71002000Y-124844000D01*
X73778000Y-121536000D02*
X73671000Y-121643000D01*
X70842000Y-124471000D02*
X70736000Y-124578000D01*
X79124000Y-121802000D02*
X78729000Y-122198000D01*
X76463000Y-124464000D02*
X76083000Y-124844000D01*
X78858000Y-121536000D02*
X78478000Y-121916000D01*
X76212000Y-124182000D02*
X75817000Y-124578000D01*
X69550000Y-128050000D02*
X69550000Y-128790000D01*
X69550000Y-128790000D02*
X70050000Y-128790000D01*
G04 #@! TO.C,U2*
X119150000Y-116925000D02*
X119150000Y-91355000D01*
D11*
G36*
X118110000Y-92075000D02*
G01*
X118110000Y-93345000D01*
X118745000Y-92710000D01*
X118110000Y-92075000D01*
G37*
X118110000Y-92075000D02*
X118110000Y-93345000D01*
X118745000Y-92710000D01*
X118110000Y-92075000D01*
D14*
X147550000Y-91355000D02*
X119150000Y-91355000D01*
X147550000Y-116925000D02*
X147550000Y-91355000D01*
X119150000Y-116925000D02*
X147550000Y-116925000D01*
G04 #@! TO.C,J4*
X172360000Y-123190000D02*
G75*
G03*
X172360000Y-123190000I-2180000J0D01*
G01*
X177440000Y-123190000D02*
G75*
G03*
X177440000Y-123190000I-2180000J0D01*
G01*
X167580000Y-127990000D02*
X177860000Y-127990000D01*
X167580000Y-125490000D02*
X177860000Y-125490000D01*
X167580000Y-119290000D02*
X177860000Y-119290000D01*
X167580000Y-117230000D02*
X177860000Y-117230000D01*
X167580000Y-128550000D02*
X177860000Y-128550000D01*
X167580000Y-117230000D02*
X167580000Y-128550000D01*
X177860000Y-117230000D02*
X177860000Y-128550000D01*
X171834000Y-121802000D02*
X171727000Y-121909000D01*
X168898000Y-124737000D02*
X168792000Y-124844000D01*
X171568000Y-121536000D02*
X171461000Y-121643000D01*
X168632000Y-124471000D02*
X168526000Y-124578000D01*
X176914000Y-121802000D02*
X176519000Y-122198000D01*
X174253000Y-124464000D02*
X173873000Y-124844000D01*
X176648000Y-121536000D02*
X176268000Y-121916000D01*
X174002000Y-124182000D02*
X173607000Y-124578000D01*
X167340000Y-128050000D02*
X167340000Y-128790000D01*
X167340000Y-128790000D02*
X167840000Y-128790000D01*
G04 #@! TO.C,J5*
X186330000Y-123190000D02*
G75*
G03*
X186330000Y-123190000I-2180000J0D01*
G01*
X191410000Y-123190000D02*
G75*
G03*
X191410000Y-123190000I-2180000J0D01*
G01*
X181550000Y-127990000D02*
X191830000Y-127990000D01*
X181550000Y-125490000D02*
X191830000Y-125490000D01*
X181550000Y-119290000D02*
X191830000Y-119290000D01*
X181550000Y-117230000D02*
X191830000Y-117230000D01*
X181550000Y-128550000D02*
X191830000Y-128550000D01*
X181550000Y-117230000D02*
X181550000Y-128550000D01*
X191830000Y-117230000D02*
X191830000Y-128550000D01*
X185804000Y-121802000D02*
X185697000Y-121909000D01*
X182868000Y-124737000D02*
X182762000Y-124844000D01*
X185538000Y-121536000D02*
X185431000Y-121643000D01*
X182602000Y-124471000D02*
X182496000Y-124578000D01*
X190884000Y-121802000D02*
X190489000Y-122198000D01*
X188223000Y-124464000D02*
X187843000Y-124844000D01*
X190618000Y-121536000D02*
X190238000Y-121916000D01*
X187972000Y-124182000D02*
X187577000Y-124578000D01*
X181310000Y-128050000D02*
X181310000Y-128790000D01*
X181310000Y-128790000D02*
X181810000Y-128790000D01*
G04 #@! TO.C,J6*
X200300000Y-123190000D02*
G75*
G03*
X200300000Y-123190000I-2180000J0D01*
G01*
X205380000Y-123190000D02*
G75*
G03*
X205380000Y-123190000I-2180000J0D01*
G01*
X195520000Y-127990000D02*
X205800000Y-127990000D01*
X195520000Y-125490000D02*
X205800000Y-125490000D01*
X195520000Y-119290000D02*
X205800000Y-119290000D01*
X195520000Y-117230000D02*
X205800000Y-117230000D01*
X195520000Y-128550000D02*
X205800000Y-128550000D01*
X195520000Y-117230000D02*
X195520000Y-128550000D01*
X205800000Y-117230000D02*
X205800000Y-128550000D01*
X199774000Y-121802000D02*
X199667000Y-121909000D01*
X196838000Y-124737000D02*
X196732000Y-124844000D01*
X199508000Y-121536000D02*
X199401000Y-121643000D01*
X196572000Y-124471000D02*
X196466000Y-124578000D01*
X204854000Y-121802000D02*
X204459000Y-122198000D01*
X202193000Y-124464000D02*
X201813000Y-124844000D01*
X204588000Y-121536000D02*
X204208000Y-121916000D01*
X201942000Y-124182000D02*
X201547000Y-124578000D01*
X195280000Y-128050000D02*
X195280000Y-128790000D01*
X195280000Y-128790000D02*
X195780000Y-128790000D01*
G04 #@! TO.C,J7*
X214270000Y-123190000D02*
G75*
G03*
X214270000Y-123190000I-2180000J0D01*
G01*
X219350000Y-123190000D02*
G75*
G03*
X219350000Y-123190000I-2180000J0D01*
G01*
X209490000Y-127990000D02*
X219770000Y-127990000D01*
X209490000Y-125490000D02*
X219770000Y-125490000D01*
X209490000Y-119290000D02*
X219770000Y-119290000D01*
X209490000Y-117230000D02*
X219770000Y-117230000D01*
X209490000Y-128550000D02*
X219770000Y-128550000D01*
X209490000Y-117230000D02*
X209490000Y-128550000D01*
X219770000Y-117230000D02*
X219770000Y-128550000D01*
X213744000Y-121802000D02*
X213637000Y-121909000D01*
X210808000Y-124737000D02*
X210702000Y-124844000D01*
X213478000Y-121536000D02*
X213371000Y-121643000D01*
X210542000Y-124471000D02*
X210436000Y-124578000D01*
X218824000Y-121802000D02*
X218429000Y-122198000D01*
X216163000Y-124464000D02*
X215783000Y-124844000D01*
X218558000Y-121536000D02*
X218178000Y-121916000D01*
X215912000Y-124182000D02*
X215517000Y-124578000D01*
X209250000Y-128050000D02*
X209250000Y-128790000D01*
X209250000Y-128790000D02*
X209750000Y-128790000D01*
G04 #@! TO.C,J8*
X228240000Y-123190000D02*
G75*
G03*
X228240000Y-123190000I-2180000J0D01*
G01*
X233320000Y-123190000D02*
G75*
G03*
X233320000Y-123190000I-2180000J0D01*
G01*
X223460000Y-127990000D02*
X233740000Y-127990000D01*
X223460000Y-125490000D02*
X233740000Y-125490000D01*
X223460000Y-119290000D02*
X233740000Y-119290000D01*
X223460000Y-117230000D02*
X233740000Y-117230000D01*
X223460000Y-128550000D02*
X233740000Y-128550000D01*
X223460000Y-117230000D02*
X223460000Y-128550000D01*
X233740000Y-117230000D02*
X233740000Y-128550000D01*
X227714000Y-121802000D02*
X227607000Y-121909000D01*
X224778000Y-124737000D02*
X224672000Y-124844000D01*
X227448000Y-121536000D02*
X227341000Y-121643000D01*
X224512000Y-124471000D02*
X224406000Y-124578000D01*
X232794000Y-121802000D02*
X232399000Y-122198000D01*
X230133000Y-124464000D02*
X229753000Y-124844000D01*
X232528000Y-121536000D02*
X232148000Y-121916000D01*
X229882000Y-124182000D02*
X229487000Y-124578000D01*
X223220000Y-128050000D02*
X223220000Y-128790000D01*
X223220000Y-128790000D02*
X223720000Y-128790000D01*
G04 #@! TO.C,K2*
X176403000Y-105918000D02*
X176403000Y-106130000D01*
X171410000Y-105918000D02*
X168910000Y-105918000D01*
X168910000Y-105630000D02*
X168910000Y-105918000D01*
X178220000Y-85630000D02*
X178220000Y-109630000D01*
X167220000Y-85630000D02*
X178220000Y-85630000D01*
X167220000Y-109630000D02*
X178220000Y-109630000D01*
X167220000Y-85630000D02*
X167220000Y-109630000D01*
X171200000Y-90680000D02*
X171200000Y-90170000D01*
X173740000Y-90680000D02*
X171200000Y-90680000D01*
X173740000Y-90170000D02*
X173740000Y-90680000D01*
X173740000Y-89660000D02*
X173740000Y-90170000D01*
X171200000Y-89660000D02*
X173740000Y-89660000D01*
X171200000Y-90170000D02*
X171200000Y-89660000D01*
X168910000Y-88930000D02*
X168910000Y-90170000D01*
X168910000Y-90170000D02*
X171200000Y-90170000D01*
X173740000Y-90170000D02*
X176410000Y-90170000D01*
X176410000Y-90170000D02*
X176410000Y-88930000D01*
X171960000Y-89660000D02*
X172970000Y-90680000D01*
X173450000Y-106553000D02*
X171450000Y-105918000D01*
X176403000Y-105918000D02*
X173482000Y-105918000D01*
G04 #@! TO.C,K3*
X190373000Y-105918000D02*
X190373000Y-106130000D01*
X185380000Y-105918000D02*
X182880000Y-105918000D01*
X182880000Y-105630000D02*
X182880000Y-105918000D01*
X192190000Y-85630000D02*
X192190000Y-109630000D01*
X181190000Y-85630000D02*
X192190000Y-85630000D01*
X181190000Y-109630000D02*
X192190000Y-109630000D01*
X181190000Y-85630000D02*
X181190000Y-109630000D01*
X185170000Y-90680000D02*
X185170000Y-90170000D01*
X187710000Y-90680000D02*
X185170000Y-90680000D01*
X187710000Y-90170000D02*
X187710000Y-90680000D01*
X187710000Y-89660000D02*
X187710000Y-90170000D01*
X185170000Y-89660000D02*
X187710000Y-89660000D01*
X185170000Y-90170000D02*
X185170000Y-89660000D01*
X182880000Y-88930000D02*
X182880000Y-90170000D01*
X182880000Y-90170000D02*
X185170000Y-90170000D01*
X187710000Y-90170000D02*
X190380000Y-90170000D01*
X190380000Y-90170000D02*
X190380000Y-88930000D01*
X185930000Y-89660000D02*
X186940000Y-90680000D01*
X187420000Y-106553000D02*
X185420000Y-105918000D01*
X190373000Y-105918000D02*
X187452000Y-105918000D01*
G04 #@! TO.C,K4*
X204343000Y-105918000D02*
X204343000Y-106130000D01*
X199350000Y-105918000D02*
X196850000Y-105918000D01*
X196850000Y-105630000D02*
X196850000Y-105918000D01*
X206160000Y-85630000D02*
X206160000Y-109630000D01*
X195160000Y-85630000D02*
X206160000Y-85630000D01*
X195160000Y-109630000D02*
X206160000Y-109630000D01*
X195160000Y-85630000D02*
X195160000Y-109630000D01*
X199140000Y-90680000D02*
X199140000Y-90170000D01*
X201680000Y-90680000D02*
X199140000Y-90680000D01*
X201680000Y-90170000D02*
X201680000Y-90680000D01*
X201680000Y-89660000D02*
X201680000Y-90170000D01*
X199140000Y-89660000D02*
X201680000Y-89660000D01*
X199140000Y-90170000D02*
X199140000Y-89660000D01*
X196850000Y-88930000D02*
X196850000Y-90170000D01*
X196850000Y-90170000D02*
X199140000Y-90170000D01*
X201680000Y-90170000D02*
X204350000Y-90170000D01*
X204350000Y-90170000D02*
X204350000Y-88930000D01*
X199900000Y-89660000D02*
X200910000Y-90680000D01*
X201390000Y-106553000D02*
X199390000Y-105918000D01*
X204343000Y-105918000D02*
X201422000Y-105918000D01*
G04 #@! TO.C,K5*
X218313000Y-105918000D02*
X218313000Y-106130000D01*
X213320000Y-105918000D02*
X210820000Y-105918000D01*
X210820000Y-105630000D02*
X210820000Y-105918000D01*
X220130000Y-85630000D02*
X220130000Y-109630000D01*
X209130000Y-85630000D02*
X220130000Y-85630000D01*
X209130000Y-109630000D02*
X220130000Y-109630000D01*
X209130000Y-85630000D02*
X209130000Y-109630000D01*
X213110000Y-90680000D02*
X213110000Y-90170000D01*
X215650000Y-90680000D02*
X213110000Y-90680000D01*
X215650000Y-90170000D02*
X215650000Y-90680000D01*
X215650000Y-89660000D02*
X215650000Y-90170000D01*
X213110000Y-89660000D02*
X215650000Y-89660000D01*
X213110000Y-90170000D02*
X213110000Y-89660000D01*
X210820000Y-88930000D02*
X210820000Y-90170000D01*
X210820000Y-90170000D02*
X213110000Y-90170000D01*
X215650000Y-90170000D02*
X218320000Y-90170000D01*
X218320000Y-90170000D02*
X218320000Y-88930000D01*
X213870000Y-89660000D02*
X214880000Y-90680000D01*
X215360000Y-106553000D02*
X213360000Y-105918000D01*
X218313000Y-105918000D02*
X215392000Y-105918000D01*
G04 #@! TO.C,K6*
X232283000Y-105918000D02*
X232283000Y-106130000D01*
X227290000Y-105918000D02*
X224790000Y-105918000D01*
X224790000Y-105630000D02*
X224790000Y-105918000D01*
X234100000Y-85630000D02*
X234100000Y-109630000D01*
X223100000Y-85630000D02*
X234100000Y-85630000D01*
X223100000Y-109630000D02*
X234100000Y-109630000D01*
X223100000Y-85630000D02*
X223100000Y-109630000D01*
X227080000Y-90680000D02*
X227080000Y-90170000D01*
X229620000Y-90680000D02*
X227080000Y-90680000D01*
X229620000Y-90170000D02*
X229620000Y-90680000D01*
X229620000Y-89660000D02*
X229620000Y-90170000D01*
X227080000Y-89660000D02*
X229620000Y-89660000D01*
X227080000Y-90170000D02*
X227080000Y-89660000D01*
X224790000Y-88930000D02*
X224790000Y-90170000D01*
X224790000Y-90170000D02*
X227080000Y-90170000D01*
X229620000Y-90170000D02*
X232290000Y-90170000D01*
X232290000Y-90170000D02*
X232290000Y-88930000D01*
X227840000Y-89660000D02*
X228850000Y-90680000D01*
X229330000Y-106553000D02*
X227330000Y-105918000D01*
X232283000Y-105918000D02*
X229362000Y-105918000D01*
D11*
G04 #@! TO.C,RV2*
X166660000Y-115680000D02*
X178660000Y-115680000D01*
X166660000Y-111780000D02*
X178660000Y-111780000D01*
X178660000Y-111780000D02*
X178660000Y-115680000D01*
X166660000Y-111780000D02*
X166660000Y-115680000D01*
G04 #@! TO.C,RV3*
X180630000Y-115680000D02*
X192630000Y-115680000D01*
X180630000Y-111780000D02*
X192630000Y-111780000D01*
X192630000Y-111780000D02*
X192630000Y-115680000D01*
X180630000Y-111780000D02*
X180630000Y-115680000D01*
G04 #@! TO.C,RV4*
X194600000Y-115680000D02*
X206600000Y-115680000D01*
X194600000Y-111780000D02*
X206600000Y-111780000D01*
X206600000Y-111780000D02*
X206600000Y-115680000D01*
X194600000Y-111780000D02*
X194600000Y-115680000D01*
G04 #@! TO.C,RV5*
X208570000Y-115680000D02*
X220570000Y-115680000D01*
X208570000Y-111780000D02*
X220570000Y-111780000D01*
X220570000Y-111780000D02*
X220570000Y-115680000D01*
X208570000Y-111780000D02*
X208570000Y-115680000D01*
G04 #@! TO.C,RV6*
X222540000Y-115680000D02*
X234540000Y-115680000D01*
X222540000Y-111780000D02*
X234540000Y-111780000D01*
X234540000Y-111780000D02*
X234540000Y-115680000D01*
X222540000Y-111780000D02*
X222540000Y-115680000D01*
D14*
G04 #@! TO.C,C1*
X70265000Y-96945000D02*
X70265000Y-98195000D01*
X69640000Y-97570000D02*
X70890000Y-97570000D01*
X71130000Y-104525563D02*
X72194437Y-105590000D01*
X71130000Y-96134437D02*
X72194437Y-95070000D01*
X71130000Y-96134437D02*
X71130000Y-98820000D01*
X71130000Y-104525563D02*
X71130000Y-101840000D01*
X72194437Y-105590000D02*
X81650000Y-105590000D01*
X72194437Y-95070000D02*
X81650000Y-95070000D01*
X81650000Y-95070000D02*
X81650000Y-98820000D01*
X81650000Y-105590000D02*
X81650000Y-101840000D01*
G04 #@! TO.C,D5*
X100750000Y-75090000D02*
X100750000Y-72540000D01*
X102450000Y-75090000D02*
X102450000Y-72540000D01*
X100750000Y-75090000D02*
X102450000Y-75090000D01*
G04 #@! TO.C,D6*
X100750000Y-80170000D02*
X102450000Y-80170000D01*
X102450000Y-80170000D02*
X102450000Y-77620000D01*
X100750000Y-80170000D02*
X100750000Y-77620000D01*
G04 #@! TO.C,D7*
X100750000Y-90330000D02*
X102450000Y-90330000D01*
X102450000Y-90330000D02*
X102450000Y-87780000D01*
X100750000Y-90330000D02*
X100750000Y-87780000D01*
G04 #@! TO.C,D8*
X100750000Y-95410000D02*
X100750000Y-92860000D01*
X102450000Y-95410000D02*
X102450000Y-92860000D01*
X100750000Y-95410000D02*
X102450000Y-95410000D01*
G04 #@! TO.C,D9*
X100750000Y-105570000D02*
X102450000Y-105570000D01*
X102450000Y-105570000D02*
X102450000Y-103020000D01*
X100750000Y-105570000D02*
X100750000Y-103020000D01*
G04 #@! TO.C,D10*
X100750000Y-110650000D02*
X100750000Y-108100000D01*
X102450000Y-110650000D02*
X102450000Y-108100000D01*
X100750000Y-110650000D02*
X102450000Y-110650000D01*
G04 #@! TO.C,D12*
X154340000Y-76470000D02*
X154340000Y-78470000D01*
X154340000Y-78470000D02*
X158240000Y-78470000D01*
X154340000Y-76470000D02*
X158240000Y-76470000D01*
G04 #@! TO.C,Q1*
X164410000Y-74190000D02*
X164410000Y-70590000D01*
X163682795Y-70065816D02*
G75*
G02*
X164410000Y-70590000I-1122795J-2324184D01*
G01*
X161461193Y-70033600D02*
G75*
G03*
X159960000Y-72390000I1098807J-2356400D01*
G01*
X161461193Y-74746400D02*
G75*
G02*
X159960000Y-72390000I1098807J2356400D01*
G01*
X163682795Y-74714184D02*
G75*
G03*
X164410000Y-74190000I-1122795J2324184D01*
G01*
G04 #@! TO.C,Q2*
X178380000Y-74190000D02*
X178380000Y-70590000D01*
X177652795Y-74714184D02*
G75*
G03*
X178380000Y-74190000I-1122795J2324184D01*
G01*
X175431193Y-74746400D02*
G75*
G02*
X173930000Y-72390000I1098807J2356400D01*
G01*
X175431193Y-70033600D02*
G75*
G03*
X173930000Y-72390000I1098807J-2356400D01*
G01*
X177652795Y-70065816D02*
G75*
G02*
X178380000Y-70590000I-1122795J-2324184D01*
G01*
G04 #@! TO.C,Q3*
X192350000Y-74190000D02*
X192350000Y-70590000D01*
X191622795Y-74714184D02*
G75*
G03*
X192350000Y-74190000I-1122795J2324184D01*
G01*
X189401193Y-74746400D02*
G75*
G02*
X187900000Y-72390000I1098807J2356400D01*
G01*
X189401193Y-70033600D02*
G75*
G03*
X187900000Y-72390000I1098807J-2356400D01*
G01*
X191622795Y-70065816D02*
G75*
G02*
X192350000Y-70590000I-1122795J-2324184D01*
G01*
G04 #@! TO.C,Q4*
X206320000Y-74190000D02*
X206320000Y-70590000D01*
X205592795Y-70065816D02*
G75*
G02*
X206320000Y-70590000I-1122795J-2324184D01*
G01*
X203371193Y-70033600D02*
G75*
G03*
X201870000Y-72390000I1098807J-2356400D01*
G01*
X203371193Y-74746400D02*
G75*
G02*
X201870000Y-72390000I1098807J2356400D01*
G01*
X205592795Y-74714184D02*
G75*
G03*
X206320000Y-74190000I-1122795J2324184D01*
G01*
G04 #@! TO.C,Q5*
X220290000Y-74190000D02*
X220290000Y-70590000D01*
X219562795Y-74714184D02*
G75*
G03*
X220290000Y-74190000I-1122795J2324184D01*
G01*
X217341193Y-74746400D02*
G75*
G02*
X215840000Y-72390000I1098807J2356400D01*
G01*
X217341193Y-70033600D02*
G75*
G03*
X215840000Y-72390000I1098807J-2356400D01*
G01*
X219562795Y-70065816D02*
G75*
G02*
X220290000Y-70590000I-1122795J-2324184D01*
G01*
G04 #@! TO.C,Q6*
X234260000Y-74190000D02*
X234260000Y-70590000D01*
X233532795Y-70065816D02*
G75*
G02*
X234260000Y-70590000I-1122795J-2324184D01*
G01*
X231311193Y-70033600D02*
G75*
G03*
X229810000Y-72390000I1098807J-2356400D01*
G01*
X231311193Y-74746400D02*
G75*
G02*
X229810000Y-72390000I1098807J2356400D01*
G01*
X233532795Y-74714184D02*
G75*
G03*
X234260000Y-74190000I-1122795J2324184D01*
G01*
G04 #@! TO.C,U1*
X77850000Y-89710000D02*
X77850000Y-90810000D01*
X78120000Y-89710000D02*
X77850000Y-89710000D01*
X78120000Y-88210000D02*
X78120000Y-89710000D01*
X71490000Y-89710000D02*
X71490000Y-92540000D01*
X71220000Y-89710000D02*
X71490000Y-89710000D01*
X71220000Y-88210000D02*
X71220000Y-89710000D01*
G04 #@! TO.C,U4*
X108220000Y-71060000D02*
X106970000Y-71060000D01*
X106970000Y-71060000D02*
X106970000Y-81340000D01*
X106970000Y-81340000D02*
X111470000Y-81340000D01*
X111470000Y-81340000D02*
X111470000Y-71060000D01*
X111470000Y-71060000D02*
X110220000Y-71060000D01*
X110220000Y-71060000D02*
G75*
G02*
X108220000Y-71060000I-1000000J0D01*
G01*
G04 #@! TO.C,U5*
X111470000Y-86300000D02*
X110220000Y-86300000D01*
X111470000Y-96580000D02*
X111470000Y-86300000D01*
X106970000Y-96580000D02*
X111470000Y-96580000D01*
X106970000Y-86300000D02*
X106970000Y-96580000D01*
X108220000Y-86300000D02*
X106970000Y-86300000D01*
X110220000Y-86300000D02*
G75*
G02*
X108220000Y-86300000I-1000000J0D01*
G01*
G04 #@! TO.C,U6*
X108220000Y-101540000D02*
X106970000Y-101540000D01*
X106970000Y-101540000D02*
X106970000Y-111820000D01*
X106970000Y-111820000D02*
X111470000Y-111820000D01*
X111470000Y-111820000D02*
X111470000Y-101540000D01*
X111470000Y-101540000D02*
X110220000Y-101540000D01*
X110220000Y-101540000D02*
G75*
G02*
X108220000Y-101540000I-1000000J0D01*
G01*
G04 #@! TO.C,C2*
X79675000Y-111872500D02*
X79675000Y-107787500D01*
X77805000Y-111872500D02*
X79675000Y-111872500D01*
X77805000Y-107787500D02*
X77805000Y-111872500D01*
G04 #@! TO.C,C3*
X80545000Y-90751252D02*
X80545000Y-90228748D01*
X82015000Y-90751252D02*
X82015000Y-90228748D01*
G04 #@! TO.C,C4*
X96461252Y-73125000D02*
X95938748Y-73125000D01*
X96461252Y-71655000D02*
X95938748Y-71655000D01*
G04 #@! TO.C,C5*
X96461252Y-75465000D02*
X95938748Y-75465000D01*
X96461252Y-76935000D02*
X95938748Y-76935000D01*
G04 #@! TO.C,C6*
X96461252Y-88365000D02*
X95938748Y-88365000D01*
X96461252Y-86895000D02*
X95938748Y-86895000D01*
G04 #@! TO.C,C7*
X96461252Y-90705000D02*
X95938748Y-90705000D01*
X96461252Y-92175000D02*
X95938748Y-92175000D01*
G04 #@! TO.C,C8*
X96461252Y-103605000D02*
X95938748Y-103605000D01*
X96461252Y-102135000D02*
X95938748Y-102135000D01*
G04 #@! TO.C,C9*
X96461252Y-105945000D02*
X95938748Y-105945000D01*
X96461252Y-107415000D02*
X95938748Y-107415000D01*
G04 #@! TO.C,D2*
X77440000Y-67845000D02*
X75155000Y-67845000D01*
X77440000Y-69315000D02*
X77440000Y-67845000D01*
X75155000Y-69315000D02*
X77440000Y-69315000D01*
G04 #@! TO.C,D3*
X75155000Y-79475000D02*
X77440000Y-79475000D01*
X77440000Y-79475000D02*
X77440000Y-78005000D01*
X77440000Y-78005000D02*
X75155000Y-78005000D01*
G04 #@! TO.C,D4*
X75155000Y-74395000D02*
X77440000Y-74395000D01*
X77440000Y-74395000D02*
X77440000Y-72925000D01*
X77440000Y-72925000D02*
X75155000Y-72925000D01*
G04 #@! TO.C,D11*
X160235000Y-83085000D02*
X157950000Y-83085000D01*
X160235000Y-84555000D02*
X160235000Y-83085000D01*
X157950000Y-84555000D02*
X160235000Y-84555000D01*
G04 #@! TO.C,D13*
X174205000Y-83085000D02*
X171920000Y-83085000D01*
X174205000Y-84555000D02*
X174205000Y-83085000D01*
X171920000Y-84555000D02*
X174205000Y-84555000D01*
G04 #@! TO.C,D14*
X168310000Y-76470000D02*
X168310000Y-78470000D01*
X168310000Y-78470000D02*
X172210000Y-78470000D01*
X168310000Y-76470000D02*
X172210000Y-76470000D01*
G04 #@! TO.C,D15*
X185890000Y-84555000D02*
X188175000Y-84555000D01*
X188175000Y-84555000D02*
X188175000Y-83085000D01*
X188175000Y-83085000D02*
X185890000Y-83085000D01*
G04 #@! TO.C,D16*
X182280000Y-76470000D02*
X186180000Y-76470000D01*
X182280000Y-78470000D02*
X186180000Y-78470000D01*
X182280000Y-76470000D02*
X182280000Y-78470000D01*
G04 #@! TO.C,D17*
X202145000Y-83085000D02*
X199860000Y-83085000D01*
X202145000Y-84555000D02*
X202145000Y-83085000D01*
X199860000Y-84555000D02*
X202145000Y-84555000D01*
G04 #@! TO.C,D18*
X196250000Y-76470000D02*
X196250000Y-78470000D01*
X196250000Y-78470000D02*
X200150000Y-78470000D01*
X196250000Y-76470000D02*
X200150000Y-76470000D01*
G04 #@! TO.C,D19*
X216115000Y-83085000D02*
X213830000Y-83085000D01*
X216115000Y-84555000D02*
X216115000Y-83085000D01*
X213830000Y-84555000D02*
X216115000Y-84555000D01*
G04 #@! TO.C,D20*
X210220000Y-76470000D02*
X210220000Y-78470000D01*
X210220000Y-78470000D02*
X214120000Y-78470000D01*
X210220000Y-76470000D02*
X214120000Y-76470000D01*
G04 #@! TO.C,D21*
X227800000Y-84555000D02*
X230085000Y-84555000D01*
X230085000Y-84555000D02*
X230085000Y-83085000D01*
X230085000Y-83085000D02*
X227800000Y-83085000D01*
G04 #@! TO.C,D22*
X224190000Y-76470000D02*
X228090000Y-76470000D01*
X224190000Y-78470000D02*
X228090000Y-78470000D01*
X224190000Y-76470000D02*
X224190000Y-78470000D01*
G04 #@! TO.C,R19*
X169595436Y-81380000D02*
X170049564Y-81380000D01*
X169595436Y-79910000D02*
X170049564Y-79910000D01*
G04 #@! TO.C,R21*
X183565436Y-79910000D02*
X184019564Y-79910000D01*
X183565436Y-81380000D02*
X184019564Y-81380000D01*
G04 #@! TO.C,R23*
X197535436Y-81380000D02*
X197989564Y-81380000D01*
X197535436Y-79910000D02*
X197989564Y-79910000D01*
G04 #@! TO.C,R25*
X211505436Y-79910000D02*
X211959564Y-79910000D01*
X211505436Y-81380000D02*
X211959564Y-81380000D01*
G04 #@! TO.C,R27*
X225475436Y-79910000D02*
X225929564Y-79910000D01*
X225475436Y-81380000D02*
X225929564Y-81380000D01*
G04 #@! TO.C,D1*
D11*
X74191904Y-113102380D02*
X74191904Y-112102380D01*
X74430000Y-112102380D01*
X74572857Y-112150000D01*
X74668095Y-112245238D01*
X74715714Y-112340476D01*
X74763333Y-112530952D01*
X74763333Y-112673809D01*
X74715714Y-112864285D01*
X74668095Y-112959523D01*
X74572857Y-113054761D01*
X74430000Y-113102380D01*
X74191904Y-113102380D01*
X75715714Y-113102380D02*
X75144285Y-113102380D01*
X75430000Y-113102380D02*
X75430000Y-112102380D01*
X75334761Y-112245238D01*
X75239523Y-112340476D01*
X75144285Y-112388095D01*
G04 #@! TO.C,R17*
X158742142Y-81097380D02*
X158408809Y-80621190D01*
X158170714Y-81097380D02*
X158170714Y-80097380D01*
X158551666Y-80097380D01*
X158646904Y-80145000D01*
X158694523Y-80192619D01*
X158742142Y-80287857D01*
X158742142Y-80430714D01*
X158694523Y-80525952D01*
X158646904Y-80573571D01*
X158551666Y-80621190D01*
X158170714Y-80621190D01*
X159694523Y-81097380D02*
X159123095Y-81097380D01*
X159408809Y-81097380D02*
X159408809Y-80097380D01*
X159313571Y-80240238D01*
X159218333Y-80335476D01*
X159123095Y-80383095D01*
X160027857Y-80097380D02*
X160694523Y-80097380D01*
X160265952Y-81097380D01*
G04 #@! TO.C,R26*
X225059642Y-74492380D02*
X224726309Y-74016190D01*
X224488214Y-74492380D02*
X224488214Y-73492380D01*
X224869166Y-73492380D01*
X224964404Y-73540000D01*
X225012023Y-73587619D01*
X225059642Y-73682857D01*
X225059642Y-73825714D01*
X225012023Y-73920952D01*
X224964404Y-73968571D01*
X224869166Y-74016190D01*
X224488214Y-74016190D01*
X225440595Y-73587619D02*
X225488214Y-73540000D01*
X225583452Y-73492380D01*
X225821547Y-73492380D01*
X225916785Y-73540000D01*
X225964404Y-73587619D01*
X226012023Y-73682857D01*
X226012023Y-73778095D01*
X225964404Y-73920952D01*
X225392976Y-74492380D01*
X226012023Y-74492380D01*
X226869166Y-73492380D02*
X226678690Y-73492380D01*
X226583452Y-73540000D01*
X226535833Y-73587619D01*
X226440595Y-73730476D01*
X226392976Y-73920952D01*
X226392976Y-74301904D01*
X226440595Y-74397142D01*
X226488214Y-74444761D01*
X226583452Y-74492380D01*
X226773928Y-74492380D01*
X226869166Y-74444761D01*
X226916785Y-74397142D01*
X226964404Y-74301904D01*
X226964404Y-74063809D01*
X226916785Y-73968571D01*
X226869166Y-73920952D01*
X226773928Y-73873333D01*
X226583452Y-73873333D01*
X226488214Y-73920952D01*
X226440595Y-73968571D01*
X226392976Y-74063809D01*
G04 #@! TO.C,R24*
X211089642Y-74492380D02*
X210756309Y-74016190D01*
X210518214Y-74492380D02*
X210518214Y-73492380D01*
X210899166Y-73492380D01*
X210994404Y-73540000D01*
X211042023Y-73587619D01*
X211089642Y-73682857D01*
X211089642Y-73825714D01*
X211042023Y-73920952D01*
X210994404Y-73968571D01*
X210899166Y-74016190D01*
X210518214Y-74016190D01*
X211470595Y-73587619D02*
X211518214Y-73540000D01*
X211613452Y-73492380D01*
X211851547Y-73492380D01*
X211946785Y-73540000D01*
X211994404Y-73587619D01*
X212042023Y-73682857D01*
X212042023Y-73778095D01*
X211994404Y-73920952D01*
X211422976Y-74492380D01*
X212042023Y-74492380D01*
X212899166Y-73825714D02*
X212899166Y-74492380D01*
X212661071Y-73444761D02*
X212422976Y-74159047D01*
X213042023Y-74159047D01*
G04 #@! TO.C,R22*
X197119642Y-74492380D02*
X196786309Y-74016190D01*
X196548214Y-74492380D02*
X196548214Y-73492380D01*
X196929166Y-73492380D01*
X197024404Y-73540000D01*
X197072023Y-73587619D01*
X197119642Y-73682857D01*
X197119642Y-73825714D01*
X197072023Y-73920952D01*
X197024404Y-73968571D01*
X196929166Y-74016190D01*
X196548214Y-74016190D01*
X197500595Y-73587619D02*
X197548214Y-73540000D01*
X197643452Y-73492380D01*
X197881547Y-73492380D01*
X197976785Y-73540000D01*
X198024404Y-73587619D01*
X198072023Y-73682857D01*
X198072023Y-73778095D01*
X198024404Y-73920952D01*
X197452976Y-74492380D01*
X198072023Y-74492380D01*
X198452976Y-73587619D02*
X198500595Y-73540000D01*
X198595833Y-73492380D01*
X198833928Y-73492380D01*
X198929166Y-73540000D01*
X198976785Y-73587619D01*
X199024404Y-73682857D01*
X199024404Y-73778095D01*
X198976785Y-73920952D01*
X198405357Y-74492380D01*
X199024404Y-74492380D01*
G04 #@! TO.C,R20*
X183149642Y-74492380D02*
X182816309Y-74016190D01*
X182578214Y-74492380D02*
X182578214Y-73492380D01*
X182959166Y-73492380D01*
X183054404Y-73540000D01*
X183102023Y-73587619D01*
X183149642Y-73682857D01*
X183149642Y-73825714D01*
X183102023Y-73920952D01*
X183054404Y-73968571D01*
X182959166Y-74016190D01*
X182578214Y-74016190D01*
X183530595Y-73587619D02*
X183578214Y-73540000D01*
X183673452Y-73492380D01*
X183911547Y-73492380D01*
X184006785Y-73540000D01*
X184054404Y-73587619D01*
X184102023Y-73682857D01*
X184102023Y-73778095D01*
X184054404Y-73920952D01*
X183482976Y-74492380D01*
X184102023Y-74492380D01*
X184721071Y-73492380D02*
X184816309Y-73492380D01*
X184911547Y-73540000D01*
X184959166Y-73587619D01*
X185006785Y-73682857D01*
X185054404Y-73873333D01*
X185054404Y-74111428D01*
X185006785Y-74301904D01*
X184959166Y-74397142D01*
X184911547Y-74444761D01*
X184816309Y-74492380D01*
X184721071Y-74492380D01*
X184625833Y-74444761D01*
X184578214Y-74397142D01*
X184530595Y-74301904D01*
X184482976Y-74111428D01*
X184482976Y-73873333D01*
X184530595Y-73682857D01*
X184578214Y-73587619D01*
X184625833Y-73540000D01*
X184721071Y-73492380D01*
G04 #@! TO.C,R18*
X169179642Y-74492380D02*
X168846309Y-74016190D01*
X168608214Y-74492380D02*
X168608214Y-73492380D01*
X168989166Y-73492380D01*
X169084404Y-73540000D01*
X169132023Y-73587619D01*
X169179642Y-73682857D01*
X169179642Y-73825714D01*
X169132023Y-73920952D01*
X169084404Y-73968571D01*
X168989166Y-74016190D01*
X168608214Y-74016190D01*
X170132023Y-74492380D02*
X169560595Y-74492380D01*
X169846309Y-74492380D02*
X169846309Y-73492380D01*
X169751071Y-73635238D01*
X169655833Y-73730476D01*
X169560595Y-73778095D01*
X170703452Y-73920952D02*
X170608214Y-73873333D01*
X170560595Y-73825714D01*
X170512976Y-73730476D01*
X170512976Y-73682857D01*
X170560595Y-73587619D01*
X170608214Y-73540000D01*
X170703452Y-73492380D01*
X170893928Y-73492380D01*
X170989166Y-73540000D01*
X171036785Y-73587619D01*
X171084404Y-73682857D01*
X171084404Y-73730476D01*
X171036785Y-73825714D01*
X170989166Y-73873333D01*
X170893928Y-73920952D01*
X170703452Y-73920952D01*
X170608214Y-73968571D01*
X170560595Y-74016190D01*
X170512976Y-74111428D01*
X170512976Y-74301904D01*
X170560595Y-74397142D01*
X170608214Y-74444761D01*
X170703452Y-74492380D01*
X170893928Y-74492380D01*
X170989166Y-74444761D01*
X171036785Y-74397142D01*
X171084404Y-74301904D01*
X171084404Y-74111428D01*
X171036785Y-74016190D01*
X170989166Y-73968571D01*
X170893928Y-73920952D01*
G04 #@! TO.C,R16*
X155209642Y-74492380D02*
X154876309Y-74016190D01*
X154638214Y-74492380D02*
X154638214Y-73492380D01*
X155019166Y-73492380D01*
X155114404Y-73540000D01*
X155162023Y-73587619D01*
X155209642Y-73682857D01*
X155209642Y-73825714D01*
X155162023Y-73920952D01*
X155114404Y-73968571D01*
X155019166Y-74016190D01*
X154638214Y-74016190D01*
X156162023Y-74492380D02*
X155590595Y-74492380D01*
X155876309Y-74492380D02*
X155876309Y-73492380D01*
X155781071Y-73635238D01*
X155685833Y-73730476D01*
X155590595Y-73778095D01*
X157019166Y-73492380D02*
X156828690Y-73492380D01*
X156733452Y-73540000D01*
X156685833Y-73587619D01*
X156590595Y-73730476D01*
X156542976Y-73920952D01*
X156542976Y-74301904D01*
X156590595Y-74397142D01*
X156638214Y-74444761D01*
X156733452Y-74492380D01*
X156923928Y-74492380D01*
X157019166Y-74444761D01*
X157066785Y-74397142D01*
X157114404Y-74301904D01*
X157114404Y-74063809D01*
X157066785Y-73968571D01*
X157019166Y-73920952D01*
X156923928Y-73873333D01*
X156733452Y-73873333D01*
X156638214Y-73920952D01*
X156590595Y-73968571D01*
X156542976Y-74063809D01*
G04 #@! TO.C,R15*
X116197142Y-112212380D02*
X115863809Y-111736190D01*
X115625714Y-112212380D02*
X115625714Y-111212380D01*
X116006666Y-111212380D01*
X116101904Y-111260000D01*
X116149523Y-111307619D01*
X116197142Y-111402857D01*
X116197142Y-111545714D01*
X116149523Y-111640952D01*
X116101904Y-111688571D01*
X116006666Y-111736190D01*
X115625714Y-111736190D01*
X117149523Y-112212380D02*
X116578095Y-112212380D01*
X116863809Y-112212380D02*
X116863809Y-111212380D01*
X116768571Y-111355238D01*
X116673333Y-111450476D01*
X116578095Y-111498095D01*
X118054285Y-111212380D02*
X117578095Y-111212380D01*
X117530476Y-111688571D01*
X117578095Y-111640952D01*
X117673333Y-111593333D01*
X117911428Y-111593333D01*
X118006666Y-111640952D01*
X118054285Y-111688571D01*
X118101904Y-111783809D01*
X118101904Y-112021904D01*
X118054285Y-112117142D01*
X118006666Y-112164761D01*
X117911428Y-112212380D01*
X117673333Y-112212380D01*
X117578095Y-112164761D01*
X117530476Y-112117142D01*
G04 #@! TO.C,R14*
X95519642Y-112592380D02*
X95186309Y-112116190D01*
X94948214Y-112592380D02*
X94948214Y-111592380D01*
X95329166Y-111592380D01*
X95424404Y-111640000D01*
X95472023Y-111687619D01*
X95519642Y-111782857D01*
X95519642Y-111925714D01*
X95472023Y-112020952D01*
X95424404Y-112068571D01*
X95329166Y-112116190D01*
X94948214Y-112116190D01*
X96472023Y-112592380D02*
X95900595Y-112592380D01*
X96186309Y-112592380D02*
X96186309Y-111592380D01*
X96091071Y-111735238D01*
X95995833Y-111830476D01*
X95900595Y-111878095D01*
X97329166Y-111925714D02*
X97329166Y-112592380D01*
X97091071Y-111544761D02*
X96852976Y-112259047D01*
X97472023Y-112259047D01*
G04 #@! TO.C,R13*
X116197142Y-105227380D02*
X115863809Y-104751190D01*
X115625714Y-105227380D02*
X115625714Y-104227380D01*
X116006666Y-104227380D01*
X116101904Y-104275000D01*
X116149523Y-104322619D01*
X116197142Y-104417857D01*
X116197142Y-104560714D01*
X116149523Y-104655952D01*
X116101904Y-104703571D01*
X116006666Y-104751190D01*
X115625714Y-104751190D01*
X117149523Y-105227380D02*
X116578095Y-105227380D01*
X116863809Y-105227380D02*
X116863809Y-104227380D01*
X116768571Y-104370238D01*
X116673333Y-104465476D01*
X116578095Y-104513095D01*
X117482857Y-104227380D02*
X118101904Y-104227380D01*
X117768571Y-104608333D01*
X117911428Y-104608333D01*
X118006666Y-104655952D01*
X118054285Y-104703571D01*
X118101904Y-104798809D01*
X118101904Y-105036904D01*
X118054285Y-105132142D01*
X118006666Y-105179761D01*
X117911428Y-105227380D01*
X117625714Y-105227380D01*
X117530476Y-105179761D01*
X117482857Y-105132142D01*
G04 #@! TO.C,R12*
X95519642Y-101162380D02*
X95186309Y-100686190D01*
X94948214Y-101162380D02*
X94948214Y-100162380D01*
X95329166Y-100162380D01*
X95424404Y-100210000D01*
X95472023Y-100257619D01*
X95519642Y-100352857D01*
X95519642Y-100495714D01*
X95472023Y-100590952D01*
X95424404Y-100638571D01*
X95329166Y-100686190D01*
X94948214Y-100686190D01*
X96472023Y-101162380D02*
X95900595Y-101162380D01*
X96186309Y-101162380D02*
X96186309Y-100162380D01*
X96091071Y-100305238D01*
X95995833Y-100400476D01*
X95900595Y-100448095D01*
X96852976Y-100257619D02*
X96900595Y-100210000D01*
X96995833Y-100162380D01*
X97233928Y-100162380D01*
X97329166Y-100210000D01*
X97376785Y-100257619D01*
X97424404Y-100352857D01*
X97424404Y-100448095D01*
X97376785Y-100590952D01*
X96805357Y-101162380D01*
X97424404Y-101162380D01*
G04 #@! TO.C,R11*
X116197142Y-96972380D02*
X115863809Y-96496190D01*
X115625714Y-96972380D02*
X115625714Y-95972380D01*
X116006666Y-95972380D01*
X116101904Y-96020000D01*
X116149523Y-96067619D01*
X116197142Y-96162857D01*
X116197142Y-96305714D01*
X116149523Y-96400952D01*
X116101904Y-96448571D01*
X116006666Y-96496190D01*
X115625714Y-96496190D01*
X117149523Y-96972380D02*
X116578095Y-96972380D01*
X116863809Y-96972380D02*
X116863809Y-95972380D01*
X116768571Y-96115238D01*
X116673333Y-96210476D01*
X116578095Y-96258095D01*
X118101904Y-96972380D02*
X117530476Y-96972380D01*
X117816190Y-96972380D02*
X117816190Y-95972380D01*
X117720952Y-96115238D01*
X117625714Y-96210476D01*
X117530476Y-96258095D01*
G04 #@! TO.C,R10*
X95519642Y-97352380D02*
X95186309Y-96876190D01*
X94948214Y-97352380D02*
X94948214Y-96352380D01*
X95329166Y-96352380D01*
X95424404Y-96400000D01*
X95472023Y-96447619D01*
X95519642Y-96542857D01*
X95519642Y-96685714D01*
X95472023Y-96780952D01*
X95424404Y-96828571D01*
X95329166Y-96876190D01*
X94948214Y-96876190D01*
X96472023Y-97352380D02*
X95900595Y-97352380D01*
X96186309Y-97352380D02*
X96186309Y-96352380D01*
X96091071Y-96495238D01*
X95995833Y-96590476D01*
X95900595Y-96638095D01*
X97091071Y-96352380D02*
X97186309Y-96352380D01*
X97281547Y-96400000D01*
X97329166Y-96447619D01*
X97376785Y-96542857D01*
X97424404Y-96733333D01*
X97424404Y-96971428D01*
X97376785Y-97161904D01*
X97329166Y-97257142D01*
X97281547Y-97304761D01*
X97186309Y-97352380D01*
X97091071Y-97352380D01*
X96995833Y-97304761D01*
X96948214Y-97257142D01*
X96900595Y-97161904D01*
X96852976Y-96971428D01*
X96852976Y-96733333D01*
X96900595Y-96542857D01*
X96948214Y-96447619D01*
X96995833Y-96400000D01*
X97091071Y-96352380D01*
G04 #@! TO.C,R9*
X116673333Y-89987380D02*
X116340000Y-89511190D01*
X116101904Y-89987380D02*
X116101904Y-88987380D01*
X116482857Y-88987380D01*
X116578095Y-89035000D01*
X116625714Y-89082619D01*
X116673333Y-89177857D01*
X116673333Y-89320714D01*
X116625714Y-89415952D01*
X116578095Y-89463571D01*
X116482857Y-89511190D01*
X116101904Y-89511190D01*
X117149523Y-89987380D02*
X117340000Y-89987380D01*
X117435238Y-89939761D01*
X117482857Y-89892142D01*
X117578095Y-89749285D01*
X117625714Y-89558809D01*
X117625714Y-89177857D01*
X117578095Y-89082619D01*
X117530476Y-89035000D01*
X117435238Y-88987380D01*
X117244761Y-88987380D01*
X117149523Y-89035000D01*
X117101904Y-89082619D01*
X117054285Y-89177857D01*
X117054285Y-89415952D01*
X117101904Y-89511190D01*
X117149523Y-89558809D01*
X117244761Y-89606428D01*
X117435238Y-89606428D01*
X117530476Y-89558809D01*
X117578095Y-89511190D01*
X117625714Y-89415952D01*
G04 #@! TO.C,R8*
X95995833Y-85922380D02*
X95662500Y-85446190D01*
X95424404Y-85922380D02*
X95424404Y-84922380D01*
X95805357Y-84922380D01*
X95900595Y-84970000D01*
X95948214Y-85017619D01*
X95995833Y-85112857D01*
X95995833Y-85255714D01*
X95948214Y-85350952D01*
X95900595Y-85398571D01*
X95805357Y-85446190D01*
X95424404Y-85446190D01*
X96567261Y-85350952D02*
X96472023Y-85303333D01*
X96424404Y-85255714D01*
X96376785Y-85160476D01*
X96376785Y-85112857D01*
X96424404Y-85017619D01*
X96472023Y-84970000D01*
X96567261Y-84922380D01*
X96757738Y-84922380D01*
X96852976Y-84970000D01*
X96900595Y-85017619D01*
X96948214Y-85112857D01*
X96948214Y-85160476D01*
X96900595Y-85255714D01*
X96852976Y-85303333D01*
X96757738Y-85350952D01*
X96567261Y-85350952D01*
X96472023Y-85398571D01*
X96424404Y-85446190D01*
X96376785Y-85541428D01*
X96376785Y-85731904D01*
X96424404Y-85827142D01*
X96472023Y-85874761D01*
X96567261Y-85922380D01*
X96757738Y-85922380D01*
X96852976Y-85874761D01*
X96900595Y-85827142D01*
X96948214Y-85731904D01*
X96948214Y-85541428D01*
X96900595Y-85446190D01*
X96852976Y-85398571D01*
X96757738Y-85350952D01*
G04 #@! TO.C,R7*
X116673333Y-81732380D02*
X116340000Y-81256190D01*
X116101904Y-81732380D02*
X116101904Y-80732380D01*
X116482857Y-80732380D01*
X116578095Y-80780000D01*
X116625714Y-80827619D01*
X116673333Y-80922857D01*
X116673333Y-81065714D01*
X116625714Y-81160952D01*
X116578095Y-81208571D01*
X116482857Y-81256190D01*
X116101904Y-81256190D01*
X117006666Y-80732380D02*
X117673333Y-80732380D01*
X117244761Y-81732380D01*
G04 #@! TO.C,R6*
X95995833Y-82112380D02*
X95662500Y-81636190D01*
X95424404Y-82112380D02*
X95424404Y-81112380D01*
X95805357Y-81112380D01*
X95900595Y-81160000D01*
X95948214Y-81207619D01*
X95995833Y-81302857D01*
X95995833Y-81445714D01*
X95948214Y-81540952D01*
X95900595Y-81588571D01*
X95805357Y-81636190D01*
X95424404Y-81636190D01*
X96852976Y-81112380D02*
X96662500Y-81112380D01*
X96567261Y-81160000D01*
X96519642Y-81207619D01*
X96424404Y-81350476D01*
X96376785Y-81540952D01*
X96376785Y-81921904D01*
X96424404Y-82017142D01*
X96472023Y-82064761D01*
X96567261Y-82112380D01*
X96757738Y-82112380D01*
X96852976Y-82064761D01*
X96900595Y-82017142D01*
X96948214Y-81921904D01*
X96948214Y-81683809D01*
X96900595Y-81588571D01*
X96852976Y-81540952D01*
X96757738Y-81493333D01*
X96567261Y-81493333D01*
X96472023Y-81540952D01*
X96424404Y-81588571D01*
X96376785Y-81683809D01*
G04 #@! TO.C,R5*
X116673333Y-74747380D02*
X116340000Y-74271190D01*
X116101904Y-74747380D02*
X116101904Y-73747380D01*
X116482857Y-73747380D01*
X116578095Y-73795000D01*
X116625714Y-73842619D01*
X116673333Y-73937857D01*
X116673333Y-74080714D01*
X116625714Y-74175952D01*
X116578095Y-74223571D01*
X116482857Y-74271190D01*
X116101904Y-74271190D01*
X117578095Y-73747380D02*
X117101904Y-73747380D01*
X117054285Y-74223571D01*
X117101904Y-74175952D01*
X117197142Y-74128333D01*
X117435238Y-74128333D01*
X117530476Y-74175952D01*
X117578095Y-74223571D01*
X117625714Y-74318809D01*
X117625714Y-74556904D01*
X117578095Y-74652142D01*
X117530476Y-74699761D01*
X117435238Y-74747380D01*
X117197142Y-74747380D01*
X117101904Y-74699761D01*
X117054285Y-74652142D01*
G04 #@! TO.C,R4*
X95995833Y-70682380D02*
X95662500Y-70206190D01*
X95424404Y-70682380D02*
X95424404Y-69682380D01*
X95805357Y-69682380D01*
X95900595Y-69730000D01*
X95948214Y-69777619D01*
X95995833Y-69872857D01*
X95995833Y-70015714D01*
X95948214Y-70110952D01*
X95900595Y-70158571D01*
X95805357Y-70206190D01*
X95424404Y-70206190D01*
X96852976Y-70015714D02*
X96852976Y-70682380D01*
X96614880Y-69634761D02*
X96376785Y-70349047D01*
X96995833Y-70349047D01*
G04 #@! TO.C,R3*
X68413333Y-72207380D02*
X68080000Y-71731190D01*
X67841904Y-72207380D02*
X67841904Y-71207380D01*
X68222857Y-71207380D01*
X68318095Y-71255000D01*
X68365714Y-71302619D01*
X68413333Y-71397857D01*
X68413333Y-71540714D01*
X68365714Y-71635952D01*
X68318095Y-71683571D01*
X68222857Y-71731190D01*
X67841904Y-71731190D01*
X68746666Y-71207380D02*
X69365714Y-71207380D01*
X69032380Y-71588333D01*
X69175238Y-71588333D01*
X69270476Y-71635952D01*
X69318095Y-71683571D01*
X69365714Y-71778809D01*
X69365714Y-72016904D01*
X69318095Y-72112142D01*
X69270476Y-72159761D01*
X69175238Y-72207380D01*
X68889523Y-72207380D01*
X68794285Y-72159761D01*
X68746666Y-72112142D01*
G04 #@! TO.C,R2*
X68413333Y-77287380D02*
X68080000Y-76811190D01*
X67841904Y-77287380D02*
X67841904Y-76287380D01*
X68222857Y-76287380D01*
X68318095Y-76335000D01*
X68365714Y-76382619D01*
X68413333Y-76477857D01*
X68413333Y-76620714D01*
X68365714Y-76715952D01*
X68318095Y-76763571D01*
X68222857Y-76811190D01*
X67841904Y-76811190D01*
X68794285Y-76382619D02*
X68841904Y-76335000D01*
X68937142Y-76287380D01*
X69175238Y-76287380D01*
X69270476Y-76335000D01*
X69318095Y-76382619D01*
X69365714Y-76477857D01*
X69365714Y-76573095D01*
X69318095Y-76715952D01*
X68746666Y-77287380D01*
X69365714Y-77287380D01*
G04 #@! TO.C,R1*
X68413333Y-67127380D02*
X68080000Y-66651190D01*
X67841904Y-67127380D02*
X67841904Y-66127380D01*
X68222857Y-66127380D01*
X68318095Y-66175000D01*
X68365714Y-66222619D01*
X68413333Y-66317857D01*
X68413333Y-66460714D01*
X68365714Y-66555952D01*
X68318095Y-66603571D01*
X68222857Y-66651190D01*
X67841904Y-66651190D01*
X69365714Y-67127380D02*
X68794285Y-67127380D01*
X69080000Y-67127380D02*
X69080000Y-66127380D01*
X68984761Y-66270238D01*
X68889523Y-66365476D01*
X68794285Y-66413095D01*
G04 #@! TO.C,J2*
X84756666Y-117562380D02*
X84756666Y-118276666D01*
X84709047Y-118419523D01*
X84613809Y-118514761D01*
X84470952Y-118562380D01*
X84375714Y-118562380D01*
X85185238Y-117657619D02*
X85232857Y-117610000D01*
X85328095Y-117562380D01*
X85566190Y-117562380D01*
X85661428Y-117610000D01*
X85709047Y-117657619D01*
X85756666Y-117752857D01*
X85756666Y-117848095D01*
X85709047Y-117990952D01*
X85137619Y-118562380D01*
X85756666Y-118562380D01*
G04 #@! TO.C,K1*
X153566904Y-84907380D02*
X153566904Y-83907380D01*
X154138333Y-84907380D02*
X153709761Y-84335952D01*
X154138333Y-83907380D02*
X153566904Y-84478809D01*
X155090714Y-84907380D02*
X154519285Y-84907380D01*
X154805000Y-84907380D02*
X154805000Y-83907380D01*
X154709761Y-84050238D01*
X154614523Y-84145476D01*
X154519285Y-84193095D01*
G04 #@! TO.C,U3*
X143158095Y-87082380D02*
X143158095Y-87891904D01*
X143205714Y-87987142D01*
X143253333Y-88034761D01*
X143348571Y-88082380D01*
X143539047Y-88082380D01*
X143634285Y-88034761D01*
X143681904Y-87987142D01*
X143729523Y-87891904D01*
X143729523Y-87082380D01*
X144110476Y-87082380D02*
X144729523Y-87082380D01*
X144396190Y-87463333D01*
X144539047Y-87463333D01*
X144634285Y-87510952D01*
X144681904Y-87558571D01*
X144729523Y-87653809D01*
X144729523Y-87891904D01*
X144681904Y-87987142D01*
X144634285Y-88034761D01*
X144539047Y-88082380D01*
X144253333Y-88082380D01*
X144158095Y-88034761D01*
X144110476Y-87987142D01*
G04 #@! TO.C,RV1*
X158154761Y-113482380D02*
X157821428Y-113006190D01*
X157583333Y-113482380D02*
X157583333Y-112482380D01*
X157964285Y-112482380D01*
X158059523Y-112530000D01*
X158107142Y-112577619D01*
X158154761Y-112672857D01*
X158154761Y-112815714D01*
X158107142Y-112910952D01*
X158059523Y-112958571D01*
X157964285Y-113006190D01*
X157583333Y-113006190D01*
X158440476Y-112482380D02*
X158773809Y-113482380D01*
X159107142Y-112482380D01*
X159964285Y-113482380D02*
X159392857Y-113482380D01*
X159678571Y-113482380D02*
X159678571Y-112482380D01*
X159583333Y-112625238D01*
X159488095Y-112720476D01*
X159392857Y-112768095D01*
G04 #@! TO.C,J3*
X152066666Y-117562380D02*
X152066666Y-118276666D01*
X152019047Y-118419523D01*
X151923809Y-118514761D01*
X151780952Y-118562380D01*
X151685714Y-118562380D01*
X152447619Y-117562380D02*
X153066666Y-117562380D01*
X152733333Y-117943333D01*
X152876190Y-117943333D01*
X152971428Y-117990952D01*
X153019047Y-118038571D01*
X153066666Y-118133809D01*
X153066666Y-118371904D01*
X153019047Y-118467142D01*
X152971428Y-118514761D01*
X152876190Y-118562380D01*
X152590476Y-118562380D01*
X152495238Y-118514761D01*
X152447619Y-118467142D01*
G04 #@! TO.C,J1*
X68246666Y-117562380D02*
X68246666Y-118276666D01*
X68199047Y-118419523D01*
X68103809Y-118514761D01*
X67960952Y-118562380D01*
X67865714Y-118562380D01*
X69246666Y-118562380D02*
X68675238Y-118562380D01*
X68960952Y-118562380D02*
X68960952Y-117562380D01*
X68865714Y-117705238D01*
X68770476Y-117800476D01*
X68675238Y-117848095D01*
G04 #@! TO.C,U2*
X119253095Y-89622380D02*
X119253095Y-90431904D01*
X119300714Y-90527142D01*
X119348333Y-90574761D01*
X119443571Y-90622380D01*
X119634047Y-90622380D01*
X119729285Y-90574761D01*
X119776904Y-90527142D01*
X119824523Y-90431904D01*
X119824523Y-89622380D01*
X120253095Y-89717619D02*
X120300714Y-89670000D01*
X120395952Y-89622380D01*
X120634047Y-89622380D01*
X120729285Y-89670000D01*
X120776904Y-89717619D01*
X120824523Y-89812857D01*
X120824523Y-89908095D01*
X120776904Y-90050952D01*
X120205476Y-90622380D01*
X120824523Y-90622380D01*
G04 #@! TO.C,J4*
X166036666Y-117562380D02*
X166036666Y-118276666D01*
X165989047Y-118419523D01*
X165893809Y-118514761D01*
X165750952Y-118562380D01*
X165655714Y-118562380D01*
X166941428Y-117895714D02*
X166941428Y-118562380D01*
X166703333Y-117514761D02*
X166465238Y-118229047D01*
X167084285Y-118229047D01*
G04 #@! TO.C,J5*
X180006666Y-117562380D02*
X180006666Y-118276666D01*
X179959047Y-118419523D01*
X179863809Y-118514761D01*
X179720952Y-118562380D01*
X179625714Y-118562380D01*
X180959047Y-117562380D02*
X180482857Y-117562380D01*
X180435238Y-118038571D01*
X180482857Y-117990952D01*
X180578095Y-117943333D01*
X180816190Y-117943333D01*
X180911428Y-117990952D01*
X180959047Y-118038571D01*
X181006666Y-118133809D01*
X181006666Y-118371904D01*
X180959047Y-118467142D01*
X180911428Y-118514761D01*
X180816190Y-118562380D01*
X180578095Y-118562380D01*
X180482857Y-118514761D01*
X180435238Y-118467142D01*
G04 #@! TO.C,J6*
X193976666Y-117562380D02*
X193976666Y-118276666D01*
X193929047Y-118419523D01*
X193833809Y-118514761D01*
X193690952Y-118562380D01*
X193595714Y-118562380D01*
X194881428Y-117562380D02*
X194690952Y-117562380D01*
X194595714Y-117610000D01*
X194548095Y-117657619D01*
X194452857Y-117800476D01*
X194405238Y-117990952D01*
X194405238Y-118371904D01*
X194452857Y-118467142D01*
X194500476Y-118514761D01*
X194595714Y-118562380D01*
X194786190Y-118562380D01*
X194881428Y-118514761D01*
X194929047Y-118467142D01*
X194976666Y-118371904D01*
X194976666Y-118133809D01*
X194929047Y-118038571D01*
X194881428Y-117990952D01*
X194786190Y-117943333D01*
X194595714Y-117943333D01*
X194500476Y-117990952D01*
X194452857Y-118038571D01*
X194405238Y-118133809D01*
G04 #@! TO.C,J7*
X207946666Y-117562380D02*
X207946666Y-118276666D01*
X207899047Y-118419523D01*
X207803809Y-118514761D01*
X207660952Y-118562380D01*
X207565714Y-118562380D01*
X208327619Y-117562380D02*
X208994285Y-117562380D01*
X208565714Y-118562380D01*
G04 #@! TO.C,J8*
X221916666Y-117562380D02*
X221916666Y-118276666D01*
X221869047Y-118419523D01*
X221773809Y-118514761D01*
X221630952Y-118562380D01*
X221535714Y-118562380D01*
X222535714Y-117990952D02*
X222440476Y-117943333D01*
X222392857Y-117895714D01*
X222345238Y-117800476D01*
X222345238Y-117752857D01*
X222392857Y-117657619D01*
X222440476Y-117610000D01*
X222535714Y-117562380D01*
X222726190Y-117562380D01*
X222821428Y-117610000D01*
X222869047Y-117657619D01*
X222916666Y-117752857D01*
X222916666Y-117800476D01*
X222869047Y-117895714D01*
X222821428Y-117943333D01*
X222726190Y-117990952D01*
X222535714Y-117990952D01*
X222440476Y-118038571D01*
X222392857Y-118086190D01*
X222345238Y-118181428D01*
X222345238Y-118371904D01*
X222392857Y-118467142D01*
X222440476Y-118514761D01*
X222535714Y-118562380D01*
X222726190Y-118562380D01*
X222821428Y-118514761D01*
X222869047Y-118467142D01*
X222916666Y-118371904D01*
X222916666Y-118181428D01*
X222869047Y-118086190D01*
X222821428Y-118038571D01*
X222726190Y-117990952D01*
G04 #@! TO.C,K2*
X167536904Y-84907380D02*
X167536904Y-83907380D01*
X168108333Y-84907380D02*
X167679761Y-84335952D01*
X168108333Y-83907380D02*
X167536904Y-84478809D01*
X168489285Y-84002619D02*
X168536904Y-83955000D01*
X168632142Y-83907380D01*
X168870238Y-83907380D01*
X168965476Y-83955000D01*
X169013095Y-84002619D01*
X169060714Y-84097857D01*
X169060714Y-84193095D01*
X169013095Y-84335952D01*
X168441666Y-84907380D01*
X169060714Y-84907380D01*
G04 #@! TO.C,K3*
X181506904Y-84907380D02*
X181506904Y-83907380D01*
X182078333Y-84907380D02*
X181649761Y-84335952D01*
X182078333Y-83907380D02*
X181506904Y-84478809D01*
X182411666Y-83907380D02*
X183030714Y-83907380D01*
X182697380Y-84288333D01*
X182840238Y-84288333D01*
X182935476Y-84335952D01*
X182983095Y-84383571D01*
X183030714Y-84478809D01*
X183030714Y-84716904D01*
X182983095Y-84812142D01*
X182935476Y-84859761D01*
X182840238Y-84907380D01*
X182554523Y-84907380D01*
X182459285Y-84859761D01*
X182411666Y-84812142D01*
G04 #@! TO.C,K4*
X195476904Y-84907380D02*
X195476904Y-83907380D01*
X196048333Y-84907380D02*
X195619761Y-84335952D01*
X196048333Y-83907380D02*
X195476904Y-84478809D01*
X196905476Y-84240714D02*
X196905476Y-84907380D01*
X196667380Y-83859761D02*
X196429285Y-84574047D01*
X197048333Y-84574047D01*
G04 #@! TO.C,K5*
X209446904Y-84907380D02*
X209446904Y-83907380D01*
X210018333Y-84907380D02*
X209589761Y-84335952D01*
X210018333Y-83907380D02*
X209446904Y-84478809D01*
X210923095Y-83907380D02*
X210446904Y-83907380D01*
X210399285Y-84383571D01*
X210446904Y-84335952D01*
X210542142Y-84288333D01*
X210780238Y-84288333D01*
X210875476Y-84335952D01*
X210923095Y-84383571D01*
X210970714Y-84478809D01*
X210970714Y-84716904D01*
X210923095Y-84812142D01*
X210875476Y-84859761D01*
X210780238Y-84907380D01*
X210542142Y-84907380D01*
X210446904Y-84859761D01*
X210399285Y-84812142D01*
G04 #@! TO.C,K6*
X223416904Y-84907380D02*
X223416904Y-83907380D01*
X223988333Y-84907380D02*
X223559761Y-84335952D01*
X223988333Y-83907380D02*
X223416904Y-84478809D01*
X224845476Y-83907380D02*
X224655000Y-83907380D01*
X224559761Y-83955000D01*
X224512142Y-84002619D01*
X224416904Y-84145476D01*
X224369285Y-84335952D01*
X224369285Y-84716904D01*
X224416904Y-84812142D01*
X224464523Y-84859761D01*
X224559761Y-84907380D01*
X224750238Y-84907380D01*
X224845476Y-84859761D01*
X224893095Y-84812142D01*
X224940714Y-84716904D01*
X224940714Y-84478809D01*
X224893095Y-84383571D01*
X224845476Y-84335952D01*
X224750238Y-84288333D01*
X224559761Y-84288333D01*
X224464523Y-84335952D01*
X224416904Y-84383571D01*
X224369285Y-84478809D01*
G04 #@! TO.C,RV2*
X172064761Y-113482380D02*
X171731428Y-113006190D01*
X171493333Y-113482380D02*
X171493333Y-112482380D01*
X171874285Y-112482380D01*
X171969523Y-112530000D01*
X172017142Y-112577619D01*
X172064761Y-112672857D01*
X172064761Y-112815714D01*
X172017142Y-112910952D01*
X171969523Y-112958571D01*
X171874285Y-113006190D01*
X171493333Y-113006190D01*
X172350476Y-112482380D02*
X172683809Y-113482380D01*
X173017142Y-112482380D01*
X173302857Y-112577619D02*
X173350476Y-112530000D01*
X173445714Y-112482380D01*
X173683809Y-112482380D01*
X173779047Y-112530000D01*
X173826666Y-112577619D01*
X173874285Y-112672857D01*
X173874285Y-112768095D01*
X173826666Y-112910952D01*
X173255238Y-113482380D01*
X173874285Y-113482380D01*
G04 #@! TO.C,RV3*
X186094761Y-113482380D02*
X185761428Y-113006190D01*
X185523333Y-113482380D02*
X185523333Y-112482380D01*
X185904285Y-112482380D01*
X185999523Y-112530000D01*
X186047142Y-112577619D01*
X186094761Y-112672857D01*
X186094761Y-112815714D01*
X186047142Y-112910952D01*
X185999523Y-112958571D01*
X185904285Y-113006190D01*
X185523333Y-113006190D01*
X186380476Y-112482380D02*
X186713809Y-113482380D01*
X187047142Y-112482380D01*
X187285238Y-112482380D02*
X187904285Y-112482380D01*
X187570952Y-112863333D01*
X187713809Y-112863333D01*
X187809047Y-112910952D01*
X187856666Y-112958571D01*
X187904285Y-113053809D01*
X187904285Y-113291904D01*
X187856666Y-113387142D01*
X187809047Y-113434761D01*
X187713809Y-113482380D01*
X187428095Y-113482380D01*
X187332857Y-113434761D01*
X187285238Y-113387142D01*
G04 #@! TO.C,RV4*
X200004761Y-113482380D02*
X199671428Y-113006190D01*
X199433333Y-113482380D02*
X199433333Y-112482380D01*
X199814285Y-112482380D01*
X199909523Y-112530000D01*
X199957142Y-112577619D01*
X200004761Y-112672857D01*
X200004761Y-112815714D01*
X199957142Y-112910952D01*
X199909523Y-112958571D01*
X199814285Y-113006190D01*
X199433333Y-113006190D01*
X200290476Y-112482380D02*
X200623809Y-113482380D01*
X200957142Y-112482380D01*
X201719047Y-112815714D02*
X201719047Y-113482380D01*
X201480952Y-112434761D02*
X201242857Y-113149047D01*
X201861904Y-113149047D01*
G04 #@! TO.C,RV5*
X214034761Y-113482380D02*
X213701428Y-113006190D01*
X213463333Y-113482380D02*
X213463333Y-112482380D01*
X213844285Y-112482380D01*
X213939523Y-112530000D01*
X213987142Y-112577619D01*
X214034761Y-112672857D01*
X214034761Y-112815714D01*
X213987142Y-112910952D01*
X213939523Y-112958571D01*
X213844285Y-113006190D01*
X213463333Y-113006190D01*
X214320476Y-112482380D02*
X214653809Y-113482380D01*
X214987142Y-112482380D01*
X215796666Y-112482380D02*
X215320476Y-112482380D01*
X215272857Y-112958571D01*
X215320476Y-112910952D01*
X215415714Y-112863333D01*
X215653809Y-112863333D01*
X215749047Y-112910952D01*
X215796666Y-112958571D01*
X215844285Y-113053809D01*
X215844285Y-113291904D01*
X215796666Y-113387142D01*
X215749047Y-113434761D01*
X215653809Y-113482380D01*
X215415714Y-113482380D01*
X215320476Y-113434761D01*
X215272857Y-113387142D01*
G04 #@! TO.C,RV6*
X228004761Y-113482380D02*
X227671428Y-113006190D01*
X227433333Y-113482380D02*
X227433333Y-112482380D01*
X227814285Y-112482380D01*
X227909523Y-112530000D01*
X227957142Y-112577619D01*
X228004761Y-112672857D01*
X228004761Y-112815714D01*
X227957142Y-112910952D01*
X227909523Y-112958571D01*
X227814285Y-113006190D01*
X227433333Y-113006190D01*
X228290476Y-112482380D02*
X228623809Y-113482380D01*
X228957142Y-112482380D01*
X229719047Y-112482380D02*
X229528571Y-112482380D01*
X229433333Y-112530000D01*
X229385714Y-112577619D01*
X229290476Y-112720476D01*
X229242857Y-112910952D01*
X229242857Y-113291904D01*
X229290476Y-113387142D01*
X229338095Y-113434761D01*
X229433333Y-113482380D01*
X229623809Y-113482380D01*
X229719047Y-113434761D01*
X229766666Y-113387142D01*
X229814285Y-113291904D01*
X229814285Y-113053809D01*
X229766666Y-112958571D01*
X229719047Y-112910952D01*
X229623809Y-112863333D01*
X229433333Y-112863333D01*
X229338095Y-112910952D01*
X229290476Y-112958571D01*
X229242857Y-113053809D01*
G04 #@! TO.C,C1*
X76223333Y-94487142D02*
X76175714Y-94534761D01*
X76032857Y-94582380D01*
X75937619Y-94582380D01*
X75794761Y-94534761D01*
X75699523Y-94439523D01*
X75651904Y-94344285D01*
X75604285Y-94153809D01*
X75604285Y-94010952D01*
X75651904Y-93820476D01*
X75699523Y-93725238D01*
X75794761Y-93630000D01*
X75937619Y-93582380D01*
X76032857Y-93582380D01*
X76175714Y-93630000D01*
X76223333Y-93677619D01*
X77175714Y-94582380D02*
X76604285Y-94582380D01*
X76890000Y-94582380D02*
X76890000Y-93582380D01*
X76794761Y-93725238D01*
X76699523Y-93820476D01*
X76604285Y-93868095D01*
G04 #@! TO.C,D5*
X100861904Y-76652380D02*
X100861904Y-75652380D01*
X101100000Y-75652380D01*
X101242857Y-75700000D01*
X101338095Y-75795238D01*
X101385714Y-75890476D01*
X101433333Y-76080952D01*
X101433333Y-76223809D01*
X101385714Y-76414285D01*
X101338095Y-76509523D01*
X101242857Y-76604761D01*
X101100000Y-76652380D01*
X100861904Y-76652380D01*
X102338095Y-75652380D02*
X101861904Y-75652380D01*
X101814285Y-76128571D01*
X101861904Y-76080952D01*
X101957142Y-76033333D01*
X102195238Y-76033333D01*
X102290476Y-76080952D01*
X102338095Y-76128571D01*
X102385714Y-76223809D01*
X102385714Y-76461904D01*
X102338095Y-76557142D01*
X102290476Y-76604761D01*
X102195238Y-76652380D01*
X101957142Y-76652380D01*
X101861904Y-76604761D01*
X101814285Y-76557142D01*
G04 #@! TO.C,D6*
X100861904Y-81732380D02*
X100861904Y-80732380D01*
X101100000Y-80732380D01*
X101242857Y-80780000D01*
X101338095Y-80875238D01*
X101385714Y-80970476D01*
X101433333Y-81160952D01*
X101433333Y-81303809D01*
X101385714Y-81494285D01*
X101338095Y-81589523D01*
X101242857Y-81684761D01*
X101100000Y-81732380D01*
X100861904Y-81732380D01*
X102290476Y-80732380D02*
X102100000Y-80732380D01*
X102004761Y-80780000D01*
X101957142Y-80827619D01*
X101861904Y-80970476D01*
X101814285Y-81160952D01*
X101814285Y-81541904D01*
X101861904Y-81637142D01*
X101909523Y-81684761D01*
X102004761Y-81732380D01*
X102195238Y-81732380D01*
X102290476Y-81684761D01*
X102338095Y-81637142D01*
X102385714Y-81541904D01*
X102385714Y-81303809D01*
X102338095Y-81208571D01*
X102290476Y-81160952D01*
X102195238Y-81113333D01*
X102004761Y-81113333D01*
X101909523Y-81160952D01*
X101861904Y-81208571D01*
X101814285Y-81303809D01*
G04 #@! TO.C,D7*
X100861904Y-91892380D02*
X100861904Y-90892380D01*
X101100000Y-90892380D01*
X101242857Y-90940000D01*
X101338095Y-91035238D01*
X101385714Y-91130476D01*
X101433333Y-91320952D01*
X101433333Y-91463809D01*
X101385714Y-91654285D01*
X101338095Y-91749523D01*
X101242857Y-91844761D01*
X101100000Y-91892380D01*
X100861904Y-91892380D01*
X101766666Y-90892380D02*
X102433333Y-90892380D01*
X102004761Y-91892380D01*
G04 #@! TO.C,D8*
X100861904Y-96972380D02*
X100861904Y-95972380D01*
X101100000Y-95972380D01*
X101242857Y-96020000D01*
X101338095Y-96115238D01*
X101385714Y-96210476D01*
X101433333Y-96400952D01*
X101433333Y-96543809D01*
X101385714Y-96734285D01*
X101338095Y-96829523D01*
X101242857Y-96924761D01*
X101100000Y-96972380D01*
X100861904Y-96972380D01*
X102004761Y-96400952D02*
X101909523Y-96353333D01*
X101861904Y-96305714D01*
X101814285Y-96210476D01*
X101814285Y-96162857D01*
X101861904Y-96067619D01*
X101909523Y-96020000D01*
X102004761Y-95972380D01*
X102195238Y-95972380D01*
X102290476Y-96020000D01*
X102338095Y-96067619D01*
X102385714Y-96162857D01*
X102385714Y-96210476D01*
X102338095Y-96305714D01*
X102290476Y-96353333D01*
X102195238Y-96400952D01*
X102004761Y-96400952D01*
X101909523Y-96448571D01*
X101861904Y-96496190D01*
X101814285Y-96591428D01*
X101814285Y-96781904D01*
X101861904Y-96877142D01*
X101909523Y-96924761D01*
X102004761Y-96972380D01*
X102195238Y-96972380D01*
X102290476Y-96924761D01*
X102338095Y-96877142D01*
X102385714Y-96781904D01*
X102385714Y-96591428D01*
X102338095Y-96496190D01*
X102290476Y-96448571D01*
X102195238Y-96400952D01*
G04 #@! TO.C,D9*
X100861904Y-107132380D02*
X100861904Y-106132380D01*
X101100000Y-106132380D01*
X101242857Y-106180000D01*
X101338095Y-106275238D01*
X101385714Y-106370476D01*
X101433333Y-106560952D01*
X101433333Y-106703809D01*
X101385714Y-106894285D01*
X101338095Y-106989523D01*
X101242857Y-107084761D01*
X101100000Y-107132380D01*
X100861904Y-107132380D01*
X101909523Y-107132380D02*
X102100000Y-107132380D01*
X102195238Y-107084761D01*
X102242857Y-107037142D01*
X102338095Y-106894285D01*
X102385714Y-106703809D01*
X102385714Y-106322857D01*
X102338095Y-106227619D01*
X102290476Y-106180000D01*
X102195238Y-106132380D01*
X102004761Y-106132380D01*
X101909523Y-106180000D01*
X101861904Y-106227619D01*
X101814285Y-106322857D01*
X101814285Y-106560952D01*
X101861904Y-106656190D01*
X101909523Y-106703809D01*
X102004761Y-106751428D01*
X102195238Y-106751428D01*
X102290476Y-106703809D01*
X102338095Y-106656190D01*
X102385714Y-106560952D01*
G04 #@! TO.C,D10*
X100385714Y-112212380D02*
X100385714Y-111212380D01*
X100623809Y-111212380D01*
X100766666Y-111260000D01*
X100861904Y-111355238D01*
X100909523Y-111450476D01*
X100957142Y-111640952D01*
X100957142Y-111783809D01*
X100909523Y-111974285D01*
X100861904Y-112069523D01*
X100766666Y-112164761D01*
X100623809Y-112212380D01*
X100385714Y-112212380D01*
X101909523Y-112212380D02*
X101338095Y-112212380D01*
X101623809Y-112212380D02*
X101623809Y-111212380D01*
X101528571Y-111355238D01*
X101433333Y-111450476D01*
X101338095Y-111498095D01*
X102528571Y-111212380D02*
X102623809Y-111212380D01*
X102719047Y-111260000D01*
X102766666Y-111307619D01*
X102814285Y-111402857D01*
X102861904Y-111593333D01*
X102861904Y-111831428D01*
X102814285Y-112021904D01*
X102766666Y-112117142D01*
X102719047Y-112164761D01*
X102623809Y-112212380D01*
X102528571Y-112212380D01*
X102433333Y-112164761D01*
X102385714Y-112117142D01*
X102338095Y-112021904D01*
X102290476Y-111831428D01*
X102290476Y-111593333D01*
X102338095Y-111402857D01*
X102385714Y-111307619D01*
X102433333Y-111260000D01*
X102528571Y-111212380D01*
G04 #@! TO.C,D12*
X159440714Y-77922380D02*
X159440714Y-76922380D01*
X159678809Y-76922380D01*
X159821666Y-76970000D01*
X159916904Y-77065238D01*
X159964523Y-77160476D01*
X160012142Y-77350952D01*
X160012142Y-77493809D01*
X159964523Y-77684285D01*
X159916904Y-77779523D01*
X159821666Y-77874761D01*
X159678809Y-77922380D01*
X159440714Y-77922380D01*
X160964523Y-77922380D02*
X160393095Y-77922380D01*
X160678809Y-77922380D02*
X160678809Y-76922380D01*
X160583571Y-77065238D01*
X160488333Y-77160476D01*
X160393095Y-77208095D01*
X161345476Y-77017619D02*
X161393095Y-76970000D01*
X161488333Y-76922380D01*
X161726428Y-76922380D01*
X161821666Y-76970000D01*
X161869285Y-77017619D01*
X161916904Y-77112857D01*
X161916904Y-77208095D01*
X161869285Y-77350952D01*
X161297857Y-77922380D01*
X161916904Y-77922380D01*
G04 #@! TO.C,Q1*
X162464761Y-67857619D02*
X162369523Y-67810000D01*
X162274285Y-67714761D01*
X162131428Y-67571904D01*
X162036190Y-67524285D01*
X161940952Y-67524285D01*
X161988571Y-67762380D02*
X161893333Y-67714761D01*
X161798095Y-67619523D01*
X161750476Y-67429047D01*
X161750476Y-67095714D01*
X161798095Y-66905238D01*
X161893333Y-66810000D01*
X161988571Y-66762380D01*
X162179047Y-66762380D01*
X162274285Y-66810000D01*
X162369523Y-66905238D01*
X162417142Y-67095714D01*
X162417142Y-67429047D01*
X162369523Y-67619523D01*
X162274285Y-67714761D01*
X162179047Y-67762380D01*
X161988571Y-67762380D01*
X163369523Y-67762380D02*
X162798095Y-67762380D01*
X163083809Y-67762380D02*
X163083809Y-66762380D01*
X162988571Y-66905238D01*
X162893333Y-67000476D01*
X162798095Y-67048095D01*
G04 #@! TO.C,Q2*
X176434761Y-67857619D02*
X176339523Y-67810000D01*
X176244285Y-67714761D01*
X176101428Y-67571904D01*
X176006190Y-67524285D01*
X175910952Y-67524285D01*
X175958571Y-67762380D02*
X175863333Y-67714761D01*
X175768095Y-67619523D01*
X175720476Y-67429047D01*
X175720476Y-67095714D01*
X175768095Y-66905238D01*
X175863333Y-66810000D01*
X175958571Y-66762380D01*
X176149047Y-66762380D01*
X176244285Y-66810000D01*
X176339523Y-66905238D01*
X176387142Y-67095714D01*
X176387142Y-67429047D01*
X176339523Y-67619523D01*
X176244285Y-67714761D01*
X176149047Y-67762380D01*
X175958571Y-67762380D01*
X176768095Y-66857619D02*
X176815714Y-66810000D01*
X176910952Y-66762380D01*
X177149047Y-66762380D01*
X177244285Y-66810000D01*
X177291904Y-66857619D01*
X177339523Y-66952857D01*
X177339523Y-67048095D01*
X177291904Y-67190952D01*
X176720476Y-67762380D01*
X177339523Y-67762380D01*
G04 #@! TO.C,Q3*
X190404761Y-67857619D02*
X190309523Y-67810000D01*
X190214285Y-67714761D01*
X190071428Y-67571904D01*
X189976190Y-67524285D01*
X189880952Y-67524285D01*
X189928571Y-67762380D02*
X189833333Y-67714761D01*
X189738095Y-67619523D01*
X189690476Y-67429047D01*
X189690476Y-67095714D01*
X189738095Y-66905238D01*
X189833333Y-66810000D01*
X189928571Y-66762380D01*
X190119047Y-66762380D01*
X190214285Y-66810000D01*
X190309523Y-66905238D01*
X190357142Y-67095714D01*
X190357142Y-67429047D01*
X190309523Y-67619523D01*
X190214285Y-67714761D01*
X190119047Y-67762380D01*
X189928571Y-67762380D01*
X190690476Y-66762380D02*
X191309523Y-66762380D01*
X190976190Y-67143333D01*
X191119047Y-67143333D01*
X191214285Y-67190952D01*
X191261904Y-67238571D01*
X191309523Y-67333809D01*
X191309523Y-67571904D01*
X191261904Y-67667142D01*
X191214285Y-67714761D01*
X191119047Y-67762380D01*
X190833333Y-67762380D01*
X190738095Y-67714761D01*
X190690476Y-67667142D01*
G04 #@! TO.C,Q4*
X204374761Y-67857619D02*
X204279523Y-67810000D01*
X204184285Y-67714761D01*
X204041428Y-67571904D01*
X203946190Y-67524285D01*
X203850952Y-67524285D01*
X203898571Y-67762380D02*
X203803333Y-67714761D01*
X203708095Y-67619523D01*
X203660476Y-67429047D01*
X203660476Y-67095714D01*
X203708095Y-66905238D01*
X203803333Y-66810000D01*
X203898571Y-66762380D01*
X204089047Y-66762380D01*
X204184285Y-66810000D01*
X204279523Y-66905238D01*
X204327142Y-67095714D01*
X204327142Y-67429047D01*
X204279523Y-67619523D01*
X204184285Y-67714761D01*
X204089047Y-67762380D01*
X203898571Y-67762380D01*
X205184285Y-67095714D02*
X205184285Y-67762380D01*
X204946190Y-66714761D02*
X204708095Y-67429047D01*
X205327142Y-67429047D01*
G04 #@! TO.C,Q5*
X218344761Y-67857619D02*
X218249523Y-67810000D01*
X218154285Y-67714761D01*
X218011428Y-67571904D01*
X217916190Y-67524285D01*
X217820952Y-67524285D01*
X217868571Y-67762380D02*
X217773333Y-67714761D01*
X217678095Y-67619523D01*
X217630476Y-67429047D01*
X217630476Y-67095714D01*
X217678095Y-66905238D01*
X217773333Y-66810000D01*
X217868571Y-66762380D01*
X218059047Y-66762380D01*
X218154285Y-66810000D01*
X218249523Y-66905238D01*
X218297142Y-67095714D01*
X218297142Y-67429047D01*
X218249523Y-67619523D01*
X218154285Y-67714761D01*
X218059047Y-67762380D01*
X217868571Y-67762380D01*
X219201904Y-66762380D02*
X218725714Y-66762380D01*
X218678095Y-67238571D01*
X218725714Y-67190952D01*
X218820952Y-67143333D01*
X219059047Y-67143333D01*
X219154285Y-67190952D01*
X219201904Y-67238571D01*
X219249523Y-67333809D01*
X219249523Y-67571904D01*
X219201904Y-67667142D01*
X219154285Y-67714761D01*
X219059047Y-67762380D01*
X218820952Y-67762380D01*
X218725714Y-67714761D01*
X218678095Y-67667142D01*
G04 #@! TO.C,Q6*
X232314761Y-67857619D02*
X232219523Y-67810000D01*
X232124285Y-67714761D01*
X231981428Y-67571904D01*
X231886190Y-67524285D01*
X231790952Y-67524285D01*
X231838571Y-67762380D02*
X231743333Y-67714761D01*
X231648095Y-67619523D01*
X231600476Y-67429047D01*
X231600476Y-67095714D01*
X231648095Y-66905238D01*
X231743333Y-66810000D01*
X231838571Y-66762380D01*
X232029047Y-66762380D01*
X232124285Y-66810000D01*
X232219523Y-66905238D01*
X232267142Y-67095714D01*
X232267142Y-67429047D01*
X232219523Y-67619523D01*
X232124285Y-67714761D01*
X232029047Y-67762380D01*
X231838571Y-67762380D01*
X233124285Y-66762380D02*
X232933809Y-66762380D01*
X232838571Y-66810000D01*
X232790952Y-66857619D01*
X232695714Y-67000476D01*
X232648095Y-67190952D01*
X232648095Y-67571904D01*
X232695714Y-67667142D01*
X232743333Y-67714761D01*
X232838571Y-67762380D01*
X233029047Y-67762380D01*
X233124285Y-67714761D01*
X233171904Y-67667142D01*
X233219523Y-67571904D01*
X233219523Y-67333809D01*
X233171904Y-67238571D01*
X233124285Y-67190952D01*
X233029047Y-67143333D01*
X232838571Y-67143333D01*
X232743333Y-67190952D01*
X232695714Y-67238571D01*
X232648095Y-67333809D01*
G04 #@! TO.C,U1*
X69408095Y-84542380D02*
X69408095Y-85351904D01*
X69455714Y-85447142D01*
X69503333Y-85494761D01*
X69598571Y-85542380D01*
X69789047Y-85542380D01*
X69884285Y-85494761D01*
X69931904Y-85447142D01*
X69979523Y-85351904D01*
X69979523Y-84542380D01*
X70979523Y-85542380D02*
X70408095Y-85542380D01*
X70693809Y-85542380D02*
X70693809Y-84542380D01*
X70598571Y-84685238D01*
X70503333Y-84780476D01*
X70408095Y-84828095D01*
G04 #@! TO.C,U4*
X108458095Y-69512380D02*
X108458095Y-70321904D01*
X108505714Y-70417142D01*
X108553333Y-70464761D01*
X108648571Y-70512380D01*
X108839047Y-70512380D01*
X108934285Y-70464761D01*
X108981904Y-70417142D01*
X109029523Y-70321904D01*
X109029523Y-69512380D01*
X109934285Y-69845714D02*
X109934285Y-70512380D01*
X109696190Y-69464761D02*
X109458095Y-70179047D01*
X110077142Y-70179047D01*
G04 #@! TO.C,U5*
X108458095Y-84752380D02*
X108458095Y-85561904D01*
X108505714Y-85657142D01*
X108553333Y-85704761D01*
X108648571Y-85752380D01*
X108839047Y-85752380D01*
X108934285Y-85704761D01*
X108981904Y-85657142D01*
X109029523Y-85561904D01*
X109029523Y-84752380D01*
X109981904Y-84752380D02*
X109505714Y-84752380D01*
X109458095Y-85228571D01*
X109505714Y-85180952D01*
X109600952Y-85133333D01*
X109839047Y-85133333D01*
X109934285Y-85180952D01*
X109981904Y-85228571D01*
X110029523Y-85323809D01*
X110029523Y-85561904D01*
X109981904Y-85657142D01*
X109934285Y-85704761D01*
X109839047Y-85752380D01*
X109600952Y-85752380D01*
X109505714Y-85704761D01*
X109458095Y-85657142D01*
G04 #@! TO.C,U6*
X108458095Y-99992380D02*
X108458095Y-100801904D01*
X108505714Y-100897142D01*
X108553333Y-100944761D01*
X108648571Y-100992380D01*
X108839047Y-100992380D01*
X108934285Y-100944761D01*
X108981904Y-100897142D01*
X109029523Y-100801904D01*
X109029523Y-99992380D01*
X109934285Y-99992380D02*
X109743809Y-99992380D01*
X109648571Y-100040000D01*
X109600952Y-100087619D01*
X109505714Y-100230476D01*
X109458095Y-100420952D01*
X109458095Y-100801904D01*
X109505714Y-100897142D01*
X109553333Y-100944761D01*
X109648571Y-100992380D01*
X109839047Y-100992380D01*
X109934285Y-100944761D01*
X109981904Y-100897142D01*
X110029523Y-100801904D01*
X110029523Y-100563809D01*
X109981904Y-100468571D01*
X109934285Y-100420952D01*
X109839047Y-100373333D01*
X109648571Y-100373333D01*
X109553333Y-100420952D01*
X109505714Y-100468571D01*
X109458095Y-100563809D01*
G04 #@! TO.C,C2*
X81113333Y-110212142D02*
X81065714Y-110259761D01*
X80922857Y-110307380D01*
X80827619Y-110307380D01*
X80684761Y-110259761D01*
X80589523Y-110164523D01*
X80541904Y-110069285D01*
X80494285Y-109878809D01*
X80494285Y-109735952D01*
X80541904Y-109545476D01*
X80589523Y-109450238D01*
X80684761Y-109355000D01*
X80827619Y-109307380D01*
X80922857Y-109307380D01*
X81065714Y-109355000D01*
X81113333Y-109402619D01*
X81494285Y-109402619D02*
X81541904Y-109355000D01*
X81637142Y-109307380D01*
X81875238Y-109307380D01*
X81970476Y-109355000D01*
X82018095Y-109402619D01*
X82065714Y-109497857D01*
X82065714Y-109593095D01*
X82018095Y-109735952D01*
X81446666Y-110307380D01*
X82065714Y-110307380D01*
G04 #@! TO.C,C3*
X83653333Y-90847142D02*
X83605714Y-90894761D01*
X83462857Y-90942380D01*
X83367619Y-90942380D01*
X83224761Y-90894761D01*
X83129523Y-90799523D01*
X83081904Y-90704285D01*
X83034285Y-90513809D01*
X83034285Y-90370952D01*
X83081904Y-90180476D01*
X83129523Y-90085238D01*
X83224761Y-89990000D01*
X83367619Y-89942380D01*
X83462857Y-89942380D01*
X83605714Y-89990000D01*
X83653333Y-90037619D01*
X83986666Y-89942380D02*
X84605714Y-89942380D01*
X84272380Y-90323333D01*
X84415238Y-90323333D01*
X84510476Y-90370952D01*
X84558095Y-90418571D01*
X84605714Y-90513809D01*
X84605714Y-90751904D01*
X84558095Y-90847142D01*
X84510476Y-90894761D01*
X84415238Y-90942380D01*
X84129523Y-90942380D01*
X84034285Y-90894761D01*
X83986666Y-90847142D01*
G04 #@! TO.C,C4*
X96033333Y-74427142D02*
X95985714Y-74474761D01*
X95842857Y-74522380D01*
X95747619Y-74522380D01*
X95604761Y-74474761D01*
X95509523Y-74379523D01*
X95461904Y-74284285D01*
X95414285Y-74093809D01*
X95414285Y-73950952D01*
X95461904Y-73760476D01*
X95509523Y-73665238D01*
X95604761Y-73570000D01*
X95747619Y-73522380D01*
X95842857Y-73522380D01*
X95985714Y-73570000D01*
X96033333Y-73617619D01*
X96890476Y-73855714D02*
X96890476Y-74522380D01*
X96652380Y-73474761D02*
X96414285Y-74189047D01*
X97033333Y-74189047D01*
G04 #@! TO.C,C5*
X96033333Y-78237142D02*
X95985714Y-78284761D01*
X95842857Y-78332380D01*
X95747619Y-78332380D01*
X95604761Y-78284761D01*
X95509523Y-78189523D01*
X95461904Y-78094285D01*
X95414285Y-77903809D01*
X95414285Y-77760952D01*
X95461904Y-77570476D01*
X95509523Y-77475238D01*
X95604761Y-77380000D01*
X95747619Y-77332380D01*
X95842857Y-77332380D01*
X95985714Y-77380000D01*
X96033333Y-77427619D01*
X96938095Y-77332380D02*
X96461904Y-77332380D01*
X96414285Y-77808571D01*
X96461904Y-77760952D01*
X96557142Y-77713333D01*
X96795238Y-77713333D01*
X96890476Y-77760952D01*
X96938095Y-77808571D01*
X96985714Y-77903809D01*
X96985714Y-78141904D01*
X96938095Y-78237142D01*
X96890476Y-78284761D01*
X96795238Y-78332380D01*
X96557142Y-78332380D01*
X96461904Y-78284761D01*
X96414285Y-78237142D01*
G04 #@! TO.C,C6*
X96033333Y-89667142D02*
X95985714Y-89714761D01*
X95842857Y-89762380D01*
X95747619Y-89762380D01*
X95604761Y-89714761D01*
X95509523Y-89619523D01*
X95461904Y-89524285D01*
X95414285Y-89333809D01*
X95414285Y-89190952D01*
X95461904Y-89000476D01*
X95509523Y-88905238D01*
X95604761Y-88810000D01*
X95747619Y-88762380D01*
X95842857Y-88762380D01*
X95985714Y-88810000D01*
X96033333Y-88857619D01*
X96890476Y-88762380D02*
X96700000Y-88762380D01*
X96604761Y-88810000D01*
X96557142Y-88857619D01*
X96461904Y-89000476D01*
X96414285Y-89190952D01*
X96414285Y-89571904D01*
X96461904Y-89667142D01*
X96509523Y-89714761D01*
X96604761Y-89762380D01*
X96795238Y-89762380D01*
X96890476Y-89714761D01*
X96938095Y-89667142D01*
X96985714Y-89571904D01*
X96985714Y-89333809D01*
X96938095Y-89238571D01*
X96890476Y-89190952D01*
X96795238Y-89143333D01*
X96604761Y-89143333D01*
X96509523Y-89190952D01*
X96461904Y-89238571D01*
X96414285Y-89333809D01*
G04 #@! TO.C,C7*
X96033333Y-93477142D02*
X95985714Y-93524761D01*
X95842857Y-93572380D01*
X95747619Y-93572380D01*
X95604761Y-93524761D01*
X95509523Y-93429523D01*
X95461904Y-93334285D01*
X95414285Y-93143809D01*
X95414285Y-93000952D01*
X95461904Y-92810476D01*
X95509523Y-92715238D01*
X95604761Y-92620000D01*
X95747619Y-92572380D01*
X95842857Y-92572380D01*
X95985714Y-92620000D01*
X96033333Y-92667619D01*
X96366666Y-92572380D02*
X97033333Y-92572380D01*
X96604761Y-93572380D01*
G04 #@! TO.C,C8*
X96033333Y-104907142D02*
X95985714Y-104954761D01*
X95842857Y-105002380D01*
X95747619Y-105002380D01*
X95604761Y-104954761D01*
X95509523Y-104859523D01*
X95461904Y-104764285D01*
X95414285Y-104573809D01*
X95414285Y-104430952D01*
X95461904Y-104240476D01*
X95509523Y-104145238D01*
X95604761Y-104050000D01*
X95747619Y-104002380D01*
X95842857Y-104002380D01*
X95985714Y-104050000D01*
X96033333Y-104097619D01*
X96604761Y-104430952D02*
X96509523Y-104383333D01*
X96461904Y-104335714D01*
X96414285Y-104240476D01*
X96414285Y-104192857D01*
X96461904Y-104097619D01*
X96509523Y-104050000D01*
X96604761Y-104002380D01*
X96795238Y-104002380D01*
X96890476Y-104050000D01*
X96938095Y-104097619D01*
X96985714Y-104192857D01*
X96985714Y-104240476D01*
X96938095Y-104335714D01*
X96890476Y-104383333D01*
X96795238Y-104430952D01*
X96604761Y-104430952D01*
X96509523Y-104478571D01*
X96461904Y-104526190D01*
X96414285Y-104621428D01*
X96414285Y-104811904D01*
X96461904Y-104907142D01*
X96509523Y-104954761D01*
X96604761Y-105002380D01*
X96795238Y-105002380D01*
X96890476Y-104954761D01*
X96938095Y-104907142D01*
X96985714Y-104811904D01*
X96985714Y-104621428D01*
X96938095Y-104526190D01*
X96890476Y-104478571D01*
X96795238Y-104430952D01*
G04 #@! TO.C,C9*
X96033333Y-108717142D02*
X95985714Y-108764761D01*
X95842857Y-108812380D01*
X95747619Y-108812380D01*
X95604761Y-108764761D01*
X95509523Y-108669523D01*
X95461904Y-108574285D01*
X95414285Y-108383809D01*
X95414285Y-108240952D01*
X95461904Y-108050476D01*
X95509523Y-107955238D01*
X95604761Y-107860000D01*
X95747619Y-107812380D01*
X95842857Y-107812380D01*
X95985714Y-107860000D01*
X96033333Y-107907619D01*
X96509523Y-108812380D02*
X96700000Y-108812380D01*
X96795238Y-108764761D01*
X96842857Y-108717142D01*
X96938095Y-108574285D01*
X96985714Y-108383809D01*
X96985714Y-108002857D01*
X96938095Y-107907619D01*
X96890476Y-107860000D01*
X96795238Y-107812380D01*
X96604761Y-107812380D01*
X96509523Y-107860000D01*
X96461904Y-107907619D01*
X96414285Y-108002857D01*
X96414285Y-108240952D01*
X96461904Y-108336190D01*
X96509523Y-108383809D01*
X96604761Y-108431428D01*
X96795238Y-108431428D01*
X96890476Y-108383809D01*
X96938095Y-108336190D01*
X96985714Y-108240952D01*
G04 #@! TO.C,D2*
X71651904Y-69032380D02*
X71651904Y-68032380D01*
X71890000Y-68032380D01*
X72032857Y-68080000D01*
X72128095Y-68175238D01*
X72175714Y-68270476D01*
X72223333Y-68460952D01*
X72223333Y-68603809D01*
X72175714Y-68794285D01*
X72128095Y-68889523D01*
X72032857Y-68984761D01*
X71890000Y-69032380D01*
X71651904Y-69032380D01*
X72604285Y-68127619D02*
X72651904Y-68080000D01*
X72747142Y-68032380D01*
X72985238Y-68032380D01*
X73080476Y-68080000D01*
X73128095Y-68127619D01*
X73175714Y-68222857D01*
X73175714Y-68318095D01*
X73128095Y-68460952D01*
X72556666Y-69032380D01*
X73175714Y-69032380D01*
G04 #@! TO.C,D3*
X71651904Y-79192380D02*
X71651904Y-78192380D01*
X71890000Y-78192380D01*
X72032857Y-78240000D01*
X72128095Y-78335238D01*
X72175714Y-78430476D01*
X72223333Y-78620952D01*
X72223333Y-78763809D01*
X72175714Y-78954285D01*
X72128095Y-79049523D01*
X72032857Y-79144761D01*
X71890000Y-79192380D01*
X71651904Y-79192380D01*
X72556666Y-78192380D02*
X73175714Y-78192380D01*
X72842380Y-78573333D01*
X72985238Y-78573333D01*
X73080476Y-78620952D01*
X73128095Y-78668571D01*
X73175714Y-78763809D01*
X73175714Y-79001904D01*
X73128095Y-79097142D01*
X73080476Y-79144761D01*
X72985238Y-79192380D01*
X72699523Y-79192380D01*
X72604285Y-79144761D01*
X72556666Y-79097142D01*
G04 #@! TO.C,D4*
X71651904Y-74112380D02*
X71651904Y-73112380D01*
X71890000Y-73112380D01*
X72032857Y-73160000D01*
X72128095Y-73255238D01*
X72175714Y-73350476D01*
X72223333Y-73540952D01*
X72223333Y-73683809D01*
X72175714Y-73874285D01*
X72128095Y-73969523D01*
X72032857Y-74064761D01*
X71890000Y-74112380D01*
X71651904Y-74112380D01*
X73080476Y-73445714D02*
X73080476Y-74112380D01*
X72842380Y-73064761D02*
X72604285Y-73779047D01*
X73223333Y-73779047D01*
G04 #@! TO.C,D11*
X160710714Y-84272380D02*
X160710714Y-83272380D01*
X160948809Y-83272380D01*
X161091666Y-83320000D01*
X161186904Y-83415238D01*
X161234523Y-83510476D01*
X161282142Y-83700952D01*
X161282142Y-83843809D01*
X161234523Y-84034285D01*
X161186904Y-84129523D01*
X161091666Y-84224761D01*
X160948809Y-84272380D01*
X160710714Y-84272380D01*
X162234523Y-84272380D02*
X161663095Y-84272380D01*
X161948809Y-84272380D02*
X161948809Y-83272380D01*
X161853571Y-83415238D01*
X161758333Y-83510476D01*
X161663095Y-83558095D01*
X163186904Y-84272380D02*
X162615476Y-84272380D01*
X162901190Y-84272380D02*
X162901190Y-83272380D01*
X162805952Y-83415238D01*
X162710714Y-83510476D01*
X162615476Y-83558095D01*
G04 #@! TO.C,D13*
X174680714Y-84272380D02*
X174680714Y-83272380D01*
X174918809Y-83272380D01*
X175061666Y-83320000D01*
X175156904Y-83415238D01*
X175204523Y-83510476D01*
X175252142Y-83700952D01*
X175252142Y-83843809D01*
X175204523Y-84034285D01*
X175156904Y-84129523D01*
X175061666Y-84224761D01*
X174918809Y-84272380D01*
X174680714Y-84272380D01*
X176204523Y-84272380D02*
X175633095Y-84272380D01*
X175918809Y-84272380D02*
X175918809Y-83272380D01*
X175823571Y-83415238D01*
X175728333Y-83510476D01*
X175633095Y-83558095D01*
X176537857Y-83272380D02*
X177156904Y-83272380D01*
X176823571Y-83653333D01*
X176966428Y-83653333D01*
X177061666Y-83700952D01*
X177109285Y-83748571D01*
X177156904Y-83843809D01*
X177156904Y-84081904D01*
X177109285Y-84177142D01*
X177061666Y-84224761D01*
X176966428Y-84272380D01*
X176680714Y-84272380D01*
X176585476Y-84224761D01*
X176537857Y-84177142D01*
G04 #@! TO.C,D14*
X173410714Y-77922380D02*
X173410714Y-76922380D01*
X173648809Y-76922380D01*
X173791666Y-76970000D01*
X173886904Y-77065238D01*
X173934523Y-77160476D01*
X173982142Y-77350952D01*
X173982142Y-77493809D01*
X173934523Y-77684285D01*
X173886904Y-77779523D01*
X173791666Y-77874761D01*
X173648809Y-77922380D01*
X173410714Y-77922380D01*
X174934523Y-77922380D02*
X174363095Y-77922380D01*
X174648809Y-77922380D02*
X174648809Y-76922380D01*
X174553571Y-77065238D01*
X174458333Y-77160476D01*
X174363095Y-77208095D01*
X175791666Y-77255714D02*
X175791666Y-77922380D01*
X175553571Y-76874761D02*
X175315476Y-77589047D01*
X175934523Y-77589047D01*
G04 #@! TO.C,D15*
X188650714Y-84272380D02*
X188650714Y-83272380D01*
X188888809Y-83272380D01*
X189031666Y-83320000D01*
X189126904Y-83415238D01*
X189174523Y-83510476D01*
X189222142Y-83700952D01*
X189222142Y-83843809D01*
X189174523Y-84034285D01*
X189126904Y-84129523D01*
X189031666Y-84224761D01*
X188888809Y-84272380D01*
X188650714Y-84272380D01*
X190174523Y-84272380D02*
X189603095Y-84272380D01*
X189888809Y-84272380D02*
X189888809Y-83272380D01*
X189793571Y-83415238D01*
X189698333Y-83510476D01*
X189603095Y-83558095D01*
X191079285Y-83272380D02*
X190603095Y-83272380D01*
X190555476Y-83748571D01*
X190603095Y-83700952D01*
X190698333Y-83653333D01*
X190936428Y-83653333D01*
X191031666Y-83700952D01*
X191079285Y-83748571D01*
X191126904Y-83843809D01*
X191126904Y-84081904D01*
X191079285Y-84177142D01*
X191031666Y-84224761D01*
X190936428Y-84272380D01*
X190698333Y-84272380D01*
X190603095Y-84224761D01*
X190555476Y-84177142D01*
G04 #@! TO.C,D16*
X187380714Y-77922380D02*
X187380714Y-76922380D01*
X187618809Y-76922380D01*
X187761666Y-76970000D01*
X187856904Y-77065238D01*
X187904523Y-77160476D01*
X187952142Y-77350952D01*
X187952142Y-77493809D01*
X187904523Y-77684285D01*
X187856904Y-77779523D01*
X187761666Y-77874761D01*
X187618809Y-77922380D01*
X187380714Y-77922380D01*
X188904523Y-77922380D02*
X188333095Y-77922380D01*
X188618809Y-77922380D02*
X188618809Y-76922380D01*
X188523571Y-77065238D01*
X188428333Y-77160476D01*
X188333095Y-77208095D01*
X189761666Y-76922380D02*
X189571190Y-76922380D01*
X189475952Y-76970000D01*
X189428333Y-77017619D01*
X189333095Y-77160476D01*
X189285476Y-77350952D01*
X189285476Y-77731904D01*
X189333095Y-77827142D01*
X189380714Y-77874761D01*
X189475952Y-77922380D01*
X189666428Y-77922380D01*
X189761666Y-77874761D01*
X189809285Y-77827142D01*
X189856904Y-77731904D01*
X189856904Y-77493809D01*
X189809285Y-77398571D01*
X189761666Y-77350952D01*
X189666428Y-77303333D01*
X189475952Y-77303333D01*
X189380714Y-77350952D01*
X189333095Y-77398571D01*
X189285476Y-77493809D01*
G04 #@! TO.C,D17*
X202620714Y-84272380D02*
X202620714Y-83272380D01*
X202858809Y-83272380D01*
X203001666Y-83320000D01*
X203096904Y-83415238D01*
X203144523Y-83510476D01*
X203192142Y-83700952D01*
X203192142Y-83843809D01*
X203144523Y-84034285D01*
X203096904Y-84129523D01*
X203001666Y-84224761D01*
X202858809Y-84272380D01*
X202620714Y-84272380D01*
X204144523Y-84272380D02*
X203573095Y-84272380D01*
X203858809Y-84272380D02*
X203858809Y-83272380D01*
X203763571Y-83415238D01*
X203668333Y-83510476D01*
X203573095Y-83558095D01*
X204477857Y-83272380D02*
X205144523Y-83272380D01*
X204715952Y-84272380D01*
G04 #@! TO.C,D18*
X201350714Y-77922380D02*
X201350714Y-76922380D01*
X201588809Y-76922380D01*
X201731666Y-76970000D01*
X201826904Y-77065238D01*
X201874523Y-77160476D01*
X201922142Y-77350952D01*
X201922142Y-77493809D01*
X201874523Y-77684285D01*
X201826904Y-77779523D01*
X201731666Y-77874761D01*
X201588809Y-77922380D01*
X201350714Y-77922380D01*
X202874523Y-77922380D02*
X202303095Y-77922380D01*
X202588809Y-77922380D02*
X202588809Y-76922380D01*
X202493571Y-77065238D01*
X202398333Y-77160476D01*
X202303095Y-77208095D01*
X203445952Y-77350952D02*
X203350714Y-77303333D01*
X203303095Y-77255714D01*
X203255476Y-77160476D01*
X203255476Y-77112857D01*
X203303095Y-77017619D01*
X203350714Y-76970000D01*
X203445952Y-76922380D01*
X203636428Y-76922380D01*
X203731666Y-76970000D01*
X203779285Y-77017619D01*
X203826904Y-77112857D01*
X203826904Y-77160476D01*
X203779285Y-77255714D01*
X203731666Y-77303333D01*
X203636428Y-77350952D01*
X203445952Y-77350952D01*
X203350714Y-77398571D01*
X203303095Y-77446190D01*
X203255476Y-77541428D01*
X203255476Y-77731904D01*
X203303095Y-77827142D01*
X203350714Y-77874761D01*
X203445952Y-77922380D01*
X203636428Y-77922380D01*
X203731666Y-77874761D01*
X203779285Y-77827142D01*
X203826904Y-77731904D01*
X203826904Y-77541428D01*
X203779285Y-77446190D01*
X203731666Y-77398571D01*
X203636428Y-77350952D01*
G04 #@! TO.C,D19*
X216590714Y-84272380D02*
X216590714Y-83272380D01*
X216828809Y-83272380D01*
X216971666Y-83320000D01*
X217066904Y-83415238D01*
X217114523Y-83510476D01*
X217162142Y-83700952D01*
X217162142Y-83843809D01*
X217114523Y-84034285D01*
X217066904Y-84129523D01*
X216971666Y-84224761D01*
X216828809Y-84272380D01*
X216590714Y-84272380D01*
X218114523Y-84272380D02*
X217543095Y-84272380D01*
X217828809Y-84272380D02*
X217828809Y-83272380D01*
X217733571Y-83415238D01*
X217638333Y-83510476D01*
X217543095Y-83558095D01*
X218590714Y-84272380D02*
X218781190Y-84272380D01*
X218876428Y-84224761D01*
X218924047Y-84177142D01*
X219019285Y-84034285D01*
X219066904Y-83843809D01*
X219066904Y-83462857D01*
X219019285Y-83367619D01*
X218971666Y-83320000D01*
X218876428Y-83272380D01*
X218685952Y-83272380D01*
X218590714Y-83320000D01*
X218543095Y-83367619D01*
X218495476Y-83462857D01*
X218495476Y-83700952D01*
X218543095Y-83796190D01*
X218590714Y-83843809D01*
X218685952Y-83891428D01*
X218876428Y-83891428D01*
X218971666Y-83843809D01*
X219019285Y-83796190D01*
X219066904Y-83700952D01*
G04 #@! TO.C,D20*
X215320714Y-77922380D02*
X215320714Y-76922380D01*
X215558809Y-76922380D01*
X215701666Y-76970000D01*
X215796904Y-77065238D01*
X215844523Y-77160476D01*
X215892142Y-77350952D01*
X215892142Y-77493809D01*
X215844523Y-77684285D01*
X215796904Y-77779523D01*
X215701666Y-77874761D01*
X215558809Y-77922380D01*
X215320714Y-77922380D01*
X216273095Y-77017619D02*
X216320714Y-76970000D01*
X216415952Y-76922380D01*
X216654047Y-76922380D01*
X216749285Y-76970000D01*
X216796904Y-77017619D01*
X216844523Y-77112857D01*
X216844523Y-77208095D01*
X216796904Y-77350952D01*
X216225476Y-77922380D01*
X216844523Y-77922380D01*
X217463571Y-76922380D02*
X217558809Y-76922380D01*
X217654047Y-76970000D01*
X217701666Y-77017619D01*
X217749285Y-77112857D01*
X217796904Y-77303333D01*
X217796904Y-77541428D01*
X217749285Y-77731904D01*
X217701666Y-77827142D01*
X217654047Y-77874761D01*
X217558809Y-77922380D01*
X217463571Y-77922380D01*
X217368333Y-77874761D01*
X217320714Y-77827142D01*
X217273095Y-77731904D01*
X217225476Y-77541428D01*
X217225476Y-77303333D01*
X217273095Y-77112857D01*
X217320714Y-77017619D01*
X217368333Y-76970000D01*
X217463571Y-76922380D01*
G04 #@! TO.C,D21*
X230560714Y-84272380D02*
X230560714Y-83272380D01*
X230798809Y-83272380D01*
X230941666Y-83320000D01*
X231036904Y-83415238D01*
X231084523Y-83510476D01*
X231132142Y-83700952D01*
X231132142Y-83843809D01*
X231084523Y-84034285D01*
X231036904Y-84129523D01*
X230941666Y-84224761D01*
X230798809Y-84272380D01*
X230560714Y-84272380D01*
X231513095Y-83367619D02*
X231560714Y-83320000D01*
X231655952Y-83272380D01*
X231894047Y-83272380D01*
X231989285Y-83320000D01*
X232036904Y-83367619D01*
X232084523Y-83462857D01*
X232084523Y-83558095D01*
X232036904Y-83700952D01*
X231465476Y-84272380D01*
X232084523Y-84272380D01*
X233036904Y-84272380D02*
X232465476Y-84272380D01*
X232751190Y-84272380D02*
X232751190Y-83272380D01*
X232655952Y-83415238D01*
X232560714Y-83510476D01*
X232465476Y-83558095D01*
G04 #@! TO.C,D22*
X229290714Y-77922380D02*
X229290714Y-76922380D01*
X229528809Y-76922380D01*
X229671666Y-76970000D01*
X229766904Y-77065238D01*
X229814523Y-77160476D01*
X229862142Y-77350952D01*
X229862142Y-77493809D01*
X229814523Y-77684285D01*
X229766904Y-77779523D01*
X229671666Y-77874761D01*
X229528809Y-77922380D01*
X229290714Y-77922380D01*
X230243095Y-77017619D02*
X230290714Y-76970000D01*
X230385952Y-76922380D01*
X230624047Y-76922380D01*
X230719285Y-76970000D01*
X230766904Y-77017619D01*
X230814523Y-77112857D01*
X230814523Y-77208095D01*
X230766904Y-77350952D01*
X230195476Y-77922380D01*
X230814523Y-77922380D01*
X231195476Y-77017619D02*
X231243095Y-76970000D01*
X231338333Y-76922380D01*
X231576428Y-76922380D01*
X231671666Y-76970000D01*
X231719285Y-77017619D01*
X231766904Y-77112857D01*
X231766904Y-77208095D01*
X231719285Y-77350952D01*
X231147857Y-77922380D01*
X231766904Y-77922380D01*
G04 #@! TO.C,R19*
X172712142Y-81097380D02*
X172378809Y-80621190D01*
X172140714Y-81097380D02*
X172140714Y-80097380D01*
X172521666Y-80097380D01*
X172616904Y-80145000D01*
X172664523Y-80192619D01*
X172712142Y-80287857D01*
X172712142Y-80430714D01*
X172664523Y-80525952D01*
X172616904Y-80573571D01*
X172521666Y-80621190D01*
X172140714Y-80621190D01*
X173664523Y-81097380D02*
X173093095Y-81097380D01*
X173378809Y-81097380D02*
X173378809Y-80097380D01*
X173283571Y-80240238D01*
X173188333Y-80335476D01*
X173093095Y-80383095D01*
X174140714Y-81097380D02*
X174331190Y-81097380D01*
X174426428Y-81049761D01*
X174474047Y-81002142D01*
X174569285Y-80859285D01*
X174616904Y-80668809D01*
X174616904Y-80287857D01*
X174569285Y-80192619D01*
X174521666Y-80145000D01*
X174426428Y-80097380D01*
X174235952Y-80097380D01*
X174140714Y-80145000D01*
X174093095Y-80192619D01*
X174045476Y-80287857D01*
X174045476Y-80525952D01*
X174093095Y-80621190D01*
X174140714Y-80668809D01*
X174235952Y-80716428D01*
X174426428Y-80716428D01*
X174521666Y-80668809D01*
X174569285Y-80621190D01*
X174616904Y-80525952D01*
G04 #@! TO.C,R21*
X186682142Y-81097380D02*
X186348809Y-80621190D01*
X186110714Y-81097380D02*
X186110714Y-80097380D01*
X186491666Y-80097380D01*
X186586904Y-80145000D01*
X186634523Y-80192619D01*
X186682142Y-80287857D01*
X186682142Y-80430714D01*
X186634523Y-80525952D01*
X186586904Y-80573571D01*
X186491666Y-80621190D01*
X186110714Y-80621190D01*
X187063095Y-80192619D02*
X187110714Y-80145000D01*
X187205952Y-80097380D01*
X187444047Y-80097380D01*
X187539285Y-80145000D01*
X187586904Y-80192619D01*
X187634523Y-80287857D01*
X187634523Y-80383095D01*
X187586904Y-80525952D01*
X187015476Y-81097380D01*
X187634523Y-81097380D01*
X188586904Y-81097380D02*
X188015476Y-81097380D01*
X188301190Y-81097380D02*
X188301190Y-80097380D01*
X188205952Y-80240238D01*
X188110714Y-80335476D01*
X188015476Y-80383095D01*
G04 #@! TO.C,R23*
X200652142Y-81097380D02*
X200318809Y-80621190D01*
X200080714Y-81097380D02*
X200080714Y-80097380D01*
X200461666Y-80097380D01*
X200556904Y-80145000D01*
X200604523Y-80192619D01*
X200652142Y-80287857D01*
X200652142Y-80430714D01*
X200604523Y-80525952D01*
X200556904Y-80573571D01*
X200461666Y-80621190D01*
X200080714Y-80621190D01*
X201033095Y-80192619D02*
X201080714Y-80145000D01*
X201175952Y-80097380D01*
X201414047Y-80097380D01*
X201509285Y-80145000D01*
X201556904Y-80192619D01*
X201604523Y-80287857D01*
X201604523Y-80383095D01*
X201556904Y-80525952D01*
X200985476Y-81097380D01*
X201604523Y-81097380D01*
X201937857Y-80097380D02*
X202556904Y-80097380D01*
X202223571Y-80478333D01*
X202366428Y-80478333D01*
X202461666Y-80525952D01*
X202509285Y-80573571D01*
X202556904Y-80668809D01*
X202556904Y-80906904D01*
X202509285Y-81002142D01*
X202461666Y-81049761D01*
X202366428Y-81097380D01*
X202080714Y-81097380D01*
X201985476Y-81049761D01*
X201937857Y-81002142D01*
G04 #@! TO.C,R25*
X214622142Y-81097380D02*
X214288809Y-80621190D01*
X214050714Y-81097380D02*
X214050714Y-80097380D01*
X214431666Y-80097380D01*
X214526904Y-80145000D01*
X214574523Y-80192619D01*
X214622142Y-80287857D01*
X214622142Y-80430714D01*
X214574523Y-80525952D01*
X214526904Y-80573571D01*
X214431666Y-80621190D01*
X214050714Y-80621190D01*
X215003095Y-80192619D02*
X215050714Y-80145000D01*
X215145952Y-80097380D01*
X215384047Y-80097380D01*
X215479285Y-80145000D01*
X215526904Y-80192619D01*
X215574523Y-80287857D01*
X215574523Y-80383095D01*
X215526904Y-80525952D01*
X214955476Y-81097380D01*
X215574523Y-81097380D01*
X216479285Y-80097380D02*
X216003095Y-80097380D01*
X215955476Y-80573571D01*
X216003095Y-80525952D01*
X216098333Y-80478333D01*
X216336428Y-80478333D01*
X216431666Y-80525952D01*
X216479285Y-80573571D01*
X216526904Y-80668809D01*
X216526904Y-80906904D01*
X216479285Y-81002142D01*
X216431666Y-81049761D01*
X216336428Y-81097380D01*
X216098333Y-81097380D01*
X216003095Y-81049761D01*
X215955476Y-81002142D01*
G04 #@! TO.C,R27*
X228592142Y-81097380D02*
X228258809Y-80621190D01*
X228020714Y-81097380D02*
X228020714Y-80097380D01*
X228401666Y-80097380D01*
X228496904Y-80145000D01*
X228544523Y-80192619D01*
X228592142Y-80287857D01*
X228592142Y-80430714D01*
X228544523Y-80525952D01*
X228496904Y-80573571D01*
X228401666Y-80621190D01*
X228020714Y-80621190D01*
X228973095Y-80192619D02*
X229020714Y-80145000D01*
X229115952Y-80097380D01*
X229354047Y-80097380D01*
X229449285Y-80145000D01*
X229496904Y-80192619D01*
X229544523Y-80287857D01*
X229544523Y-80383095D01*
X229496904Y-80525952D01*
X228925476Y-81097380D01*
X229544523Y-81097380D01*
X229877857Y-80097380D02*
X230544523Y-80097380D01*
X230115952Y-81097380D01*
G04 #@! TD*
M02*
